<svg width="42" height="42" viewBox="0 0 42 42" fill="none" xmlns="http://www.w3.org/2000/svg">
<g clip-path="url(#clip0_1151_37798)">
<path d="M21 0C9.4 0 0 9.4 0 21C0 32.6 9.4 42 21 42C32.6 42 42 32.6 42 21C42 9.4 32.6 0 21 0Z" fill="white"/>
<path d="M30.9994 15.1L28.9994 17.1L24.8994 13L23.3994 14.5L27.4994 18.6L17.4994 28.6L13.3994 24.5L11.8994 26L15.9994 30.1L14.9994 31.1C14.8994 31.3 14.6994 31.4 14.4994 31.5L10.6994 32.3C10.5994 32.3 10.5994 32.3 10.4994 32.3C10.2994 32.3 10.0994 32.2 9.89939 32.1C9.69939 31.9 9.59939 31.6 9.69939 31.4L10.4994 27.6C10.4994 27.4 10.6994 27.2 10.8994 27.1L26.8994 11.1C27.0994 10.9 27.4994 10.9 27.7994 11.1L30.9994 14.3C31.1994 14.5 31.1994 14.9 30.9994 15.1Z" fill="#3C079D"/>
</g>
<defs>
<clipPath id="clip0_1151_37798">
<rect width="42" height="42" fill="white"/>
</clipPath>
</defs>
</svg>
