<svg width="18" height="20" viewBox="0 0 18 20" fill="none" xmlns="http://www.w3.org/2000/svg">
<path d="M8.78206 3.18182C9.28413 3.18182 9.69115 3.58883 9.69115 4.09091V9.47514L13.9604 11.94C14.3952 12.191 14.5442 12.747 14.2931 13.1818C14.0421 13.6166 13.4861 13.7656 13.0513 13.5146L8.78206 11.0497L4.51283 13.5146C4.07802 13.7656 3.52203 13.6166 3.27099 13.1818C3.01995 12.747 3.16893 12.191 3.60374 11.94L7.87296 9.47514V4.09091C7.87296 3.58883 8.27998 3.18182 8.78206 3.18182Z" fill="#3C079D"/>
<path d="M5.39846 7.09412C5.83327 6.84308 5.98225 6.28709 5.73121 5.85227C5.48017 5.41746 4.92418 5.26848 4.48937 5.51952L3.21001 6.25816C2.92873 6.42055 2.75546 6.72067 2.75546 7.04545V8.52273C2.75546 9.0248 3.16247 9.43182 3.66455 9.43182C4.16663 9.43182 4.57364 9.0248 4.57364 8.52273V7.57032L5.39846 7.09412Z" fill="#3C079D"/>
<path d="M13.0746 5.51952C12.6398 5.26848 12.0838 5.41746 11.8328 5.85227C11.5817 6.28709 11.7307 6.84308 12.1655 7.09412L12.9903 7.57032V8.52273C12.9903 9.0248 13.3973 9.43182 13.8994 9.43182C14.4015 9.43182 14.8085 9.0248 14.8085 8.52273V7.04545C14.8085 6.72067 14.6352 6.42055 14.354 6.25816L13.0746 5.51952Z" fill="#3C079D"/>
<path d="M7.95714 14.3832C7.52233 14.1321 6.96634 14.2811 6.7153 14.7159C6.46426 15.1507 6.61324 15.7067 7.04805 15.9578L8.32742 16.6964C8.60869 16.8588 8.95523 16.8588 9.2365 16.6964L10.5159 15.9578C10.9507 15.7067 11.0997 15.1507 10.8486 14.7159C10.5976 14.2811 10.0416 14.1321 9.60678 14.3832L8.78196 14.8594L7.95714 14.3832Z" fill="#3C079D"/>
<path fill-rule="evenodd" clip-rule="evenodd" d="M8.32751 0.121794C8.60878 -0.040598 8.95532 -0.040598 9.23659 0.121794L13.1731 2.39452L17.1096 4.66725C17.3908 4.82964 17.5641 5.12976 17.5641 5.45455V14.5455C17.5641 14.8702 17.3908 15.1704 17.1096 15.3327L9.23659 19.8782C8.95532 20.0406 8.60878 20.0406 8.32751 19.8782L0.454544 15.3327C0.173271 15.1704 0 14.8702 0 14.5455V5.45455C0 5.12976 0.173271 4.82964 0.454544 4.66725L8.32751 0.121794ZM8.78205 1.95882L1.81818 5.97941V14.0206L8.78205 18.0412L15.7459 14.0206V5.97941L8.78205 1.95882Z" fill="#3C079D"/>
</svg>
