<svg width="19" height="20" viewBox="0 0 19 20" fill="none" xmlns="http://www.w3.org/2000/svg">
<path d="M9.21775 15.3911C9.69047 15.3911 10.0801 15.747 10.1333 16.2054L10.1395 16.3129V19.0782C10.1395 19.5873 9.72683 20 9.21775 20C8.74503 20 8.35542 19.6442 8.30218 19.1857L8.29598 19.0782V16.3129C8.29598 15.8038 8.70867 15.3911 9.21775 15.3911ZM5.53065 16.3129C6.00337 16.3129 6.39298 16.6687 6.44622 17.1272L6.45243 17.2347V18.1565C6.45243 18.6655 6.03973 19.0782 5.53065 19.0782C5.05793 19.0782 4.66832 18.7224 4.61508 18.2639L4.60888 18.1565V17.2347C4.60888 16.7256 5.02157 16.3129 5.53065 16.3129ZM12.9049 16.3129C13.3776 16.3129 13.7672 16.6687 13.8204 17.1272L13.8266 17.2347V18.1565C13.8266 18.6655 13.4139 19.0782 12.9049 19.0782C12.4321 19.0782 12.0425 18.7224 11.9893 18.2639L11.9831 18.1565V17.2347C11.9831 16.7256 12.3958 16.3129 12.9049 16.3129ZM7.93948 0.38703C8.71353 -0.129006 9.72194 -0.129006 10.496 0.387007L11.155 0.826375C13.7737 2.57211 15.4215 5.4255 15.6443 8.53776L18.177 11.1641C18.3152 11.3073 18.4026 11.4905 18.4279 11.6858L18.4355 11.8042V14.0085C18.4355 14.4812 18.0797 14.8708 17.6212 14.924L17.5137 14.9302H0.921775C0.449056 14.9302 0.0594479 14.5744 0.00620146 14.116L0 14.0085V11.8042C0 11.6052 0.0643528 11.4127 0.181765 11.2546L0.258488 11.1641L2.79124 8.53776C3.01402 5.4255 4.66185 2.57211 7.28046 0.826374L7.93948 0.38703ZM2.76533 11.2208L1.84355 12.176V13.0867L2.76533 13.0864V11.2208ZM9.47349 1.92098C9.31862 1.81774 9.11692 1.81774 8.9621 1.92096L8.30307 2.3603C5.99514 3.89892 4.60888 6.48918 4.60888 9.26298V13.0867H13.8266V9.26298C13.8266 6.58164 12.5312 4.07181 10.3601 2.51762L10.1324 2.36029L9.47349 1.92098ZM15.6702 11.2217V13.0864L16.592 13.0867V12.1769L15.6702 11.2217ZM9.21775 4.32982C11.2541 4.32982 12.9049 5.98058 12.9049 8.01692C12.9049 10.0533 11.2541 11.704 9.21775 11.704C7.18141 11.704 5.53065 10.0533 5.53065 8.01692C5.53065 5.9806 7.18143 4.32982 9.21775 4.32982ZM9.21775 6.17337C8.19959 6.17337 7.3742 6.99876 7.3742 8.01692C7.3742 9.03511 8.19957 9.86047 9.21775 9.86047C10.236 9.86047 11.0613 9.03513 11.0613 8.01692C11.0613 6.99874 10.2359 6.17337 9.21775 6.17337Z" fill="#3C079D"/>
</svg>
