<svg width="20" height="19" viewBox="0 0 20 19" fill="none" xmlns="http://www.w3.org/2000/svg">
<path fill-rule="evenodd" clip-rule="evenodd" d="M9.4321 0.199209C9.76411 -0.0664032 10.2359 -0.0664032 10.5679 0.199209L17.3859 5.65359C17.3859 5.65364 17.3858 5.65354 17.3859 5.65359L19.6588 7.47191C20.0508 7.78556 20.1144 8.35764 19.8008 8.74969C19.4871 9.14175 18.915 9.20531 18.523 8.89167L17.7272 8.25508V17.2727C17.7272 17.7747 17.3202 18.1818 16.8182 18.1818H3.18184C2.67977 18.1818 2.27275 17.7747 2.27275 17.2727V8.25508L1.47702 8.89167C1.08497 9.20531 0.512887 9.14175 0.199243 8.74969C-0.114401 8.35764 -0.0508363 7.78556 0.341219 7.47191L2.61394 5.65374C2.61403 5.65366 2.61385 5.65381 2.61394 5.65374L9.4321 0.199209ZM4.09093 6.80054L10 2.07329L15.9091 6.80054V16.3636H13.1818V11.3636C13.1818 10.8615 12.7748 10.4545 12.2727 10.4545H7.72728C7.2252 10.4545 6.81819 10.8615 6.81819 11.3636V16.3636H4.09093V6.80054ZM8.63637 16.3636H11.3636V12.2727H8.63637V16.3636Z" fill="#3C079D"/>
</svg>
