<svg width="172" height="96" viewBox="0 0 172 96" fill="none" xmlns="http://www.w3.org/2000/svg">
<path d="M93.9069 51.0159C93.9413 51.0846 93.9584 51.1475 93.9584 51.2047C93.9584 51.3076 93.9184 51.3991 93.8383 51.4792C93.7697 51.5478 93.6839 51.5822 93.5809 51.5822H90.0636C89.8348 51.5822 89.6632 51.525 89.5488 51.4106C89.4344 51.2962 89.3601 51.199 89.3258 51.1189L87.8502 47.8417H87.1467V51.1189C87.1467 51.2447 87.101 51.3534 87.0095 51.4449C86.9179 51.5364 86.8093 51.5822 86.6835 51.5822H83.3205C83.1947 51.5822 83.086 51.5364 82.9945 51.4449C82.903 51.3534 82.8572 51.2447 82.8572 51.1189V40.0349C82.8572 39.909 82.903 39.8004 82.9945 39.7089C83.086 39.6174 83.1947 39.5716 83.3205 39.5716H88.3992C89.2228 39.5716 89.9606 39.6688 90.6126 39.8633C91.2646 40.0463 91.8137 40.3208 92.2598 40.6869C92.7059 41.0415 93.049 41.4761 93.2893 41.9909C93.5295 42.5056 93.6496 43.089 93.6496 43.741C93.6496 44.5188 93.478 45.188 93.1348 45.7485C92.7917 46.309 92.3456 46.7608 91.7965 47.1039L93.9069 51.0159ZM87.1467 44.5817H88.3992C88.6623 44.5817 88.8568 44.4959 88.9826 44.3244C89.1199 44.1413 89.1885 43.9354 89.1885 43.7067C89.1885 43.4779 89.1256 43.2663 88.9998 43.0718C88.8854 42.8659 88.6852 42.763 88.3992 42.763H87.1467V44.5817ZM104.642 48.2364C104.768 48.2364 104.877 48.2821 104.968 48.3736C105.06 48.4651 105.106 48.5738 105.106 48.6996V51.1189C105.106 51.2447 105.06 51.3534 104.968 51.4449C104.877 51.5364 104.768 51.5822 104.642 51.5822H95.703C95.5772 51.5822 95.4685 51.5364 95.377 51.4449C95.2855 51.3534 95.2398 51.2447 95.2398 51.1189V40.0349C95.2398 39.909 95.2855 39.8004 95.377 39.7089C95.4685 39.6174 95.5772 39.5716 95.703 39.5716H104.505C104.631 39.5716 104.74 39.6174 104.831 39.7089C104.923 39.8004 104.968 39.909 104.968 40.0349V42.4541C104.968 42.58 104.923 42.6886 104.831 42.7801C104.74 42.8716 104.631 42.9174 104.505 42.9174H99.3577V43.9984H104.128C104.253 43.9984 104.362 44.0441 104.454 44.1356C104.545 44.2271 104.591 44.3358 104.591 44.4616V46.6921C104.591 46.818 104.545 46.9266 104.454 47.0181C104.362 47.1097 104.253 47.1554 104.128 47.1554H99.3577V48.2364H104.642ZM115.795 39.5716C115.921 39.5716 116.029 39.6174 116.121 39.7089C116.212 39.8004 116.258 39.909 116.258 40.0349V42.6429C116.258 42.7687 116.212 42.8774 116.121 42.9689C116.029 43.0604 115.921 43.1061 115.795 43.1061H110.888V44.3758H115.452C115.577 44.3758 115.686 44.4216 115.778 44.5131C115.869 44.6046 115.915 44.7133 115.915 44.8391V47.4299C115.915 47.5558 115.869 47.6644 115.778 47.7559C115.686 47.8474 115.577 47.8932 115.452 47.8932H110.888V51.1189C110.888 51.2447 110.842 51.3534 110.75 51.4449C110.659 51.5364 110.55 51.5822 110.424 51.5822H107.147C107.021 51.5822 106.913 51.5364 106.821 51.4449C106.73 51.3534 106.684 51.2447 106.684 51.1189V40.0349C106.684 39.909 106.73 39.8004 106.821 39.7089C106.913 39.6174 107.021 39.5716 107.147 39.5716H115.795ZM118.24 51.5822C118.114 51.5822 118.005 51.5364 117.914 51.4449C117.822 51.3534 117.776 51.2447 117.776 51.1189V40.0349C117.776 39.909 117.822 39.8004 117.914 39.7089C118.005 39.6174 118.114 39.5716 118.24 39.5716H121.74C121.866 39.5716 121.974 39.6174 122.066 39.7089C122.157 39.8004 122.203 39.909 122.203 40.0349V51.1189C122.203 51.2447 122.157 51.3534 122.066 51.4449C121.974 51.5364 121.866 51.5822 121.74 51.5822H118.24ZM134.439 39.5716C134.565 39.5716 134.674 39.6174 134.765 39.7089C134.857 39.8004 134.903 39.909 134.903 40.0349V51.1189C134.903 51.2447 134.857 51.3534 134.765 51.4449C134.674 51.5364 134.565 51.5822 134.439 51.5822H131.728C131.5 51.5822 131.334 51.5307 131.231 51.4277C131.128 51.3248 131.059 51.2447 131.025 51.1875L128.125 46.8123V51.1189C128.125 51.2447 128.08 51.3534 127.988 51.4449C127.897 51.5364 127.788 51.5822 127.662 51.5822H124.556C124.431 51.5822 124.322 51.5364 124.23 51.4449C124.139 51.3534 124.093 51.2447 124.093 51.1189V40.0349C124.093 39.909 124.139 39.8004 124.23 39.7089C124.322 39.6174 124.431 39.5716 124.556 39.5716H127.267C127.496 39.5716 127.662 39.6231 127.765 39.726C127.868 39.829 127.937 39.909 127.971 39.9662L130.871 44.719V40.0349C130.871 39.909 130.916 39.8004 131.008 39.7089C131.099 39.6174 131.208 39.5716 131.334 39.5716H134.439ZM146.197 48.2364C146.322 48.2364 146.431 48.2821 146.523 48.3736C146.614 48.4651 146.66 48.5738 146.66 48.6996V51.1189C146.66 51.2447 146.614 51.3534 146.523 51.4449C146.431 51.5364 146.322 51.5822 146.197 51.5822H137.257C137.132 51.5822 137.023 51.5364 136.931 51.4449C136.84 51.3534 136.794 51.2447 136.794 51.1189V40.0349C136.794 39.909 136.84 39.8004 136.931 39.7089C137.023 39.6174 137.132 39.5716 137.257 39.5716H146.059C146.185 39.5716 146.294 39.6174 146.385 39.7089C146.477 39.8004 146.523 39.909 146.523 40.0349V42.4541C146.523 42.58 146.477 42.6886 146.385 42.7801C146.294 42.8716 146.185 42.9174 146.059 42.9174H140.912V43.9984H145.682C145.808 43.9984 145.916 44.0441 146.008 44.1356C146.099 44.2271 146.145 44.3358 146.145 44.4616V46.6921C146.145 46.818 146.099 46.9266 146.008 47.0181C145.916 47.1097 145.808 47.1554 145.682 47.1554H140.912V48.2364H146.197ZM159.288 51.0159C159.322 51.0846 159.339 51.1475 159.339 51.2047C159.339 51.3076 159.299 51.3991 159.219 51.4792C159.151 51.5478 159.065 51.5822 158.962 51.5822H155.445C155.216 51.5822 155.044 51.525 154.93 51.4106C154.816 51.2962 154.741 51.199 154.707 51.1189L153.231 47.8417H152.528V51.1189C152.528 51.2447 152.482 51.3534 152.391 51.4449C152.299 51.5364 152.19 51.5822 152.065 51.5822H148.702C148.576 51.5822 148.467 51.5364 148.376 51.4449C148.284 51.3534 148.238 51.2447 148.238 51.1189V40.0349C148.238 39.909 148.284 39.8004 148.376 39.7089C148.467 39.6174 148.576 39.5716 148.702 39.5716H153.78C154.604 39.5716 155.342 39.6688 155.994 39.8633C156.646 40.0463 157.195 40.3208 157.641 40.6869C158.087 41.0415 158.43 41.4761 158.67 41.9909C158.911 42.5056 159.031 43.089 159.031 43.741C159.031 44.5188 158.859 45.188 158.516 45.7485C158.173 46.309 157.727 46.7608 157.178 47.1039L159.288 51.0159ZM152.528 44.5817H153.78C154.043 44.5817 154.238 44.4959 154.364 44.3244C154.501 44.1413 154.57 43.9354 154.57 43.7067C154.57 43.4779 154.507 43.2663 154.381 43.0718C154.266 42.8659 154.066 42.763 153.78 42.763H152.528V44.5817ZM163.567 51.5822C163.441 51.5822 163.333 51.5364 163.241 51.4449C163.15 51.3534 163.104 51.2447 163.104 51.1189V47.7388L159.243 40.1035C159.221 40.0577 159.209 40.0063 159.209 39.9491C159.209 39.8461 159.243 39.7603 159.312 39.6917C159.392 39.6116 159.484 39.5716 159.587 39.5716H162.812C163.041 39.5716 163.213 39.6288 163.327 39.7432C163.441 39.8576 163.51 39.9434 163.533 40.0006L165.249 43.4493L166.965 40.0006C166.987 39.9434 167.056 39.8576 167.17 39.7432C167.285 39.6288 167.456 39.5716 167.685 39.5716H170.911C171.014 39.5716 171.1 39.6116 171.168 39.6917C171.248 39.7603 171.288 39.8461 171.288 39.9491C171.288 40.0063 171.277 40.0577 171.254 40.1035L167.394 47.7388V51.1189C167.394 51.2447 167.348 51.3534 167.256 51.4449C167.165 51.5364 167.056 51.5822 166.93 51.5822H163.567Z" fill="#3C079D"/>
<path d="M93.9069 51.0159C93.9413 51.0846 93.9584 51.1475 93.9584 51.2047C93.9584 51.3076 93.9184 51.3991 93.8383 51.4792C93.7697 51.5478 93.6839 51.5822 93.5809 51.5822H90.0636C89.8348 51.5822 89.6632 51.525 89.5488 51.4106C89.4344 51.2962 89.3601 51.199 89.3258 51.1189L87.8502 47.8417H87.1467V51.1189C87.1467 51.2447 87.101 51.3534 87.0095 51.4449C86.9179 51.5364 86.8093 51.5822 86.6835 51.5822H83.3205C83.1947 51.5822 83.086 51.5364 82.9945 51.4449C82.903 51.3534 82.8572 51.2447 82.8572 51.1189V40.0349C82.8572 39.909 82.903 39.8004 82.9945 39.7089C83.086 39.6174 83.1947 39.5716 83.3205 39.5716H88.3992C89.2228 39.5716 89.9606 39.6688 90.6126 39.8633C91.2646 40.0463 91.8137 40.3208 92.2598 40.6869C92.7059 41.0415 93.049 41.4761 93.2893 41.9909C93.5295 42.5056 93.6496 43.089 93.6496 43.741C93.6496 44.5188 93.478 45.188 93.1348 45.7485C92.7917 46.309 92.3456 46.7608 91.7965 47.1039L93.9069 51.0159ZM87.1467 44.5817H88.3992C88.6623 44.5817 88.8568 44.4959 88.9826 44.3244C89.1199 44.1413 89.1885 43.9354 89.1885 43.7067C89.1885 43.4779 89.1256 43.2663 88.9998 43.0718C88.8854 42.8659 88.6852 42.763 88.3992 42.763H87.1467V44.5817ZM104.642 48.2364C104.768 48.2364 104.877 48.2821 104.968 48.3736C105.06 48.4651 105.106 48.5738 105.106 48.6996V51.1189C105.106 51.2447 105.06 51.3534 104.968 51.4449C104.877 51.5364 104.768 51.5822 104.642 51.5822H95.703C95.5772 51.5822 95.4685 51.5364 95.377 51.4449C95.2855 51.3534 95.2398 51.2447 95.2398 51.1189V40.0349C95.2398 39.909 95.2855 39.8004 95.377 39.7089C95.4685 39.6174 95.5772 39.5716 95.703 39.5716H104.505C104.631 39.5716 104.74 39.6174 104.831 39.7089C104.923 39.8004 104.968 39.909 104.968 40.0349V42.4541C104.968 42.58 104.923 42.6886 104.831 42.7801C104.74 42.8716 104.631 42.9174 104.505 42.9174H99.3577V43.9984H104.128C104.253 43.9984 104.362 44.0441 104.454 44.1356C104.545 44.2271 104.591 44.3358 104.591 44.4616V46.6921C104.591 46.818 104.545 46.9266 104.454 47.0181C104.362 47.1097 104.253 47.1554 104.128 47.1554H99.3577V48.2364H104.642ZM115.795 39.5716C115.921 39.5716 116.029 39.6174 116.121 39.7089C116.212 39.8004 116.258 39.909 116.258 40.0349V42.6429C116.258 42.7687 116.212 42.8774 116.121 42.9689C116.029 43.0604 115.921 43.1061 115.795 43.1061H110.888V44.3758H115.452C115.577 44.3758 115.686 44.4216 115.778 44.5131C115.869 44.6046 115.915 44.7133 115.915 44.8391V47.4299C115.915 47.5558 115.869 47.6644 115.778 47.7559C115.686 47.8474 115.577 47.8932 115.452 47.8932H110.888V51.1189C110.888 51.2447 110.842 51.3534 110.75 51.4449C110.659 51.5364 110.55 51.5822 110.424 51.5822H107.147C107.021 51.5822 106.913 51.5364 106.821 51.4449C106.73 51.3534 106.684 51.2447 106.684 51.1189V40.0349C106.684 39.909 106.73 39.8004 106.821 39.7089C106.913 39.6174 107.021 39.5716 107.147 39.5716H115.795ZM118.24 51.5822C118.114 51.5822 118.005 51.5364 117.914 51.4449C117.822 51.3534 117.776 51.2447 117.776 51.1189V40.0349C117.776 39.909 117.822 39.8004 117.914 39.7089C118.005 39.6174 118.114 39.5716 118.24 39.5716H121.74C121.866 39.5716 121.974 39.6174 122.066 39.7089C122.157 39.8004 122.203 39.909 122.203 40.0349V51.1189C122.203 51.2447 122.157 51.3534 122.066 51.4449C121.974 51.5364 121.866 51.5822 121.74 51.5822H118.24ZM134.439 39.5716C134.565 39.5716 134.674 39.6174 134.765 39.7089C134.857 39.8004 134.903 39.909 134.903 40.0349V51.1189C134.903 51.2447 134.857 51.3534 134.765 51.4449C134.674 51.5364 134.565 51.5822 134.439 51.5822H131.728C131.5 51.5822 131.334 51.5307 131.231 51.4277C131.128 51.3248 131.059 51.2447 131.025 51.1875L128.125 46.8123V51.1189C128.125 51.2447 128.08 51.3534 127.988 51.4449C127.897 51.5364 127.788 51.5822 127.662 51.5822H124.556C124.431 51.5822 124.322 51.5364 124.23 51.4449C124.139 51.3534 124.093 51.2447 124.093 51.1189V40.0349C124.093 39.909 124.139 39.8004 124.23 39.7089C124.322 39.6174 124.431 39.5716 124.556 39.5716H127.267C127.496 39.5716 127.662 39.6231 127.765 39.726C127.868 39.829 127.937 39.909 127.971 39.9662L130.871 44.719V40.0349C130.871 39.909 130.916 39.8004 131.008 39.7089C131.099 39.6174 131.208 39.5716 131.334 39.5716H134.439ZM146.197 48.2364C146.322 48.2364 146.431 48.2821 146.523 48.3736C146.614 48.4651 146.66 48.5738 146.66 48.6996V51.1189C146.66 51.2447 146.614 51.3534 146.523 51.4449C146.431 51.5364 146.322 51.5822 146.197 51.5822H137.257C137.132 51.5822 137.023 51.5364 136.931 51.4449C136.84 51.3534 136.794 51.2447 136.794 51.1189V40.0349C136.794 39.909 136.84 39.8004 136.931 39.7089C137.023 39.6174 137.132 39.5716 137.257 39.5716H146.059C146.185 39.5716 146.294 39.6174 146.385 39.7089C146.477 39.8004 146.523 39.909 146.523 40.0349V42.4541C146.523 42.58 146.477 42.6886 146.385 42.7801C146.294 42.8716 146.185 42.9174 146.059 42.9174H140.912V43.9984H145.682C145.808 43.9984 145.916 44.0441 146.008 44.1356C146.099 44.2271 146.145 44.3358 146.145 44.4616V46.6921C146.145 46.818 146.099 46.9266 146.008 47.0181C145.916 47.1097 145.808 47.1554 145.682 47.1554H140.912V48.2364H146.197ZM159.288 51.0159C159.322 51.0846 159.339 51.1475 159.339 51.2047C159.339 51.3076 159.299 51.3991 159.219 51.4792C159.151 51.5478 159.065 51.5822 158.962 51.5822H155.445C155.216 51.5822 155.044 51.525 154.93 51.4106C154.816 51.2962 154.741 51.199 154.707 51.1189L153.231 47.8417H152.528V51.1189C152.528 51.2447 152.482 51.3534 152.391 51.4449C152.299 51.5364 152.19 51.5822 152.065 51.5822H148.702C148.576 51.5822 148.467 51.5364 148.376 51.4449C148.284 51.3534 148.238 51.2447 148.238 51.1189V40.0349C148.238 39.909 148.284 39.8004 148.376 39.7089C148.467 39.6174 148.576 39.5716 148.702 39.5716H153.78C154.604 39.5716 155.342 39.6688 155.994 39.8633C156.646 40.0463 157.195 40.3208 157.641 40.6869C158.087 41.0415 158.43 41.4761 158.67 41.9909C158.911 42.5056 159.031 43.089 159.031 43.741C159.031 44.5188 158.859 45.188 158.516 45.7485C158.173 46.309 157.727 46.7608 157.178 47.1039L159.288 51.0159ZM152.528 44.5817H153.78C154.043 44.5817 154.238 44.4959 154.364 44.3244C154.501 44.1413 154.57 43.9354 154.57 43.7067C154.57 43.4779 154.507 43.2663 154.381 43.0718C154.266 42.8659 154.066 42.763 153.78 42.763H152.528V44.5817ZM163.567 51.5822C163.441 51.5822 163.333 51.5364 163.241 51.4449C163.15 51.3534 163.104 51.2447 163.104 51.1189V47.7388L159.243 40.1035C159.221 40.0577 159.209 40.0063 159.209 39.9491C159.209 39.8461 159.243 39.7603 159.312 39.6917C159.392 39.6116 159.484 39.5716 159.587 39.5716H162.812C163.041 39.5716 163.213 39.6288 163.327 39.7432C163.441 39.8576 163.51 39.9434 163.533 40.0006L165.249 43.4493L166.965 40.0006C166.987 39.9434 167.056 39.8576 167.17 39.7432C167.285 39.6288 167.456 39.5716 167.685 39.5716H170.911C171.014 39.5716 171.1 39.6116 171.168 39.6917C171.248 39.7603 171.288 39.8461 171.288 39.9491C171.288 40.0063 171.277 40.0577 171.254 40.1035L167.394 47.7388V51.1189C167.394 51.2447 167.348 51.3534 167.256 51.4449C167.165 51.5364 167.056 51.5822 166.93 51.5822H163.567Z" fill="url(#paint0_linear)" fill-opacity="0.33"/>
<path d="M91.4688 53.0159C91.5946 53.0159 91.7033 53.0617 91.7948 53.1532C91.8863 53.2447 91.932 53.3534 91.932 53.4792V55.2979C91.932 55.4238 91.8863 55.5324 91.7948 55.6239C91.7033 55.7155 91.5946 55.7612 91.4688 55.7612H86.3385V58.1118H91.1256C91.2514 58.1118 91.3601 58.1576 91.4516 58.2491C91.5431 58.3406 91.5889 58.4493 91.5889 58.5751V60.3939C91.5889 60.5197 91.5431 60.6283 91.4516 60.7199C91.3601 60.8114 91.2514 60.8571 91.1256 60.8571H86.3385V64.5632C86.3385 64.6891 86.2928 64.7977 86.2013 64.8892C86.1098 64.9807 86.0011 65.0265 85.8753 65.0265H83.6276C83.5018 65.0265 83.3931 64.9807 83.3016 64.8892C83.2101 64.7977 83.1643 64.6891 83.1643 64.5632V53.4792C83.1643 53.3534 83.2101 53.2447 83.3016 53.1532C83.3931 53.0617 83.5018 53.0159 83.6276 53.0159H91.4688ZM94.2173 65.0265C94.0914 65.0265 93.9828 64.9807 93.8913 64.8892C93.7997 64.7977 93.754 64.6891 93.754 64.5632V53.4792C93.754 53.3534 93.7997 53.2447 93.8913 53.1532C93.9828 53.0617 94.0914 53.0159 94.2173 53.0159H96.4649C96.5908 53.0159 96.6994 53.0617 96.7909 53.1532C96.8824 53.2447 96.9282 53.3534 96.9282 53.4792V64.5632C96.9282 64.6891 96.8824 64.7977 96.7909 64.8892C96.6994 64.9807 96.5908 65.0265 96.4649 65.0265H94.2173ZM107.141 65.0265C106.946 65.0265 106.786 64.975 106.66 64.8721C106.546 64.7691 106.471 64.6891 106.437 64.6319L102.508 58.7638V64.5632C102.508 64.6891 102.462 64.7977 102.371 64.8892C102.279 64.9807 102.17 65.0265 102.045 65.0265H99.7969C99.6711 65.0265 99.5624 64.9807 99.4709 64.8892C99.3794 64.7977 99.3337 64.6891 99.3337 64.5632V53.4792C99.3337 53.3534 99.3794 53.2447 99.4709 53.1532C99.5624 53.0617 99.6711 53.0159 99.7969 53.0159H101.581C101.776 53.0159 101.93 53.0674 102.045 53.1704C102.17 53.2733 102.251 53.3534 102.285 53.4106L106.214 59.2786V53.4792C106.214 53.3534 106.26 53.2447 106.351 53.1532C106.443 53.0617 106.551 53.0159 106.677 53.0159H108.925C109.051 53.0159 109.159 53.0617 109.251 53.1532C109.342 53.2447 109.388 53.3534 109.388 53.4792V64.5632C109.388 64.6891 109.342 64.7977 109.251 64.8892C109.159 64.9807 109.051 65.0265 108.925 65.0265H107.141ZM118.132 53.0159C118.36 53.0159 118.532 53.0789 118.646 53.2047C118.772 53.3305 118.858 53.4563 118.904 53.5822L122.644 64.3916C122.69 64.506 122.713 64.5918 122.713 64.649C122.713 64.752 122.673 64.8435 122.593 64.9235C122.524 64.9922 122.438 65.0265 122.335 65.0265H120.173C119.945 65.0265 119.779 64.9807 119.676 64.8892C119.584 64.7863 119.527 64.6891 119.504 64.5975L119.024 63.1734H114.46L113.979 64.5975C113.957 64.6891 113.894 64.7863 113.791 64.8892C113.699 64.9807 113.539 65.0265 113.31 65.0265H111.148C111.045 65.0265 110.954 64.9922 110.874 64.9235C110.805 64.8435 110.771 64.752 110.771 64.649C110.771 64.5918 110.794 64.506 110.84 64.3916L114.58 53.5822C114.626 53.4563 114.706 53.3305 114.82 53.2047C114.946 53.0789 115.123 53.0159 115.352 53.0159H118.132ZM115.352 60.514H118.132L116.742 56.3961L115.352 60.514ZM131.906 65.0265C131.711 65.0265 131.551 64.975 131.425 64.8721C131.311 64.7691 131.236 64.6891 131.202 64.6319L127.273 58.7638V64.5632C127.273 64.6891 127.227 64.7977 127.136 64.8892C127.044 64.9807 126.935 65.0265 126.81 65.0265H124.562C124.436 65.0265 124.327 64.9807 124.236 64.8892C124.144 64.7977 124.099 64.6891 124.099 64.5632V53.4792C124.099 53.3534 124.144 53.2447 124.236 53.1532C124.327 53.0617 124.436 53.0159 124.562 53.0159H126.346C126.541 53.0159 126.695 53.0674 126.81 53.1704C126.935 53.2733 127.016 53.3534 127.05 53.4106L130.979 59.2786V53.4792C130.979 53.3534 131.025 53.2447 131.116 53.1532C131.208 53.0617 131.316 53.0159 131.442 53.0159H133.69C133.816 53.0159 133.924 53.0617 134.016 53.1532C134.107 53.2447 134.153 53.3534 134.153 53.4792V64.5632C134.153 64.6891 134.107 64.7977 134.016 64.8892C133.924 64.9807 133.816 65.0265 133.69 65.0265H131.906ZM139.311 57.58C139.299 57.7287 139.288 57.9345 139.276 58.1976C139.276 58.4607 139.276 58.7353 139.276 59.0212C139.276 59.2957 139.276 59.5703 139.276 59.8448C139.288 60.1079 139.299 60.3138 139.311 60.4625C139.334 60.7256 139.385 60.9772 139.465 61.2174C139.545 61.4576 139.671 61.6693 139.843 61.8523C140.014 62.0353 140.231 62.184 140.495 62.2984C140.758 62.4013 141.084 62.4528 141.473 62.4528C141.861 62.4528 142.182 62.407 142.433 62.3155C142.685 62.224 142.891 62.1154 143.051 61.9895C143.211 61.8523 143.331 61.7036 143.411 61.5434C143.503 61.3833 143.572 61.2346 143.617 61.0973C143.675 60.9143 143.737 60.7885 143.806 60.7199C143.875 60.6398 144.006 60.5997 144.201 60.5997H146.448C146.551 60.5997 146.637 60.6398 146.706 60.7199C146.786 60.7885 146.826 60.8743 146.826 60.9772C146.814 61.5606 146.671 62.1096 146.397 62.6244C146.122 63.1391 145.745 63.5852 145.264 63.9627C144.784 64.3402 144.218 64.6433 143.566 64.8721C142.925 65.0894 142.228 65.1981 141.473 65.1981C140.649 65.1981 139.911 65.078 139.259 64.8378C138.619 64.5861 138.07 64.2487 137.612 63.8254C137.155 63.4022 136.8 62.9103 136.548 62.3499C136.308 61.7779 136.171 61.1774 136.136 60.5483C136.114 60.0793 136.102 59.576 136.102 59.0384C136.102 58.5008 136.114 57.986 136.136 57.4942C136.159 56.865 136.297 56.2702 136.548 55.7097C136.8 55.1378 137.149 54.6402 137.595 54.217C138.052 53.7938 138.607 53.462 139.259 53.2218C139.911 52.9702 140.649 52.8444 141.473 52.8444C142.228 52.8444 142.925 52.9588 143.566 53.1875C144.218 53.4049 144.784 53.7023 145.264 54.0797C145.745 54.4572 146.122 54.9033 146.397 55.4181C146.671 55.9328 146.814 56.4818 146.826 57.0652C146.826 57.1682 146.786 57.2597 146.706 57.3397C146.637 57.4084 146.551 57.4427 146.448 57.4427H144.201C144.006 57.4427 143.875 57.4084 143.806 57.3397C143.737 57.2597 143.675 57.1281 143.617 56.9451C143.572 56.8078 143.503 56.6591 143.411 56.499C143.331 56.3389 143.211 56.1959 143.051 56.0701C142.891 55.9328 142.685 55.8184 142.433 55.7269C142.182 55.6354 141.861 55.5896 141.473 55.5896C141.084 55.5896 140.758 55.6468 140.495 55.7612C140.231 55.8642 140.014 56.0071 139.843 56.1902C139.671 56.3732 139.545 56.5848 139.465 56.825C139.385 57.0652 139.334 57.3169 139.311 57.58ZM157.192 62.2812C157.318 62.2812 157.426 62.327 157.518 62.4185C157.609 62.51 157.655 62.6187 157.655 62.7445V64.5632C157.655 64.6891 157.609 64.7977 157.518 64.8892C157.426 64.9807 157.318 65.0265 157.192 65.0265H149.059C148.933 65.0265 148.824 64.9807 148.733 64.8892C148.641 64.7977 148.596 64.6891 148.596 64.5632V53.4792C148.596 53.3534 148.641 53.2447 148.733 53.1532C148.824 53.0617 148.933 53.0159 149.059 53.0159H157.055C157.18 53.0159 157.289 53.0617 157.381 53.1532C157.472 53.2447 157.518 53.3534 157.518 53.4792V55.2979C157.518 55.4238 157.472 55.5324 157.381 55.6239C157.289 55.7155 157.18 55.7612 157.055 55.7612H151.77V57.6143H156.677C156.803 57.6143 156.912 57.66 157.003 57.7515C157.095 57.843 157.14 57.9517 157.14 58.0775V59.8963C157.14 60.0221 157.095 60.1308 157.003 60.2223C156.912 60.3138 156.803 60.3595 156.677 60.3595H151.77V62.2812H157.192Z" fill="#AC2894"/>
<path d="M91.4688 53.0159C91.5946 53.0159 91.7033 53.0617 91.7948 53.1532C91.8863 53.2447 91.932 53.3534 91.932 53.4792V55.2979C91.932 55.4238 91.8863 55.5324 91.7948 55.6239C91.7033 55.7155 91.5946 55.7612 91.4688 55.7612H86.3385V58.1118H91.1256C91.2514 58.1118 91.3601 58.1576 91.4516 58.2491C91.5431 58.3406 91.5889 58.4493 91.5889 58.5751V60.3939C91.5889 60.5197 91.5431 60.6283 91.4516 60.7199C91.3601 60.8114 91.2514 60.8571 91.1256 60.8571H86.3385V64.5632C86.3385 64.6891 86.2928 64.7977 86.2013 64.8892C86.1098 64.9807 86.0011 65.0265 85.8753 65.0265H83.6276C83.5018 65.0265 83.3931 64.9807 83.3016 64.8892C83.2101 64.7977 83.1643 64.6891 83.1643 64.5632V53.4792C83.1643 53.3534 83.2101 53.2447 83.3016 53.1532C83.3931 53.0617 83.5018 53.0159 83.6276 53.0159H91.4688ZM94.2173 65.0265C94.0914 65.0265 93.9828 64.9807 93.8913 64.8892C93.7997 64.7977 93.754 64.6891 93.754 64.5632V53.4792C93.754 53.3534 93.7997 53.2447 93.8913 53.1532C93.9828 53.0617 94.0914 53.0159 94.2173 53.0159H96.4649C96.5908 53.0159 96.6994 53.0617 96.7909 53.1532C96.8824 53.2447 96.9282 53.3534 96.9282 53.4792V64.5632C96.9282 64.6891 96.8824 64.7977 96.7909 64.8892C96.6994 64.9807 96.5908 65.0265 96.4649 65.0265H94.2173ZM107.141 65.0265C106.946 65.0265 106.786 64.975 106.66 64.8721C106.546 64.7691 106.471 64.6891 106.437 64.6319L102.508 58.7638V64.5632C102.508 64.6891 102.462 64.7977 102.371 64.8892C102.279 64.9807 102.17 65.0265 102.045 65.0265H99.7969C99.6711 65.0265 99.5624 64.9807 99.4709 64.8892C99.3794 64.7977 99.3337 64.6891 99.3337 64.5632V53.4792C99.3337 53.3534 99.3794 53.2447 99.4709 53.1532C99.5624 53.0617 99.6711 53.0159 99.7969 53.0159H101.581C101.776 53.0159 101.93 53.0674 102.045 53.1704C102.17 53.2733 102.251 53.3534 102.285 53.4106L106.214 59.2786V53.4792C106.214 53.3534 106.26 53.2447 106.351 53.1532C106.443 53.0617 106.551 53.0159 106.677 53.0159H108.925C109.051 53.0159 109.159 53.0617 109.251 53.1532C109.342 53.2447 109.388 53.3534 109.388 53.4792V64.5632C109.388 64.6891 109.342 64.7977 109.251 64.8892C109.159 64.9807 109.051 65.0265 108.925 65.0265H107.141ZM118.132 53.0159C118.36 53.0159 118.532 53.0789 118.646 53.2047C118.772 53.3305 118.858 53.4563 118.904 53.5822L122.644 64.3916C122.69 64.506 122.713 64.5918 122.713 64.649C122.713 64.752 122.673 64.8435 122.593 64.9235C122.524 64.9922 122.438 65.0265 122.335 65.0265H120.173C119.945 65.0265 119.779 64.9807 119.676 64.8892C119.584 64.7863 119.527 64.6891 119.504 64.5975L119.024 63.1734H114.46L113.979 64.5975C113.957 64.6891 113.894 64.7863 113.791 64.8892C113.699 64.9807 113.539 65.0265 113.31 65.0265H111.148C111.045 65.0265 110.954 64.9922 110.874 64.9235C110.805 64.8435 110.771 64.752 110.771 64.649C110.771 64.5918 110.794 64.506 110.84 64.3916L114.58 53.5822C114.626 53.4563 114.706 53.3305 114.82 53.2047C114.946 53.0789 115.123 53.0159 115.352 53.0159H118.132ZM115.352 60.514H118.132L116.742 56.3961L115.352 60.514ZM131.906 65.0265C131.711 65.0265 131.551 64.975 131.425 64.8721C131.311 64.7691 131.236 64.6891 131.202 64.6319L127.273 58.7638V64.5632C127.273 64.6891 127.227 64.7977 127.136 64.8892C127.044 64.9807 126.935 65.0265 126.81 65.0265H124.562C124.436 65.0265 124.327 64.9807 124.236 64.8892C124.144 64.7977 124.099 64.6891 124.099 64.5632V53.4792C124.099 53.3534 124.144 53.2447 124.236 53.1532C124.327 53.0617 124.436 53.0159 124.562 53.0159H126.346C126.541 53.0159 126.695 53.0674 126.81 53.1704C126.935 53.2733 127.016 53.3534 127.05 53.4106L130.979 59.2786V53.4792C130.979 53.3534 131.025 53.2447 131.116 53.1532C131.208 53.0617 131.316 53.0159 131.442 53.0159H133.69C133.816 53.0159 133.924 53.0617 134.016 53.1532C134.107 53.2447 134.153 53.3534 134.153 53.4792V64.5632C134.153 64.6891 134.107 64.7977 134.016 64.8892C133.924 64.9807 133.816 65.0265 133.69 65.0265H131.906ZM139.311 57.58C139.299 57.7287 139.288 57.9345 139.276 58.1976C139.276 58.4607 139.276 58.7353 139.276 59.0212C139.276 59.2957 139.276 59.5703 139.276 59.8448C139.288 60.1079 139.299 60.3138 139.311 60.4625C139.334 60.7256 139.385 60.9772 139.465 61.2174C139.545 61.4576 139.671 61.6693 139.843 61.8523C140.014 62.0353 140.231 62.184 140.495 62.2984C140.758 62.4013 141.084 62.4528 141.473 62.4528C141.861 62.4528 142.182 62.407 142.433 62.3155C142.685 62.224 142.891 62.1154 143.051 61.9895C143.211 61.8523 143.331 61.7036 143.411 61.5434C143.503 61.3833 143.572 61.2346 143.617 61.0973C143.675 60.9143 143.737 60.7885 143.806 60.7199C143.875 60.6398 144.006 60.5997 144.201 60.5997H146.448C146.551 60.5997 146.637 60.6398 146.706 60.7199C146.786 60.7885 146.826 60.8743 146.826 60.9772C146.814 61.5606 146.671 62.1096 146.397 62.6244C146.122 63.1391 145.745 63.5852 145.264 63.9627C144.784 64.3402 144.218 64.6433 143.566 64.8721C142.925 65.0894 142.228 65.1981 141.473 65.1981C140.649 65.1981 139.911 65.078 139.259 64.8378C138.619 64.5861 138.07 64.2487 137.612 63.8254C137.155 63.4022 136.8 62.9103 136.548 62.3499C136.308 61.7779 136.171 61.1774 136.136 60.5483C136.114 60.0793 136.102 59.576 136.102 59.0384C136.102 58.5008 136.114 57.986 136.136 57.4942C136.159 56.865 136.297 56.2702 136.548 55.7097C136.8 55.1378 137.149 54.6402 137.595 54.217C138.052 53.7938 138.607 53.462 139.259 53.2218C139.911 52.9702 140.649 52.8444 141.473 52.8444C142.228 52.8444 142.925 52.9588 143.566 53.1875C144.218 53.4049 144.784 53.7023 145.264 54.0797C145.745 54.4572 146.122 54.9033 146.397 55.4181C146.671 55.9328 146.814 56.4818 146.826 57.0652C146.826 57.1682 146.786 57.2597 146.706 57.3397C146.637 57.4084 146.551 57.4427 146.448 57.4427H144.201C144.006 57.4427 143.875 57.4084 143.806 57.3397C143.737 57.2597 143.675 57.1281 143.617 56.9451C143.572 56.8078 143.503 56.6591 143.411 56.499C143.331 56.3389 143.211 56.1959 143.051 56.0701C142.891 55.9328 142.685 55.8184 142.433 55.7269C142.182 55.6354 141.861 55.5896 141.473 55.5896C141.084 55.5896 140.758 55.6468 140.495 55.7612C140.231 55.8642 140.014 56.0071 139.843 56.1902C139.671 56.3732 139.545 56.5848 139.465 56.825C139.385 57.0652 139.334 57.3169 139.311 57.58ZM157.192 62.2812C157.318 62.2812 157.426 62.327 157.518 62.4185C157.609 62.51 157.655 62.6187 157.655 62.7445V64.5632C157.655 64.6891 157.609 64.7977 157.518 64.8892C157.426 64.9807 157.318 65.0265 157.192 65.0265H149.059C148.933 65.0265 148.824 64.9807 148.733 64.8892C148.641 64.7977 148.596 64.6891 148.596 64.5632V53.4792C148.596 53.3534 148.641 53.2447 148.733 53.1532C148.824 53.0617 148.933 53.0159 149.059 53.0159H157.055C157.18 53.0159 157.289 53.0617 157.381 53.1532C157.472 53.2447 157.518 53.3534 157.518 53.4792V55.2979C157.518 55.4238 157.472 55.5324 157.381 55.6239C157.289 55.7155 157.18 55.7612 157.055 55.7612H151.77V57.6143H156.677C156.803 57.6143 156.912 57.66 157.003 57.7515C157.095 57.843 157.14 57.9517 157.14 58.0775V59.8963C157.14 60.0221 157.095 60.1308 157.003 60.2223C156.912 60.3138 156.803 60.3595 156.677 60.3595H151.77V62.2812H157.192Z" fill="url(#paint1_linear)" fill-opacity="0.25"/>
<path d="M46.3819 83.2173C62.4123 83.7878 75.844 71.2793 76.339 55.3192C76.834 39.359 64.401 25.8571 48.4409 25.3621C32.4807 24.867 18.9788 37.3001 18.4838 53.2602C17.843 69.2152 30.3515 82.6468 46.3819 83.2173Z" fill="url(#paint2_linear)"/>
<path d="M27.4616 46.2192C27.6073 46.2244 27.7582 46.0839 27.8389 45.8679C27.8441 45.7221 27.7035 45.5712 27.4875 45.4906C27.3418 45.4854 27.1909 45.6259 27.1102 45.8419C27.0999 46.1334 27.2404 46.2843 27.4616 46.2192Z" fill="white"/>
<path d="M42.2577 47.4666C42.2525 47.6123 42.177 47.6826 41.9558 47.7477C41.8101 47.7425 41.7398 47.667 41.6747 47.4458C41.6799 47.3001 41.7554 47.2298 41.9766 47.1648C42.1171 47.3157 42.1874 47.3911 42.2577 47.4666Z" fill="white"/>
<path d="M36.5819 34.7167C36.5767 34.8624 36.5012 34.9327 36.28 34.9977C36.1343 34.9926 35.9938 34.8416 35.9989 34.6959C36.0041 34.5502 36.0796 34.4799 36.3008 34.4148C36.4465 34.42 36.5116 34.6412 36.5819 34.7167Z" fill="white"/>
<path d="M32.1385 44.7726C32.1333 44.9184 32.0579 44.9886 31.8367 45.0537C31.6909 45.0485 31.6207 44.9731 31.5556 44.7519C31.5608 44.6061 31.6362 44.5359 31.8574 44.4708C32.0734 44.5514 32.1437 44.6269 32.1385 44.7726Z" fill="white"/>
<path d="M31.0445 38.6052C31.0393 38.7509 30.969 38.6755 30.969 38.6755C30.8233 38.6703 30.8988 38.6 30.8988 38.6C30.9039 38.4543 30.9742 38.5298 30.9742 38.5298C31.0497 38.4595 31.0497 38.4595 31.0445 38.6052Z" fill="white"/>
<path d="M36.4525 64.9892C36.4473 65.1349 36.3719 65.2052 36.3016 65.1297C36.1559 65.1245 36.0856 65.0491 36.1611 64.9788C36.1662 64.8331 36.2417 64.7628 36.312 64.8383C36.3874 64.768 36.4577 64.8434 36.4525 64.9892Z" fill="white"/>
<path d="M57.0678 58.991C57.0574 59.2824 56.8311 59.4933 56.5396 59.4829C56.2481 59.4725 56.0373 59.2461 56.0477 58.9547C56.0581 58.6632 56.2844 58.4524 56.5759 58.4628C56.7971 58.3977 57.0834 58.5538 57.0678 58.991Z" fill="white"/>
<path d="M69.4926 61.3579C69.4822 61.6493 69.2559 61.8601 68.9644 61.8498C68.6729 61.8394 68.4621 61.613 68.4725 61.3216C68.4829 61.0301 68.7093 60.8193 69.0007 60.8297C69.2219 60.7646 69.5082 60.9207 69.4926 61.3579Z" fill="white"/>
<path d="M22.7436 50.0715C22.7332 50.3629 22.5068 50.5738 22.2154 50.5634C21.9239 50.553 21.7131 50.3266 21.7235 50.0352C21.7339 49.7437 21.9602 49.5329 22.2517 49.5433C22.4729 49.4782 22.7592 49.6343 22.7436 50.0715Z" fill="white"/>
<path d="M30.6674 57.4146C30.6571 57.7061 30.4307 57.9169 30.1392 57.9065C29.8478 57.8962 29.6369 57.6698 29.6473 57.3783C29.6577 57.0869 29.8841 56.876 30.1755 56.8864C30.3915 56.9671 30.6778 57.1232 30.6674 57.4146Z" fill="white"/>
<path d="M61.9801 65.169C62.1259 65.1742 62.2768 65.0336 62.3574 64.8176C62.3626 64.6719 62.2221 64.521 62.0061 64.4403C61.8603 64.4352 61.7094 64.5757 61.6288 64.7917C61.6184 65.0832 61.759 65.2341 61.9801 65.169Z" fill="white"/>
<path d="M67.1444 45.143C67.1392 45.2887 67.0637 45.359 66.8425 45.4241C66.6968 45.4189 66.6265 45.3434 66.5614 45.1222C66.5666 44.9765 66.6421 44.9062 66.8633 44.8411C67.0793 44.9218 67.2198 45.0727 67.1444 45.143Z" fill="white"/>
<path d="M26.1473 63.4555C26.1421 63.6012 26.0667 63.6715 25.8455 63.7366C25.6997 63.7314 25.6295 63.6559 25.5644 63.4347C25.5696 63.289 25.645 63.2187 25.8662 63.1536C26.0822 63.2343 26.1525 63.3098 26.1473 63.4555Z" fill="white"/>
<path d="M39.3895 54.223C39.3843 54.3687 39.3088 54.439 39.0877 54.5041C38.9419 54.4989 38.8717 54.4234 38.8066 54.2023C38.8118 54.0565 38.8872 53.9863 39.1084 53.9212C39.2489 54.0721 39.3192 54.1475 39.3895 54.223Z" fill="white"/>
<path d="M62.1512 56.2741C62.146 56.4199 62.0706 56.4901 61.8494 56.5552C61.7036 56.55 61.6334 56.4746 61.5683 56.2534C61.5735 56.1077 61.6489 56.0374 61.8701 55.9723C62.0158 55.9775 62.1564 56.1284 62.1512 56.2741Z" fill="white"/>
<path d="M62.084 35.6244C62.0789 35.7701 61.8525 35.9809 61.7068 35.9757C61.561 35.9705 61.3502 35.7442 61.3554 35.5984C61.3606 35.4527 61.587 35.2419 61.7327 35.2471C61.8732 35.398 62.0892 35.4786 62.084 35.6244Z" fill="white"/>
<path d="M68.3487 52.3349C68.3435 52.4807 68.1171 52.6915 67.9714 52.6863C67.8257 52.6811 67.6149 52.4547 67.62 52.309C67.6252 52.1633 67.8516 51.9525 67.9973 51.9576C68.2133 52.0383 68.3539 52.1892 68.3487 52.3349Z" fill="white"/>
<path d="M66.9288 71.2594C67.0309 71.3689 67.0271 71.4747 66.9176 71.5767C66.8081 71.6787 66.7023 71.6749 66.6003 71.5654C66.4983 71.4558 66.502 71.3501 66.6115 71.2481C66.7211 71.1461 66.8268 71.1499 66.9288 71.2594Z" fill="white"/>
<path d="M57.5746 57.5368C57.6256 57.5915 57.5708 57.6425 57.5708 57.6425C57.5161 57.6935 57.4651 57.6388 57.4651 57.6388C57.4141 57.584 57.4688 57.533 57.4688 57.533C57.4688 57.533 57.5236 57.482 57.5746 57.5368Z" fill="white"/>
<path fill-rule="evenodd" clip-rule="evenodd" d="M31.3596 78.4036C31.3381 78.1129 31.272 77.825 31.1633 77.553C31.517 77.5889 31.8669 77.515 32.1462 77.3133C32.5458 77.0163 32.7641 76.5676 32.7857 76.0883C32.8133 76.029 32.8387 75.9686 32.8618 75.9071C33.5066 76.1561 34.2334 76.051 34.6162 75.5766C34.8248 75.3183 34.9 74.9796 34.8599 74.6369C35.0713 74.4679 35.2499 74.259 35.384 74.0212C35.8267 74.3873 36.3831 74.6182 36.9842 74.6395C37.6489 74.6632 38.2774 74.4275 38.7692 74.0258C39.3007 74.4275 39.9647 74.6727 40.7029 74.6989C41.4901 74.7269 42.2107 74.5007 42.789 74.0908C43.0755 74.2117 43.3856 74.2837 43.7086 74.2952C45.1659 74.347 46.4487 73.1524 46.5005 71.6951C46.5357 70.7068 45.9976 69.7988 45.1931 69.3005C45.5047 69.1201 45.7473 68.8339 45.8856 68.4634C46.0813 67.9394 45.9553 67.4039 45.6173 66.9748C46.3614 66.8857 46.9105 66.3094 46.9338 65.6556C46.9544 65.0758 46.5581 64.5273 45.9548 64.3118C46.1914 64.1067 46.3426 63.8254 46.3535 63.5189C46.4497 62.8657 45.9578 62.3375 45.2291 62.3115C44.5707 62.3611 44.0425 62.853 44.0218 63.4359C44.0533 63.8555 44.2645 64.2221 44.5645 64.4383C44.1561 64.681 43.8895 65.0954 43.8734 65.5467C43.8435 65.7824 43.884 66.0015 43.9785 66.1941C43.2943 66.2161 42.7399 66.6055 42.4998 67.2486C42.3629 67.6152 42.3826 68.0137 42.5223 68.3703C42.0612 68.1107 41.5249 67.9713 40.9415 67.9953C39.7422 67.9526 38.6973 68.5002 38.0748 69.3884C37.7977 69.2931 37.4958 69.2437 37.1761 69.2475C35.9743 69.2047 34.8912 70.0097 34.5192 71.1106C34.2481 70.9687 33.9419 70.8837 33.616 70.8721C32.5999 70.8359 31.7243 71.5252 31.4886 72.4747C31.1641 72.3341 30.805 72.2668 30.428 72.291C29.3423 72.2524 28.3534 72.9056 27.8983 73.8439C27.2312 73.4904 26.463 73.3885 25.7369 73.5197C27.3881 75.3756 29.2774 77.0198 31.3596 78.4036ZM68.017 74.6633C66.4453 76.2485 64.6912 77.6518 62.7902 78.8404C62.7717 78.8402 62.7533 78.8397 62.7348 78.839C61.2774 78.7872 60.0828 77.5044 60.1347 76.0471L60.1364 76.0068L60.1387 75.9652C59.9513 76.0119 59.7543 76.0335 59.5517 76.0263C58.7353 75.9973 58.0426 75.5075 57.715 74.8161C57.2473 75.1499 56.6759 75.3406 56.0747 75.3192C55.4029 75.2953 54.787 75.0099 54.3232 74.5663C53.7822 74.8931 53.1356 75.0687 52.4366 75.0438C51.6668 75.0164 50.9778 74.751 50.4355 74.3184C50.1094 74.446 49.7559 74.511 49.3915 74.498C47.8587 74.5164 46.6641 73.2336 46.7914 71.706C46.8315 70.5803 47.606 69.6113 48.6282 69.2525C48.6036 69.1937 48.582 69.1327 48.5634 69.0695C48.5304 68.9572 48.5126 68.8443 48.5086 68.7322C48.1745 68.5316 47.9262 68.2115 47.8058 67.8024C47.6339 67.2182 47.9068 66.6498 48.3466 66.2343C48.2307 66.0522 48.1677 65.8431 48.1754 65.6265C48.1798 65.5014 48.2111 65.3773 48.2633 65.2596C47.6619 65.0433 47.2671 64.4958 47.2877 63.917C47.3059 63.4057 47.6457 62.9417 48.149 62.7212C47.9215 62.4986 47.7866 62.2032 47.7977 61.8921C47.8236 61.1635 48.3467 60.8173 49.0051 60.7678C49.6582 60.864 50.1502 61.3922 50.1294 61.9751C50.0784 62.3215 49.9059 62.6225 49.6682 62.8258C50.0993 63.0923 50.365 63.5485 50.348 64.0259C50.3649 64.3328 50.2663 64.6037 50.0891 64.8196C50.3566 65.0475 50.5192 65.3692 50.5071 65.7095C50.4999 65.7581 50.4904 65.8058 50.4786 65.8524C50.8571 66.0478 51.1387 66.387 51.2694 66.8313C51.3023 66.9431 51.3212 67.0567 51.3271 67.1703C51.6597 67.3711 51.907 67.6905 52.027 68.0984C52.0532 68.1875 52.0705 68.2777 52.0794 68.3682C52.2727 68.3427 52.4717 68.333 52.6751 68.3402C53.8955 68.3836 54.9129 69.0253 55.4645 69.9828C55.7195 69.9245 55.989 69.904 56.2666 69.9272C57.1972 69.9603 58.0207 70.4954 58.4809 71.2573C58.9941 70.5302 59.8534 70.0551 60.7839 70.0882C62.2412 70.1401 63.4359 71.4229 63.384 72.8802C63.3766 73.0884 63.3441 73.2912 63.2895 73.4858C64.3168 73.6701 65.1596 74.4639 65.4339 75.4552C65.4975 75.3996 65.5639 75.3459 65.633 75.2946C66.3403 74.7689 67.1984 74.5735 68.017 74.6633Z" fill="#D5E7FA"/>
<path fill-rule="evenodd" clip-rule="evenodd" d="M66.5049 76.0832C61.1538 80.7591 54.0673 83.4904 46.3838 83.217C38.9235 82.9515 32.2261 79.9005 27.2617 75.106C28.7368 75.2646 29.9592 76.2198 30.4629 77.4713L31.0458 77.492C31.782 75.2565 33.9548 73.6558 36.4322 73.744C37.0151 73.7648 37.5226 73.8558 38.0248 74.0925C38.579 72.872 39.8514 71.9688 41.3087 72.0207C41.8162 72.1117 42.2482 72.273 42.6802 72.4342C43.3098 71.1434 44.6525 70.3157 46.1098 70.3676C46.8385 70.3935 47.4162 70.56 47.9133 70.9425C48.5924 70.31 49.4824 69.9039 50.5025 69.9402C52.397 70.0077 53.8076 71.3711 54.0369 73.1302C54.625 73.0053 55.2079 73.026 55.8507 73.4137C56.2775 73.7207 56.6289 74.098 56.7591 74.5404C57.4434 73.7622 58.6899 73.5877 59.619 74.1314C60.4778 74.5997 60.8839 75.4897 60.707 76.3589C61.7583 75.5208 63.0151 75.0548 64.397 75.177C65.1631 75.2898 65.8882 75.613 66.5049 76.0832ZM56.1582 77.0725C56.0828 77.1428 56.0828 77.1428 56.0776 77.2885C56.1531 77.2182 56.1531 77.2182 56.1582 77.0725L56.1582 77.0725Z" fill="white"/>
<path d="M52.0206 55.6177C51.7906 54.4294 51.2854 53.322 50.4112 52.383C49.9741 51.9136 49.5209 51.8974 48.9802 51.7874C48.3489 51.6742 47.805 51.6548 47.2514 51.9075C46.7172 51.6161 46.0859 51.5029 45.5356 51.6648C44.8978 51.7329 44.4445 51.7168 44.0658 52.1572C43.2177 53.0349 42.5445 54.1003 42.2306 55.2693C42.4215 55.0038 42.6093 54.8289 42.8845 54.7479C42.6644 55.8295 42.6225 57.0082 42.7651 58.1026C42.8718 57.6525 43.0661 57.2963 43.2603 56.9401C43.3057 58.2127 43.6199 59.5856 44.2125 60.7869C44.2287 60.3335 44.3354 59.8834 44.3516 59.4301C44.7532 60.8969 45.6113 62.2892 46.7574 63.2378L46.7542 63.3285L46.7574 63.2378C47.9681 62.3731 49.0137 61.0485 49.4279 59.6107C49.4118 60.0641 49.4863 60.5206 49.4701 60.974C50.1466 59.8179 50.5544 58.5614 50.6934 57.2046C50.8618 57.5737 51.027 58.0335 51.1047 58.3994C51.3248 57.3179 51.3667 56.1392 51.2241 55.0447C51.6741 55.1515 51.849 55.3393 52.0206 55.6177Z" fill="#FFB453"/>
<path d="M50.6984 54.5706C50.5494 53.6574 50.1252 52.8253 49.5132 52.168C49.2542 51.7957 48.8916 51.7828 48.4416 51.676C47.9916 51.5692 47.5351 51.6437 47.1661 51.8121C46.8099 51.6179 46.3599 51.5111 45.9034 51.5856C45.447 51.6602 45.0844 51.6473 44.7995 52.0003C44.1424 52.6124 43.6601 53.4123 43.4466 54.3125C43.5437 54.1344 43.7282 54.0502 43.9127 53.9659C43.793 54.7787 43.764 55.5948 43.8256 56.414C43.9259 56.1452 44.0295 55.7858 44.2204 55.5202C44.2756 56.5208 44.5153 57.4372 44.9395 58.2693C44.9524 57.9066 45.0527 57.6379 45.0656 57.2752C45.3895 58.3761 45.9885 59.396 46.8724 60.063C47.8047 59.3699 48.4715 58.4858 48.8729 57.4107C48.8599 57.7733 48.9409 58.0486 48.928 58.4113C49.4103 57.6114 49.7177 56.6237 49.8406 55.7202C50.0123 55.9987 50.0932 56.2739 50.171 56.6398C50.2907 55.827 50.4104 55.0142 50.2581 54.1918C50.4394 54.1982 50.6142 54.386 50.6984 54.5706Z" fill="#FF8A53"/>
<path d="M49.7974 54.3567C49.6387 53.7156 49.3894 53.0712 48.9523 52.6017C48.69 52.3201 48.5087 52.3136 48.1461 52.3007C47.7867 52.1971 47.5116 52.2781 47.1458 52.3559C46.8803 52.1649 46.5177 52.152 46.1518 52.2297C45.786 52.3075 45.6047 52.3011 45.3263 52.4727C44.857 52.9099 44.4718 53.5317 44.3585 54.1632C44.4524 54.0757 44.5495 53.8976 44.7308 53.9041C44.6176 54.5355 44.595 55.1702 44.6663 55.7174C44.676 55.4454 44.7731 55.2673 44.9608 55.0924C45.0256 55.821 45.1811 56.5528 45.4305 57.1972C45.4402 56.9252 45.5373 56.7471 45.5469 56.475C45.7898 57.3007 46.2173 58.0422 46.9231 58.612C47.577 58.0906 48.1467 57.3846 48.4477 56.5783C48.438 56.8503 48.5222 57.0348 48.5125 57.3068C48.8977 56.6851 49.1048 55.9662 49.1306 55.2408C49.2148 55.4254 49.2958 55.7006 49.38 55.8852C49.4932 55.2537 49.5158 54.619 49.4445 54.0718C49.6258 54.0783 49.8039 54.1754 49.7974 54.3567Z" fill="#FF6E53"/>
<path d="M63.0466 49.2916L53.848 39.9767L47.6361 46.2012L41.8824 39.5508L32.0448 48.1883L34.5284 52.3619L47.6038 47.1079L60.2726 53.2781L63.0466 49.2916Z" fill="url(#paint3_linear)"/>
<path opacity="0.2" d="M41.8842 39.5504L38.8866 42.1673C39.0585 44.9877 39.4182 47.6332 40.0562 50.1071L47.6056 47.1075L54.6539 50.5358C55.4662 48.1135 56.0162 45.4096 56.3914 42.5179L53.8498 39.9763L47.6346 46.2915L41.8842 39.5504Z" fill="black"/>
<path d="M48.156 26.5189C44.621 28.935 42.0415 35.1073 41.7834 42.3608C41.6511 46.0782 42.163 49.5462 43.1507 52.3956C44.5008 52.716 45.8541 52.9458 47.3044 52.9974C48.7548 53.049 50.121 52.916 51.4904 52.6924C52.6782 49.9204 53.4354 46.4976 53.5677 42.7802C53.7352 35.5234 51.5103 29.1802 48.156 26.5189Z" fill="white"/>
<path opacity="0.3" d="M48.156 26.5189C44.621 28.935 42.0415 35.1073 41.7834 42.3608C41.6511 46.0782 42.163 49.5462 43.1507 52.3956C44.5008 52.716 45.8541 52.9458 47.3044 52.9974C48.7548 53.049 50.121 52.916 51.4904 52.6924C52.6782 49.9204 53.4354 46.4976 53.5677 42.7802C53.7352 35.5234 51.5103 29.1802 48.156 26.5189Z" fill="black"/>
<path opacity="0.3" d="M42.5026 50.1938C43.299 50.7668 44.2833 51.165 45.2739 51.3818C46.6208 51.7929 48.0711 51.8445 49.5183 51.9868C49.5086 52.2588 49.4083 52.5276 49.308 52.7963C49.9457 52.7283 50.6741 52.6634 51.3119 52.5953C51.8071 51.4328 52.2149 50.1763 52.5352 48.8259C52.2762 48.4536 51.8326 48.1655 51.4765 47.9712C50.408 47.3885 49.2393 47.0745 48.0673 46.8513C46.986 46.6312 45.814 46.4079 44.7133 46.7319C43.7033 47.0591 42.8584 47.8461 42.1042 48.6363C42.2661 49.1868 42.3374 49.734 42.5026 50.1938Z" fill="black"/>
<path d="M48.5139 16.4553C43.9527 19.652 40.4928 27.6086 40.154 37.1288C39.983 41.9342 40.6408 46.406 41.8682 50.1718C43.5776 50.5958 45.3841 50.8416 47.2877 50.9094C49.1007 50.9739 50.9201 50.8571 52.746 50.5589C54.2348 46.9806 55.212 42.4762 55.383 37.6707C55.7218 28.1505 52.8363 19.9681 48.5139 16.4553Z" fill="white"/>
<path d="M48.4998 24.534C50.4941 24.605 52.3816 25.1261 54.0748 26.0034C52.8635 21.7843 50.898 18.3553 48.515 16.4549C45.9091 18.2686 43.7016 21.6398 42.1902 25.8528C44.1261 25.0139 46.2336 24.4534 48.4998 24.534Z" fill="url(#paint4_linear)"/>
<path d="M34.6594 51.2765C35.6891 52.9473 35.4075 53.2096 35.0352 53.4687C34.6629 53.7278 34.3877 53.8088 33.2674 52.1348C32.2377 50.4641 30.7999 47.5079 31.169 47.3394C31.5445 46.9897 33.5423 49.5119 34.6594 51.2765Z" fill="white"/>
<path d="M60.2218 52.1869C59.0759 53.7802 59.3382 54.0619 59.6911 54.3468C60.044 54.6317 60.3128 54.732 61.5493 53.1419C62.6951 51.5486 64.3394 48.7021 63.9833 48.5078C63.5429 48.129 61.3709 50.5029 60.2218 52.1869Z" fill="white"/>
<path opacity="0.1" d="M48.6885 16.6428C50.9424 22.17 52.2059 30.0223 51.8994 38.6358C51.7445 42.9879 51.2367 47.0551 50.3792 50.7467C51.1076 50.6819 51.9267 50.6202 52.6583 50.4647C54.1471 46.8863 55.1243 42.382 55.2953 37.5765C55.7151 28.3315 52.917 20.243 48.6885 16.6428Z" fill="black"/>
<path d="M52.0698 31.2889C51.9891 33.5556 50.1116 35.3045 47.8454 35.2238C45.5792 35.1432 43.8308 33.2653 43.9114 30.9985C43.9921 28.7318 45.8696 26.983 48.1358 27.0636C50.3988 27.2349 52.1472 29.1128 52.0698 31.2889Z" fill="#A6F6FF"/>
<g opacity="0.3">
<path opacity="0.3" d="M49.2192 27.2829L44.15 32.0048C44.3022 32.8273 44.8203 33.572 45.4355 34.1386L51.3496 28.6297C50.7345 28.0631 50.0254 27.5839 49.2192 27.2829Z" fill="white"/>
<path opacity="0.3" d="M52.0036 30.6503C51.9323 30.103 51.7704 29.5526 51.4239 29.0863L45.6037 34.5078C46.0472 34.7959 46.5814 35.0872 47.1221 35.1973L52.0036 30.6503Z" fill="white"/>
</g>
<path opacity="0.1" d="M48.1329 27.1538C46.5919 27.099 45.1999 27.9573 44.5202 29.2041C45.2648 28.6859 46.0903 28.4429 46.9968 28.4751C49.263 28.5558 51.0114 30.4337 50.9307 32.7004C50.9049 33.4258 50.701 34.054 50.4097 34.5883C51.342 33.8952 52.0185 32.7391 52.0637 31.4698C52.1476 29.1124 50.3992 27.2345 48.1329 27.1538Z" fill="black"/>
<path d="M47.8223 35.8582C45.2841 35.7678 43.2734 33.6082 43.3638 31.0695C43.4541 28.5308 45.6132 26.5196 48.1514 26.61C50.6896 26.7003 52.7003 28.8599 52.6099 31.3986C52.6102 33.9405 50.4511 35.9517 47.8223 35.8582ZM48.1094 27.7887C46.2058 27.7209 44.6099 29.2074 44.5422 31.1115C44.4744 33.0155 45.9606 34.6117 47.8642 34.6795C49.7678 34.7472 51.3637 33.2607 51.4315 31.3566C51.4992 29.4526 50.0131 27.8564 48.1094 27.7887Z" fill="url(#paint5_linear)"/>
<defs>
<linearGradient id="paint0_linear" x1="94.9451" y1="53.358" x2="101.5" y2="25.1282" gradientUnits="userSpaceOnUse">
<stop stop-color="#551F8D"/>
<stop offset="1" stop-color="#F236D8"/>
</linearGradient>
<linearGradient id="paint1_linear" x1="93.0363" y1="66.8023" x2="100.545" y2="39.0847" gradientUnits="userSpaceOnUse">
<stop stop-color="#551F8D"/>
<stop offset="1" stop-color="#F236D8"/>
</linearGradient>
<linearGradient id="paint2_linear" x1="46.4494" y1="79.6442" x2="48.5034" y2="21.9311" gradientUnits="userSpaceOnUse">
<stop stop-color="#1E0D39"/>
<stop offset="1" stop-color="#5324A2"/>
</linearGradient>
<linearGradient id="paint3_linear" x1="47.3636" y1="53.202" x2="47.8529" y2="39.454" gradientUnits="userSpaceOnUse">
<stop stop-color="#6D45B2"/>
<stop offset="1" stop-color="#F236D8"/>
</linearGradient>
<linearGradient id="paint4_linear" x1="42.3657" y1="21.0537" x2="54.2384" y2="21.4762" gradientUnits="userSpaceOnUse">
<stop stop-color="#711D9E"/>
<stop offset="1" stop-color="#F236D8"/>
</linearGradient>
<linearGradient id="paint5_linear" x1="44.6204" y1="34.3551" x2="51.433" y2="28.0122" gradientUnits="userSpaceOnUse">
<stop stop-color="#551F8D"/>
<stop offset="1" stop-color="#F236D8"/>
</linearGradient>
</defs>
</svg>
