<svg width="36" height="38" viewBox="0 0 36 38" fill="none" xmlns="http://www.w3.org/2000/svg">
<path d="M5.19809 32.0057C12.1289 38.9365 23.3441 38.9365 30.2119 32.0057C37.0797 25.0749 37.1427 13.8596 30.2119 6.99187C23.2811 0.124094 12.0659 0.0610866 5.19809 6.99187C-1.7327 13.8596 -1.7327 25.0749 5.19809 32.0057Z" fill="url(#paint0_linear)"/>
<path d="M12.1433 7.58153C12.2063 7.64454 12.3324 7.64454 12.4584 7.58153C12.5214 7.51852 12.5214 7.39251 12.4584 7.26649C12.3954 7.20349 12.2694 7.20349 12.1433 7.26649C12.0173 7.39251 12.0173 7.51852 12.1433 7.58153Z" fill="white"/>
<path d="M18.2387 14.3007C18.1757 14.3638 18.1127 14.3638 17.9867 14.3007C17.9237 14.2377 17.9237 14.1747 17.9867 14.0487C18.0497 13.9857 18.1127 13.9857 18.2387 14.0487C18.2387 14.1747 18.2387 14.2377 18.2387 14.3007Z" fill="white"/>
<path d="M21.0122 6.23581C20.9492 6.29881 20.8862 6.29881 20.7601 6.23581C20.6971 6.1728 20.6971 6.04679 20.7601 5.98378C20.8232 5.92077 20.8862 5.92077 21.0122 5.98378C21.0752 6.04679 21.0122 6.1728 21.0122 6.23581Z" fill="white"/>
<path d="M14.8364 8.88229C14.7734 8.9453 14.7104 8.9453 14.5844 8.88229C14.5214 8.81928 14.5214 8.75628 14.5844 8.63026C14.6474 8.56726 14.7104 8.56726 14.8364 8.63026C14.8994 8.75628 14.8994 8.81928 14.8364 8.88229Z" fill="white"/>
<path d="M16.9152 5.66865C16.8522 5.73165 16.8522 5.66865 16.8522 5.66865C16.7892 5.60564 16.8522 5.60564 16.8522 5.60564C16.9152 5.54263 16.9152 5.60564 16.9152 5.60564C16.9782 5.60564 16.9782 5.60564 16.9152 5.66865Z" fill="white"/>
<path d="M8.3471 19.7192C8.28409 19.7822 8.22108 19.7822 8.22108 19.7192C8.15808 19.6562 8.15808 19.5932 8.22108 19.5932C8.28409 19.5301 8.3471 19.5301 8.3471 19.5932C8.41011 19.5932 8.41011 19.6562 8.3471 19.7192Z" fill="white"/>
<path d="M20.0649 25.622C19.9388 25.748 19.7498 25.748 19.6238 25.622C19.4978 25.496 19.4978 25.307 19.6238 25.1809C19.7498 25.0549 19.9388 25.0549 20.0649 25.1809C20.1909 25.2439 20.2539 25.433 20.0649 25.622Z" fill="white"/>
<path d="M24.6352 31.8544C24.5092 31.9804 24.3201 31.9804 24.1941 31.8544C24.0681 31.7284 24.0681 31.5394 24.1941 31.4134C24.3201 31.2873 24.5092 31.2873 24.6352 31.4134C24.7612 31.4764 24.8242 31.6654 24.6352 31.8544Z" fill="white"/>
<path d="M8.42814 7.33927C8.30212 7.46528 8.1131 7.46528 7.98709 7.33927C7.86107 7.21326 7.86107 7.02424 7.98709 6.89822C8.1131 6.77221 8.30212 6.77221 8.42814 6.89822C8.55415 6.96123 8.61716 7.15025 8.42814 7.33927Z" fill="white"/>
<path d="M8.91447 13.9228C8.78845 14.0488 8.59943 14.0488 8.47342 13.9228C8.3474 13.7968 8.3474 13.6077 8.47342 13.4817C8.59943 13.3557 8.78845 13.3557 8.91447 13.4817C8.97747 13.6077 9.04048 13.7968 8.91447 13.9228Z" fill="white"/>
<path d="M19.6883 30.4307C19.7513 30.4937 19.8773 30.4937 20.0033 30.4307C20.0663 30.3676 20.0663 30.2416 20.0033 30.1156C19.9403 30.0526 19.8143 30.0526 19.6883 30.1156C19.5622 30.2416 19.5622 30.3676 19.6883 30.4307Z" fill="white"/>
<path d="M30.3364 23.6255C30.2734 23.6885 30.2104 23.6885 30.0844 23.6255C30.0214 23.5624 30.0214 23.4994 30.0844 23.3734C30.1474 23.3104 30.2104 23.3104 30.3364 23.3734C30.3994 23.4994 30.3994 23.6255 30.3364 23.6255Z" fill="white"/>
<path d="M4.37741 14.7417C4.3144 14.8047 4.25139 14.8047 4.12538 14.7417C4.06237 14.6787 4.06237 14.6157 4.12538 14.4896C4.18839 14.4266 4.25139 14.4266 4.37741 14.4896C4.44042 14.6157 4.44042 14.6787 4.37741 14.7417Z" fill="white"/>
<path d="M14.143 16.1279C14.08 16.1909 14.017 16.1909 13.891 16.1279C13.828 16.0649 13.828 16.0019 13.891 15.8759C13.954 15.8129 14.017 15.8129 14.143 15.8759C14.143 16.0019 14.143 16.0649 14.143 16.1279Z" fill="white"/>
<path d="M23.4673 26.5239C23.4042 26.5869 23.3412 26.5869 23.2152 26.5239C23.1522 26.4609 23.1522 26.3979 23.2152 26.2719C23.2782 26.2089 23.3412 26.2089 23.4673 26.2719C23.5303 26.3349 23.5303 26.4609 23.4673 26.5239Z" fill="white"/>
<path d="M32.0381 17.2617C31.9751 17.3247 31.786 17.3247 31.723 17.2617C31.66 17.1987 31.66 17.0097 31.723 16.9467C31.786 16.8837 31.9751 16.8837 32.0381 16.9467C32.0381 17.0727 32.1011 17.1987 32.0381 17.2617Z" fill="white"/>
<path d="M27.8799 27.3428C27.8169 27.4058 27.6278 27.4058 27.5648 27.3428C27.5018 27.2798 27.5018 27.0907 27.5648 27.0277C27.6278 26.9647 27.8169 26.9647 27.8799 27.0277C27.9429 27.1537 27.9429 27.2798 27.8799 27.3428Z" fill="white"/>
<path d="M19.3642 35.2143C19.3642 35.3058 19.3185 35.3516 19.227 35.3516C19.1356 35.3516 19.0898 35.3058 19.0898 35.2143C19.0898 35.1229 19.1356 35.0771 19.227 35.0771C19.3185 35.0771 19.3642 35.1229 19.3642 35.2143Z" fill="white"/>
<path d="M20.8942 25.1825C20.8942 25.2282 20.8485 25.2282 20.8485 25.2282C20.8027 25.2282 20.8027 25.1825 20.8027 25.1825C20.8027 25.1367 20.8485 25.1367 20.8485 25.1367C20.8485 25.1367 20.8942 25.1367 20.8942 25.1825Z" fill="white"/>
<path fill-rule="evenodd" clip-rule="evenodd" d="M0.485059 23.5969C0.596512 23.4579 0.686864 23.3016 0.751579 23.1347C0.894762 23.298 1.082 23.4107 1.29089 23.4368C1.59329 23.4704 1.87777 23.3607 2.08701 23.1554C2.12402 23.1403 2.16055 23.1239 2.19649 23.106C2.38112 23.4859 2.74988 23.7415 3.11865 23.6888C3.31947 23.6602 3.49415 23.54 3.61893 23.3701C3.78385 23.3826 3.95072 23.3635 4.1097 23.313C4.1552 23.6611 4.30788 23.996 4.56777 24.2559C4.85517 24.5433 5.23433 24.6996 5.62155 24.7248C5.69197 25.1258 5.88678 25.5119 6.20596 25.8311C6.54627 26.1714 6.96272 26.3703 7.39204 26.4279C7.46978 26.6012 7.57848 26.7625 7.71813 26.9022C8.3482 27.5323 9.41932 27.5323 10.0494 26.9022C10.4767 26.4749 10.6142 25.8448 10.4619 25.2869C10.6764 25.336 10.9041 25.3091 11.1202 25.201C11.4259 25.0481 11.5926 24.7562 11.6202 24.4236C11.99 24.6936 12.4755 24.6646 12.7582 24.3819C13.0089 24.1312 13.0601 23.7209 12.88 23.3733C13.0713 23.3801 13.256 23.3173 13.3885 23.1848C13.7036 22.9327 13.7036 22.4917 13.3885 22.1767C13.0735 21.9246 12.6324 21.9246 12.3804 22.1767C12.2198 22.3774 12.1615 22.6294 12.2056 22.8509C11.9219 22.7894 11.6302 22.8637 11.435 23.0588C11.3235 23.1517 11.2504 23.2666 11.2124 23.392C10.8973 23.1169 10.4873 23.0602 10.1121 23.2478C9.8982 23.3547 9.74103 23.5411 9.65504 23.7588C9.55694 23.4506 9.37518 23.165 9.10428 22.9328C8.58576 22.4142 7.89049 22.224 7.24225 22.3619C7.15799 22.2039 7.04359 22.0561 6.89903 21.9246C6.37943 21.405 5.55986 21.3139 4.93508 21.6514C4.87295 21.475 4.77144 21.3095 4.63053 21.1685C4.19122 20.7292 3.51261 20.6728 3.01183 20.9993C2.92527 20.8012 2.79269 20.6216 2.61406 20.4755C2.14463 20.006 1.4304 19.8864 0.836137 20.1164C0.685026 19.6805 0.383894 19.315 0.00459706 19.0713C-0.0299485 20.5889 0.130205 22.1109 0.485059 23.5969ZM18.4349 37.1898C17.072 37.2441 15.7032 37.1412 14.3581 36.8811C14.35 36.8733 14.3419 36.8653 14.3339 36.8573C13.7038 36.2273 13.7038 35.1561 14.3339 34.5261L14.3514 34.5088L14.3698 34.4911C14.2665 34.434 14.1694 34.3616 14.0818 34.274C13.7288 33.921 13.6231 33.4135 13.7645 32.9679C13.4164 32.9225 13.0814 32.7698 12.8215 32.5098C12.531 32.2194 12.3745 31.8353 12.3518 31.4438C11.9738 31.3646 11.6115 31.1739 11.3093 30.8717C10.9765 30.5388 10.7789 30.1332 10.7165 29.7139C10.5176 29.6352 10.3325 29.517 10.1749 29.3595C9.48183 28.7294 9.48183 27.6583 10.1749 27.0282C10.6616 26.5415 11.4115 26.4308 12.018 26.696C12.0315 26.6595 12.0473 26.6232 12.0653 26.5872C12.0972 26.5232 12.1363 26.4653 12.1812 26.4135C12.1154 26.1847 12.1376 25.9381 12.2542 25.7051C12.4206 25.3722 12.7793 25.2317 13.149 25.2291C13.173 25.0994 13.2319 24.9796 13.3255 24.886C13.3796 24.8319 13.4453 24.7894 13.5176 24.7585C13.3388 24.4113 13.3902 24.0021 13.6405 23.7518C13.8616 23.5308 14.2067 23.4648 14.5236 23.5758C14.5146 23.3816 14.5773 23.1933 14.7118 23.0588C15.0268 22.7437 15.4049 22.8067 15.7199 23.0588C15.9719 23.3738 15.9719 23.8149 15.7199 24.0669C15.5528 24.2005 15.3504 24.2633 15.1594 24.2552C15.2412 24.554 15.17 24.8686 14.9636 25.075C14.8434 25.2193 14.6865 25.2993 14.5173 25.3221C14.542 25.5354 14.4808 25.747 14.3336 25.8941C14.3102 25.9128 14.2861 25.9302 14.2614 25.9461C14.3493 26.1911 14.3339 26.4601 14.2074 26.7132C14.1755 26.7769 14.1366 26.8355 14.092 26.8888C14.1571 27.1171 14.1347 27.3629 14.0185 27.5953C13.9931 27.646 13.9632 27.6936 13.9296 27.7378C14.0266 27.8068 14.1196 27.8854 14.2076 27.9733C14.7352 28.5009 14.923 29.2116 14.7709 29.8694C14.9092 29.9496 15.0382 30.0526 15.1527 30.1786C15.5551 30.5809 15.7005 31.1631 15.589 31.6955C16.1213 31.5841 16.7034 31.7295 17.1057 32.1318C17.7358 32.7619 17.7358 33.833 17.1057 34.4631C17.0157 34.5531 16.9167 34.6302 16.8112 34.6945C17.1939 35.2047 17.2402 35.9107 16.95 36.4682C17.0017 36.4698 17.0537 36.4735 17.1059 36.4793C17.6412 36.5387 18.1062 36.8087 18.4349 37.1898Z" fill="#D5E7FA"/>
<path fill-rule="evenodd" clip-rule="evenodd" d="M17.1672 37.1949C12.827 37.0575 8.52063 35.3278 5.19856 32.0057C1.97308 28.7803 0.248693 24.6268 0.0253906 20.4155C0.619299 21.1008 0.768259 22.0372 0.47227 22.8068L0.724299 23.0588C1.98444 22.3657 3.62263 22.5547 4.69375 23.6259C4.94578 23.8779 5.1348 24.1299 5.26081 24.4449C6.0169 24.1299 6.962 24.2559 7.59207 24.886C7.7811 25.138 7.90711 25.3901 8.03312 25.6421C8.85222 25.327 9.79732 25.5161 10.4274 26.1461C10.7424 26.4612 10.9314 26.7762 10.9945 27.1542C11.5615 27.1542 12.1286 27.3433 12.5696 27.7843C13.3887 28.6034 13.4517 29.8005 12.8217 30.6826C13.1367 30.8717 13.3887 31.1237 13.5147 31.5647C13.5777 31.8798 13.5777 32.1948 13.4517 32.4468C14.0818 32.3838 14.7119 32.8249 14.9009 33.455C15.0899 34.022 14.9009 34.5891 14.4598 34.9041C15.2789 34.9671 16.035 35.2822 16.6021 35.9122C16.8976 36.2816 17.0872 36.728 17.1672 37.1949ZM12.0026 33.392C12.0656 33.3289 12.0656 33.3289 12.1286 33.3289C12.0656 33.392 12.0656 33.392 12.0026 33.392Z" fill="white"/>
<mask id="mask0" mask-type="alpha" maskUnits="userSpaceOnUse" x="0" y="0" width="35" height="37">
<rect width="35" height="37" fill="#C4C4C4"/>
</mask>
<g mask="url(#mask0)">
<path d="M19.2117 22.0106C19.6037 21.3834 19.839 20.6779 19.8391 19.894C19.8391 19.502 19.6431 19.306 19.4472 19.0317C19.212 18.7181 18.9769 18.483 18.6241 18.3654C18.5066 18.0127 18.2714 17.6991 17.9579 17.5424C17.6443 17.3072 17.4484 17.1113 17.0956 17.1505C16.3509 17.1898 15.6061 17.3859 14.9789 17.7779C15.1749 17.7387 15.3317 17.7387 15.4885 17.817C14.9397 18.2091 14.4301 18.7187 14.0381 19.2675C14.2732 19.1106 14.5084 19.0322 14.7436 18.9538C14.234 19.5418 13.8028 20.2866 13.5675 21.0705C13.7635 20.8745 13.9987 20.7177 14.1947 20.5217C13.7635 21.3449 13.5674 22.3248 13.6848 23.2263L13.6456 23.2655L13.6848 23.2263C14.5864 23.3438 15.6055 23.1869 16.3895 22.7165C16.1935 22.9125 16.0366 23.1477 15.8406 23.3437C16.6246 23.1084 17.3302 22.7164 17.9574 22.1675C17.879 22.4027 17.7613 22.6771 17.6437 22.8731C18.1925 22.4811 18.7021 21.9715 19.0942 21.4227C19.2509 21.6579 19.2509 21.8146 19.2117 22.0106Z" fill="#FFB453"/>
<path d="M19.0551 20.992C19.3688 20.5216 19.5256 19.9728 19.5257 19.424C19.5649 19.1497 19.4081 18.9929 19.2514 18.7577C19.0946 18.5226 18.8595 18.3658 18.6243 18.2874C18.5459 18.0523 18.3892 17.8171 18.154 17.6604C17.9188 17.5036 17.7621 17.3468 17.4877 17.3861C16.9389 17.3861 16.3902 17.543 15.9198 17.8566C16.0374 17.8174 16.155 17.8566 16.2726 17.8957C15.8806 18.2094 15.5277 18.5622 15.2141 18.9542C15.3709 18.8758 15.5669 18.7581 15.7629 18.7189C15.3709 19.1893 15.0965 19.6989 14.9396 20.2477C15.0964 20.0909 15.2532 20.0125 15.41 19.8557C15.0964 20.4828 14.9395 21.1884 15.057 21.8547C15.7625 21.933 16.4289 21.8154 17.0561 21.5017C16.8993 21.6585 16.8209 21.8153 16.6641 21.9721C17.2128 21.8153 17.7616 21.5017 18.1928 21.1488C18.1536 21.3448 18.0752 21.5016 17.9576 21.6976C18.3496 21.384 18.7416 21.0704 19.016 20.6392C19.0944 20.7176 19.0944 20.8744 19.0551 20.992Z" fill="#FF8A53"/>
<path d="M18.7427 20.5214C18.9387 20.1686 19.0955 19.7767 19.0955 19.3847C19.0956 19.1495 19.0172 19.0711 18.8604 18.9144C18.7429 18.7184 18.5861 18.64 18.3901 18.5225C18.3509 18.3265 18.1942 18.1697 17.9982 18.0521C17.8022 17.9346 17.7238 17.8562 17.5279 17.817C17.1359 17.8171 16.7047 17.9347 16.3911 18.1699C16.4695 18.1699 16.5871 18.1307 16.6655 18.2091C16.3519 18.4443 16.0775 18.7187 15.8815 18.9931C15.9991 18.8755 16.1167 18.8363 16.2735 18.8363C15.999 19.1891 15.7638 19.581 15.607 19.973C15.7246 19.8554 15.8422 19.8162 15.9598 19.6986C15.7246 20.169 15.6069 20.6786 15.6853 21.2273C16.1948 21.2665 16.7436 21.188 17.2139 20.9528C17.0963 21.0704 17.0571 21.188 16.9395 21.3056C17.3707 21.1879 17.7627 20.9527 18.0763 20.6391C18.0371 20.7567 17.9587 20.9135 17.9195 21.0311C18.2331 20.7959 18.5075 20.5215 18.7035 20.2471C18.7819 20.3255 18.8211 20.443 18.7427 20.5214Z" fill="#FF6E53"/>
<path d="M26.7767 23.7743L26.5424 15.7783L21.1725 15.9748L21.3691 10.6049L13.373 10.3706L12.7456 13.2712L20.7805 16.3668L23.8761 24.4018L26.7767 23.7743Z" fill="url(#paint1_linear)"/>
<path opacity="0.2" d="M21.3694 10.6052L18.9392 10.5271C17.8416 11.8599 16.9007 13.1927 16.1558 14.5646L20.7808 16.3672L22.5049 20.8354C23.8769 20.0905 25.2489 19.1104 26.6209 17.9736L26.5427 15.7786L21.1336 16.0144L21.3694 10.6052Z" fill="black"/>
<path d="M29.6001 7.38964C27.0132 6.99797 23.2893 8.68383 20.1533 11.8199C18.546 13.4271 17.3307 15.1911 16.5858 16.8766C17.0561 17.5821 17.5656 18.2484 18.1927 18.8755C18.8197 19.5026 19.486 20.012 20.1915 20.4823C21.877 19.7374 23.641 18.5221 25.2482 16.9149C28.3451 13.7396 29.9918 9.97657 29.6001 7.38964Z" fill="white"/>
<path opacity="0.3" d="M29.6001 7.38964C27.0132 6.99797 23.2893 8.68383 20.1533 11.8199C18.546 13.4271 17.3307 15.1911 16.5858 16.8766C17.0561 17.5821 17.5656 18.2484 18.1927 18.8755C18.8197 19.5026 19.486 20.012 20.1915 20.4823C21.877 19.7374 23.641 18.5221 25.2482 16.9149C28.3451 13.7396 29.9918 9.97657 29.6001 7.38964Z" fill="black"/>
<path opacity="0.3" d="M17.2153 15.6224C17.3328 16.2104 17.6071 16.7983 17.9598 17.3078C18.3909 18.0525 19.018 18.6795 19.6058 19.3458C19.4882 19.4634 19.3314 19.5418 19.1746 19.6202C19.4882 19.8554 19.8409 20.1297 20.1545 20.3649C20.86 20.0512 21.5656 19.6592 22.2712 19.1887C22.3104 18.9144 22.2321 18.6008 22.1537 18.3656C21.9186 17.6601 21.5267 17.033 21.0956 16.4451C20.7037 15.8964 20.2726 15.3085 19.6455 14.995C19.0576 14.7207 18.3521 14.7208 17.6857 14.7601C17.5289 15.0737 17.3329 15.3481 17.2153 15.6224Z" fill="black"/>
<path d="M33.9523 3.03871C30.5814 2.56873 25.7209 4.68587 21.6048 8.80195C19.5271 10.8796 17.959 13.1531 16.9397 15.3483C17.5275 16.2497 18.233 17.1119 19.056 17.935C19.8398 18.7188 20.7021 19.4243 21.6427 20.0513C23.7986 19.0712 26.1114 17.4638 28.189 15.3862C32.3051 11.2701 34.4223 6.40955 33.9523 3.03871Z" fill="white"/>
<path d="M30.5806 6.64526C31.4428 7.50748 32.0699 8.52652 32.4617 9.62397C33.6771 7.23286 34.2261 4.88102 33.9519 3.03882C32.0313 2.76466 29.6403 3.35287 27.21 4.60742C28.425 5.03845 29.6008 5.66546 30.5806 6.64526Z" fill="url(#paint2_linear)"/>
<path d="M13.2552 12.84C13.0199 14.0159 12.7847 14.0159 12.5103 13.9767C12.236 13.9376 12.0792 13.8592 12.2753 12.6441C12.5106 11.4682 13.0988 9.54752 13.3339 9.62589C13.6475 9.62586 13.4905 11.5857 13.2552 12.84Z" fill="white"/>
<path d="M24.3068 23.8921C23.1309 24.1274 23.1309 24.3626 23.17 24.637C23.2092 24.9113 23.2876 25.0681 24.5027 24.872C25.6786 24.6367 27.5993 24.0485 27.5209 23.8134C27.4817 23.4606 25.5219 23.6176 24.3068 23.8921Z" fill="white"/>
<path opacity="0.1" d="M33.9512 3.19531C32.6573 6.60555 29.9523 10.6431 26.2282 14.3672C24.3466 16.2488 22.4258 17.8561 20.505 19.1498C20.8578 19.4241 21.2497 19.7376 21.6416 19.9728C23.7975 18.9926 26.1103 17.3853 28.188 15.3077C32.2256 11.3484 34.3428 6.56617 33.9512 3.19531Z" fill="black"/>
<path d="M29.3648 11.1526C28.3848 12.1326 26.8169 12.1328 25.8371 11.153C24.8573 10.1732 24.8575 8.60536 25.8375 7.62535C26.8175 6.64534 28.3854 6.64516 29.3652 7.62496C30.3058 8.64395 30.3056 10.2118 29.3648 11.1526Z" fill="#A6F6FF"/>
<g opacity="0.3">
<path opacity="0.3" d="M29.757 8.17399L25.5238 8.17446C25.2494 8.60565 25.1709 9.15441 25.21 9.66396L30.1488 9.66341C30.1097 9.15386 29.9921 8.64432 29.757 8.17399Z" fill="white"/>
<path opacity="0.3" d="M29.6003 10.8394C29.7964 10.565 29.9532 10.2514 29.9924 9.89866L25.132 9.8992C25.2104 10.2128 25.328 10.5655 25.5239 10.8399L29.6003 10.8394Z" fill="white"/>
</g>
<path opacity="0.1" d="M29.3273 7.66472C28.6611 6.99846 27.6812 6.80258 26.858 7.07705C27.4067 7.15538 27.8771 7.39051 28.269 7.78243C29.2488 8.76223 29.2486 10.3301 28.2686 11.3101C27.955 11.6237 27.6022 11.8197 27.2494 11.9374C27.955 12.0157 28.7389 11.7804 29.2877 11.2316C30.3069 10.2124 30.3071 8.64453 29.3273 7.66472Z" fill="black"/>
<path d="M25.5628 11.4275C24.4654 10.3301 24.4656 8.52704 25.5633 7.42942C26.6609 6.33179 28.4639 6.33159 29.5613 7.42898C30.6587 8.52636 30.6585 10.3294 29.5609 11.427C28.5024 12.5638 26.6994 12.564 25.5628 11.4275ZM29.0517 7.93859C28.2287 7.11555 26.896 7.1157 26.0728 7.93891C25.2495 8.76213 25.2494 10.0948 26.0724 10.9178C26.8955 11.7409 28.2281 11.7407 29.0514 10.9175C29.8746 10.0943 29.8747 8.76162 29.0517 7.93859Z" fill="url(#paint3_linear)"/>
</g>
<defs>
<linearGradient id="paint0_linear" x1="6.71624" y1="30.436" x2="31.6686" y2="5.48367" gradientUnits="userSpaceOnUse">
<stop stop-color="#1E0D39"/>
<stop offset="1" stop-color="#5324A2"/>
</linearGradient>
<linearGradient id="paint1_linear" x1="18.1353" y1="18.9919" x2="24.0792" y2="13.048" gradientUnits="userSpaceOnUse">
<stop stop-color="#6D45B2"/>
<stop offset="1" stop-color="#F236D8"/>
</linearGradient>
<linearGradient id="paint2_linear" x1="29.287" y1="2.53449" x2="34.4201" y2="7.66767" gradientUnits="userSpaceOnUse">
<stop stop-color="#711D9E"/>
<stop offset="1" stop-color="#F236D8"/>
</linearGradient>
<linearGradient id="paint3_linear" x1="24.757" y1="9.42197" x2="30.4448" y2="9.4226" gradientUnits="userSpaceOnUse">
<stop stop-color="#551F8D"/>
<stop offset="1" stop-color="#F236D8"/>
</linearGradient>
</defs>
</svg>
