<svg width="158" height="165" viewBox="0 0 158 165" fill="none" xmlns="http://www.w3.org/2000/svg">
<path d="M52.4701 105.039C72.6893 125.258 105.408 125.258 125.443 105.039C145.478 84.8199 145.662 52.1016 125.443 32.0662C105.224 12.0308 72.5055 11.847 52.4701 32.0662C32.2509 52.1016 32.2509 84.8199 52.4701 105.039Z" fill="url(#paint0_linear)"/>
<path d="M72.7347 33.786C72.9185 33.9698 73.2861 33.9698 73.6538 33.786C73.8376 33.6022 73.8376 33.2345 73.6538 32.8669C73.4699 32.6831 73.1023 32.6831 72.7347 32.8669C72.3671 33.2345 72.3671 33.6022 72.7347 33.786Z" fill="white"/>
<path d="M90.5196 53.3882C90.3358 53.572 90.152 53.572 89.7843 53.3882C89.6005 53.2044 89.6005 53.0206 89.7843 52.653C89.9682 52.4692 90.152 52.4692 90.5196 52.653C90.5196 53.0206 90.5196 53.2044 90.5196 53.3882Z" fill="white"/>
<path d="M98.6065 29.8604C98.4227 30.0442 98.2389 30.0442 97.8713 29.8604C97.6874 29.6766 97.6874 29.309 97.8713 29.1252C98.0551 28.9414 98.2389 28.9414 98.6065 29.1252C98.7903 29.309 98.6065 29.6766 98.6065 29.8604Z" fill="white"/>
<path d="M80.5919 37.5805C80.408 37.7643 80.2242 37.7643 79.8566 37.5805C79.6728 37.3967 79.6728 37.2129 79.8566 36.8453C80.0404 36.6615 80.2242 36.6615 80.5919 36.8453C80.7757 37.2129 80.7757 37.3967 80.5919 37.5805Z" fill="white"/>
<path d="M86.6581 28.2061C86.4743 28.3899 86.4743 28.2061 86.4743 28.2061C86.2905 28.0223 86.4743 28.0223 86.4743 28.0223C86.6581 27.8385 86.6581 28.0223 86.6581 28.0223C86.8419 28.0223 86.8419 28.0223 86.6581 28.2061Z" fill="white"/>
<path d="M61.6608 69.196C61.4769 69.3798 61.2931 69.3798 61.2931 69.196C61.1093 69.0122 61.1093 68.8284 61.2931 68.8284C61.4769 68.6446 61.6608 68.6446 61.6608 68.8284C61.8446 68.8284 61.8446 69.0122 61.6608 69.196Z" fill="white"/>
<path d="M95.8407 86.4155C95.4731 86.7831 94.9217 86.7831 94.554 86.4155C94.1864 86.0479 94.1864 85.4965 94.554 85.1288C94.9217 84.7612 95.4731 84.7612 95.8407 85.1288C96.2083 85.3126 96.3921 85.8641 95.8407 86.4155Z" fill="white"/>
<path d="M109.175 104.598C108.807 104.966 108.256 104.966 107.888 104.598C107.52 104.231 107.52 103.679 107.888 103.312C108.256 102.944 108.807 102.944 109.175 103.312C109.542 103.495 109.726 104.047 109.175 104.598Z" fill="white"/>
<path d="M61.8993 33.0793C61.5317 33.4469 60.9803 33.4469 60.6126 33.0793C60.245 32.7116 60.245 32.1602 60.6126 31.7926C60.9803 31.425 61.5317 31.425 61.8993 31.7926C62.2669 31.9764 62.4507 32.5278 61.8993 33.0793Z" fill="white"/>
<path d="M63.3153 52.2854C62.9477 52.653 62.3963 52.653 62.0286 52.2854C61.661 51.9178 61.661 51.3664 62.0286 50.9987C62.3963 50.6311 62.9477 50.6311 63.3153 50.9987C63.4991 51.3664 63.6829 51.9178 63.3153 52.2854Z" fill="white"/>
<path d="M94.7454 100.444C94.9293 100.628 95.2969 100.628 95.6645 100.444C95.8483 100.26 95.8483 99.8924 95.6645 99.5248C95.4807 99.341 95.1131 99.341 94.7454 99.5248C94.3778 99.8924 94.3778 100.26 94.7454 100.444Z" fill="white"/>
<path d="M125.811 80.5923C125.627 80.7761 125.443 80.7761 125.075 80.5923C124.892 80.4085 124.892 80.2247 125.075 79.857C125.259 79.6732 125.443 79.6732 125.811 79.857C125.994 80.2247 125.994 80.5923 125.811 80.5923Z" fill="white"/>
<path d="M50.0801 54.675C49.8963 54.8588 49.7125 54.8588 49.3449 54.675C49.1611 54.4911 49.1611 54.3073 49.3449 53.9397C49.5287 53.7559 49.7125 53.7559 50.0801 53.9397C50.2639 54.3073 50.2639 54.4911 50.0801 54.675Z" fill="white"/>
<path d="M78.5713 58.7188C78.3875 58.9026 78.2037 58.9026 77.8361 58.7188C77.6523 58.535 77.6523 58.3512 77.8361 57.9836C78.0199 57.7998 78.2037 57.7998 78.5713 57.9836C78.5713 58.3512 78.5713 58.535 78.5713 58.7188Z" fill="white"/>
<path d="M105.774 89.0476C105.591 89.2314 105.407 89.2314 105.039 89.0476C104.855 88.8638 104.855 88.68 105.039 88.3124C105.223 88.1285 105.407 88.1285 105.774 88.3124C105.958 88.4962 105.958 88.8638 105.774 89.0476Z" fill="white"/>
<path d="M130.773 62.0274C130.589 62.2112 130.037 62.2112 129.854 62.0274C129.67 61.8436 129.67 61.2921 129.854 61.1083C130.037 60.9245 130.589 60.9245 130.773 61.1083C130.773 61.4759 130.957 61.8436 130.773 62.0274Z" fill="white"/>
<path d="M118.643 91.4371C118.459 91.6209 117.908 91.6209 117.724 91.4371C117.54 91.2533 117.54 90.7019 117.724 90.5181C117.908 90.3343 118.459 90.3343 118.643 90.5181C118.827 90.8857 118.827 91.2533 118.643 91.4371Z" fill="white"/>
<path d="M93.8013 114.4C93.8013 114.667 93.6679 114.801 93.4012 114.801C93.1344 114.801 93.001 114.667 93.001 114.4C93.001 114.134 93.1344 114 93.4012 114C93.6679 114 93.8013 114.134 93.8013 114.4Z" fill="white"/>
<path d="M98.2678 85.1336C98.2678 85.267 98.1344 85.267 98.1344 85.267C98.001 85.267 98.001 85.1336 98.001 85.1336C98.001 85.0002 98.1344 85.0002 98.1344 85.0002C98.1344 85.0002 98.2678 85.0002 98.2678 85.1336Z" fill="white"/>
<path fill-rule="evenodd" clip-rule="evenodd" d="M38.72 80.509C39.0455 80.1034 39.3094 79.647 39.4983 79.1596C39.916 79.6362 40.4623 79.9649 41.0717 80.0411C41.9539 80.1391 42.7838 79.8189 43.3942 79.22C43.5022 79.176 43.6087 79.1281 43.7136 79.0761C44.2522 80.1842 45.328 80.93 46.4038 80.7763C46.9896 80.6926 47.4993 80.3422 47.8633 79.8464C48.3444 79.8828 48.8312 79.8273 49.295 79.68C49.4277 80.6954 49.8732 81.6724 50.6313 82.4306C51.4698 83.269 52.5759 83.725 53.7055 83.7986C53.911 84.9682 54.4793 86.0947 55.4104 87.0259C56.4032 88.0187 57.6181 88.599 58.8706 88.7668C59.0974 89.2726 59.4145 89.7432 59.8219 90.1506C61.66 91.9887 64.7848 91.9887 66.6229 90.1506C67.8694 88.9041 68.2706 87.0658 67.8264 85.4383C68.4521 85.5817 69.1163 85.503 69.7468 85.1877C70.6387 84.7418 71.1249 83.8901 71.2053 82.9198C72.2843 83.7076 73.7007 83.6228 74.5253 82.7982C75.2567 82.0669 75.406 80.8699 74.8808 79.8557C75.4386 79.8757 75.9776 79.6923 76.3642 79.3058C77.2832 78.5705 77.2832 77.2839 76.3642 76.3648C75.4451 75.6296 74.1584 75.6296 73.4232 76.3648C72.9546 76.9505 72.7847 77.6854 72.9133 78.3319C72.0857 78.1523 71.2345 78.369 70.6653 78.9382C70.3399 79.2093 70.1266 79.5444 70.0157 79.9104C69.0966 79.1079 67.9003 78.9424 66.8058 79.4896C66.1818 79.8016 65.7233 80.3453 65.4724 80.9803C65.1863 80.0814 64.656 79.248 63.8657 78.5706C62.353 77.0579 60.3247 76.5028 58.4336 76.9053C58.1878 76.4443 57.854 76.013 57.4323 75.6296C55.9165 74.1137 53.5256 73.848 51.7029 74.8323C51.5216 74.3178 51.2255 73.8349 50.8144 73.4238C49.5328 72.1422 47.5531 71.9776 46.0922 72.93C45.8397 72.3523 45.4529 71.8283 44.9318 71.4019C43.5623 70.0325 41.4787 69.6833 39.745 70.3544C39.304 69.0823 38.4251 68.0158 37.3181 67.3048C37.2173 71.7326 37.6846 76.1736 38.72 80.509ZM91.086 120.163C87.1099 120.321 83.117 120.021 79.1931 119.262C79.1692 119.239 79.1455 119.216 79.122 119.193C77.2839 117.355 77.2839 114.23 79.122 112.392L79.1732 112.341L79.2268 112.29C78.9255 112.123 78.6423 111.912 78.3868 111.657C77.357 110.627 77.0484 109.146 77.4609 107.846C76.4454 107.714 75.4681 107.268 74.7099 106.51C73.8626 105.663 73.4058 104.542 73.3397 103.4C72.2369 103.169 71.1801 102.612 70.2984 101.731C69.3275 100.76 68.7511 99.5765 68.5691 98.3534C67.9888 98.1236 67.4487 97.7789 66.9891 97.3193C64.9672 95.4811 64.9672 92.3564 66.9891 90.5182C68.409 89.0984 70.5966 88.7753 72.3659 89.5491C72.4054 89.4425 72.4513 89.3366 72.5038 89.2316C72.5971 89.045 72.7111 88.8762 72.8421 88.7251C72.65 88.0574 72.7149 87.3382 73.0549 86.6583C73.5404 85.6872 74.5869 85.2773 75.6653 85.2696C75.7355 84.8913 75.9071 84.5419 76.1803 84.2687C76.3382 84.1109 76.5298 83.987 76.7408 83.8969C76.219 82.8839 76.3692 81.6901 77.0992 80.9601C77.7441 80.3151 78.7512 80.1228 79.6756 80.4465C79.6493 79.8798 79.8322 79.3305 80.2245 78.9382C81.1436 78.0191 82.2465 78.2029 83.1655 78.9382C83.9008 79.8572 83.9008 81.1439 83.1655 81.8792C82.6782 82.269 82.0874 82.4522 81.5304 82.4286C81.769 83.3001 81.5614 84.2179 80.9592 84.8201C80.6085 85.241 80.1507 85.4745 79.6573 85.541C79.7292 86.1633 79.5506 86.7804 79.1213 87.2097C79.053 87.2643 78.9826 87.315 78.9106 87.3615C79.1669 88.0762 79.1222 88.8609 78.753 89.5992C78.6601 89.785 78.5467 89.9562 78.4164 90.1115C78.6064 90.7775 78.5409 91.4946 78.2019 92.1726C78.1279 92.3206 78.0408 92.4594 77.9425 92.5883C78.2256 92.7898 78.4971 93.0188 78.7537 93.2755C80.2929 94.8147 80.8407 96.8878 80.3969 98.8069C80.8004 99.0408 81.1769 99.3414 81.5109 99.7088C82.6847 100.883 83.1089 102.581 82.7835 104.134C84.3364 103.809 86.0347 104.233 87.2083 105.407C89.0464 107.245 89.0464 110.37 87.2083 112.208C86.9457 112.471 86.6568 112.696 86.3492 112.883C87.4656 114.372 87.6005 116.431 86.7541 118.058C86.9048 118.062 87.0565 118.073 87.209 118.09C88.7704 118.263 90.1271 119.051 91.086 120.163Z" fill="#D5E7FA"/>
<path fill-rule="evenodd" clip-rule="evenodd" d="M87.3867 120.178C74.7248 119.777 62.1614 114.731 52.4697 105.039C43.0597 95.6292 38.0292 83.512 37.3779 71.226C39.1111 73.2251 39.5459 75.9573 38.6823 78.2027L39.4176 78.938C43.0938 76.916 47.8729 77.4675 50.9977 80.5923C51.7329 81.3275 52.2843 82.0628 52.652 82.9818C54.8577 82.0628 57.6149 82.4304 59.453 84.2685C60.0044 85.0037 60.372 85.739 60.7397 86.4742C63.1292 85.5552 65.8864 86.1066 67.7245 87.9447C68.6435 88.8638 69.195 89.7828 69.3788 90.8857C71.0331 90.8857 72.6874 91.4371 73.974 92.7238C76.3636 95.1133 76.5474 98.6058 74.7093 101.179C75.6283 101.731 76.3636 102.466 76.7312 103.752C76.915 104.672 76.915 105.591 76.5474 106.326C78.3855 106.142 80.2236 107.429 80.7751 109.267C81.3265 110.921 80.7751 112.575 79.4884 113.494C81.8779 113.678 84.0837 114.597 85.738 116.435C86.6001 117.513 87.1533 118.815 87.3867 120.178ZM72.3197 109.083C72.5036 108.899 72.5036 108.899 72.6874 108.899C72.5036 109.083 72.5036 109.083 72.3197 109.083Z" fill="white"/>
<path d="M14.8319 76.3304C14.8047 76.4214 14.7669 76.4928 14.7185 76.5444C14.6313 76.6374 14.5176 76.6861 14.3775 76.6906C14.2574 76.6944 14.1508 76.6527 14.0579 76.5655L10.8818 73.5859C10.6752 73.3921 10.5687 73.1951 10.5624 72.9949C10.556 72.7947 10.5712 72.6439 10.608 72.5426L12.0518 68.3334L11.4166 67.7375L8.64041 70.6966C8.53382 70.8103 8.40045 70.8696 8.24031 70.8747C8.08016 70.8798 7.94327 70.8291 7.82966 70.7225L4.79301 67.8737C4.67939 67.7671 4.62003 67.6337 4.61492 67.4736C4.60981 67.3134 4.66055 67.1766 4.76714 67.0629L14.1566 57.0544C14.2632 56.9408 14.3966 56.8814 14.5567 56.8763C14.7169 56.8712 14.8537 56.9219 14.9674 57.0285L19.5533 61.3308C20.297 62.0285 20.8808 62.7413 21.3048 63.4692C21.7385 64.1868 22.0018 64.8998 22.0945 65.6082C22.1969 66.3063 22.1386 66.9895 21.9194 67.6578C21.7003 68.326 21.3146 68.9545 20.7623 69.5433C20.1033 70.2456 19.3816 70.7045 18.5969 70.9199C17.8122 71.1353 17.0267 71.1654 16.2402 71.0102L14.8319 76.3304ZM14.1782 64.7938L15.3092 65.8548C15.5467 66.0777 15.795 66.1649 16.0539 66.1166C16.3329 66.0676 16.5693 65.9398 16.7631 65.7333C16.9569 65.5267 17.0794 65.2823 17.1305 65.0001C17.2016 64.7173 17.1081 64.4548 16.8498 64.2125L15.7189 63.1515L14.1782 64.7938ZM26.8803 82.9146C26.9939 83.0212 27.0532 83.1546 27.0583 83.3147C27.0635 83.4749 27.0127 83.6118 26.9061 83.7254L24.8567 85.9099C24.7501 86.0235 24.6168 86.0829 24.4566 86.088C24.2965 86.0931 24.1596 86.0424 24.046 85.9358L15.9741 78.3632C15.8605 78.2566 15.8011 78.1232 15.796 77.963C15.7909 77.8029 15.8416 77.666 15.9482 77.5524L25.3377 67.5439C25.4443 67.4302 25.5776 67.3709 25.7378 67.3658C25.8979 67.3607 26.0348 67.4114 26.1484 67.518L34.0964 74.9743C34.21 75.0809 34.2694 75.2143 34.2745 75.3744C34.2796 75.5346 34.2288 75.6715 34.1223 75.7851L32.0728 77.9696C31.9663 78.0832 31.8329 78.1426 31.6727 78.1477C31.5126 78.1528 31.3757 78.1021 31.2621 77.9955L26.6142 73.635L25.6985 74.6111L30.0056 78.6518C30.1192 78.7584 30.1785 78.8917 30.1836 79.0519C30.1888 79.212 30.138 79.3489 30.0314 79.4625L28.1419 81.4766C28.0353 81.5903 27.9019 81.6496 27.7418 81.6547C27.5817 81.6598 27.4448 81.6091 27.3312 81.5025L23.0241 77.4618L22.1084 78.4379L26.8803 82.9146ZM44.2907 84.5381C44.4043 84.6447 44.4637 84.7781 44.4688 84.9382C44.4739 85.0984 44.4232 85.2352 44.3166 85.3489L42.1073 87.7038C42.0007 87.8174 41.8673 87.8768 41.7072 87.8819C41.547 87.887 41.4102 87.8363 41.2966 87.7297L36.8655 83.5727L35.7899 84.7192L39.9111 88.5855C40.0247 88.6921 40.0841 88.8254 40.0892 88.9856C40.0943 89.1457 40.0436 89.2826 39.937 89.3962L37.7422 91.7357C37.6356 91.8493 37.5023 91.9087 37.3421 91.9138C37.182 91.9189 37.0451 91.8681 36.9315 91.7616L32.8103 87.8953L30.0778 90.808C29.9712 90.9216 29.8378 90.981 29.6777 90.9861C29.5175 90.9912 29.3806 90.9405 29.267 90.8339L26.3078 88.0577C26.1942 87.9512 26.1349 87.8178 26.1298 87.6576C26.1246 87.4975 26.1754 87.3606 26.282 87.247L35.6714 77.2384C35.778 77.1248 35.9114 77.0655 36.0715 77.0604C36.2317 77.0552 36.3686 77.106 36.4822 77.2126L44.2907 84.5381ZM36.3239 97.4543C36.2103 97.3477 36.1509 97.2143 36.1458 97.0541C36.1407 96.894 36.1914 96.7571 36.298 96.6435L45.6875 86.635C45.7941 86.5213 45.9274 86.462 46.0876 86.4569C46.2477 86.4518 46.3846 86.5025 46.4982 86.6091L49.6588 89.5742C49.7724 89.6808 49.8318 89.8141 49.8369 89.9743C49.842 90.1344 49.7913 90.2713 49.6847 90.3849L40.2952 100.393C40.1886 100.507 40.0553 100.566 39.8951 100.572C39.735 100.577 39.5981 100.526 39.4845 100.419L36.3239 97.4543ZM61.1263 100.332C61.2399 100.439 61.2992 100.572 61.3044 100.732C61.3095 100.893 61.2587 101.029 61.1521 101.143L51.7627 111.152C51.6561 111.265 51.5227 111.325 51.3626 111.33C51.2024 111.335 51.0655 111.284 50.9519 111.177L48.504 108.881C48.2974 108.687 48.1913 108.5 48.1855 108.32C48.1798 108.14 48.1856 108.009 48.2031 107.929L49.2911 101.522L45.6429 105.41C45.5363 105.524 45.4029 105.583 45.2428 105.588C45.0826 105.594 44.9458 105.543 44.8321 105.436L42.0279 102.805C41.9143 102.699 41.8549 102.565 41.8498 102.405C41.8447 102.245 41.8954 102.108 42.002 101.995L51.3915 91.9861C51.4981 91.8725 51.6314 91.8132 51.7916 91.8081C51.9517 91.8029 52.0886 91.8537 52.2022 91.9603L54.6502 94.2568C54.8567 94.4506 54.9629 94.6375 54.9686 94.8177C54.9744 94.9979 54.9685 95.1283 54.9511 95.209L53.5433 101.957L57.5113 97.7274C57.6179 97.6138 57.7512 97.5544 57.9114 97.5493C58.0715 97.5442 58.2084 97.5949 58.322 97.7015L61.1263 100.332ZM64.4026 118.116C64.5162 118.223 64.5756 118.356 64.5807 118.516C64.5858 118.676 64.5351 118.813 64.4285 118.927L62.3791 121.111C62.2725 121.225 62.1391 121.284 61.979 121.289C61.8188 121.295 61.6819 121.244 61.5683 121.137L53.4964 113.565C53.3828 113.458 53.3234 113.325 53.3183 113.164C53.3132 113.004 53.364 112.867 53.4705 112.754L62.86 102.745C62.9666 102.632 63.1 102.572 63.2601 102.567C63.4203 102.562 63.5572 102.613 63.6708 102.719L71.6187 110.176C71.7323 110.282 71.7917 110.416 71.7968 110.576C71.8019 110.736 71.7512 110.873 71.6446 110.987L69.5952 113.171C69.4886 113.285 69.3552 113.344 69.1951 113.349C69.0349 113.354 68.8981 113.304 68.7844 113.197L64.1365 108.836L63.2208 109.813L67.5279 113.853C67.6415 113.96 67.7009 114.093 67.706 114.253C67.7111 114.413 67.6604 114.55 67.5538 114.664L65.6643 116.678C65.5577 116.792 65.4243 116.851 65.2642 116.856C65.104 116.861 64.9671 116.811 64.8535 116.704L60.5464 112.663L59.6307 113.639L64.4026 118.116ZM73.8691 131.716C73.8419 131.807 73.8041 131.878 73.7557 131.93C73.6685 132.023 73.5548 132.072 73.4147 132.076C73.2946 132.08 73.188 132.038 73.0951 131.951L69.919 128.971C69.7124 128.778 69.6059 128.581 69.5995 128.38C69.5932 128.18 69.6084 128.029 69.6452 127.928L71.089 123.719L70.4537 123.123L67.6776 126.082C67.571 126.196 67.4376 126.255 67.2775 126.26C67.1173 126.265 66.9805 126.215 66.8668 126.108L63.8302 123.259C63.7166 123.153 63.6572 123.019 63.6521 122.859C63.647 122.699 63.6977 122.562 63.8043 122.448L73.1938 112.44C73.3004 112.326 73.4338 112.267 73.5939 112.262C73.754 112.257 73.8909 112.307 74.0045 112.414L78.5905 116.716C79.3342 117.414 79.918 118.127 80.342 118.855C80.7757 119.572 81.0389 120.285 81.1317 120.994C81.2341 121.692 81.1758 122.375 80.9566 123.043C80.7375 123.712 80.3518 124.34 79.7994 124.929C79.1405 125.631 78.4187 126.09 77.6341 126.305C76.8494 126.521 76.0638 126.551 75.2774 126.396L73.8691 131.716ZM73.2154 120.179L74.3463 121.24C74.5839 121.463 74.8322 121.55 75.0911 121.502C75.3701 121.453 75.6065 121.325 75.8003 121.119C75.9941 120.912 76.1166 120.668 76.1677 120.386C76.2388 120.103 76.1453 119.84 75.887 119.598L74.756 118.537L73.2154 120.179ZM77.2535 135.852C77.1399 135.746 77.0805 135.612 77.0754 135.452C77.0703 135.292 77.1211 135.155 77.2276 135.041L80.091 131.989L83.073 121.825C83.0911 121.764 83.1244 121.708 83.1729 121.656C83.2601 121.563 83.3637 121.515 83.4838 121.511C83.624 121.506 83.7405 121.548 83.8335 121.635L86.7462 124.368C86.9527 124.561 87.0592 124.758 87.0656 124.958C87.072 125.159 87.0613 125.294 87.0335 125.365L85.6613 129.933L90.1321 128.272C90.2012 128.24 90.3359 128.221 90.5361 128.214C90.7363 128.208 90.9396 128.302 91.1462 128.495L94.0589 131.228C94.1519 131.315 94.1954 131.424 94.1896 131.554C94.2037 131.684 94.1672 131.796 94.08 131.889C94.0315 131.94 93.9776 131.977 93.9182 131.999L83.9643 135.623L81.1009 138.675C80.9943 138.789 80.861 138.848 80.7008 138.853C80.5407 138.858 80.4038 138.808 80.2902 138.701L77.2535 135.852Z" fill="#3C079D"/>
<path d="M14.8319 76.3304C14.8047 76.4214 14.7669 76.4928 14.7185 76.5444C14.6313 76.6374 14.5176 76.6861 14.3775 76.6906C14.2574 76.6944 14.1508 76.6527 14.0579 76.5655L10.8818 73.5859C10.6752 73.3921 10.5687 73.1951 10.5624 72.9949C10.556 72.7947 10.5712 72.6439 10.608 72.5426L12.0518 68.3334L11.4166 67.7375L8.64041 70.6966C8.53382 70.8103 8.40045 70.8696 8.24031 70.8747C8.08016 70.8798 7.94327 70.8291 7.82966 70.7225L4.79301 67.8737C4.67939 67.7671 4.62003 67.6337 4.61492 67.4736C4.60981 67.3134 4.66055 67.1766 4.76714 67.0629L14.1566 57.0544C14.2632 56.9408 14.3966 56.8814 14.5567 56.8763C14.7169 56.8712 14.8537 56.9219 14.9674 57.0285L19.5533 61.3308C20.297 62.0285 20.8808 62.7413 21.3048 63.4692C21.7385 64.1868 22.0018 64.8998 22.0945 65.6082C22.1969 66.3063 22.1386 66.9895 21.9194 67.6578C21.7003 68.326 21.3146 68.9545 20.7623 69.5433C20.1033 70.2456 19.3816 70.7045 18.5969 70.9199C17.8122 71.1353 17.0267 71.1654 16.2402 71.0102L14.8319 76.3304ZM14.1782 64.7938L15.3092 65.8548C15.5467 66.0777 15.795 66.1649 16.0539 66.1166C16.3329 66.0676 16.5693 65.9398 16.7631 65.7333C16.9569 65.5267 17.0794 65.2823 17.1305 65.0001C17.2016 64.7173 17.1081 64.4548 16.8498 64.2125L15.7189 63.1515L14.1782 64.7938ZM26.8803 82.9146C26.9939 83.0212 27.0532 83.1546 27.0583 83.3147C27.0635 83.4749 27.0127 83.6118 26.9061 83.7254L24.8567 85.9099C24.7501 86.0235 24.6168 86.0829 24.4566 86.088C24.2965 86.0931 24.1596 86.0424 24.046 85.9358L15.9741 78.3632C15.8605 78.2566 15.8011 78.1232 15.796 77.963C15.7909 77.8029 15.8416 77.666 15.9482 77.5524L25.3377 67.5439C25.4443 67.4302 25.5776 67.3709 25.7378 67.3658C25.8979 67.3607 26.0348 67.4114 26.1484 67.518L34.0964 74.9743C34.21 75.0809 34.2694 75.2143 34.2745 75.3744C34.2796 75.5346 34.2288 75.6715 34.1223 75.7851L32.0728 77.9696C31.9663 78.0832 31.8329 78.1426 31.6727 78.1477C31.5126 78.1528 31.3757 78.1021 31.2621 77.9955L26.6142 73.635L25.6985 74.6111L30.0056 78.6518C30.1192 78.7584 30.1785 78.8917 30.1836 79.0519C30.1888 79.212 30.138 79.3489 30.0314 79.4625L28.1419 81.4766C28.0353 81.5903 27.9019 81.6496 27.7418 81.6547C27.5817 81.6598 27.4448 81.6091 27.3312 81.5025L23.0241 77.4618L22.1084 78.4379L26.8803 82.9146ZM44.2907 84.5381C44.4043 84.6447 44.4637 84.7781 44.4688 84.9382C44.4739 85.0984 44.4232 85.2352 44.3166 85.3489L42.1073 87.7038C42.0007 87.8174 41.8673 87.8768 41.7072 87.8819C41.547 87.887 41.4102 87.8363 41.2966 87.7297L36.8655 83.5727L35.7899 84.7192L39.9111 88.5855C40.0247 88.6921 40.0841 88.8254 40.0892 88.9856C40.0943 89.1457 40.0436 89.2826 39.937 89.3962L37.7422 91.7357C37.6356 91.8493 37.5023 91.9087 37.3421 91.9138C37.182 91.9189 37.0451 91.8681 36.9315 91.7616L32.8103 87.8953L30.0778 90.808C29.9712 90.9216 29.8378 90.981 29.6777 90.9861C29.5175 90.9912 29.3806 90.9405 29.267 90.8339L26.3078 88.0577C26.1942 87.9512 26.1349 87.8178 26.1298 87.6576C26.1246 87.4975 26.1754 87.3606 26.282 87.247L35.6714 77.2384C35.778 77.1248 35.9114 77.0655 36.0715 77.0604C36.2317 77.0552 36.3686 77.106 36.4822 77.2126L44.2907 84.5381ZM36.3239 97.4543C36.2103 97.3477 36.1509 97.2143 36.1458 97.0541C36.1407 96.894 36.1914 96.7571 36.298 96.6435L45.6875 86.635C45.7941 86.5213 45.9274 86.462 46.0876 86.4569C46.2477 86.4518 46.3846 86.5025 46.4982 86.6091L49.6588 89.5742C49.7724 89.6808 49.8318 89.8141 49.8369 89.9743C49.842 90.1344 49.7913 90.2713 49.6847 90.3849L40.2952 100.393C40.1886 100.507 40.0553 100.566 39.8951 100.572C39.735 100.577 39.5981 100.526 39.4845 100.419L36.3239 97.4543ZM61.1263 100.332C61.2399 100.439 61.2992 100.572 61.3044 100.732C61.3095 100.893 61.2587 101.029 61.1521 101.143L51.7627 111.152C51.6561 111.265 51.5227 111.325 51.3626 111.33C51.2024 111.335 51.0655 111.284 50.9519 111.177L48.504 108.881C48.2974 108.687 48.1913 108.5 48.1855 108.32C48.1798 108.14 48.1856 108.009 48.2031 107.929L49.2911 101.522L45.6429 105.41C45.5363 105.524 45.4029 105.583 45.2428 105.588C45.0826 105.594 44.9458 105.543 44.8321 105.436L42.0279 102.805C41.9143 102.699 41.8549 102.565 41.8498 102.405C41.8447 102.245 41.8954 102.108 42.002 101.995L51.3915 91.9861C51.4981 91.8725 51.6314 91.8132 51.7916 91.8081C51.9517 91.8029 52.0886 91.8537 52.2022 91.9603L54.6502 94.2568C54.8567 94.4506 54.9629 94.6375 54.9686 94.8177C54.9744 94.9979 54.9685 95.1283 54.9511 95.209L53.5433 101.957L57.5113 97.7274C57.6179 97.6138 57.7512 97.5544 57.9114 97.5493C58.0715 97.5442 58.2084 97.5949 58.322 97.7015L61.1263 100.332ZM64.4026 118.116C64.5162 118.223 64.5756 118.356 64.5807 118.516C64.5858 118.676 64.5351 118.813 64.4285 118.927L62.3791 121.111C62.2725 121.225 62.1391 121.284 61.979 121.289C61.8188 121.295 61.6819 121.244 61.5683 121.137L53.4964 113.565C53.3828 113.458 53.3234 113.325 53.3183 113.164C53.3132 113.004 53.364 112.867 53.4705 112.754L62.86 102.745C62.9666 102.632 63.1 102.572 63.2601 102.567C63.4203 102.562 63.5572 102.613 63.6708 102.719L71.6187 110.176C71.7323 110.282 71.7917 110.416 71.7968 110.576C71.8019 110.736 71.7512 110.873 71.6446 110.987L69.5952 113.171C69.4886 113.285 69.3552 113.344 69.1951 113.349C69.0349 113.354 68.8981 113.304 68.7844 113.197L64.1365 108.836L63.2208 109.813L67.5279 113.853C67.6415 113.96 67.7009 114.093 67.706 114.253C67.7111 114.413 67.6604 114.55 67.5538 114.664L65.6643 116.678C65.5577 116.792 65.4243 116.851 65.2642 116.856C65.104 116.861 64.9671 116.811 64.8535 116.704L60.5464 112.663L59.6307 113.639L64.4026 118.116ZM73.8691 131.716C73.8419 131.807 73.8041 131.878 73.7557 131.93C73.6685 132.023 73.5548 132.072 73.4147 132.076C73.2946 132.08 73.188 132.038 73.0951 131.951L69.919 128.971C69.7124 128.778 69.6059 128.581 69.5995 128.38C69.5932 128.18 69.6084 128.029 69.6452 127.928L71.089 123.719L70.4537 123.123L67.6776 126.082C67.571 126.196 67.4376 126.255 67.2775 126.26C67.1173 126.265 66.9805 126.215 66.8668 126.108L63.8302 123.259C63.7166 123.153 63.6572 123.019 63.6521 122.859C63.647 122.699 63.6977 122.562 63.8043 122.448L73.1938 112.44C73.3004 112.326 73.4338 112.267 73.5939 112.262C73.754 112.257 73.8909 112.307 74.0045 112.414L78.5905 116.716C79.3342 117.414 79.918 118.127 80.342 118.855C80.7757 119.572 81.0389 120.285 81.1317 120.994C81.2341 121.692 81.1758 122.375 80.9566 123.043C80.7375 123.712 80.3518 124.34 79.7994 124.929C79.1405 125.631 78.4187 126.09 77.6341 126.305C76.8494 126.521 76.0638 126.551 75.2774 126.396L73.8691 131.716ZM73.2154 120.179L74.3463 121.24C74.5839 121.463 74.8322 121.55 75.0911 121.502C75.3701 121.453 75.6065 121.325 75.8003 121.119C75.9941 120.912 76.1166 120.668 76.1677 120.386C76.2388 120.103 76.1453 119.84 75.887 119.598L74.756 118.537L73.2154 120.179ZM77.2535 135.852C77.1399 135.746 77.0805 135.612 77.0754 135.452C77.0703 135.292 77.1211 135.155 77.2276 135.041L80.091 131.989L83.073 121.825C83.0911 121.764 83.1244 121.708 83.1729 121.656C83.2601 121.563 83.3637 121.515 83.4838 121.511C83.624 121.506 83.7405 121.548 83.8335 121.635L86.7462 124.368C86.9527 124.561 87.0592 124.758 87.0656 124.958C87.072 125.159 87.0613 125.294 87.0335 125.365L85.6613 129.933L90.1321 128.272C90.2012 128.24 90.3359 128.221 90.5361 128.214C90.7363 128.208 90.9396 128.302 91.1462 128.495L94.0589 131.228C94.1519 131.315 94.1954 131.424 94.1896 131.554C94.2037 131.684 94.1672 131.796 94.08 131.889C94.0315 131.94 93.9776 131.977 93.9182 131.999L83.9643 135.623L81.1009 138.675C80.9943 138.789 80.861 138.848 80.7008 138.853C80.5407 138.858 80.4038 138.808 80.2902 138.701L77.2535 135.852Z" fill="url(#paint1_linear)" fill-opacity="0.33"/>
<path d="M29.3842 94.5816C29.5011 94.6846 29.5647 94.816 29.5748 94.9759C29.5849 95.1358 29.5385 95.2742 29.4356 95.3911L27.9472 97.081C27.8442 97.1979 27.7128 97.2614 27.5529 97.2715C27.393 97.2817 27.2546 97.2353 27.1377 97.1323L22.371 92.934L20.4474 95.118L24.8952 99.0355C25.0121 99.1385 25.0756 99.2699 25.0857 99.4298C25.0959 99.5897 25.0495 99.7281 24.9465 99.845L23.4581 101.535C23.3552 101.652 23.2237 101.715 23.0638 101.725C22.9039 101.736 22.7655 101.689 22.6486 101.586L18.2008 97.6687L15.1679 101.112C15.065 101.229 14.9335 101.293 14.7736 101.303C14.6137 101.313 14.4753 101.266 14.3584 101.163L12.27 99.3241C12.1531 99.2211 12.0896 99.0897 12.0794 98.9298C12.0693 98.7698 12.1157 98.6314 12.2187 98.5145L21.2893 88.2161C21.3923 88.0992 21.5237 88.0357 21.6836 88.0255C21.8435 88.0154 21.9819 88.0618 22.0988 88.1648L29.3842 94.5816ZM22.1091 107.99C21.9922 107.887 21.9287 107.756 21.9185 107.596C21.9084 107.436 21.9548 107.297 22.0578 107.181L31.1284 96.8821C31.2314 96.7652 31.3628 96.7017 31.5227 96.6916C31.6826 96.6814 31.821 96.7279 31.9379 96.8308L34.0263 98.6702C34.1432 98.7732 34.2067 98.9046 34.2169 99.0645C34.227 99.2244 34.1806 99.3629 34.0776 99.4798L25.007 109.778C24.9041 109.895 24.7726 109.959 24.6127 109.969C24.4528 109.979 24.3144 109.932 24.1975 109.829L22.1091 107.99ZM34.1164 118.566C33.9357 118.407 33.8291 118.228 33.7964 118.029C33.7744 117.84 33.7708 117.705 33.7858 117.623L34.9372 108.956L30.1912 114.344C30.0883 114.461 29.9568 114.525 29.7969 114.535C29.637 114.545 29.4986 114.499 29.3817 114.396L27.2933 112.556C27.1764 112.453 27.1129 112.322 27.1028 112.162C27.0926 112.002 27.139 111.864 27.242 111.747L36.3126 101.448C36.4156 101.331 36.547 101.268 36.7069 101.258C36.8668 101.248 37.0052 101.294 37.1221 101.397L38.7801 102.857C38.9608 103.016 39.0621 103.191 39.0841 103.38C39.1168 103.578 39.1257 103.718 39.1108 103.8L37.9594 112.467L42.7053 107.079C42.8082 106.962 42.9397 106.898 43.0996 106.888C43.2595 106.878 43.3979 106.924 43.5148 107.027L45.6032 108.867C45.7201 108.97 45.7836 109.101 45.7937 109.261C45.8039 109.421 45.7575 109.559 45.6545 109.676L36.5839 119.975C36.4809 120.092 36.3495 120.155 36.1896 120.165C36.0297 120.176 35.8913 120.129 35.7744 120.026L34.1164 118.566ZM54.1573 116.401C54.3699 116.588 54.4778 116.787 54.4811 116.998C54.4951 117.218 54.4718 117.405 54.4114 117.559L49.0408 130.663C48.9897 130.807 48.9407 130.906 48.8939 130.959C48.8097 131.054 48.6976 131.107 48.5577 131.115C48.4377 131.123 48.3299 131.085 48.2343 131.001L46.2256 129.231C46.013 129.044 45.8964 128.866 45.8756 128.697C45.8748 128.526 45.9013 128.389 45.9549 128.285L46.674 126.569L42.4334 122.834L40.8216 123.764C40.7255 123.83 40.5875 123.869 40.4076 123.88C40.2477 123.891 40.0614 123.802 39.8489 123.615L37.8402 121.846C37.7446 121.761 37.6876 121.655 37.6694 121.525C37.6711 121.395 37.7141 121.282 37.7984 121.186C37.8452 121.133 37.9367 121.072 38.0728 121.003L50.394 114.021C50.5395 113.941 50.7169 113.89 50.9261 113.867C51.146 113.853 51.3622 113.939 51.5748 114.126L54.1573 116.401ZM45.4388 121.093L48.0214 123.368L50.0999 118.404L45.4388 121.093ZM57.1262 138.832C56.9455 138.673 56.8389 138.494 56.8062 138.296C56.7842 138.106 56.7806 137.971 56.7955 137.89L57.9469 129.222L53.201 134.611C53.0981 134.728 52.9666 134.791 52.8067 134.801C52.6468 134.811 52.5084 134.765 52.3915 134.662L50.3031 132.823C50.1862 132.72 50.1227 132.588 50.1125 132.428C50.1024 132.268 50.1488 132.13 50.2518 132.013L59.3224 121.715C59.4253 121.598 59.5568 121.534 59.7167 121.524C59.8766 121.514 60.015 121.56 60.1319 121.663L61.7899 123.124C61.9705 123.283 62.0719 123.457 62.0939 123.646C62.1266 123.845 62.1355 123.985 62.1205 124.066L60.9691 132.734L65.715 127.345C65.818 127.228 65.9495 127.165 66.1094 127.155C66.2693 127.145 66.4077 127.191 66.5246 127.294L68.613 129.133C68.7299 129.236 68.7934 129.368 68.8035 129.528C68.8137 129.688 68.7673 129.826 68.6643 129.943L59.5937 140.241C59.4907 140.358 59.3593 140.422 59.1994 140.432C59.0395 140.442 58.9011 140.396 58.7842 140.293L57.1262 138.832ZM70.1003 137.974C69.968 138.102 69.7889 138.284 69.563 138.519C69.3477 138.764 69.123 139.019 68.889 139.285C68.6643 139.54 68.4397 139.795 68.215 140.05C68.0103 140.304 67.8525 140.504 67.7414 140.652C67.5474 140.915 67.3893 141.191 67.2671 141.48C67.1449 141.768 67.0886 142.068 67.0983 142.378C67.1079 142.689 67.1882 143.005 67.339 143.326C67.4992 143.637 67.76 143.952 68.1213 144.27C68.4827 144.588 68.8177 144.808 69.1264 144.929C69.4351 145.05 69.7153 145.117 69.9671 145.132C70.2282 145.135 70.4615 145.095 70.6669 145.012C70.883 144.938 71.0685 144.856 71.2233 144.766C71.4262 144.643 71.5876 144.577 71.7076 144.57C71.8369 144.551 71.9918 144.622 72.1725 144.781L74.2609 146.62C74.3565 146.705 74.4035 146.812 74.4017 146.943C74.42 147.072 74.387 147.184 74.3027 147.28C73.8147 147.813 73.2325 148.206 72.5562 148.459C71.8799 148.713 71.1641 148.819 70.4088 148.776C69.6536 148.734 68.8794 148.552 68.0864 148.231C67.3134 147.909 66.5762 147.439 65.8747 146.821C65.1095 146.147 64.5223 145.432 64.1131 144.675C63.7239 143.917 63.4899 143.154 63.4111 142.386C63.3323 141.619 63.4054 140.871 63.6303 140.145C63.8751 139.417 64.239 138.746 64.722 138.134C65.0845 137.679 65.4858 137.202 65.9257 136.703C66.3657 136.203 66.7975 135.734 67.2213 135.296C67.7574 134.73 68.3717 134.29 69.0642 133.975C69.766 133.65 70.4974 133.473 71.2582 133.445C72.0297 133.426 72.8166 133.572 73.619 133.882C74.4307 134.182 75.2192 134.669 75.9844 135.343C76.6858 135.961 77.2405 136.638 77.6484 137.375C78.0764 138.11 78.3591 138.85 78.4965 139.594C78.634 140.338 78.6197 141.061 78.4535 141.764C78.2873 142.467 77.9709 143.094 77.5041 143.645C77.4198 143.741 77.3078 143.793 77.1678 143.802C77.0479 143.81 76.9401 143.771 76.8445 143.687L74.7561 141.848C74.5754 141.689 74.4813 141.549 74.4737 141.429C74.4754 141.299 74.5246 141.125 74.6213 140.908C74.6911 140.743 74.749 140.549 74.795 140.325C74.8517 140.111 74.8571 139.88 74.8113 139.632C74.7748 139.373 74.6771 139.098 74.5182 138.807C74.3593 138.516 74.0991 138.212 73.7378 137.893C73.3764 137.575 73.0267 137.362 72.6887 137.253C72.36 137.133 72.0411 137.088 71.7319 137.117C71.4227 137.147 71.1326 137.241 70.8616 137.398C70.5907 137.556 70.3369 137.748 70.1003 137.974ZM82.8668 156.975C82.9837 157.078 83.0472 157.209 83.0574 157.369C83.0675 157.529 83.0211 157.667 82.9181 157.784L81.4298 159.474C81.3268 159.591 81.1954 159.654 81.0354 159.664C80.8755 159.675 80.7371 159.628 80.6202 159.525L73.0638 152.87C72.9469 152.767 72.8834 152.635 72.8732 152.475C72.8631 152.315 72.9095 152.177 73.0125 152.06L82.0831 141.762C82.186 141.645 82.3175 141.581 82.4774 141.571C82.6373 141.561 82.7757 141.607 82.8926 141.71L90.3215 148.254C90.4384 148.357 90.5019 148.488 90.5121 148.648C90.5222 148.808 90.4758 148.946 90.3728 149.063L88.8845 150.753C88.7815 150.87 88.6501 150.933 88.4901 150.944C88.3302 150.954 88.1918 150.907 88.0749 150.804L83.1648 146.48L81.6484 148.201L86.2078 152.217C86.3247 152.32 86.3882 152.452 86.3983 152.611C86.4085 152.771 86.362 152.91 86.2591 153.027L84.7707 154.717C84.6677 154.833 84.5363 154.897 84.3764 154.907C84.2165 154.917 84.0781 154.871 83.9612 154.768L79.4018 150.752L77.8292 152.538L82.8668 156.975Z" fill="#AC2894"/>
<path d="M29.3842 94.5816C29.5011 94.6846 29.5647 94.816 29.5748 94.9759C29.5849 95.1358 29.5385 95.2742 29.4356 95.3911L27.9472 97.081C27.8442 97.1979 27.7128 97.2614 27.5529 97.2715C27.393 97.2817 27.2546 97.2353 27.1377 97.1323L22.371 92.934L20.4474 95.118L24.8952 99.0355C25.0121 99.1385 25.0756 99.2699 25.0857 99.4298C25.0959 99.5897 25.0495 99.7281 24.9465 99.845L23.4581 101.535C23.3552 101.652 23.2237 101.715 23.0638 101.725C22.9039 101.736 22.7655 101.689 22.6486 101.586L18.2008 97.6687L15.1679 101.112C15.065 101.229 14.9335 101.293 14.7736 101.303C14.6137 101.313 14.4753 101.266 14.3584 101.163L12.27 99.3241C12.1531 99.2211 12.0896 99.0897 12.0794 98.9298C12.0693 98.7698 12.1157 98.6314 12.2187 98.5145L21.2893 88.2161C21.3923 88.0992 21.5237 88.0357 21.6836 88.0255C21.8435 88.0154 21.9819 88.0618 22.0988 88.1648L29.3842 94.5816ZM22.1091 107.99C21.9922 107.887 21.9287 107.756 21.9185 107.596C21.9084 107.436 21.9548 107.297 22.0578 107.181L31.1284 96.8821C31.2314 96.7652 31.3628 96.7017 31.5227 96.6916C31.6826 96.6814 31.821 96.7279 31.9379 96.8308L34.0263 98.6702C34.1432 98.7732 34.2067 98.9046 34.2169 99.0645C34.227 99.2244 34.1806 99.3629 34.0776 99.4798L25.007 109.778C24.9041 109.895 24.7726 109.959 24.6127 109.969C24.4528 109.979 24.3144 109.932 24.1975 109.829L22.1091 107.99ZM34.1164 118.566C33.9357 118.407 33.8291 118.228 33.7964 118.029C33.7744 117.84 33.7708 117.705 33.7858 117.623L34.9372 108.956L30.1912 114.344C30.0883 114.461 29.9568 114.525 29.7969 114.535C29.637 114.545 29.4986 114.499 29.3817 114.396L27.2933 112.556C27.1764 112.453 27.1129 112.322 27.1028 112.162C27.0926 112.002 27.139 111.864 27.242 111.747L36.3126 101.448C36.4156 101.331 36.547 101.268 36.7069 101.258C36.8668 101.248 37.0052 101.294 37.1221 101.397L38.7801 102.857C38.9608 103.016 39.0621 103.191 39.0841 103.38C39.1168 103.578 39.1257 103.718 39.1108 103.8L37.9594 112.467L42.7053 107.079C42.8082 106.962 42.9397 106.898 43.0996 106.888C43.2595 106.878 43.3979 106.924 43.5148 107.027L45.6032 108.867C45.7201 108.97 45.7836 109.101 45.7937 109.261C45.8039 109.421 45.7575 109.559 45.6545 109.676L36.5839 119.975C36.4809 120.092 36.3495 120.155 36.1896 120.165C36.0297 120.176 35.8913 120.129 35.7744 120.026L34.1164 118.566ZM54.1573 116.401C54.3699 116.588 54.4778 116.787 54.4811 116.998C54.4951 117.218 54.4718 117.405 54.4114 117.559L49.0408 130.663C48.9897 130.807 48.9407 130.906 48.8939 130.959C48.8097 131.054 48.6976 131.107 48.5577 131.115C48.4377 131.123 48.3299 131.085 48.2343 131.001L46.2256 129.231C46.013 129.044 45.8964 128.866 45.8756 128.697C45.8748 128.526 45.9013 128.389 45.9549 128.285L46.674 126.569L42.4334 122.834L40.8216 123.764C40.7255 123.83 40.5875 123.869 40.4076 123.88C40.2477 123.891 40.0614 123.802 39.8489 123.615L37.8402 121.846C37.7446 121.761 37.6876 121.655 37.6694 121.525C37.6711 121.395 37.7141 121.282 37.7984 121.186C37.8452 121.133 37.9367 121.072 38.0728 121.003L50.394 114.021C50.5395 113.941 50.7169 113.89 50.9261 113.867C51.146 113.853 51.3622 113.939 51.5748 114.126L54.1573 116.401ZM45.4388 121.093L48.0214 123.368L50.0999 118.404L45.4388 121.093ZM57.1262 138.832C56.9455 138.673 56.8389 138.494 56.8062 138.296C56.7842 138.106 56.7806 137.971 56.7955 137.89L57.9469 129.222L53.201 134.611C53.0981 134.728 52.9666 134.791 52.8067 134.801C52.6468 134.811 52.5084 134.765 52.3915 134.662L50.3031 132.823C50.1862 132.72 50.1227 132.588 50.1125 132.428C50.1024 132.268 50.1488 132.13 50.2518 132.013L59.3224 121.715C59.4253 121.598 59.5568 121.534 59.7167 121.524C59.8766 121.514 60.015 121.56 60.1319 121.663L61.7899 123.124C61.9705 123.283 62.0719 123.457 62.0939 123.646C62.1266 123.845 62.1355 123.985 62.1205 124.066L60.9691 132.734L65.715 127.345C65.818 127.228 65.9495 127.165 66.1094 127.155C66.2693 127.145 66.4077 127.191 66.5246 127.294L68.613 129.133C68.7299 129.236 68.7934 129.368 68.8035 129.528C68.8137 129.688 68.7673 129.826 68.6643 129.943L59.5937 140.241C59.4907 140.358 59.3593 140.422 59.1994 140.432C59.0395 140.442 58.9011 140.396 58.7842 140.293L57.1262 138.832ZM70.1003 137.974C69.968 138.102 69.7889 138.284 69.563 138.519C69.3477 138.764 69.123 139.019 68.889 139.285C68.6643 139.54 68.4397 139.795 68.215 140.05C68.0103 140.304 67.8525 140.504 67.7414 140.652C67.5474 140.915 67.3893 141.191 67.2671 141.48C67.1449 141.768 67.0886 142.068 67.0983 142.378C67.1079 142.689 67.1882 143.005 67.339 143.326C67.4992 143.637 67.76 143.952 68.1213 144.27C68.4827 144.588 68.8177 144.808 69.1264 144.929C69.4351 145.05 69.7153 145.117 69.9671 145.132C70.2282 145.135 70.4615 145.095 70.6669 145.012C70.883 144.938 71.0685 144.856 71.2233 144.766C71.4262 144.643 71.5876 144.577 71.7076 144.57C71.8369 144.551 71.9918 144.622 72.1725 144.781L74.2609 146.62C74.3565 146.705 74.4035 146.812 74.4017 146.943C74.42 147.072 74.387 147.184 74.3027 147.28C73.8147 147.813 73.2325 148.206 72.5562 148.459C71.8799 148.713 71.1641 148.819 70.4088 148.776C69.6536 148.734 68.8794 148.552 68.0864 148.231C67.3134 147.909 66.5762 147.439 65.8747 146.821C65.1095 146.147 64.5223 145.432 64.1131 144.675C63.7239 143.917 63.4899 143.154 63.4111 142.386C63.3323 141.619 63.4054 140.871 63.6303 140.145C63.8751 139.417 64.239 138.746 64.722 138.134C65.0845 137.679 65.4858 137.202 65.9257 136.703C66.3657 136.203 66.7975 135.734 67.2213 135.296C67.7574 134.73 68.3717 134.29 69.0642 133.975C69.766 133.65 70.4974 133.473 71.2582 133.445C72.0297 133.426 72.8166 133.572 73.619 133.882C74.4307 134.182 75.2192 134.669 75.9844 135.343C76.6858 135.961 77.2405 136.638 77.6484 137.375C78.0764 138.11 78.3591 138.85 78.4965 139.594C78.634 140.338 78.6197 141.061 78.4535 141.764C78.2873 142.467 77.9709 143.094 77.5041 143.645C77.4198 143.741 77.3078 143.793 77.1678 143.802C77.0479 143.81 76.9401 143.771 76.8445 143.687L74.7561 141.848C74.5754 141.689 74.4813 141.549 74.4737 141.429C74.4754 141.299 74.5246 141.125 74.6213 140.908C74.6911 140.743 74.749 140.549 74.795 140.325C74.8517 140.111 74.8571 139.88 74.8113 139.632C74.7748 139.373 74.6771 139.098 74.5182 138.807C74.3593 138.516 74.0991 138.212 73.7378 137.893C73.3764 137.575 73.0267 137.362 72.6887 137.253C72.36 137.133 72.0411 137.088 71.7319 137.117C71.4227 137.147 71.1326 137.241 70.8616 137.398C70.5907 137.556 70.3369 137.748 70.1003 137.974ZM82.8668 156.975C82.9837 157.078 83.0472 157.209 83.0574 157.369C83.0675 157.529 83.0211 157.667 82.9181 157.784L81.4298 159.474C81.3268 159.591 81.1954 159.654 81.0354 159.664C80.8755 159.675 80.7371 159.628 80.6202 159.525L73.0638 152.87C72.9469 152.767 72.8834 152.635 72.8732 152.475C72.8631 152.315 72.9095 152.177 73.0125 152.06L82.0831 141.762C82.186 141.645 82.3175 141.581 82.4774 141.571C82.6373 141.561 82.7757 141.607 82.8926 141.71L90.3215 148.254C90.4384 148.357 90.5019 148.488 90.5121 148.648C90.5222 148.808 90.4758 148.946 90.3728 149.063L88.8845 150.753C88.7815 150.87 88.6501 150.933 88.4901 150.944C88.3302 150.954 88.1918 150.907 88.0749 150.804L83.1648 146.48L81.6484 148.201L86.2078 152.217C86.3247 152.32 86.3882 152.452 86.3983 152.611C86.4085 152.771 86.362 152.91 86.2591 153.027L84.7707 154.717C84.6677 154.833 84.5363 154.897 84.3764 154.907C84.2165 154.917 84.0781 154.871 83.9612 154.768L79.4018 150.752L77.8292 152.538L82.8668 156.975Z" fill="url(#paint2_linear)" fill-opacity="0.25"/>
<path d="M93.3559 75.8822C94.4996 74.0525 95.1859 71.9941 95.1861 69.7072C95.1862 68.5637 94.6146 67.992 94.0429 67.1917C93.3569 66.277 92.6709 65.5909 91.6418 65.248C91.2989 64.2189 90.6129 63.3042 89.6982 62.8469C88.7835 62.1609 88.2118 61.5893 87.1826 61.7037C85.01 61.8183 82.8374 62.3903 81.0077 63.534C81.5794 63.4196 82.0368 63.4195 82.4942 63.6482C80.8932 64.7918 79.4065 66.2785 78.2628 67.8795C78.949 67.422 79.6351 67.1933 80.3212 66.9645C78.8345 68.6799 77.5764 70.8526 76.8901 73.1396C77.4619 72.5678 78.148 72.1104 78.7198 71.5386C77.4617 73.94 76.8897 76.7988 77.2324 79.4288L77.118 79.5431L77.2324 79.4288C79.8624 79.7715 82.8355 79.3138 85.1226 77.9414C84.5508 78.5132 84.0933 79.1993 83.5215 79.7711C85.8086 79.0848 87.8669 77.9411 89.6967 76.34C89.4679 77.0261 89.1248 77.8266 88.7817 78.3983C90.3827 77.2547 91.8694 75.768 93.013 74.167C93.4703 74.853 93.4703 75.3104 93.3559 75.8822Z" fill="#FFB453"/>
<path d="M92.9005 72.9097C93.8154 71.5374 94.273 69.9365 94.2732 68.3356C94.3876 67.5352 93.9303 67.0779 93.473 66.3918C93.0157 65.7058 92.3296 65.2485 91.6436 65.0198C91.415 64.3338 90.9576 63.6477 90.2716 63.1904C89.5856 62.7331 89.1282 62.2758 88.3278 62.3902C86.7269 62.3904 85.126 62.848 83.7537 63.7629C84.0968 63.6485 84.4398 63.7628 84.7828 63.8771C83.6392 64.792 82.61 65.8213 81.6951 66.9649C82.1525 66.7361 82.7243 66.393 83.296 66.2786C82.1524 67.6509 81.3518 69.1375 80.8942 70.7385C81.3517 70.281 81.8091 70.0523 82.2665 69.5948C81.3515 71.4245 80.8939 73.4828 81.2367 75.4267C83.295 75.6551 85.2389 75.3119 87.0686 74.3969C86.6112 74.8543 86.3824 75.3118 85.925 75.7692C87.5259 75.3116 89.1269 74.3967 90.3848 73.3674C90.2704 73.9391 90.0416 74.3966 89.6985 74.9683C90.8421 74.0534 91.9857 73.1385 92.7863 71.8806C93.015 72.1093 93.0149 72.5667 92.9005 72.9097Z" fill="#FF8A53"/>
<path d="M91.9859 71.5374C92.5577 70.5082 93.0152 69.3647 93.0154 68.2212C93.0154 67.5351 92.7868 67.3064 92.3294 66.8491C91.9864 66.2774 91.5291 66.0487 90.9574 65.7058C90.8431 65.134 90.3858 64.6767 89.814 64.3337C89.2423 63.9907 89.0137 63.7621 88.4419 63.6478C87.2985 63.6479 86.0406 63.9911 85.1257 64.6773C85.3544 64.6773 85.6975 64.5629 85.9262 64.7915C85.0113 65.4777 84.2108 66.2782 83.6389 67.0787C83.982 66.7357 84.3251 66.6213 84.7825 66.6212C83.9819 67.6505 83.2957 68.794 82.8382 69.9375C83.1813 69.5944 83.5243 69.4801 83.8674 69.137C83.1812 70.5092 82.838 71.9958 83.0665 73.5966C84.553 73.7108 86.1539 73.482 87.5261 72.7957C87.1831 73.1388 87.0687 73.4818 86.7256 73.8249C87.9835 73.4817 89.127 72.7955 90.0419 71.8807C89.9275 72.2237 89.6988 72.6811 89.5844 73.0242C90.4992 72.338 91.2998 71.5375 91.8716 70.737C92.1003 70.9656 92.2146 71.3087 91.9859 71.5374Z" fill="#FF6E53"/>
<path d="M115.425 81.0264L114.742 57.6995L99.0763 58.2729L99.6497 42.6072L76.3228 41.9237L74.4923 50.3856L97.9327 59.4165L106.964 82.8569L115.425 81.0264Z" fill="url(#paint3_linear)"/>
<path opacity="0.2" d="M99.6509 42.6079L92.5614 42.38C89.3592 46.2681 86.6144 50.1563 84.4413 54.1587L97.9338 59.4172L102.964 72.4523C106.966 70.2793 110.969 67.4201 114.971 64.1036L114.743 57.7001L98.9631 58.388L99.6509 42.6079Z" fill="black"/>
<path d="M123.664 33.2278C116.117 32.0851 105.254 37.0033 96.1048 46.1521C91.4161 50.8409 87.8707 55.987 85.6975 60.9042C87.0695 62.9623 88.5558 64.9061 90.3852 66.7354C92.2145 68.5648 94.1583 70.0511 96.2164 71.423C101.134 69.2499 106.28 65.7045 110.968 61.0157C120.003 51.7525 124.807 40.7746 123.664 33.2278Z" fill="white"/>
<path opacity="0.3" d="M123.664 33.2278C116.117 32.0851 105.254 37.0033 96.1048 46.1521C91.4161 50.8409 87.8707 55.987 85.6975 60.9042C87.0695 62.9623 88.5558 64.9061 90.3852 66.7354C92.2145 68.5648 94.1583 70.0511 96.2164 71.423C101.134 69.2499 106.28 65.7045 110.968 61.0157C120.003 51.7525 124.807 40.7746 123.664 33.2278Z" fill="black"/>
<path opacity="0.3" d="M87.5291 57.2458C87.872 58.961 88.6722 60.6761 89.7012 62.1625C90.9588 64.335 92.7882 66.1643 94.5032 68.1081C94.1601 68.4511 93.7027 68.6799 93.2453 68.9086C94.16 69.5946 95.189 70.395 96.1037 71.0809C98.1621 70.1659 100.22 69.0222 102.279 67.6498C102.393 66.8494 102.165 65.9346 101.936 65.2485C101.25 63.1903 100.107 61.3609 98.8493 59.6458C97.706 58.0451 96.4484 56.33 94.6189 55.4154C92.9038 54.6152 90.8455 54.6154 88.9016 54.73C88.4441 55.6448 87.8723 56.4453 87.5291 57.2458Z" fill="black"/>
<path d="M136.358 20.5343C126.524 19.1632 112.344 25.3396 100.337 37.3475C94.2755 43.4086 89.7008 50.0413 86.7271 56.4451C88.442 59.0749 90.5 61.5903 92.901 63.9914C95.1877 66.2781 97.7032 68.3361 100.447 70.1653C106.737 67.3059 113.484 62.6169 119.545 56.5558C131.553 44.5479 137.729 30.3681 136.358 20.5343Z" fill="white"/>
<path d="M126.524 31.056C129.039 33.5714 130.868 36.5442 132.011 39.7458C135.557 32.7702 137.158 25.9092 136.359 20.5349C130.756 19.7351 123.78 21.4511 116.69 25.111C120.235 26.3684 123.665 28.1976 126.524 31.056Z" fill="url(#paint4_linear)"/>
<path d="M75.9794 49.1279C75.2929 52.5584 74.6069 52.5584 73.8064 52.4442C73.006 52.3299 72.5486 52.1013 73.1208 48.5564C73.8072 45.1259 75.5231 39.5227 76.2091 39.7513C77.1239 39.7512 76.6659 45.4687 75.9794 49.1279Z" fill="white"/>
<path d="M108.222 81.3709C104.791 82.0574 104.791 82.7435 104.905 83.5439C105.02 84.3443 105.248 84.8017 108.793 84.2296C112.224 83.5431 117.827 81.8273 117.598 81.1412C117.484 80.1121 111.766 80.5701 108.222 81.3709Z" fill="white"/>
<path opacity="0.1" d="M136.358 20.9915C132.584 30.9401 124.693 42.7189 113.828 53.5831C108.339 59.0724 102.735 63.7613 97.1319 67.5354C98.1609 68.3358 99.3043 69.2504 100.448 69.9364C106.737 67.077 113.484 62.388 119.545 56.3268C131.324 44.7764 137.501 30.8253 136.358 20.9915Z" fill="black"/>
<path d="M122.976 44.2055C120.117 47.0645 115.543 47.065 112.685 44.2067C109.826 41.3483 109.827 36.7743 112.686 33.9153C115.545 31.0563 120.119 31.0558 122.977 33.9142C125.721 36.8869 125.721 41.4609 122.976 44.2055Z" fill="#A6F6FF"/>
<g opacity="0.3">
<path opacity="0.3" d="M124.121 35.5154L111.772 35.5167C110.971 36.7747 110.742 38.3756 110.857 39.8621L125.264 39.8605C125.15 38.374 124.807 36.8875 124.121 35.5154Z" fill="white"/>
<path opacity="0.3" d="M123.663 43.2911C124.235 42.4906 124.692 41.5757 124.807 40.5466L110.627 40.5482C110.856 41.4629 111.199 42.492 111.771 43.2924L123.663 43.2911Z" fill="white"/>
</g>
<path opacity="0.1" d="M122.864 34.0294C120.921 32.0857 118.062 31.5143 115.661 32.315C117.261 32.5436 118.634 33.2295 119.777 34.3728C122.635 37.2312 122.635 41.8051 119.776 44.6642C118.861 45.579 117.832 46.1509 116.803 46.4941C118.861 46.7225 121.148 46.0362 122.749 44.4351C125.722 41.4618 125.723 36.8878 122.864 34.0294Z" fill="black"/>
<path d="M111.885 45.0071C108.684 41.8057 108.684 36.5457 111.886 33.3436C115.088 30.1416 120.348 30.141 123.55 33.3424C126.751 36.5438 126.751 41.8038 123.549 45.0059C120.461 48.3223 115.201 48.3229 111.885 45.0071ZM122.063 34.8291C119.662 32.428 115.774 32.4284 113.373 34.83C110.971 37.2316 110.971 41.1194 113.372 43.5204C115.773 45.9215 119.661 45.9211 122.062 43.5195C124.464 41.1179 124.464 37.2301 122.063 34.8291Z" fill="url(#paint5_linear)"/>
<defs>
<linearGradient id="paint0_linear" x1="56.899" y1="100.46" x2="129.693" y2="27.6663" gradientUnits="userSpaceOnUse">
<stop stop-color="#1E0D39"/>
<stop offset="1" stop-color="#5324A2"/>
</linearGradient>
<linearGradient id="paint1_linear" x1="14.5729" y1="78.7623" x2="43.2932" y2="59.2941" gradientUnits="userSpaceOnUse">
<stop stop-color="#551F8D"/>
<stop offset="1" stop-color="#F236D8"/>
</linearGradient>
<linearGradient id="paint2_linear" x1="20.3454" y1="108.102" x2="48.9004" y2="88.9289" gradientUnits="userSpaceOnUse">
<stop stop-color="#551F8D"/>
<stop offset="1" stop-color="#F236D8"/>
</linearGradient>
<linearGradient id="paint3_linear" x1="90.2157" y1="67.0747" x2="107.556" y2="49.7343" gradientUnits="userSpaceOnUse">
<stop stop-color="#6D45B2"/>
<stop offset="1" stop-color="#F236D8"/>
</linearGradient>
<linearGradient id="paint4_linear" x1="122.75" y1="19.0636" x2="137.725" y2="34.0387" gradientUnits="userSpaceOnUse">
<stop stop-color="#711D9E"/>
<stop offset="1" stop-color="#F236D8"/>
</linearGradient>
<linearGradient id="paint5_linear" x1="109.534" y1="39.1565" x2="126.127" y2="39.1584" gradientUnits="userSpaceOnUse">
<stop stop-color="#551F8D"/>
<stop offset="1" stop-color="#F236D8"/>
</linearGradient>
</defs>
</svg>
