<svg width="19" height="20" viewBox="0 0 19 20" fill="none" xmlns="http://www.w3.org/2000/svg">
<path d="M9.09091 0C10.1413 0 11.0252 0.712549 11.2857 1.68064C12.158 1.93808 12.9745 2.34814 13.7008 2.88876C13.9619 2.78482 14.2469 2.72727 14.5455 2.72727C15.8006 2.72727 16.8182 3.74481 16.8182 5C16.8182 5.52822 16.638 6.01435 16.3357 6.40027C16.6531 7.25164 16.8182 8.16008 16.8182 9.09091C16.8182 9.24019 16.8139 9.38899 16.8055 9.53717C17.365 9.95032 17.7273 10.6147 17.7273 11.3636C17.7273 12.6188 16.7097 13.6364 15.4545 13.6364C15.4168 13.6364 15.3793 13.6354 15.342 13.6336C14.9986 14.1065 14.6029 14.5377 14.1651 14.919L16.39 18.1818H17.2727C17.7748 18.1818 18.1818 18.5888 18.1818 19.0909C18.1818 19.5571 17.8309 19.9414 17.3787 19.9939L17.2727 20H13.6364C13.1343 20 12.7273 19.593 12.7273 19.0909C12.7273 18.6247 13.0782 18.2404 13.5303 18.1879L13.6364 18.1818H14.1882L12.6636 15.9441C12.2261 16.1726 11.7651 16.3599 11.2862 16.5016C11.0252 17.4693 10.1413 18.1818 9.09091 18.1818C8.0402 18.1818 7.15603 17.4688 6.89583 16.5003C6.41681 16.3598 5.9563 16.1728 5.51912 15.9445L3.99273 18.1818H4.54545C5.04753 18.1818 5.45455 18.5888 5.45455 19.0909C5.45455 19.5571 5.1036 19.9414 4.65147 19.9939L4.54545 20H0.909091C0.407014 20 0 19.593 0 19.0909C0 18.6247 0.350946 18.2404 0.803072 18.1879L0.909091 18.1818H1.79091L4.01678 14.919C3.57924 14.5378 3.18365 14.1069 2.83907 13.6332L2.72727 13.6364C1.47208 13.6364 0.454545 12.6188 0.454545 11.3636C0.454545 10.6138 0.817636 9.94885 1.37758 9.5349C1.36784 9.38774 1.36364 9.23956 1.36364 9.09091C1.36364 8.16066 1.5285 7.25231 1.84573 6.3989C1.54384 6.01435 1.36364 5.52822 1.36364 5C1.36364 3.74481 2.38117 2.72727 3.63636 2.72727C3.93488 2.72727 4.21995 2.78482 4.48109 2.88944C5.20729 2.34817 6.0238 1.93812 6.89574 1.68016C7.15659 0.712549 8.04054 0 9.09091 0ZM9.09091 15.4545C8.83987 15.4545 8.63636 15.6581 8.63636 15.9091C8.63636 16.1601 8.83987 16.3636 9.09091 16.3636C9.34195 16.3636 9.54545 16.1601 9.54545 15.9091C9.54545 15.6581 9.34195 15.4545 9.09091 15.4545ZM9.2266 10.9041L9.09091 10.9091C9.04557 10.9091 9.00062 10.9074 8.95611 10.9042L6.5524 14.4285C6.75504 14.525 6.96365 14.6102 7.17736 14.6834C7.58094 14.0535 8.2872 13.6364 9.09091 13.6364C9.89423 13.6364 10.6002 14.0531 11.0044 14.6823L11.0335 14.6734C11.2372 14.6025 11.4363 14.5206 11.63 14.4283L9.2266 10.9041ZM11.0044 3.49955C10.6002 4.12867 9.89423 4.54545 9.09091 4.54545C8.28759 4.54545 7.58161 4.12867 7.17741 3.49955L7.08603 3.5304C6.61858 3.69898 6.17502 3.9261 5.76513 4.2058C5.8588 4.45366 5.90909 4.72095 5.90909 5C5.90909 6.25519 4.89156 7.27273 3.63636 7.27273C3.58023 7.27273 3.52457 7.27069 3.46946 7.26669C3.27966 7.84879 3.18182 8.4625 3.18182 9.09091L3.18221 9.13645C4.2194 9.34718 5 10.2642 5 11.3636C5 11.9076 4.80888 12.407 4.49013 12.7982C4.66217 13.0128 4.84994 13.2149 5.05039 13.4028L7.45227 9.87969C7.33721 9.6411 7.27273 9.37353 7.27273 9.09091C7.27273 8.08675 8.08675 7.27273 9.09091 7.27273C10.0951 7.27273 10.9091 8.08675 10.9091 9.09091C10.9091 9.37353 10.8446 9.6411 10.7295 9.87969L13.1313 13.4031C13.3319 13.2151 13.5197 13.0129 13.6933 12.7977C13.3726 12.4062 13.1818 11.9072 13.1818 11.3636C13.1818 10.2642 13.9624 9.34718 14.9996 9.13645C14.9999 9.12135 15 9.10613 15 9.09091C15 8.46222 14.9021 7.8484 14.713 7.26561L14.6949 7.26789L14.5455 7.27273C13.2903 7.27273 12.2727 6.25519 12.2727 5C12.2727 4.72095 12.323 4.45365 12.415 4.20667C12.0068 3.92609 11.5633 3.69897 11.0958 3.5304L11.0044 3.49955ZM2.72727 10.9091C2.47623 10.9091 2.27273 11.1126 2.27273 11.3636C2.27273 11.6147 2.47623 11.8182 2.72727 11.8182C2.97831 11.8182 3.18182 11.6147 3.18182 11.3636C3.18182 11.1126 2.97831 10.9091 2.72727 10.9091ZM15.4545 10.9091C15.2035 10.9091 15 11.1126 15 11.3636C15 11.6147 15.2035 11.8182 15.4545 11.8182C15.7056 11.8182 15.9091 11.6147 15.9091 11.3636C15.9091 11.1126 15.7056 10.9091 15.4545 10.9091ZM3.63636 4.54545C3.38532 4.54545 3.18182 4.74896 3.18182 5C3.18182 5.25104 3.38532 5.45455 3.63636 5.45455C3.8874 5.45455 4.09091 5.25104 4.09091 5C4.09091 4.74896 3.8874 4.54545 3.63636 4.54545ZM14.5455 4.54545C14.2944 4.54545 14.0909 4.74896 14.0909 5C14.0909 5.25104 14.2944 5.45455 14.5455 5.45455C14.7965 5.45455 15 5.25104 15 5C15 4.74896 14.7965 4.54545 14.5455 4.54545ZM9.09091 1.81818C8.83987 1.81818 8.63636 2.02169 8.63636 2.27273C8.63636 2.52377 8.83987 2.72727 9.09091 2.72727C9.34195 2.72727 9.54545 2.52377 9.54545 2.27273C9.54545 2.02169 9.34195 1.81818 9.09091 1.81818Z" fill="#3C079D"/>
</svg>
