<svg width="33" height="34" viewBox="0 0 33 34" fill="none" xmlns="http://www.w3.org/2000/svg">
<mask id="mask0" mask-type="alpha" maskUnits="userSpaceOnUse" x="0" y="0" width="33" height="34">
<rect width="33" height="34" fill="#C4C4C4"/>
</mask>
<g mask="url(#mask0)">
<circle cx="15" cy="19" r="15" fill="#EDE6F9"/>
<mask id="mask1" mask-type="alpha" maskUnits="userSpaceOnUse" x="0" y="-4" width="36" height="38">
<path d="M30 19C30 27.2843 23.2843 34 15 34C6.71573 34 0 27.2843 0 19C0 10.7157 7.71573 -4 16 -4C21.4268 -4 32.6623 0.314898 35 7C36.2309 10.52 30 16.1426 30 19Z" fill="#EDE6F9"/>
</mask>
<g mask="url(#mask1)">
<path d="M8.31263 16.1816L21.2917 14.8093C22.6639 14.6378 23.8646 15.7813 23.8646 17.1536L23.6931 25.7872L7.05475 25.5585L6.25428 18.7545C6.13993 17.4394 7.05475 16.2959 8.31263 16.1816Z" fill="#A777FF"/>
<path d="M30.0975 13.6086C30.0975 13.6086 29.926 14.066 29.6401 14.695C28.8968 16.3531 27.2959 19.4406 24.7801 20.7557C23.3507 21.5561 22.9505 21.7277 22.9505 21.7277C22.9505 21.7277 24.0368 26.8736 23.751 29.275C23.4651 31.7336 22.0928 43.7406 22.0928 43.7406C20.4919 44.5411 18.8338 43.855 18.8338 43.855L18.3192 42.254L17.6331 40.1957L15.9178 34.9926C15.9178 34.9926 13.6879 35.3357 12.3157 34.8783C10.8863 35.9646 8.48486 37.2225 8.65639 38.1945C8.71356 38.366 8.82792 38.5947 8.94227 38.7663C8.82792 38.8234 8.77074 38.8806 8.65639 38.995C8.48486 39.1093 8.25615 39.2237 8.08462 39.338C6.94109 39.967 5.85474 40.1957 5.28298 40.2528H5.2258C4.9971 40.31 4.88274 40.31 4.88274 40.31C3.51051 38.5375 2.19545 36.5364 2.71004 35.5644C2.82439 35.3357 2.99592 35.107 3.22463 34.8211C4.48251 33.163 7.1698 30.7616 7.1698 30.7616L7.11262 27.6168V25.5013C7.11262 25.5013 1.22345 28.7604 0.651687 29.0463L-0.0344304 27.9599L-0.320312 27.5025C-0.0916068 27.3881 8.1418 19.7265 8.88509 18.4686C9.62839 17.1536 13.059 17.5538 13.059 17.5538L22.0357 17.0964C22.0357 17.0964 25.0088 18.0112 28.1535 12.751L30.0975 13.6086Z" fill="#EDE1C9"/>
<path d="M21.6345 15.5526C21.5201 16.1816 21.5773 16.7533 22.0347 17.1536C19.6905 18.7545 14.659 20.527 8.88416 18.5258C8.99851 18.0684 9.28439 17.6681 9.28439 17.1536C9.34157 16.5818 9.05569 15.8385 7.85498 14.5806C13.4583 14.8665 18.0324 14.066 20.6625 13.4371C22.1491 13.094 23.0639 12.751 23.1211 12.751C23.1211 12.8082 22.8924 13.094 22.6065 13.4943C22.2063 14.0089 21.806 14.8093 21.6345 15.5526Z" fill="#C7BDA9"/>
<path d="M30.154 13.6087L28.1528 12.751C28.1528 12.6367 28.1528 12.3508 28.1528 12.0077C28.1528 11.1501 28.1528 9.89219 28.3815 9.94936C28.6674 10.0065 28.8389 10.1781 28.8389 10.1781C28.8389 10.1781 29.5822 8.51995 29.9253 8.57713C30.2112 8.63431 29.9253 9.77783 29.9253 9.83501C29.9825 9.77783 30.2684 9.32042 30.5542 8.97736C30.7829 8.74866 30.9545 8.57713 31.0688 8.63431C31.3547 8.80583 31.0688 9.89219 31.0688 9.89219C31.0688 9.89219 31.6406 9.20607 32.0408 9.26325C32.4411 9.32042 31.6406 10.464 31.6406 10.464C31.6406 10.464 32.4411 10.0637 32.7269 10.2352C32.9556 10.3496 30.154 13.6087 30.154 13.6087Z" fill="#A777FF"/>
<path d="M30.154 13.6087L28.1528 12.751C28.1528 12.6367 28.1528 12.3508 28.1528 12.0077C28.2672 12.0077 28.3244 12.0077 28.4387 12.0649C28.6674 12.1221 28.8961 12.2364 29.1248 12.2936C29.6394 12.3508 30.2112 12.0077 30.4399 11.5503C30.9545 10.6355 30.6686 9.83503 30.3827 9.03456C30.6114 8.80585 30.7829 8.63433 30.8973 8.6915C31.1832 8.86303 30.8973 9.94938 30.8973 9.94938C30.8973 9.94938 31.4691 9.26327 31.8693 9.32044C32.2695 9.37762 31.4691 10.5211 31.4691 10.5211C31.4691 10.5211 32.2695 10.1209 32.5554 10.2924C32.9557 10.3496 30.154 13.6087 30.154 13.6087Z" fill="#7446AC"/>
<path d="M22.5493 13.4371C22.2063 14.0089 21.7489 14.7522 21.6345 15.4955C19.6905 16.8677 17.2891 17.7253 14.8877 17.8969C13.1152 18.0112 11.3427 17.7825 9.68463 17.2108C9.57027 17.1536 9.45592 17.1536 9.28439 17.0392C9.34157 16.4675 9.05569 15.7242 7.85498 14.4663C13.4583 14.7522 18.0324 13.9517 20.6625 13.3228C21.2343 13.3228 21.7489 13.3228 22.3206 13.3799C22.3778 13.4371 22.4921 13.4371 22.5493 13.4371Z" fill="#B3A998"/>
<path d="M24.0367 6.40425C24.0367 6.40425 25.1802 5.48943 25.2374 8.29108C25.2945 11.0355 23.9795 10.8068 23.9795 10.8068L24.0367 6.40425Z" fill="#A777FF"/>
<path d="M24.3222 8.5771C24.265 13.2656 19.9196 17.0964 14.6022 17.0392C9.28481 16.982 4.99658 13.1512 4.99658 8.46274C5.05376 3.77428 9.39917 -0.0565446 14.7166 0.000631832C20.034 0.0578083 24.3794 3.88863 24.3222 8.5771Z" fill="#EDE1C9"/>
<path d="M5.22576 7.89118C5.22576 7.89118 3.9107 7.20506 4.36811 9.94953C4.82552 12.694 6.0834 12.1794 6.0834 12.1794L5.22576 7.89118Z" fill="#A777FF"/>
<path d="M20.2627 13.7229L10.657 14.7521C8.77019 14.9236 7.05489 13.5514 6.88337 11.6645L6.59748 8.92008C6.42595 7.03326 7.79819 5.31796 9.68501 5.14643L19.2907 4.11726C21.1775 3.94573 22.8928 5.31796 23.0643 7.20479L23.3502 9.94925C23.5217 11.8361 22.1495 13.5514 20.2627 13.7229Z" fill="#A777FF"/>
<path d="M19.8621 13.094L10.9997 14.0088C9.34161 14.1804 7.79785 12.9796 7.62632 11.3215L7.45479 9.09165C7.28326 7.43354 8.48396 5.88977 10.1421 5.71824L19.0044 4.80342C20.6625 4.63189 22.2063 5.8326 22.3778 7.49071L22.6065 9.72059C22.7781 11.4359 21.5774 12.9225 19.8621 13.094Z" fill="#6B3AC6"/>
<g opacity="0.18">
<path opacity="0.18" d="M14.8888 5.77522C13.8024 5.88957 12.6589 5.94675 11.6297 6.23263C10.5434 6.51851 9.51418 7.09028 8.88524 7.94792C8.19913 8.80557 7.97042 10.0635 8.48501 11.0354C8.9996 12.0074 10.3147 12.522 11.2867 12.0074C12.2587 11.4357 12.4874 10.1778 13.1163 9.26298C14.0883 7.77639 15.9179 7.20463 17.5761 6.74722C18.2622 6.57569 19.4057 5.8324 18.3194 5.43216C17.4617 5.0891 15.8608 5.71804 14.8888 5.77522Z" fill="white"/>
</g>
<path d="M29.6969 14.6951C28.9536 16.3532 27.3527 19.4407 24.8369 20.7558C23.4075 21.5562 23.0073 21.7278 23.0073 21.7278C23.0073 21.7278 24.0936 26.8736 23.8077 29.2751C23.5219 31.7336 22.1496 43.7407 22.1496 43.7407C20.5487 44.5412 18.8906 43.855 18.8906 43.855L18.376 42.2541C19.0049 43.0546 20.0341 43.512 20.8917 43.0546C21.8637 42.5972 22.0924 41.3393 22.1496 40.2529C22.5499 35.6216 22.5499 30.9904 22.0924 26.3591C21.9209 24.6438 21.6922 22.7569 22.6642 21.3275C23.2931 20.3555 24.3223 19.7266 25.2943 19.0405C27.0096 17.8969 28.3247 16.3532 29.6969 14.6951Z" fill="#C7BDA9"/>
<path d="M7.97003 25.73C7.91286 26.4733 7.5698 27.1023 7.11239 27.674V25.5585C7.11239 25.5585 1.22321 28.8175 0.651449 29.1034L-0.034668 28.0171H0.0225084C0.880155 28.303 1.5091 28.0743 2.30957 27.674C3.62462 26.9879 4.82533 26.1303 6.02603 25.2154C6.25474 24.9867 6.54062 24.8152 6.8265 24.7008C7.11239 24.5865 7.51262 24.5865 7.74133 24.8152C7.97003 24.9867 7.97003 25.387 7.97003 25.73Z" fill="#C7BDA9"/>
<path d="M10.9432 27.5597C10.1428 27.674 9.22795 27.9028 8.71336 28.5317C8.02724 29.4465 8.42748 30.7044 9.05642 31.6192C10.1999 33.163 12.2011 34.0778 14.1451 34.0778C16.0891 34.0778 18.0331 33.3345 19.5197 32.1338C20.3202 31.5049 21.0063 30.7044 21.1778 29.7324C21.5209 27.7312 19.7484 27.2166 18.2046 27.1595C15.8032 27.0451 13.4018 27.1595 10.9432 27.5597Z" fill="#FAF1E1"/>
<path d="M17.9188 38.1372C18.2619 38.8233 19.0052 39.3379 19.7485 39.2808C20.4917 39.2236 21.1207 38.6518 21.3494 37.9085C21.6353 37.2224 21.5781 36.4791 21.5781 35.7358C21.5209 35.2784 21.5209 34.7638 21.1779 34.4208C20.7776 34.0205 20.1487 33.9633 19.5769 34.1349C17.5186 34.6495 16.9468 36.3076 17.9188 38.1372Z" fill="#FAF1E1"/>
<path d="M4.31002 34.1352C3.79543 34.707 3.39519 35.5074 3.73825 36.1936C3.96696 36.651 4.42437 36.8797 4.88178 36.9368C5.33919 36.994 5.85378 36.8225 6.25402 36.651C6.82578 36.3651 7.39754 36.022 7.7406 35.5074C8.36954 34.5354 8.19801 33.2204 6.99731 32.763C5.96813 32.3056 4.93896 33.3347 4.31002 34.1352Z" fill="#FAF1E1"/>
<path d="M9.05636 2.74526C8.77048 2.97397 8.4846 3.14549 8.37024 3.48855C8.19871 3.77444 8.25589 4.23185 8.48459 4.46055C8.77048 4.74644 9.22789 4.68926 9.57095 4.63208C12.3154 4.17467 15.0599 3.71726 17.8044 3.20267C18.0331 3.14549 18.2618 3.1455 18.4333 2.97397C18.7192 2.68808 18.6048 2.23067 18.3189 1.94479C18.0331 1.65891 17.6328 1.54455 17.2898 1.48738C14.3738 0.686909 11.5721 0.915615 9.05636 2.74526Z" fill="#FAF1E1"/>
<path d="M11.9141 3.83175C11.571 3.77458 11.2852 3.4887 11.2852 3.14564C11.2852 2.7454 11.571 2.40234 11.9713 2.40234C12.1428 2.40234 12.3715 2.45952 12.4859 2.57387C12.6574 2.68823 12.7146 2.85976 12.7146 3.08846C12.7146 3.4887 12.4287 3.83175 12.0284 3.83175C11.9713 3.83175 11.9713 3.83175 11.9141 3.83175ZM12.0284 2.63105C11.9713 2.63105 11.9713 2.63105 11.9141 2.63105C11.7997 2.63105 11.6854 2.68823 11.571 2.80258C11.4567 2.91693 11.4567 3.03128 11.4567 3.14564C11.4567 3.25999 11.5139 3.37434 11.6282 3.4887C11.7426 3.60305 11.8569 3.60305 11.9713 3.60305C12.0856 3.60305 12.2 3.54587 12.3143 3.43152C12.4287 3.31717 12.4287 3.20281 12.4287 3.08846C12.4287 2.97411 12.3715 2.85976 12.2572 2.7454C12.2572 2.68823 12.1428 2.63105 12.0284 2.63105Z" fill="#1D1D1B"/>
<path d="M13.9722 3.7175C13.6291 3.66032 13.3433 3.37444 13.3433 3.03138C13.3433 2.63115 13.6291 2.28809 14.0294 2.28809C14.4296 2.28809 14.7727 2.57397 14.7727 2.9742C14.7727 3.37444 14.4868 3.7175 14.0866 3.7175C14.0294 3.7175 14.0294 3.7175 13.9722 3.7175ZM14.0866 2.51679C14.0866 2.51679 14.0294 2.51679 13.9722 2.51679C13.8578 2.51679 13.7435 2.57397 13.6291 2.68832C13.5148 2.80267 13.5148 2.91703 13.5148 3.03138C13.5148 3.31726 13.7435 3.48879 14.0294 3.48879C14.1437 3.48879 14.2581 3.43162 14.3724 3.31726C14.4868 3.20291 14.4868 3.08856 14.4868 2.9742C14.4868 2.85985 14.4296 2.7455 14.3153 2.63114C14.3153 2.57397 14.2009 2.51679 14.0866 2.51679Z" fill="#1D1D1B"/>
<path d="M16.2022 3.60299C16.0307 3.60299 15.9163 3.54582 15.8019 3.43146C15.6304 3.31711 15.5732 3.14558 15.5732 2.91688C15.5732 2.51664 15.8591 2.17358 16.2594 2.17358C16.4309 2.17358 16.6596 2.23076 16.7739 2.34511C16.9455 2.45947 17.0027 2.63099 17.0027 2.8597C17.0027 3.25994 16.7168 3.60299 16.3165 3.60299C16.2594 3.60299 16.2022 3.60299 16.2022 3.60299ZM16.3165 2.40229C16.2594 2.40229 16.2594 2.40229 16.2022 2.40229C16.0878 2.40229 15.9735 2.45947 15.8591 2.57382C15.7448 2.68817 15.7448 2.80252 15.7448 2.91688C15.7448 3.03123 15.8019 3.14558 15.9163 3.25994C16.0307 3.37429 16.145 3.37429 16.2594 3.37429C16.5452 3.37429 16.7168 3.14558 16.7168 2.8597C16.7168 2.74535 16.6596 2.631 16.5452 2.51664C16.5452 2.45947 16.4309 2.40229 16.3165 2.40229Z" fill="#1D1D1B"/>
<path d="M7.05566 27.6741L12.7161 26.9308L10.5434 26.1304L7.05566 26.8737V27.6741Z" fill="#D6CBB6"/>
<path d="M7.05566 25.5586L10.2575 25.6158L10.8865 26.7021L7.11284 27.1024L7.05566 25.5586Z" fill="#A777FF"/>
<path d="M18.5479 26.5306L23.8081 27.1595V26.4734L18.5479 26.5306Z" fill="#D6CBB6"/>
<path d="M19.8627 25.0439H23.5791L23.865 26.5877L18.8335 26.5305L19.8627 25.0439Z" fill="#A777FF"/>
<path d="M23.0639 17.0962L19.6333 23.2141L19.5762 21.556L23.0639 17.0962Z" fill="#D6CBB6"/>
<path d="M18.6616 20.927L22.035 17.0962H23.0642L19.8051 22.2992L18.6616 20.927Z" fill="#A777FF"/>
<path d="M8.19922 19.3264L10.086 22.8714L10.5435 21.8994L8.19922 19.3264Z" fill="#D6CBB6"/>
<path d="M11.8585 21.2704L8.88534 18.4688L8.19922 19.3264L10.2004 22.1852L11.8585 21.2704Z" fill="#A777FF"/>
<path d="M18.6044 26.5877L11.8576 26.9879C11.0571 27.0451 10.371 26.4161 10.3138 25.6157L10.1423 22.8712C10.0851 22.0707 10.714 21.3846 11.5145 21.3274L18.2613 20.9272C19.0618 20.87 19.7479 21.499 19.8051 22.2994L19.9766 25.0439C20.0338 25.8444 19.4049 26.5305 18.6044 26.5877Z" fill="#A777FF"/>
<path d="M18.1467 26.1303L12.1432 26.4733C11.4571 26.5305 10.8853 26.0159 10.8282 25.3298L10.7138 23.1571C10.6566 22.471 11.1712 21.8992 11.8573 21.842L17.8609 21.499C18.547 21.4418 19.1187 21.9564 19.1759 22.6425L19.2903 24.8152C19.3475 25.5013 18.8329 26.0731 18.1467 26.1303Z" fill="#1A3140"/>
<path d="M13.1144 24.1292C13.1716 24.6438 12.7714 25.1012 12.2568 25.1584C11.7422 25.2156 11.2848 24.8153 11.2276 24.3007C11.1704 23.7861 11.5707 23.3287 12.0853 23.2716C12.657 23.2144 13.1144 23.6146 13.1144 24.1292Z" fill="#EDE1C9"/>
<path d="M16.0305 23.9004C16.0876 24.415 15.6874 24.8724 15.1728 24.9296C14.6582 24.9868 14.2008 24.5866 14.1436 24.072C14.0865 23.5574 14.4867 23.1 15.0013 23.0428C15.573 22.9856 15.9733 23.3859 16.0305 23.9004Z" fill="#EDE1C9"/>
<path d="M19.0041 23.8433C19.0613 24.3579 18.661 24.8153 18.1464 24.8725C17.6319 24.9297 17.1744 24.5294 17.1173 24.0148C17.0601 23.5003 17.4603 23.0428 17.9749 22.9857C18.4895 22.9285 18.9469 23.3287 19.0041 23.8433Z" fill="#EDE1C9"/>
<path d="M19.4054 20.5839C19.291 20.7554 19.1767 20.927 19.291 21.0985C19.3482 21.2129 19.5769 21.27 19.6913 21.2129C19.8628 21.1557 19.9771 21.0413 20.0343 20.927C20.3202 20.6411 21.9211 18.9258 21.3494 18.6399C20.6633 18.4112 19.6913 20.1837 19.4054 20.5839Z" fill="#A777FF"/>
<path d="M10.5998 21.4417C10.657 21.4417 10.7142 21.4989 10.7142 21.4989C10.8285 21.4989 10.8857 21.3845 10.9429 21.2702C10.9429 21.1558 10.8857 21.0415 10.8285 20.9843C10.5426 20.4697 10.1424 20.0695 9.685 19.6121C9.11323 19.0403 8.82735 19.6121 9.22759 20.1267C9.62782 20.6984 10.0852 21.0987 10.5998 21.4417Z" fill="#A777FF"/>
<path d="M20.263 25.4442C20.1486 25.5013 20.0343 25.5013 19.9199 25.6157C19.8056 25.73 19.8056 25.8444 19.8628 25.9588C19.9199 26.0731 20.0915 26.0731 20.2058 26.0731C20.7776 26.0731 21.3493 26.0731 21.9211 26.1303C22.0926 26.1303 22.2642 26.1303 22.3785 26.0731C22.55 26.0159 22.6644 25.9016 22.6644 25.73C22.7216 24.9868 20.606 25.3298 20.263 25.4442Z" fill="#A777FF"/>
<path d="M7.91307 25.9586C7.79872 25.9586 7.62719 26.0158 7.51284 26.073C7.39849 26.1301 7.34131 26.2445 7.34131 26.416C7.34131 26.5304 7.45566 26.6447 7.57002 26.6447C7.68437 26.7019 7.79872 26.6447 7.97025 26.6447C8.48484 26.5875 8.99943 26.5304 9.51401 26.4732C9.68554 26.4732 9.85707 26.416 9.97142 26.3017C10.5432 25.7871 8.14178 25.9586 7.91307 25.9586Z" fill="#A777FF"/>
<path d="M24.3227 17.1536C24.094 17.3251 23.8081 17.4394 23.6938 17.6681C23.5794 17.8969 23.5794 18.2399 23.8081 18.4114C24.0368 18.5258 24.3227 18.4114 24.5514 18.2971C25.6949 17.7253 26.7813 17.0392 27.7533 16.2387C28.0964 15.9529 28.3822 15.7241 28.6109 15.3239C28.8396 14.8665 28.954 14.1232 28.4394 13.7802C27.8676 13.4371 27.6961 13.9517 27.4102 14.3519C26.5526 15.4954 25.4662 16.4103 24.3227 17.1536Z" fill="#FAF1E1"/>
<path d="M2.1958 26.3589C3.22498 26.2445 4.1398 25.7871 4.94027 25.2154C5.74074 24.5864 6.42686 23.8431 7.11297 23.0998C7.34168 22.8139 7.62756 22.5281 7.68474 22.185C7.91344 21.3845 7.22733 21.0415 6.54121 21.3274C5.96944 21.5561 5.79792 22.0135 5.45486 22.4709C4.59721 23.8431 3.22498 24.9866 2.1958 26.3589Z" fill="#FAF1E1"/>
<path d="M0.651414 29.1043C0.422709 29.8476 -0.549291 30.8768 -0.835173 30.8196C-1.12106 30.7624 -0.492114 29.8476 -0.835173 29.8476C-1.17823 29.7904 -1.06388 30.7624 -1.40694 30.9911C-1.75 31.1627 -2.32176 30.4765 -2.03588 29.7904C-2.60764 30.305 -2.9507 30.7053 -3.29376 30.6481C-3.63682 30.4765 -2.83635 29.3902 -2.83635 29.3902C-2.83635 29.3902 -3.75117 30.0763 -3.97988 29.8476C-4.09423 29.7333 -3.69399 29.2187 -3.46529 28.9328C-3.35094 28.7613 -3.23658 28.7041 -3.23658 28.7041C-3.23658 28.7041 -3.69399 28.361 -3.75117 28.0751C-3.80835 27.7893 -0.949526 27.6749 -0.492114 27.5605H-0.434938L0.651414 29.1043Z" fill="#A777FF"/>
<path d="M0.651414 29.1034C0.422709 29.8467 -0.549291 30.8758 -0.835173 30.8187C-1.12106 30.7615 -0.492114 29.8467 -0.835173 29.8467C-1.17823 29.7895 -1.06388 30.7615 -1.40694 30.9902C-1.75 31.1617 -2.32176 30.4756 -2.03588 29.7895C-2.60764 30.3041 -2.9507 30.7043 -3.29376 30.6471C-3.63682 30.4756 -2.83635 29.3893 -2.83635 29.3893C-2.83635 29.3893 -3.75117 30.0754 -3.97988 29.8467C-4.09423 29.7323 -3.69399 29.2177 -3.46529 28.9319C-3.23658 29.0462 -3.00788 29.1606 -2.83635 29.1606C-2.20741 29.2749 -1.52129 29.1034 -1.0067 28.7031C-0.663644 28.4173 -0.492114 27.9599 -0.434938 27.5024H-0.377761L0.651414 29.1034Z" fill="#7446AC"/>
</g>
</g>
</svg>
