<svg width="20" height="13" viewBox="0 0 20 13" fill="none" xmlns="http://www.w3.org/2000/svg">
<path fill-rule="evenodd" clip-rule="evenodd" d="M15.4477 5.17882C16.5625 5.45245 17.543 5.81635 18.2996 6.26345C19.166 6.7754 20 7.56048 20 8.65167C20 9.46973 19.522 10.1185 18.9544 10.5859C18.3806 11.0584 17.6052 11.4433 16.7273 11.7491C14.9628 12.3637 12.5843 12.7271 10 12.7271C7.41566 12.7271 5.03719 12.3637 3.27274 11.7491C2.39477 11.4433 1.61937 11.0584 1.04561 10.5859C0.478027 10.1185 0 9.46973 0 8.65167C0 7.56048 0.833947 6.7754 1.70038 6.26345C2.45703 5.81635 3.43748 5.45245 4.5523 5.17882C4.69591 2.29449 7.08002 0 10 0C12.92 0 15.3041 2.29449 15.4477 5.17882ZM5.63409 6.80012L5.63086 6.78408C6.45159 7.39378 7.87258 8.18184 10 8.18184C12.1287 8.18184 13.5427 7.43673 14.3854 6.80407C15.6796 7.06638 16.701 7.43069 17.3747 7.82879C18.1017 8.25834 18.1818 8.57091 18.1818 8.65167C18.1818 8.70796 18.1511 8.89213 17.7986 9.18238C17.4523 9.46754 16.8964 9.76491 16.1292 10.0321C14.6034 10.5636 12.4364 10.9089 10 10.9089C7.56357 10.9089 5.39658 10.5636 3.87077 10.0321C3.10361 9.76491 2.54768 9.46754 2.20139 9.18238C1.84892 8.89213 1.81818 8.70796 1.81818 8.65167C1.81818 8.5709 1.89832 8.25834 2.6253 7.82879C3.30242 7.42869 4.33067 7.06273 5.63409 6.80012ZM10 1.81818C11.8834 1.81818 13.4324 3.25005 13.6178 5.08456C13.0638 5.58056 11.9449 6.36366 10 6.36366C9.60843 6.36366 9.2508 6.33031 8.92443 6.27287L9.48043 4.88288C9.6669 4.41671 9.44016 3.88765 8.97399 3.70118C8.50782 3.51472 7.97876 3.74146 7.79229 4.20762L7.21417 5.65293C6.86828 5.45124 6.59625 5.23789 6.38495 5.05851C6.5823 3.23651 8.12554 1.81818 10 1.81818Z" fill="#3C079D"/>
</svg>
