<svg width="20" height="20" viewBox="0 0 20 20" fill="none" xmlns="http://www.w3.org/2000/svg">
<path fill-rule="evenodd" clip-rule="evenodd" d="M10 1.81818C9.24688 1.81818 8.63636 2.4287 8.63636 3.18182C8.63636 3.93493 9.24688 4.54545 10 4.54545C10.7531 4.54545 11.3636 3.93493 11.3636 3.18182C11.3636 2.4287 10.7531 1.81818 10 1.81818ZM12.4997 5.15067C12.9269 4.60903 13.1818 3.9252 13.1818 3.18182C13.1818 1.42455 11.7573 0 10 0C8.24273 0 6.81818 1.42455 6.81818 3.18182C6.81818 3.9252 7.07311 4.60903 7.50032 5.15067C5.96937 5.94143 4.86092 7.43589 4.6028 9.20619C3.25911 9.5786 2.27273 10.8105 2.27273 12.2727C2.27273 13.0161 2.52766 13.6999 2.95486 14.2416C1.1998 15.1481 0 16.9794 0 19.0909C0 19.593 0.407014 20 0.909091 20C1.41117 20 1.81818 19.593 1.81818 19.0909C1.81818 17.0826 3.44624 15.4545 5.45455 15.4545C7.46283 15.4545 9.09091 17.0826 9.09091 19.0909C9.09091 19.593 9.49792 20 10 20C10.5021 20 10.9091 19.593 10.9091 19.0909C10.9091 17.0826 12.5372 15.4545 14.5455 15.4545C16.5537 15.4545 18.1818 17.0826 18.1818 19.0909C18.1818 19.593 18.5888 20 19.0909 20C19.593 20 20 19.593 20 19.0909C20 16.9794 18.8002 15.1481 17.0451 14.2416C17.4723 13.6999 17.7273 13.0161 17.7273 12.2727C17.7273 10.8105 16.7409 9.5786 15.3972 9.20619C15.1391 7.43589 14.0306 5.94144 12.4997 5.15067ZM13.5583 9.24701C13.2115 7.60004 11.7501 6.36364 10 6.36364C8.24988 6.36364 6.78849 7.60004 6.4417 9.24701C7.71572 9.6624 8.63636 10.86 8.63636 12.2727C8.63636 13.0161 8.38143 13.6999 7.95423 14.2416C8.78234 14.6693 9.48684 15.3029 10 16.0748C10.5132 15.3029 11.2177 14.6693 12.0458 14.2416C11.6186 13.6999 11.3636 13.0161 11.3636 12.2727C11.3636 10.86 12.2843 9.6624 13.5583 9.24701ZM14.5455 13.6364C15.2986 13.6364 15.9091 13.0258 15.9091 12.2727C15.9091 11.5196 15.2986 10.9091 14.5455 10.9091C13.7923 10.9091 13.1818 11.5196 13.1818 12.2727C13.1818 13.0258 13.7923 13.6364 14.5455 13.6364ZM5.45455 13.6364C6.20766 13.6364 6.81818 13.0258 6.81818 12.2727C6.81818 11.5196 6.20766 10.9091 5.45455 10.9091C4.70143 10.9091 4.09091 11.5196 4.09091 12.2727C4.09091 13.0258 4.70143 13.6364 5.45455 13.6364Z" fill="#3C079D"/>
</svg>
