<svg width="20" height="20" viewBox="0 0 20 20" fill="none" xmlns="http://www.w3.org/2000/svg">
<path d="M10 0C9.49794 0 9.09092 0.407014 9.09092 0.909091C9.09092 1.41117 9.49794 1.81818 10 1.81818C13.991 1.81818 17.3146 4.67569 18.0364 8.45637L16.4672 7.67174C16.0181 7.44721 15.472 7.62923 15.2475 8.07831C15.023 8.52738 15.205 9.07345 15.6541 9.29798L18.6844 10.8131C18.9662 10.954 19.3008 10.939 19.5689 10.7733C19.8369 10.6077 20 10.3151 20 10C20 4.47715 15.5229 0 10 0Z" fill="#3C079D"/>
<path fill-rule="evenodd" clip-rule="evenodd" d="M5.32437 1.29972C3.10089 1.29972 1.2984 3.10221 1.2984 5.32569C1.2984 7.54917 3.10089 9.35166 5.32437 9.35166C7.54785 9.35166 9.35034 7.54917 9.35034 5.32569C9.35034 3.10221 7.54785 1.29972 5.32437 1.29972ZM3.11658 5.32569C3.11658 4.10636 4.10504 3.1179 5.32437 3.1179C6.5437 3.1179 7.53216 4.10636 7.53216 5.32569C7.53216 6.54502 6.5437 7.53348 5.32437 7.53348C4.10504 7.53348 3.11658 6.54502 3.11658 5.32569Z" fill="#3C079D"/>
<path fill-rule="evenodd" clip-rule="evenodd" d="M14.675 10.6499C12.4515 10.6499 10.649 12.4523 10.649 14.6758C10.649 16.8993 12.4515 18.7018 14.675 18.7018C16.8984 18.7018 18.7009 16.8993 18.7009 14.6758C18.7009 12.4523 16.8984 10.6499 14.675 10.6499ZM12.4672 14.6758C12.4672 13.4565 13.4556 12.468 14.675 12.468C15.8943 12.468 16.8828 13.4565 16.8828 14.6758C16.8828 15.8952 15.8943 16.8836 14.675 16.8836C13.4556 16.8836 12.4672 15.8952 12.4672 14.6758Z" fill="#3C079D"/>
<path d="M0.431153 9.22668C0.699168 9.06104 1.03384 9.04598 1.31565 9.18689L4.34593 10.702C4.795 10.9266 4.97702 11.4726 4.75249 11.9217C4.52795 12.3708 3.98189 12.5528 3.53282 12.3283L1.96359 11.5436C2.68543 15.3243 6.00902 18.1818 10 18.1818C10.5021 18.1818 10.9091 18.5888 10.9091 19.0909C10.9091 19.593 10.5021 20 10 20C4.47716 20 0 15.5229 0 10C0 9.68493 0.163138 9.39233 0.431153 9.22668Z" fill="#3C079D"/>
</svg>
