<svg width="37" height="32" viewBox="0 0 37 32" fill="none" xmlns="http://www.w3.org/2000/svg">
<path d="M35.3426 11.477C35.0862 12.588 34.602 13.6706 33.8898 14.6961C32.5509 16.6047 30.4428 18.2285 27.5941 19.0262C26.3122 19.3965 24.9163 19.5959 23.3495 19.5959C22.9507 19.5959 22.5234 19.5674 22.096 19.5674C21.6972 19.5389 21.2984 19.5104 20.8711 19.4535L21.042 18.0006C21.4978 18.0576 21.9536 18.1146 22.4094 18.1146C24.489 18.2285 26.3122 17.9436 27.822 17.4024C31.2405 16.2059 33.2915 13.699 33.8613 11.1352C34.3741 8.8562 33.6334 7.03302 31.9526 6.46327C31.4114 6.29235 30.8986 6.1784 30.3858 6.1784C27.9359 6.06445 25.7709 7.63125 24.5175 8.79923C23.7768 9.48293 23.3495 10.0527 23.321 10.0527L22.153 9.16957C22.2385 9.05562 23.321 7.65974 25.0302 6.46327C26.5401 5.40924 28.5057 4.52614 30.7562 4.72555C31.2974 4.78252 31.8387 4.89647 32.38 5.0674C32.5224 5.12437 32.6363 5.15286 32.7788 5.20983C35.0008 6.20689 35.9978 8.65679 35.3426 11.477Z" fill="#952A3B"/>
<path d="M15.9731 19.4532C15.9446 19.4532 15.9446 19.4532 15.9162 19.4532C15.09 19.5671 14.2924 19.5956 13.5232 19.5956C12.1558 19.5956 10.8739 19.4247 9.73442 19.1398C5.091 18.0003 2.29924 14.7528 1.55857 11.4767C0.846392 8.48557 2.01437 5.89323 4.4073 5.09558C5.48982 4.72525 6.54385 4.63979 7.5409 4.75374C10.7315 5.12407 13.2384 7.57398 14.2069 8.65649C14.4633 8.94136 14.6057 9.14078 14.6342 9.16926L14.3209 9.39716L13.4663 10.0524C13.4378 10.0239 10.9879 6.89028 7.7688 6.26356C6.85721 6.09264 5.88864 6.12112 4.8631 6.46297C3.18235 7.03272 2.44168 8.88439 2.95445 11.1349C3.58117 13.8127 5.80318 16.4335 9.47804 17.5445C11.2158 18.0858 13.2953 18.2852 15.6883 17.9718C15.7168 17.9718 15.7452 17.9718 15.8022 17.9718L15.9731 19.4532Z" fill="#952A3B"/>
<path d="M15.4028 19.4532C15.3743 19.4532 15.3743 19.4532 15.3458 19.4532C14.5197 19.5671 13.7221 19.5956 12.9529 19.5956C11.5855 19.5956 10.3036 19.4247 9.16411 19.1398C4.52068 18.0003 1.72893 14.7528 0.988262 11.4767C0.27608 8.48557 1.44406 5.89323 3.83699 5.09558C4.91951 4.72525 5.97354 4.63979 6.97059 4.75374C10.1612 5.12407 12.668 7.57398 13.6366 8.65649C13.893 8.94136 14.0354 9.14078 14.0639 9.16926L13.7506 9.39716L12.8959 10.0524C12.8675 10.0239 10.4176 6.89028 7.19849 6.26356C6.2869 6.09264 5.31833 6.12112 4.29279 6.46297C2.61204 7.03272 1.87137 8.88439 2.38414 11.1349C3.01086 13.8127 5.23287 16.4335 8.90773 17.5445C10.6454 18.0858 12.725 18.2852 15.118 17.9718C15.1464 17.9718 15.1749 17.9718 15.2319 17.9718L15.4028 19.4532Z" fill="url(#paint0_radial)"/>
<path opacity="0.6" d="M13.7214 9.42608L12.8668 10.0813C12.8383 10.0528 10.3884 6.9192 7.1693 6.29248L6.94141 4.75417C10.132 5.1245 12.6389 7.57441 13.6074 8.65692L13.7214 9.42608Z" fill="#E59572"/>
<path opacity="0.6" d="M15.3444 19.4531C14.5182 19.5671 13.7206 19.5956 12.9514 19.5956C11.5841 19.5956 10.3021 19.4246 9.16264 19.1398L8.90625 17.5445C10.644 18.0857 12.7235 18.2852 15.1165 17.9718L15.3444 19.4531Z" fill="#E59572"/>
<path d="M36.0848 11.477C35.8284 12.588 35.3442 13.6706 34.632 14.6961C33.2931 16.6047 31.185 18.2285 28.3363 19.0262C27.0544 19.3965 25.6585 19.5959 24.0917 19.5959C23.6929 19.5959 23.2655 19.5674 22.8382 19.5674C22.4394 19.5389 22.0406 19.5104 21.6133 19.4535L21.7842 18.0006C22.24 18.0576 22.6958 18.1146 23.1516 18.1146C25.2312 18.2285 27.0544 17.9436 28.5642 17.4024C31.9827 16.2059 34.0337 13.699 34.6035 11.1352C35.1163 8.8562 34.3756 7.03302 32.6948 6.46327C32.1536 6.29235 31.6408 6.1784 31.128 6.1784C28.6781 6.06445 26.5131 7.63125 25.2597 8.79923C24.519 9.48293 24.0917 10.0527 24.0632 10.0527L22.8952 9.16957C22.9807 9.05562 24.0632 7.65974 25.7724 6.46327C27.2823 5.40924 29.2479 4.52614 31.4984 4.72555C32.0396 4.78252 32.5809 4.89647 33.1221 5.0674C33.2646 5.12437 33.3785 5.15286 33.521 5.20983C35.7715 6.20689 36.7685 8.65679 36.0848 11.477Z" fill="url(#paint1_radial)"/>
<path opacity="0.6" d="M28.6177 17.4306C28.5323 17.9719 28.4468 18.5132 28.3613 19.0544C27.0794 19.4247 25.6835 19.6242 24.1167 19.6242C23.7179 19.6242 23.2906 19.5957 22.8633 19.5957L23.2051 18.1428C25.2847 18.2283 27.0794 17.9719 28.6177 17.4306Z" fill="#E59572"/>
<path opacity="0.6" d="M31.611 4.75374C31.497 5.15256 31.3546 5.63684 31.2121 6.1781C28.7622 6.06415 26.5972 7.63095 25.3438 8.79893L25.885 6.46297C27.3948 5.43743 29.3889 4.52584 31.611 4.75374Z" fill="#E59572"/>
<path d="M19.5054 30.2499H18.4513L17.4258 25.464H20.3315L19.5054 30.2499Z" fill="url(#paint2_radial)"/>
<path d="M13.2383 31.9877L18.1951 29.0535H19.7049L25.4878 31.9877H13.2383Z" fill="#DE895C"/>
<path opacity="0.6" d="M20.1322 26.6036L18.6509 27.0024V29.0535L15.6027 31.4749L25.4878 31.9877H13.2383L18.1951 29.0535L17.5683 26.0623L20.2462 25.9769L20.1322 26.6036Z" fill="#CD6D45"/>
<path d="M28.68 2.75966C28.68 2.75966 28.68 8.88442 27.3411 14.8668C26.0592 20.5927 23.5808 26.1762 18.738 26.1762C8.625 26.1762 8.625 2.75966 8.625 2.75966C13.8382 -0.858226 22.9541 -0.972175 28.68 2.75966Z" fill="url(#paint3_radial)"/>
<path d="M22.6382 1.10776C22.6382 1.10776 26.7403 2.19028 27.8798 3.32977C27.8798 3.32977 28.3356 22.872 19.3906 25.4359C19.3906 25.4359 22.7521 23.4988 23.6352 18.0862C24.7177 11.2492 22.6382 1.10776 22.6382 1.10776Z" fill="url(#paint4_linear)"/>
<path opacity="0.75" d="M9.47656 3.21541C9.47656 3.21541 9.96085 14.6673 11.9834 19.7095C13.8636 24.4384 17.4245 25.464 17.4245 25.464C17.4245 25.464 14.5473 22.017 13.7212 17.9148C12.1259 10.1663 13.2369 1.56314 13.2369 1.56314C13.2369 1.56314 10.6161 2.07591 9.47656 3.21541Z" fill="#CB7043"/>
<path d="M19.2773 29.2533H19.6762L24.2911 31.6462L22.2115 31.5323L19.2773 29.2533Z" fill="url(#paint5_linear)"/>
<path d="M19.1055 28.9967L19.2194 27.2305L19.8461 26.9741L19.5043 28.9682L19.1055 28.9967Z" fill="url(#paint6_linear)"/>
<path opacity="0.38" d="M28.675 2.75954V3.47172C28.675 3.50021 28.675 3.50021 28.675 3.52869C28.618 5.35188 28.4186 10.1377 27.3646 14.8666C17.9638 11.9324 10.9559 5.15247 9.10423 3.27231C8.79087 2.95895 8.64844 2.78802 8.64844 2.78802C13.8331 -0.858347 22.9491 -0.972296 28.675 2.75954Z" fill="url(#paint7_linear)"/>
<path d="M22.2417 1.10746C22.2417 1.10746 20.7319 0.822589 18.6523 0.822589C18.6523 0.822589 22.6121 11.6193 22.6121 20.4218C22.6406 20.4218 23.951 13.2715 22.2417 1.10746Z" fill="url(#paint8_linear)"/>
<path d="M32.2383 20.0802L32.6656 19.5959C32.4092 19.9378 32.2383 20.0802 32.2383 20.0802Z" fill="url(#paint9_linear)"/>
<path d="M36.0839 11.4767C35.8275 12.5877 35.3432 13.6702 34.631 14.6958C34.7734 14.2115 34.8874 13.6702 35.0298 13.072C36.3402 7.23212 33.6055 5.23801 33.6055 5.23801C35.7705 6.20658 36.7676 8.65648 36.0839 11.4767Z" fill="url(#paint10_linear)"/>
<path d="M28.675 3.01611V3.72829V3.78527C19.0178 -1.37093 11.0414 2.38939 9.10423 3.50039C8.81936 3.67132 8.64844 3.75678 8.64844 3.75678V2.98762C13.8331 -0.630262 22.9491 -0.744211 28.675 3.01611Z" fill="#952A3B"/>
<path d="M28.675 2.7598V3.47198V3.52895C19.0178 -1.62724 11.0414 2.16157 9.10423 3.24408C8.81936 3.41501 8.64844 3.50047 8.64844 3.50047V2.73131C13.8331 -0.858086 22.9491 -0.972035 28.675 2.7598Z" fill="url(#paint11_radial)"/>
<path d="M18.6523 0.110497L18.7663 0.651755C18.7663 0.651755 21.0168 0.70873 22.0708 0.993603L21.9854 0.423857C21.9854 0.423857 20.4755 0.110497 18.6523 0.110497Z" fill="url(#paint12_linear)"/>
<path d="M22.5508 0.537976L22.6362 1.10772C22.6362 1.10772 25.485 1.67747 27.8779 2.90242V2.41814C27.8494 2.41814 25.6559 1.07923 22.5508 0.537976Z" fill="url(#paint13_linear)"/>
<defs>
<radialGradient id="paint0_radial" cx="0" cy="0" r="1" gradientUnits="userSpaceOnUse" gradientTransform="translate(8.08572 12.1563) scale(7.38755)">
<stop stop-color="#FFE55E"/>
<stop offset="1" stop-color="#F87E4B"/>
</radialGradient>
<radialGradient id="paint1_radial" cx="0" cy="0" r="1" gradientUnits="userSpaceOnUse" gradientTransform="translate(28.9756 12.1567) scale(7.38692)">
<stop stop-color="#FFE55E"/>
<stop offset="1" stop-color="#F87E4B"/>
</radialGradient>
<radialGradient id="paint2_radial" cx="0" cy="0" r="1" gradientUnits="userSpaceOnUse" gradientTransform="translate(19.8877 26.1278) scale(4.10345)">
<stop stop-color="#FFE55E"/>
<stop offset="1" stop-color="#F87E4B"/>
</radialGradient>
<radialGradient id="paint3_radial" cx="0" cy="0" r="1" gradientUnits="userSpaceOnUse" gradientTransform="translate(25.5915 3.6629) scale(22.5454)">
<stop stop-color="#FFE55E"/>
<stop offset="0.665457" stop-color="#F87E4B"/>
<stop offset="0.9865" stop-color="#FFCC60"/>
</radialGradient>
<linearGradient id="paint4_linear" x1="23.6372" y1="1.10776" x2="23.6372" y2="25.4359" gradientUnits="userSpaceOnUse">
<stop stop-color="#FFFE82"/>
<stop offset="1" stop-color="#F1D17D"/>
</linearGradient>
<linearGradient id="paint5_linear" x1="21.7842" y1="29.2533" x2="21.7842" y2="31.6462" gradientUnits="userSpaceOnUse">
<stop stop-color="#FFFE82"/>
<stop offset="1" stop-color="#FFFE82" stop-opacity="0"/>
</linearGradient>
<linearGradient id="paint6_linear" x1="19.4758" y1="26.9741" x2="19.4758" y2="28.9967" gradientUnits="userSpaceOnUse">
<stop stop-color="#FFFE82"/>
<stop offset="1" stop-color="#FFFE82" stop-opacity="0"/>
</linearGradient>
<linearGradient id="paint7_linear" x1="18.6617" y1="0.0066967" x2="18.6617" y2="14.8666" gradientUnits="userSpaceOnUse">
<stop stop-color="#D88E4C"/>
<stop offset="1" stop-color="#FFFE86"/>
</linearGradient>
<linearGradient id="paint8_linear" x1="20.8856" y1="0.822589" x2="20.8856" y2="20.4218" gradientUnits="userSpaceOnUse">
<stop stop-color="#FFFE82"/>
<stop offset="1" stop-color="#F1D17D"/>
</linearGradient>
<linearGradient id="paint9_linear" x1="32.2575" y1="20.0822" x2="32.6362" y2="19.561" gradientUnits="userSpaceOnUse">
<stop stop-color="#002F23"/>
<stop offset="0.0989748" stop-color="#053122"/>
<stop offset="0.2228" stop-color="#153520"/>
<stop offset="0.36" stop-color="#2E3D1D"/>
<stop offset="0.5067" stop-color="#524818"/>
<stop offset="0.6612" stop-color="#805611"/>
<stop offset="0.8221" stop-color="#B8670A"/>
<stop offset="0.9854" stop-color="#F97A01"/>
<stop offset="1" stop-color="#FF7C00"/>
</linearGradient>
<linearGradient id="paint10_linear" x1="34.9512" y1="5.23801" x2="34.9512" y2="14.6958" gradientUnits="userSpaceOnUse">
<stop stop-color="#FFFE82"/>
<stop offset="1" stop-color="#F1D17D"/>
</linearGradient>
<radialGradient id="paint11_radial" cx="0" cy="0" r="1" gradientUnits="userSpaceOnUse" gradientTransform="translate(18.6605 1.76095) scale(7.19369)">
<stop stop-color="#FFE55E"/>
<stop offset="1" stop-color="#F87E4B"/>
</radialGradient>
<linearGradient id="paint12_linear" x1="20.3616" y1="0.110497" x2="20.3616" y2="0.993603" gradientUnits="userSpaceOnUse">
<stop stop-color="#FFFE82"/>
<stop offset="1" stop-color="#F1D17D"/>
</linearGradient>
<linearGradient id="paint13_linear" x1="25.2143" y1="0.537976" x2="25.2143" y2="2.90242" gradientUnits="userSpaceOnUse">
<stop stop-color="#FFFE82"/>
<stop offset="1" stop-color="#F1D17D"/>
</linearGradient>
</defs>
</svg>
