<svg width="1100" height="220" viewBox="0 0 1100 220" fill="none" xmlns="http://www.w3.org/2000/svg">
<mask id="mask0_1008_29634" style="mask-type:alpha" maskUnits="userSpaceOnUse" x="0" y="0" width="1100" height="220">
<rect width="1100" height="220" rx="40" fill="#3F1E7E"/>
</mask>
<g mask="url(#mask0_1008_29634)">
<path fill-rule="evenodd" clip-rule="evenodd" d="M908.098 -219.959C908.293 -219.808 908.49 -219.657 908.689 -219.504C918.213 -212.176 931.961 -201.597 907.814 -183.05C887.338 -167.358 871.192 -146.787 860.885 -123.149L860.77 -122.892C842.113 -79.916 844.575 -30.7702 866.95 10.4334C895.867 63.87 866.234 77.5807 845.034 87.3896C842.776 88.4339 840.615 89.4341 838.63 90.4332C833.729 92.9537 829.361 95.9872 825.146 99.3262C788.038 129.04 789.837 189.807 791.31 214.389C792.783 238.971 795.971 281.925 818.72 311.038C841.469 340.151 892.97 359.622 945.106 357.449C915.037 344.696 862.739 312.325 852.534 278.785L841.16 241.302C824.981 188.085 839.849 138.382 876.957 108.669C881.172 105.33 885.54 102.296 890.441 99.7757C892.426 98.7765 894.587 97.7764 896.845 96.7321C918.045 86.9232 947.678 73.2125 918.761 19.7758C896.386 -21.4277 893.924 -70.5736 912.581 -113.549L912.696 -113.806C923.003 -137.445 939.148 -158.016 959.624 -173.707C983.772 -192.254 970.023 -202.833 960.5 -210.161C960.301 -210.314 960.104 -210.466 959.909 -210.616L908.098 -219.959Z" fill="url(#paint0_linear_1008_29634)"/>
<mask id="mask1_1008_29634" style="mask-type:alpha" maskUnits="userSpaceOnUse" x="803" y="-217" width="386" height="666">
<path d="M929.378 -215.633L928.55 -216.271L1188.12 -169.467L1076.61 448.9L1026.44 439.854C1027.7 431.544 1028.24 424.683 1027.9 420.04C1027.16 409.137 1024.33 400.152 1020 392.214C1018.65 389.772 1017.33 387.31 1016.03 384.866C1006.14 366.292 996.807 348.76 973.705 349.198C965.266 349.914 961.52 350.702 958.445 351.349L958.408 351.357L957.655 351.515C898.396 363.826 839.036 331.237 821.413 273.313L810.039 235.83C793.859 182.613 808.728 132.91 845.835 103.197C850.05 99.8578 854.418 96.8243 859.319 94.3037C861.304 93.3049 863.465 92.305 865.722 91.2609C886.923 81.4512 916.557 67.7406 887.64 14.3039C865.265 -26.8997 862.802 -76.0455 881.459 -119.021L881.575 -119.278C891.882 -142.917 908.027 -163.488 928.503 -179.179C952.65 -197.726 938.902 -208.305 929.378 -215.633Z" fill="#FF1515"/>
</mask>
<g mask="url(#mask1_1008_29634)">
<path fill-rule="evenodd" clip-rule="evenodd" d="M1196.45 -214.508L1196.56 -213.352L1077.13 448.995L1026.96 439.948C1028.21 431.638 1028.75 424.777 1028.42 420.134C1027.67 409.232 1024.85 400.246 1020.51 392.309C1019.16 389.867 1017.85 387.405 1016.55 384.961L1016.54 384.96C1006.65 366.387 997.318 348.854 974.216 349.293C965.779 350.008 962.031 350.797 958.957 351.444C958.689 351.5 958.427 351.555 958.166 351.61C898.908 363.92 839.547 331.332 821.924 273.408L810.55 235.925C794.371 182.708 809.239 133.005 846.347 103.291C850.562 99.9523 854.93 96.9189 859.831 94.3983C861.816 93.3992 863.977 92.3991 866.235 91.3547C887.435 81.5458 917.068 67.8352 888.151 14.3985C865.776 -26.8051 863.314 -75.9509 881.971 -118.926L882.086 -119.183C892.393 -142.822 908.539 -163.393 929.015 -179.085C953.162 -197.632 939.414 -208.211 929.89 -215.539C924.592 -219.615 920.601 -222.685 925.168 -225.562C930.461 -228.909 938.151 -229.939 945.691 -230.949C957.03 -232.468 968.03 -233.942 970.029 -243.178C971.495 -249.783 965.138 -248.97 957.83 -248.035C950.353 -247.079 941.881 -245.996 939.769 -252.595C938.794 -255.639 937.555 -258.617 936.065 -261.462L1196.45 -214.508Z" fill="#F9F9F9"/>
<path fill-rule="evenodd" clip-rule="evenodd" d="M1196.45 -214.508L1196.56 -213.352L1077.13 448.995L1026.96 439.948C1028.21 431.638 1028.75 424.777 1028.42 420.134C1027.67 409.232 1024.85 400.246 1020.51 392.309C1019.16 389.867 1017.85 387.405 1016.55 384.961L1016.54 384.96C1006.65 366.387 997.318 348.854 974.216 349.293C965.779 350.008 962.031 350.797 958.957 351.444C958.689 351.5 958.427 351.555 958.166 351.61C898.908 363.92 839.547 331.332 821.924 273.408L810.55 235.925C794.371 182.708 809.239 133.005 846.347 103.291C850.562 99.9523 854.93 96.9189 859.831 94.3983C861.816 93.3992 863.977 92.3991 866.235 91.3547C887.435 81.5458 917.068 67.8352 888.151 14.3985C865.776 -26.8051 863.314 -75.9509 881.971 -118.926L882.086 -119.183C892.393 -142.822 908.539 -163.393 929.015 -179.085C953.162 -197.632 939.414 -208.211 929.89 -215.539C924.592 -219.615 920.601 -222.685 925.168 -225.562C930.461 -228.909 938.151 -229.939 945.691 -230.949C957.03 -232.468 968.03 -233.942 970.029 -243.178C971.495 -249.783 965.138 -248.97 957.83 -248.035C950.353 -247.079 941.881 -245.996 939.769 -252.595C938.794 -255.639 937.555 -258.617 936.065 -261.462L1196.45 -214.508Z" fill="url(#paint1_radial_1008_29634)"/>
<path d="M754.086 -294.526L1196.86 -214.686L1077.21 448.83L634.441 368.99L754.086 -294.526Z" fill="url(#paint2_linear_1008_29634)"/>
<path d="M872.729 253.703C871.152 234.845 854.812 220.816 836.231 222.369C817.651 223.922 803.866 240.469 805.443 259.328C807.019 278.186 823.359 292.215 841.94 290.662C860.521 289.109 874.305 272.562 872.729 253.703Z" fill="url(#paint3_radial_1008_29634)"/>
<path opacity="0.2" d="M1002.31 -149.726C1007.82 -130.872 1013.05 -111.698 1020.83 -94.0245C1033.97 -63.8003 1054.87 -37.0634 1081.1 -17.3729C1107.79 2.82682 1139.37 15.4708 1168.66 31.6409L1149.39 106.395C1121.59 75.3311 1085.55 51.9371 1055.2 23.1552C1011.98 -17.9544 980.702 -69.6977 950.015 -120.701C940.573 -136.454 930.907 -152.853 923.957 -169.923L1002.31 -149.726ZM1061 210.929C1037.29 197.375 1018.65 176.312 1002.82 154.211C981.081 123.926 963.092 89.7114 959.143 52.6521C957.218 33.5478 958.928 14.0092 954.565 -4.74442C949.225 -28.0591 934.261 -48.9578 913.762 -61.2934C899.58 -70.0421 883.16 -74.6666 870.28 -85.4302C860.14 -93.9203 853.149 -105.516 846.756 -117.154C834.923 -138.812 824.842 -161.195 816.329 -184.348C814.618 -189.098 812.908 -193.848 811.244 -198.782L675.458 -233.785C683.338 -199.826 710.3 -173.092 737.618 -150.772C766.397 -127.291 798.267 -105.169 816.268 -72.5182C842.338 -24.8598 833.348 33.5447 842.229 87.1535C854.188 159.185 899.495 209.647 953.112 255.201L1101.56 293.467L1119.31 224.59C1099.31 226.289 1078.57 220.944 1061 210.929Z" fill="url(#paint4_linear_1008_29634)"/>
<path opacity="0.4" d="M820.498 122.138C811.025 128.71 808.705 141.577 815.286 151.043C821.866 160.51 834.746 162.832 844.219 156.26C853.691 149.689 856.012 136.821 849.431 127.355C843.037 117.923 829.971 115.566 820.498 122.138Z" fill="url(#paint5_linear_1008_29634)"/>
<path opacity="0.4" d="M1094.36 -13.4279C1084.89 -6.85638 1082.57 6.01114 1089.15 15.4774C1095.73 24.9436 1108.61 27.2661 1118.08 20.6946C1127.55 14.123 1129.87 1.25552 1123.29 -8.21072C1116.68 -17.4905 1103.8 -19.813 1094.36 -13.4279Z" fill="url(#paint6_linear_1008_29634)"/>
<path d="M850.32 191.543L851.667 195.829C852.178 197.269 853.097 198.59 854.082 199.538L857.446 202.262C857.632 202.296 857.565 202.669 857.378 202.635L853.275 204.013C851.834 204.524 850.512 205.441 849.717 206.645L846.957 210.191C846.924 210.378 846.55 210.31 846.584 210.124L845.237 205.837C844.726 204.397 843.807 203.076 842.822 202.129L839.458 199.404C839.272 199.37 839.339 198.997 839.526 199.031L843.629 197.653C845.07 197.143 846.392 196.226 847.187 195.021L849.947 191.475C849.98 191.289 850.167 191.322 850.32 191.543Z" fill="#EFEFEF"/>
<path d="M968.08 87.7231L969.427 92.0095C969.938 93.4496 970.857 94.7704 972.029 95.752L975.579 98.5102C975.766 98.5439 975.698 98.9168 975.512 98.8832L971.222 100.228C969.781 100.738 968.459 101.655 967.477 102.826L964.717 106.372C964.684 106.558 964.31 106.491 964.344 106.304L962.997 102.018C962.486 100.578 961.567 99.257 960.395 98.2754L956.845 95.5172C956.658 95.4836 956.726 95.1106 956.912 95.1443L961.202 93.7998C962.643 93.2894 963.965 92.3725 964.947 91.2017L967.707 87.6558C967.927 87.5029 968.114 87.5366 968.08 87.7231Z" fill="#EFEFEF"/>
<path d="M910.026 -10.3355L910.887 -7.59291C911.214 -6.67156 911.8 -5.8265 912.55 -5.19858L914.819 -3.43413C914.938 -3.41261 914.895 -3.17396 914.776 -3.19548L912.033 -2.33475C911.112 -2.00806 910.267 -1.42119 909.639 -0.67197L907.875 1.59719C907.853 1.71652 907.614 1.67348 907.636 1.55416L906.775 -1.18838C906.448 -2.10973 905.862 -2.9548 905.112 -3.58273L902.843 -5.34716C902.724 -5.36868 902.767 -5.60732 902.886 -5.58581L905.629 -6.44656C906.55 -6.77324 907.395 -7.3601 908.023 -8.10932L909.788 -10.3785C909.928 -10.4763 910.048 -10.4548 910.026 -10.3355Z" fill="#EFEFEF"/>
<path d="M940.406 49.3185L940.884 50.9451C940.969 51.5382 941.462 52.0121 941.802 52.2659L943.161 53.2812L943.127 53.4677L941.499 53.9443C940.906 54.0298 940.431 54.522 940.178 54.8613L939.162 56.2185L938.975 56.1849L938.498 54.5583C938.412 53.9652 937.919 53.4913 937.579 53.2375L936.22 52.2222L936.254 52.0358L937.882 51.5591C938.476 51.4736 938.95 50.9815 939.204 50.6421L940.406 49.3185Z" fill="#EFEFEF"/>
<path d="M896.611 116.374L897.633 119.255C898.025 120.288 898.637 121.169 899.47 121.896L901.814 123.859C902.001 123.893 901.967 124.08 901.78 124.046L898.898 125.067C897.864 125.458 896.983 126.069 896.255 126.9L894.291 129.242C894.257 129.428 894.07 129.395 894.104 129.208L893.081 126.328C892.689 125.295 892.077 124.414 891.245 123.687L888.901 121.723C888.714 121.69 888.748 121.503 888.934 121.537L891.817 120.516C892.851 120.125 893.732 119.514 894.46 118.682L896.424 116.341C896.424 116.341 896.424 116.341 896.611 116.374Z" fill="#EFEFEF"/>
<path d="M846.326 148.847C846.124 149.965 845.023 150.73 843.903 150.528C842.783 150.326 842.018 149.225 842.22 148.106C842.421 146.987 843.523 146.223 844.643 146.425C845.796 146.44 846.562 147.541 846.326 148.847Z" fill="#EFEFEF"/>
<path d="M1027.34 199.971C1027.14 201.09 1026.04 201.854 1024.92 201.652C1023.8 201.45 1023.03 200.35 1023.23 199.231C1023.43 198.112 1024.53 197.348 1025.65 197.55C1026.77 197.751 1027.54 198.852 1027.34 199.971Z" fill="#EFEFEF"/>
<path d="M1022.33 117.621C1022.13 118.74 1021.03 119.504 1019.91 119.302C1018.79 119.1 1018.03 117.999 1018.23 116.88C1018.43 115.761 1019.53 114.997 1020.65 115.199C1021.77 115.401 1022.54 116.502 1022.33 117.621Z" fill="#EFEFEF"/>
<path d="M1016.42 38.1869C1016.84 38.2613 1017.23 37.9876 1017.3 37.5756C1017.38 37.1636 1017.1 36.7694 1016.69 36.695C1016.28 36.6207 1015.89 36.8944 1015.81 37.3063C1015.74 37.7183 1016.01 38.1126 1016.42 38.1869Z" fill="#EFEFEF"/>
<path d="M1013.91 110.903C1014.43 110.996 1014.92 110.654 1015.01 110.139C1015.1 109.624 1014.76 109.131 1014.25 109.038C1013.73 108.945 1013.24 109.287 1013.14 109.802C1013.05 110.317 1013.39 110.81 1013.91 110.903Z" fill="#EFEFEF"/>
<path d="M1029.37 106.375C1029.27 106.934 1028.83 107.24 1028.27 107.139C1027.71 107.038 1027.41 106.598 1027.51 106.038C1027.61 105.479 1028.05 105.173 1028.61 105.274C1029.14 105.562 1029.44 106.002 1029.37 106.375Z" fill="#EFEFEF"/>
<path d="M881.496 54.2932C882.142 54.9873 881.974 55.9197 881.279 56.5646C880.585 57.2096 879.652 57.0413 879.006 56.3472C878.36 55.6531 878.528 54.7207 879.223 54.0757C879.883 53.6173 880.85 53.5991 881.496 54.2932Z" fill="#EFEFEF"/>
<path d="M984.924 19.414C986.063 20.582 985.913 22.4805 984.558 23.584C983.389 24.7211 981.489 24.571 980.384 23.2164C979.246 22.0484 979.395 20.1499 980.751 19.0464C982.106 17.943 984.006 18.0931 984.924 19.414Z" fill="#EFEFEF"/>
<path d="M878.585 69.3652C879.101 69.4581 879.594 69.116 879.687 68.601C879.78 68.0861 879.437 67.5933 878.922 67.5003C878.406 67.4074 877.913 67.7495 877.82 68.2645C877.727 68.7794 878.07 69.2722 878.585 69.3652Z" fill="#EFEFEF"/>
<path d="M915.827 30.6376C915.727 31.1971 915.286 31.5028 914.726 31.4018C914.166 31.3008 913.86 30.8605 913.961 30.301C914.062 29.7416 914.502 29.4359 915.062 29.5369C915.622 29.6379 915.928 30.0782 915.827 30.6376Z" fill="#EFEFEF"/>
<path d="M981.409 37.8423C981.241 38.7747 980.36 39.386 979.426 39.2178C978.493 39.0495 977.881 38.1689 978.049 37.2364C978.217 36.304 979.098 35.6927 980.032 35.861C981.118 36.2494 981.543 37.0963 981.409 37.8423Z" fill="#EFEFEF"/>
<path d="M858.82 142.629C858.719 143.188 858.278 143.494 857.718 143.393C857.158 143.292 856.852 142.852 856.953 142.292C857.054 141.733 857.494 141.427 858.054 141.528C858.614 141.629 858.887 142.256 858.82 142.629Z" fill="#EFEFEF"/>
<path d="M799.577 205.98C808.619 207.378 817.082 201.182 818.48 192.14C819.878 183.099 813.682 174.636 804.641 173.238C795.599 171.84 787.136 178.036 785.738 187.077C784.34 196.119 790.536 204.582 799.577 205.98Z" fill="#E0A326"/>
<path opacity="0.34" d="M817.748 186.568L817.769 186.448C817.791 186.327 817.692 186.184 817.714 186.064L817.736 185.943C817.637 185.8 817.68 185.559 817.581 185.416C817.581 185.416 817.581 185.416 817.603 185.295C817.625 185.175 817.526 185.032 817.548 184.911L817.569 184.791C817.47 184.648 817.492 184.527 817.415 184.264C817.316 184.121 817.338 184.001 817.261 183.737C817.261 183.737 817.261 183.737 817.282 183.617C817.183 183.474 817.205 183.353 817.106 183.211C817.106 183.211 817.106 183.211 817.128 183.09C817.029 182.948 816.93 182.805 816.974 182.563C816.875 182.421 816.776 182.278 816.797 182.158C816.797 182.158 816.797 182.158 816.819 182.037C816.621 181.752 816.566 181.368 816.368 181.083C816.269 180.94 816.17 180.798 816.071 180.655C815.873 180.37 815.675 180.085 815.477 179.8C815.378 179.657 815.158 179.493 815.081 179.23C815.18 179.372 815.378 179.657 815.477 179.8C815.576 179.942 815.675 180.085 815.774 180.228C815.972 180.513 816.17 180.798 816.225 181.182C816.225 181.182 816.225 181.182 816.203 181.302C816.302 181.445 816.401 181.588 816.38 181.708C816.479 181.851 816.578 181.993 816.534 182.235C816.534 182.235 816.534 182.235 816.512 182.356C816.348 182.575 816.326 182.696 816.425 182.839C816.425 182.839 816.425 182.839 816.403 182.959C816.502 183.102 816.481 183.223 816.558 183.486C816.657 183.629 816.635 183.749 816.712 184.013L816.69 184.133C816.789 184.276 816.768 184.397 816.746 184.517C816.746 184.517 816.746 184.517 816.724 184.638C816.823 184.781 816.78 185.022 816.879 185.165L816.857 185.286C816.835 185.406 816.934 185.549 816.912 185.67L816.89 185.79C816.869 185.911 816.946 186.174 816.924 186.295C818.057 195.227 811.856 203.336 803.045 204.49C802.924 204.468 802.661 204.546 802.54 204.524L802.419 204.502C802.299 204.48 802.178 204.459 802.035 204.558C801.914 204.536 801.914 204.536 801.794 204.514C801.673 204.492 801.673 204.492 801.552 204.47C796.142 204.742 791.232 202.236 787.978 198.157C791.024 202.697 796.373 205.532 802.146 205.326C802.267 205.347 802.267 205.347 802.388 205.369C802.508 205.391 802.508 205.391 802.629 205.413C802.75 205.435 802.871 205.456 803.013 205.357L803.134 205.379C803.255 205.401 803.518 205.324 803.639 205.345C812.571 204.213 818.793 195.984 817.518 187.15C817.803 186.952 817.825 186.832 817.748 186.568Z" fill="#E0A326"/>
<path opacity="0.6" d="M787.092 187.149C788.311 180.387 793.89 175.034 800.66 174.135C803.732 173.692 806.872 174.258 809.64 175.505C810.782 176.085 812.144 176.829 813.078 177.871C812.308 176.61 810.606 175.679 809.222 175.056C806.476 173.688 803.315 173.242 800.242 173.686C793.472 174.585 787.893 179.938 786.674 186.7C786.282 188.874 785.957 192.057 787.507 193.833C786.462 192.023 786.721 189.202 787.092 187.149Z" fill="#E0A326"/>
<path opacity="0.4" d="M810.603 181.913C810.46 182.012 810.339 181.991 810.197 182.09C810.076 182.068 809.933 182.167 809.813 182.145C809.571 182.102 809.209 182.036 808.704 182.07C808.441 182.147 808.32 182.125 808.177 182.224C808.035 182.323 807.914 182.301 807.772 182.4C807.651 182.379 807.629 182.499 807.508 182.478C807.388 182.456 807.388 182.456 807.267 182.434C807.146 182.412 806.905 182.369 806.784 182.347C806.422 182.282 806.301 182.26 806.301 182.26C806.301 182.26 806.059 182.216 805.818 182.173C805.455 182.108 805.093 182.042 804.489 181.933C803.886 181.824 803.26 181.836 802.514 181.826C801.767 181.817 800.999 181.927 800.352 182.06C799.562 182.292 798.893 182.545 798.323 182.941C797.774 183.216 797.347 183.513 796.82 183.668C796.557 183.745 796.294 183.822 796.173 183.8C795.931 183.757 795.789 183.856 795.668 183.834C795.427 183.79 795.185 183.747 795.185 183.747C795.185 183.747 795.284 183.889 795.625 184.075C795.745 184.097 795.987 184.141 796.228 184.184C796.711 184.271 797.117 184.095 797.622 184.061C798.127 184.028 798.709 184.257 799.235 184.103C799.499 184.026 799.663 183.806 799.806 183.707C800.376 183.311 801.166 183.08 801.912 183.089C802.395 183.177 802.757 183.242 803.262 183.208C803.624 183.274 804.151 183.119 804.634 183.206C804.875 183.25 805.095 183.414 805.337 183.458C805.578 183.501 805.863 183.303 806.006 183.204C806.532 183.05 807.093 183.4 807.597 183.367C807.718 183.388 807.981 183.311 808.124 183.212C808.387 183.135 808.672 182.937 808.793 182.959C808.936 182.86 809.298 182.925 809.66 182.99C809.781 183.012 809.902 183.034 810.023 183.056C810.527 183.022 811.076 182.747 811.602 182.592C812.414 182.24 813.148 181.624 813.542 180.823C813.75 180.361 814.538 178.758 813.956 178.528C813.057 179.364 812.214 180.583 811.173 181.518C811.173 181.518 810.888 181.715 810.603 181.913Z" fill="white"/>
<path opacity="0.4" d="M815.767 198.929C815.404 198.864 814.658 198.854 813.528 198.899C812.76 199.01 811.991 199.121 811.081 199.331C810.17 199.541 809.238 199.871 808.305 200.202C807.9 200.378 807.373 200.533 806.945 200.83C806.682 200.907 806.54 201.006 806.254 201.204C806.112 201.303 805.849 201.38 805.684 201.6C804.851 202.073 804.16 202.447 803.633 202.601C802.986 202.734 802.481 202.768 802.119 202.702C801.877 202.659 801.757 202.637 801.636 202.615C801.515 202.594 801.515 202.594 801.515 202.594C801.515 202.594 801.515 202.594 801.394 202.572C801.274 202.55 801.153 202.528 800.911 202.485C800.549 202.419 799.967 202.19 799.264 201.938C798.562 201.687 797.716 201.534 796.75 201.36C795.762 201.307 794.873 201.396 793.985 201.485C793.743 201.441 793.48 201.519 793.238 201.475C792.997 201.432 792.755 201.388 792.492 201.465C792.009 201.378 791.647 201.313 791.164 201.226C790.56 201.117 790.077 201.03 789.615 200.822C789.835 200.986 790.033 201.271 790.253 201.436C790.813 201.786 791.373 202.136 791.955 202.366C792.197 202.41 792.296 202.552 792.537 202.596C792.779 202.639 793.042 202.562 793.327 202.364C793.47 202.265 793.591 202.287 793.711 202.309C793.832 202.33 793.931 202.473 794.151 202.637C794.59 202.966 795.259 202.712 795.687 202.415C795.83 202.316 795.972 202.217 796.115 202.119C796.905 201.887 798.486 202.796 799.189 203.047C799.31 203.069 799.53 203.233 799.629 203.376C799.728 203.518 799.706 203.639 799.805 203.781C800.003 204.066 800.486 204.154 800.991 204.12C801.495 204.086 802 204.053 802.483 204.14C803.087 204.249 803.548 204.456 804.075 204.302C804.601 204.148 804.952 203.587 805.478 203.433C805.884 203.257 806.488 203.366 806.916 203.069C807.321 202.892 807.529 202.431 807.836 202.112C808.329 201.453 809.085 200.717 809.875 200.485C810.139 200.408 810.281 200.309 810.523 200.353C810.643 200.374 810.885 200.418 811.006 200.44C811.489 200.527 812.037 200.252 812.465 199.955C813.013 199.679 814.977 199.161 815.767 198.929Z" fill="white"/>
<path opacity="0.4" d="M811.537 189.189C811.01 189.343 810.385 189.355 809.902 189.268C809.419 189.181 808.936 189.094 808.474 188.886C808.013 188.678 807.673 188.492 807.211 188.284C806.871 188.098 806.53 187.912 806.168 187.847C806.047 187.825 805.927 187.803 805.828 187.661C805.707 187.639 805.586 187.617 805.465 187.595C805.345 187.573 805.224 187.552 805.224 187.552C805.224 187.552 805.224 187.552 805.103 187.53C805.103 187.53 804.982 187.508 804.862 187.486C804.741 187.465 804.62 187.443 804.499 187.421C804.379 187.399 804.379 187.399 804.258 187.377C804.137 187.356 804.137 187.356 804.016 187.334C803.391 187.346 802.403 187.292 801.47 187.623C800.944 187.777 800.417 187.932 799.891 188.086C799.364 188.241 798.695 188.494 798.147 188.769C796.951 189.177 795.733 189.706 794.461 189.85L793.956 189.884C793.835 189.862 793.593 189.818 793.451 189.917C793.33 189.896 793.089 189.852 792.946 189.951C792.825 189.929 792.584 189.886 792.463 189.864C792.342 189.842 792.101 189.799 791.98 189.777C791.859 189.755 791.618 189.712 791.497 189.69C791.376 189.668 791.135 189.624 791.014 189.603C790.893 189.581 790.652 189.537 790.531 189.516C789.345 189.177 788.324 188.619 787.401 188.203C786.841 187.853 786.259 187.623 785.819 187.294C785.699 187.273 785.875 187.679 785.853 187.799C785.952 187.942 786.172 188.106 786.413 188.15C786.633 188.314 786.995 188.379 787.215 188.544C787.336 188.565 787.435 188.708 787.555 188.73C787.874 189.037 787.93 189.421 788.128 189.706C788.425 190.133 788.765 190.319 789.226 190.527C789.688 190.735 790.27 190.965 790.774 190.931C791.016 190.975 791.257 191.018 791.378 191.04C791.96 191.27 792.257 191.697 792.839 191.927C793.542 192.178 794.233 191.804 794.979 191.814C795.484 191.78 795.945 191.988 796.472 191.834C797.404 191.503 797.963 190.482 798.796 190.008C799.772 189.436 800.946 189.149 802.076 189.104C802.439 189.169 802.702 189.092 803.064 189.157C804.272 189.375 805.271 190.054 806.457 190.392C807.643 190.731 808.631 190.784 809.86 190.881C810.102 190.925 810.486 190.87 810.749 190.792C811.133 190.737 811.319 190.396 811.604 190.198C812.01 190.022 812.735 190.153 813.119 190.097C813.481 190.163 813.744 190.086 814.008 190.008C814.413 189.832 814.6 189.492 814.906 189.173C815.542 188.415 816.199 187.536 816.955 186.799C817.405 186.382 817.854 185.964 818.062 185.503C817.985 185.239 817.886 185.097 817.929 184.855C816.811 185.526 815.868 186.603 814.871 187.296C813.829 188.231 812.711 188.902 811.537 189.189Z" fill="white"/>
<path opacity="0.4" d="M788.535 197.136C789.117 197.366 789.622 197.332 789.984 197.398C790.226 197.441 790.467 197.485 790.61 197.386C792.168 197.043 792.89 195.802 794.625 195.865C795.129 195.832 795.591 196.039 796.052 196.247C796.854 196.641 796.931 196.905 797.448 197.496C797.547 197.639 797.909 197.704 798.051 197.605C798.315 197.528 798.457 197.429 798.721 197.352C799.247 197.197 799.851 197.306 800.476 197.294C800.597 197.316 800.718 197.338 800.981 197.261C801.629 197.128 802.001 196.447 802.648 196.315C803.175 196.16 803.68 196.126 804.228 195.851C805.182 195.4 805.653 194.861 805.653 194.861C805.653 194.861 804.984 195.115 804.03 195.566C803.503 195.721 802.977 195.875 802.329 196.008C801.682 196.14 801.035 196.273 800.409 196.285C799.784 196.297 799.059 196.166 798.455 196.057C797.851 195.948 797.269 195.719 796.786 195.632C796.325 195.424 795.842 195.337 795.622 195.172C795.502 195.151 795.381 195.129 795.26 195.107C795.139 195.085 795.139 195.085 795.139 195.085C795.139 195.085 795.139 195.085 795.019 195.063C794.898 195.042 794.777 195.02 794.656 194.998C794.536 194.976 794.294 194.933 794.031 195.01C793.789 194.966 793.526 195.044 793.263 195.121C792.999 195.198 792.736 195.275 792.451 195.473C792.188 195.55 791.903 195.748 791.639 195.826C790.992 195.958 790.345 196.091 789.697 196.224C789.072 196.235 788.325 196.226 787.722 196.117C787.48 196.073 787.118 196.008 786.876 195.964C787.009 196.612 787.811 197.006 788.535 197.136Z" fill="white"/>
<path opacity="0.4" d="M798.089 179.407C797.464 179.419 796.86 179.31 796.135 179.18C794.829 178.819 793.566 178.218 792.643 177.802C792.423 177.638 791.885 177.166 791.6 177.364C792.336 178.121 793.281 178.416 794.082 178.81C794.664 179.039 795.181 179.631 795.741 179.981C797.961 181.504 799.913 180.36 802.062 179.5C802.326 179.423 802.732 179.247 803.258 179.093C804.169 178.883 805.222 178.574 806.067 178.726C806.43 178.792 806.792 178.857 807.077 178.659C807.099 178.538 807.219 178.56 807.241 178.439C807.241 178.439 807.362 178.461 807.504 178.362C807.889 178.307 808.195 177.988 808.381 177.647C808.546 177.428 809.607 175.001 809.365 174.957C809.245 174.935 809.146 174.793 809.025 174.771C808.817 175.232 808.587 175.814 808.259 176.254C808.094 176.473 807.809 176.671 807.645 176.891C807.36 177.089 807.075 177.287 806.812 177.364C806.142 177.618 805.495 177.75 804.848 177.883C804.2 178.016 803.575 178.027 803.048 178.182C802.522 178.336 802.116 178.512 801.732 178.568C801.468 178.645 801.326 178.744 801.326 178.744C801.326 178.744 801.205 178.722 800.92 178.92C800.657 178.998 800.251 179.174 799.746 179.207C799.34 179.384 798.715 179.395 798.089 179.407Z" fill="white"/>
<path opacity="0.4" d="M818.214 192.263C817.566 192.396 816.689 193.11 816.305 193.166C816.042 193.243 815.779 193.32 815.658 193.298C815.537 193.276 815.395 193.375 815.395 193.375C815.395 193.375 815.274 193.354 815.131 193.453C815.011 193.431 814.627 193.486 814.363 193.564C813.979 193.619 813.573 193.795 813.168 193.971C812.762 194.148 812.455 194.466 812.027 194.763C811.414 195.401 810.822 195.917 810.252 196.313C809.802 196.731 809.297 196.765 809.396 196.907C809.375 197.028 810.285 196.818 810.428 196.719C810.669 196.763 810.933 196.685 811.295 196.751C811.679 196.695 812.205 196.541 812.512 196.222C812.677 196.003 812.742 195.64 813.027 195.442C813.29 195.365 813.554 195.288 813.817 195.211C814.08 195.133 814.244 194.914 814.53 194.716C814.979 194.298 815.846 194.33 816.329 194.417C816.933 194.526 817.602 194.272 818.172 193.876C818.259 193.393 818.346 192.91 818.433 192.427C818.356 192.164 818.356 192.164 818.214 192.263Z" fill="white"/>
<path opacity="0.4" d="M787.789 183.286C787.69 183.143 787.591 183 787.393 182.715C787.229 182.935 787.185 183.177 787.263 183.44C787.417 183.967 787.813 184.537 788.11 184.964C788.187 185.228 788.407 185.392 788.484 185.655C788.902 186.105 789.484 186.334 789.638 186.861C789.737 187.003 789.694 187.245 789.913 187.409C790.034 187.431 790.155 187.453 790.276 187.474C790.759 187.562 791.198 187.89 791.638 188.219C792.077 188.547 792.538 188.755 793.065 188.601C793.712 188.468 794.36 188.336 795.007 188.203C795.27 188.126 795.654 188.07 795.896 188.114C796.379 188.201 796.719 188.387 797.224 188.353C798.212 188.407 799.352 187.615 800.285 187.284C800.954 187.031 801.623 186.778 802.249 186.766C802.49 186.809 802.874 186.754 803.137 186.677C803.401 186.599 803.686 186.401 803.85 186.182C804.563 185.687 805.628 186.003 806.495 186.035C806.978 186.122 807.483 186.089 807.988 186.055C808.492 186.021 808.876 185.966 809.403 185.811C809.787 185.756 810.314 185.602 810.698 185.546C810.698 185.546 810.961 185.469 811.104 185.37C811.246 185.271 811.509 185.194 811.652 185.095C811.937 184.897 812.244 184.578 812.408 184.358C812.572 184.139 812.737 183.919 812.78 183.677C812.966 183.337 813.01 183.095 813.01 183.095C813.01 183.095 812.846 183.315 812.539 183.634C812.374 183.854 812.232 183.952 812.068 184.172C811.903 184.392 811.618 184.59 811.333 184.788C811.048 184.986 810.664 185.041 810.28 185.097C809.896 185.152 809.512 185.208 808.985 185.362C808.601 185.417 808.096 185.451 807.592 185.485C807.087 185.518 806.725 185.453 806.22 185.487C805.232 185.433 804.288 185.138 803.399 185.227C802.389 185.295 801.599 185.526 800.952 185.659C799.515 186.023 798.604 186.233 798.604 186.233C798.604 186.233 797.672 186.564 796.355 186.95C795.686 187.203 794.896 187.435 794.15 187.425C793.403 187.415 792.459 187.12 791.657 186.726C790.856 186.332 790.076 185.818 789.438 185.204C788.68 184.568 788.185 183.856 787.789 183.286Z" fill="white"/>
<path d="M787.194 182.431C787.293 182.574 787.512 182.738 787.59 183.001C787.986 183.571 788.502 184.163 789.14 184.777C789.777 185.391 790.557 185.905 791.359 186.299C792.161 186.693 793.105 186.988 793.851 186.998C794.598 187.008 795.387 186.776 796.057 186.523C797.494 186.159 798.426 185.828 798.426 185.828C798.426 185.828 799.337 185.618 800.774 185.254C801.421 185.121 802.354 184.791 803.221 184.822C804.231 184.755 805.175 185.05 806.042 185.082C806.525 185.169 806.909 185.113 807.414 185.08C807.919 185.046 808.303 184.991 808.808 184.957C809.192 184.902 809.696 184.868 810.102 184.692C810.607 184.658 810.87 184.581 811.155 184.383C811.44 184.185 811.605 183.965 811.89 183.767C812.054 183.547 812.218 183.328 812.361 183.229C812.547 182.888 812.711 182.668 812.711 182.668C812.711 182.668 812.668 182.91 812.482 183.25C812.438 183.492 812.274 183.712 812.11 183.931C811.945 184.151 811.759 184.492 811.353 184.668C811.211 184.767 811.068 184.866 810.805 184.943C810.662 185.042 810.399 185.119 810.136 185.196C809.752 185.252 809.346 185.428 808.841 185.462C808.457 185.517 807.931 185.672 807.426 185.705C806.921 185.739 806.416 185.773 805.933 185.685C805.187 185.676 804.001 185.337 803.288 185.832C803.003 186.03 802.839 186.25 802.576 186.327C802.532 186.568 802.17 186.503 801.928 186.46C801.182 186.45 800.634 186.725 799.964 186.978C799.032 187.309 797.892 188.101 796.904 188.047C796.52 188.103 796.059 187.895 795.576 187.808C795.334 187.764 794.95 187.82 794.687 187.897C794.039 188.029 793.392 188.162 792.745 188.295C792.218 188.449 791.779 188.121 791.317 187.913C790.878 187.584 790.438 187.255 789.955 187.168C789.835 187.147 789.714 187.125 789.593 187.103C789.472 187.081 789.516 186.84 789.439 186.576C789.284 186.05 788.702 185.82 788.284 185.371C788.065 185.207 787.987 184.943 787.91 184.68C787.613 184.252 787.217 183.682 787.063 183.156C786.964 183.013 787.029 182.651 787.194 182.431ZM815.808 198.688C815.829 198.567 814.842 198.514 813.448 198.636C812.68 198.747 811.912 198.858 811.001 199.068C810.09 199.278 809.158 199.608 808.226 199.939C807.82 200.115 807.293 200.27 806.866 200.567C806.602 200.644 806.46 200.743 806.175 200.941C806.032 201.04 805.769 201.117 805.605 201.337C804.771 201.81 804.08 202.184 803.554 202.338C802.906 202.471 802.402 202.505 802.039 202.439C801.798 202.396 801.677 202.374 801.556 202.352C801.435 202.33 801.435 202.33 801.435 202.33C801.435 202.33 801.435 202.33 801.315 202.309C801.194 202.287 801.073 202.265 800.832 202.222C800.469 202.156 799.887 201.927 799.185 201.675C798.482 201.424 797.636 201.271 796.67 201.097C795.683 201.044 794.794 201.133 793.905 201.222C793.663 201.178 793.4 201.256 793.158 201.212C792.917 201.168 792.675 201.125 792.412 201.202C791.929 201.115 791.567 201.05 791.084 200.963C790.48 200.854 789.898 200.624 789.415 200.537C790.151 201.293 790.832 201.665 791.755 202.081C791.996 202.125 792.095 202.267 792.337 202.311C792.578 202.354 792.842 202.277 793.127 202.079C793.269 201.98 793.39 202.002 793.511 202.024C793.632 202.045 793.731 202.188 793.95 202.352C794.39 202.681 795.059 202.428 795.487 202.131C795.629 202.032 795.772 201.933 795.914 201.834C796.704 201.602 798.286 202.511 798.989 202.762C799.109 202.784 799.329 202.948 799.428 203.091C799.527 203.233 799.505 203.354 799.604 203.496C799.802 203.782 800.285 203.869 800.79 203.835C801.295 203.801 801.8 203.768 802.283 203.855C802.887 203.964 803.348 204.172 803.874 204.017C804.401 203.863 804.751 203.302 805.278 203.148C805.684 202.972 806.288 203.081 806.715 202.784C807.121 202.608 807.329 202.146 807.636 201.828C808.129 201.168 808.885 200.432 809.675 200.2C809.938 200.123 810.081 200.024 810.322 200.068C810.443 200.089 810.684 200.133 810.805 200.155C811.288 200.242 811.837 199.967 812.264 199.67C812.834 199.274 815.829 198.567 815.808 198.688ZM795.663 179.719C797.882 181.241 799.834 180.097 801.984 179.238C802.247 179.161 802.653 178.984 803.179 178.83C803.991 178.478 805.022 178.289 805.868 178.442C806.23 178.507 806.592 178.573 806.877 178.375C806.899 178.254 807.02 178.276 807.042 178.155C807.042 178.155 807.162 178.177 807.305 178.078C807.689 178.022 807.996 177.703 808.182 177.363C808.346 177.143 809.407 174.716 809.166 174.673C809.045 174.651 808.946 174.508 808.825 174.487C808.617 174.948 808.388 175.53 808.059 175.969C807.895 176.189 807.61 176.387 807.445 176.607C807.16 176.805 806.875 177.003 806.612 177.08C806.064 177.355 805.416 177.488 804.791 177.5C804.143 177.632 803.518 177.644 802.991 177.799C802.465 177.953 802.059 178.129 801.675 178.185C801.411 178.262 801.269 178.361 801.269 178.361C801.269 178.361 801.006 178.438 800.742 178.515C800.479 178.592 800.073 178.769 799.568 178.802C799.042 178.957 798.537 178.99 797.911 179.002C797.286 179.014 796.682 178.905 795.958 178.775C794.651 178.414 793.388 177.812 792.465 177.397C792.125 177.211 791.586 176.74 791.28 177.058C792.016 177.814 792.982 177.989 793.905 178.404C794.586 178.777 795.003 179.226 795.663 179.719C795.542 179.697 795.663 179.719 795.663 179.719ZM818.037 191.858C817.389 191.991 816.512 192.705 816.128 192.761C815.865 192.838 815.602 192.915 815.481 192.893C815.36 192.872 815.218 192.971 815.218 192.971C815.218 192.971 815.097 192.949 814.954 193.048C814.834 193.026 814.45 193.081 814.186 193.159C813.802 193.214 813.396 193.39 812.991 193.566C812.585 193.743 812.278 194.061 811.85 194.358C811.237 194.996 810.645 195.512 810.075 195.908C809.625 196.326 809.12 196.36 809.219 196.502C809.198 196.623 810.108 196.413 810.251 196.314C810.492 196.358 810.756 196.281 811.118 196.346C811.502 196.29 812.029 196.136 812.335 195.817C812.5 195.598 812.565 195.235 812.85 195.037C813.113 194.96 813.377 194.883 813.64 194.806C813.903 194.728 814.068 194.509 814.353 194.311C814.802 193.893 815.669 193.925 816.152 194.012C816.756 194.121 817.425 193.867 817.995 193.471C818.28 193.273 818.445 193.054 818.51 192.691C818.641 191.967 818.421 191.802 818.037 191.858ZM788.334 196.851C788.916 197.081 789.421 197.047 789.783 197.112C790.025 197.156 790.266 197.199 790.409 197.1C791.967 196.758 792.689 195.517 794.423 195.58C794.928 195.546 795.39 195.754 795.851 195.962C796.653 196.356 796.73 196.619 797.246 197.211C797.345 197.354 797.708 197.419 797.85 197.32C798.114 197.243 798.256 197.144 798.519 197.067C799.046 196.912 799.65 197.021 800.275 197.009C800.396 197.031 800.517 197.053 800.78 196.975C801.427 196.843 801.8 196.162 802.447 196.029C802.974 195.875 803.478 195.841 804.027 195.566C804.981 195.115 805.452 194.576 805.452 194.576C805.452 194.576 804.783 194.83 803.829 195.281C803.302 195.435 802.776 195.59 802.128 195.722C801.481 195.855 800.834 195.988 800.208 196C799.703 196.033 798.979 195.903 798.375 195.794C797.771 195.685 797.189 195.455 796.706 195.368C796.245 195.16 795.762 195.073 795.542 194.909C795.421 194.887 795.3 194.865 795.18 194.843C795.059 194.822 795.059 194.822 795.059 194.822C795.059 194.822 795.059 194.822 794.938 194.8C794.817 194.778 794.697 194.756 794.576 194.735C794.455 194.713 794.214 194.669 793.95 194.746C793.709 194.703 793.445 194.78 793.182 194.857C792.919 194.935 792.656 195.012 792.371 195.21C792.107 195.287 791.822 195.485 791.559 195.562C790.912 195.695 790.264 195.827 789.617 195.96C788.991 195.972 788.245 195.962 787.641 195.853C787.4 195.81 787.037 195.744 786.796 195.701C786.829 196.206 787.511 196.578 788.334 196.851ZM810.427 181.508C810.284 181.607 810.142 181.706 810.021 181.685C809.9 181.663 809.758 181.762 809.637 181.74C809.395 181.696 809.033 181.631 808.528 181.665C808.265 181.742 808.144 181.72 808.002 181.819C807.859 181.918 807.738 181.896 807.596 181.995C807.475 181.974 807.453 182.094 807.333 182.073C807.212 182.051 807.212 182.051 807.091 182.029C806.97 182.007 806.729 181.964 806.608 181.942C806.246 181.877 806.125 181.855 806.125 181.855C806.125 181.855 805.884 181.811 805.642 181.768C805.28 181.702 804.917 181.637 804.314 181.528C803.71 181.419 803.084 181.431 802.338 181.421C801.734 181.312 800.988 181.303 800.198 181.534C799.408 181.766 798.739 182.019 798.169 182.415C797.599 182.811 797.029 183.207 796.623 183.383C796.359 183.46 796.118 183.417 795.855 183.494C795.613 183.451 795.471 183.55 795.35 183.528C795.108 183.484 794.867 183.441 794.867 183.441C794.867 183.441 794.966 183.583 795.306 183.769C795.427 183.791 795.669 183.835 795.91 183.878C796.393 183.965 796.799 183.789 797.304 183.755C797.809 183.722 798.391 183.951 798.917 183.797C799.18 183.72 799.345 183.5 799.487 183.401C800.057 183.005 800.847 182.773 801.594 182.783C802.077 182.87 802.439 182.936 802.944 182.902C803.449 182.868 803.953 182.835 804.436 182.922C804.678 182.965 804.898 183.13 805.139 183.173C805.381 183.217 805.666 183.019 805.808 182.92C806.335 182.765 806.895 183.116 807.4 183.082C807.521 183.104 807.784 183.027 807.927 182.928C808.19 182.851 808.475 182.653 808.596 182.674C808.738 182.575 809.1 182.641 809.463 182.706C809.584 182.728 809.704 182.75 809.825 182.771C810.33 182.738 810.878 182.463 811.405 182.308C812.216 181.956 812.951 181.34 813.345 180.538C813.553 180.077 814.341 178.474 813.759 178.244C812.86 179.079 812.017 180.299 810.975 181.233C810.975 181.233 810.69 181.431 810.427 181.508ZM787.18 188.039C787.301 188.061 787.4 188.204 787.52 188.226C787.839 188.532 787.894 188.916 788.092 189.201C788.389 189.629 788.73 189.815 789.191 190.023C789.652 190.231 790.234 190.461 790.739 190.427C790.981 190.47 791.222 190.514 791.343 190.536C791.925 190.765 792.222 191.193 792.804 191.423C793.485 191.795 794.176 191.421 794.922 191.431C795.427 191.397 795.888 191.605 796.415 191.45C797.347 191.12 797.906 190.098 798.739 189.625C799.715 189.053 800.889 188.766 802.019 188.72C802.382 188.786 802.645 188.708 803.007 188.774C804.215 188.992 805.214 189.671 806.4 190.009C807.586 190.348 808.574 190.401 809.803 190.498C810.045 190.542 810.429 190.486 810.692 190.409C811.076 190.353 811.262 190.013 811.547 189.815C811.953 189.639 812.678 189.769 813.062 189.714C813.424 189.779 813.687 189.702 813.951 189.625C814.357 189.449 814.543 189.108 814.849 188.789C815.485 188.031 816.142 187.152 816.898 186.416C817.512 185.778 818.346 185.305 817.894 184.351C816.776 185.022 815.713 186.077 814.693 186.891C813.674 187.705 812.555 188.376 811.381 188.663C810.855 188.817 810.229 188.829 809.746 188.742C809.263 188.655 808.78 188.568 808.319 188.36C807.857 188.152 807.517 187.966 807.056 187.758C806.715 187.572 806.375 187.386 806.012 187.321C805.892 187.299 805.771 187.277 805.672 187.135C805.551 187.113 805.43 187.091 805.309 187.069C805.189 187.047 805.068 187.026 805.068 187.026C805.068 187.026 805.068 187.026 804.947 187.004C804.947 187.004 804.826 186.982 804.706 186.96C804.585 186.939 804.464 186.917 804.343 186.895C804.223 186.873 804.223 186.873 804.102 186.852C803.981 186.83 803.981 186.83 803.86 186.808C803.235 186.82 802.247 186.766 801.315 187.097C800.788 187.251 800.261 187.406 799.735 187.56C799.208 187.715 798.539 187.968 797.991 188.243C796.795 188.651 795.578 189.18 794.305 189.324L793.8 189.358C793.679 189.336 793.438 189.293 793.295 189.391C793.174 189.37 792.933 189.326 792.79 189.425C792.669 189.403 792.428 189.36 792.307 189.338C792.186 189.316 791.945 189.273 791.824 189.251C791.703 189.229 791.462 189.186 791.341 189.164C791.22 189.142 790.979 189.099 790.858 189.077C790.737 189.055 790.496 189.011 790.375 188.99C789.189 188.651 788.168 188.093 787.245 187.677C786.685 187.327 786.103 187.097 785.663 186.769C785.543 186.747 785.719 187.153 785.697 187.273C785.796 187.416 786.016 187.58 786.257 187.624C786.598 187.81 786.96 187.875 787.18 188.039Z" fill="#E0A326"/>
<path opacity="0.34" d="M787.89 184.8C787.967 185.063 788.187 185.228 788.264 185.491C788.682 185.94 789.264 186.17 789.418 186.697C789.517 186.839 789.474 187.081 789.715 187.124C789.836 187.146 789.957 187.168 790.077 187.189C790.56 187.277 791 187.605 791.439 187.934C791.758 188.241 792.34 188.47 792.845 188.437C793.492 188.304 794.14 188.171 794.787 188.039C795.05 187.961 795.434 187.906 795.676 187.95C796.159 188.037 796.499 188.223 797.004 188.189C797.992 188.243 799.132 187.451 800.065 187.12C800.734 186.867 801.403 186.613 802.028 186.601C802.27 186.645 802.654 186.59 802.917 186.512C803.181 186.435 803.466 186.237 803.63 186.017C804.343 185.522 805.408 185.839 806.275 185.871C806.758 185.958 807.263 185.924 807.767 185.891C808.272 185.857 808.656 185.802 809.183 185.647C809.567 185.592 810.094 185.437 810.478 185.382C810.741 185.305 810.883 185.206 811.147 185.128C811.289 185.029 811.553 184.952 811.695 184.853C811.98 184.655 812.287 184.337 812.451 184.117C812.616 183.897 812.78 183.677 812.824 183.436C812.669 182.909 812.713 182.668 812.713 182.668C812.713 182.668 812.548 182.887 812.241 183.206C812.077 183.426 811.935 183.525 811.77 183.745C811.727 183.986 811.42 184.305 811.157 184.382C810.872 184.58 810.488 184.636 810.103 184.691C809.983 184.669 809.983 184.669 809.84 184.768C809.577 184.845 809.193 184.901 808.809 184.956C808.524 185.154 808.019 185.188 807.514 185.222C807.009 185.255 806.504 185.289 806.021 185.202C805.275 185.192 804.089 184.853 803.377 185.348C803.092 185.546 802.927 185.766 802.664 185.843C802.401 185.92 802.159 185.877 801.775 185.932C801.029 185.922 800.48 186.198 799.811 186.451C798.879 186.782 797.739 187.573 796.751 187.52C796.367 187.575 795.905 187.368 795.422 187.28C795.181 187.237 794.797 187.292 794.534 187.37C793.886 187.502 793.239 187.635 792.591 187.767C792.065 187.922 791.625 187.593 791.164 187.385C790.725 187.057 790.285 186.728 789.802 186.641C789.681 186.619 789.561 186.598 789.44 186.576C789.341 186.433 789.242 186.291 789.165 186.027C789.252 185.544 788.549 185.293 788.252 184.865C788.032 184.701 787.955 184.438 787.878 184.174C787.702 183.769 787.284 183.319 787.13 182.793C787.108 182.913 787.086 183.034 787.185 183.177C787.197 183.802 787.593 184.372 787.89 184.8Z" fill="#E0A326"/>
<path opacity="0.34" d="M793.907 178.403C794.489 178.633 795.006 179.225 795.566 179.575C797.785 181.098 799.737 179.953 801.887 179.094C802.15 179.017 802.556 178.841 803.083 178.686C803.993 178.477 805.025 178.288 805.87 178.441C806.232 178.506 806.594 178.572 806.88 178.374C806.901 178.253 807.022 178.275 807.044 178.154C807.044 178.154 807.165 178.176 807.307 178.077C807.691 178.021 807.998 177.702 808.184 177.362C808.348 177.142 809.41 174.715 809.168 174.672L809.047 174.65C808.796 175.353 808.172 176.736 808.129 176.978C807.943 177.318 807.636 177.637 807.252 177.693C807.131 177.671 807.131 177.671 806.988 177.77C806.868 177.748 806.846 177.869 806.824 177.989C806.539 178.187 806.177 178.122 805.814 178.057C804.848 177.883 803.916 178.213 803.005 178.423C802.479 178.577 802.194 178.775 801.81 178.831C799.66 179.69 797.708 180.834 795.489 179.312C795.071 178.863 794.774 178.435 794.313 178.227C793.61 177.976 793.05 177.625 792.468 177.396C792.127 177.21 791.589 176.738 791.282 177.057C792.04 177.693 792.984 177.988 793.907 178.403Z" fill="#E0A326"/>
<path opacity="0.34" d="M790.411 197.101C791.969 196.758 792.691 195.517 794.425 195.58C794.93 195.547 795.391 195.755 795.853 195.962C796.654 196.356 796.732 196.62 797.248 197.212C797.347 197.354 797.71 197.419 797.852 197.32C798.115 197.243 798.258 197.144 798.521 197.067C799.048 196.913 799.652 197.021 800.277 197.01C800.398 197.031 800.519 197.053 800.782 196.976C801.429 196.843 801.802 196.162 802.449 196.03C802.976 195.875 803.48 195.842 804.029 195.566C804.983 195.115 805.454 194.577 805.454 194.577C805.454 194.577 804.785 194.83 803.831 195.281C803.304 195.436 802.778 195.59 802.13 195.723C802.009 195.701 801.867 195.8 801.867 195.8C801.439 196.097 801.132 196.416 800.727 196.592C800.584 196.691 800.463 196.669 800.222 196.626C799.618 196.517 799.014 196.408 798.466 196.683C798.203 196.76 798.06 196.859 797.797 196.936C797.533 197.014 797.292 196.97 797.193 196.827C796.676 196.236 796.599 195.972 795.797 195.578C795.358 195.25 794.996 195.184 794.392 195.076C792.658 195.012 791.935 196.253 790.377 196.596C790.114 196.673 789.993 196.651 789.751 196.608C789.389 196.542 788.785 196.434 788.302 196.347C787.841 196.139 787.259 195.909 786.94 195.602C786.82 195.58 786.82 195.58 786.699 195.559C786.831 196.206 787.512 196.578 788.336 196.851C788.918 197.081 789.423 197.047 789.785 197.113C790.027 197.156 790.268 197.2 790.411 197.101Z" fill="#E0A326"/>
<path opacity="0.34" d="M795.328 183.648C795.448 183.669 795.69 183.713 795.931 183.757C796.414 183.844 796.82 183.667 797.325 183.634C797.83 183.6 798.412 183.83 798.939 183.675C799.202 183.598 799.366 183.378 799.509 183.279C800.079 182.883 800.869 182.652 801.615 182.662C802.098 182.749 802.46 182.814 802.965 182.78C803.47 182.747 803.975 182.713 804.458 182.8C804.699 182.844 804.919 183.008 805.161 183.052C805.402 183.095 805.687 182.897 805.83 182.798C806.356 182.644 806.917 182.994 807.421 182.961C807.542 182.982 807.805 182.905 807.948 182.806C808.211 182.729 808.496 182.531 808.617 182.553C808.76 182.454 809.122 182.519 809.484 182.584C809.605 182.606 809.726 182.628 809.846 182.65C810.351 182.616 810.9 182.341 811.426 182.187C812.238 181.834 812.972 181.218 813.366 180.417C813.574 179.955 814.198 178.572 813.901 178.144C813.792 178.748 813.519 179.571 813.333 179.912C812.939 180.714 812.204 181.329 811.393 181.682C810.866 181.836 810.318 182.111 809.813 182.145C809.692 182.123 809.571 182.101 809.45 182.08C809.088 182.014 808.726 181.949 808.583 182.048C808.463 182.026 808.178 182.224 807.914 182.301C807.772 182.4 807.629 182.499 807.388 182.456C806.883 182.489 806.202 182.117 805.796 182.293C805.533 182.371 805.368 182.59 805.127 182.547C804.885 182.503 804.644 182.46 804.424 182.295C803.941 182.208 803.436 182.242 802.931 182.276C802.547 182.331 802.086 182.123 801.581 182.157C800.835 182.147 800.067 182.258 799.475 182.775C799.332 182.874 799.047 183.072 798.905 183.171C798.258 183.303 797.796 183.095 797.171 183.107C797.05 183.085 797.05 183.085 796.929 183.064C796.907 183.184 796.765 183.283 796.622 183.382C796.359 183.46 796.118 183.416 795.854 183.493C795.613 183.45 795.47 183.549 795.349 183.527C795.108 183.483 794.866 183.44 794.866 183.44C794.866 183.44 794.965 183.582 795.328 183.648Z" fill="#E0A326"/>
<path opacity="0.34" d="M816.724 186.01C815.968 186.747 815.332 187.505 814.675 188.384C814.368 188.703 814.182 189.043 813.776 189.219C813.513 189.297 813.129 189.352 812.888 189.308C812.383 189.342 811.779 189.233 811.373 189.409C811.11 189.487 810.803 189.805 810.518 190.003C810.255 190.081 810.013 190.037 809.629 190.092C808.378 190.116 807.412 189.942 806.226 189.603C805.04 189.265 804.04 188.586 802.833 188.368C802.471 188.303 802.229 188.259 801.845 188.315C800.715 188.36 799.541 188.647 798.565 189.219C797.731 189.693 797.031 190.813 796.241 191.045C795.835 191.221 795.253 190.991 794.748 191.025C794.002 191.015 793.311 191.389 792.608 191.138C792.026 190.908 791.729 190.481 791.147 190.251C790.905 190.207 790.664 190.164 790.543 190.142C790.06 190.055 789.456 189.946 788.995 189.738C788.534 189.53 788.215 189.224 787.896 188.917C787.698 188.632 787.621 188.368 787.423 188.083C787.302 188.061 787.302 188.061 787.204 187.919C786.863 187.733 786.523 187.547 786.182 187.361C786.061 187.339 785.962 187.196 785.841 187.175C785.721 187.153 785.743 187.032 785.622 187.01C785.501 186.989 785.677 187.394 785.655 187.515C785.754 187.658 785.974 187.822 786.216 187.865C786.435 188.03 786.798 188.095 787.017 188.259C787.138 188.281 787.237 188.424 787.358 188.446C787.841 188.533 787.896 188.917 788.094 189.202C788.391 189.629 788.732 189.815 789.193 190.023C789.654 190.231 790.236 190.461 790.741 190.427C790.983 190.471 791.224 190.514 791.345 190.536C791.927 190.766 792.224 191.193 792.806 191.423C793.487 191.795 794.178 191.421 794.924 191.431C795.429 191.397 795.89 191.605 796.417 191.451C797.349 191.12 797.908 190.098 798.741 189.625C799.717 189.053 800.891 188.766 802.021 188.721C802.384 188.786 802.647 188.709 803.009 188.774C804.217 188.992 805.216 189.671 806.402 190.009C807.588 190.348 808.576 190.401 809.805 190.498C810.047 190.542 810.431 190.486 810.694 190.409C811.078 190.354 811.264 190.013 811.549 189.815C811.955 189.639 812.68 189.77 813.064 189.714C813.426 189.78 813.689 189.702 813.953 189.625C814.358 189.449 814.545 189.108 814.851 188.79C815.487 188.032 816.144 187.153 816.9 186.416C817.514 185.779 818.205 185.405 817.995 184.494C817.744 185.197 817.195 185.472 816.724 186.01Z" fill="#E0A326"/>
<path opacity="0.34" d="M818.403 191.923L818.381 192.044C818.316 192.406 818.152 192.626 817.867 192.824C817.417 193.242 816.748 193.495 816.024 193.364C815.42 193.255 814.673 193.245 814.224 193.663C814.06 193.883 813.775 194.081 813.511 194.158C813.248 194.235 813.007 194.192 812.721 194.39C812.436 194.588 812.393 194.829 812.207 195.17C811.9 195.488 811.494 195.665 810.989 195.698C810.726 195.776 810.484 195.732 810.364 195.71L810.221 195.809C809.772 196.227 809.267 196.261 809.366 196.403C809.344 196.524 810.255 196.314 810.397 196.215C810.639 196.259 810.902 196.181 811.264 196.247C811.649 196.191 812.175 196.037 812.482 195.718C812.646 195.498 812.712 195.136 812.997 194.938C813.26 194.861 813.523 194.784 813.787 194.706C814.05 194.629 814.214 194.41 814.499 194.212C814.949 193.794 815.816 193.826 816.299 193.913C816.903 194.021 817.572 193.768 818.142 193.372C818.427 193.174 818.591 192.954 818.656 192.592C818.601 192.208 818.524 191.945 818.403 191.923Z" fill="#E0A326"/>
<path opacity="0.34" d="M813.713 198.559C813.065 198.692 812.539 198.846 812.517 198.967C812.089 199.264 811.541 199.539 811.058 199.452C810.937 199.43 810.696 199.387 810.575 199.365C810.333 199.321 810.07 199.398 809.928 199.497C809.138 199.729 808.381 200.465 807.888 201.125C807.582 201.443 807.374 201.905 806.968 202.081C806.441 202.235 805.958 202.148 805.432 202.303C804.905 202.457 804.555 203.017 804.028 203.172C803.48 203.447 802.92 203.096 802.437 203.009C801.953 202.922 801.449 202.956 800.944 202.99C800.56 203.045 800.077 202.958 799.758 202.651C799.659 202.509 799.681 202.388 799.582 202.245C799.461 202.223 799.34 202.202 799.241 202.059C798.539 201.808 796.957 200.899 796.167 201.131C796.024 201.23 795.882 201.329 795.739 201.428C795.312 201.725 794.643 201.978 794.203 201.649C794.104 201.507 794.005 201.364 793.764 201.321C793.643 201.299 793.5 201.398 793.38 201.376C793.116 201.453 792.831 201.651 792.59 201.608C792.348 201.564 792.227 201.543 792.008 201.378C791.426 201.149 790.986 200.82 790.547 200.491C790.305 200.448 789.943 200.382 789.723 200.218C790.46 200.974 791.141 201.347 792.063 201.762C792.305 201.806 792.404 201.948 792.645 201.992C792.887 202.035 793.15 201.958 793.435 201.76C793.578 201.661 793.698 201.683 793.819 201.705C793.94 201.727 794.039 201.869 794.259 202.033C794.698 202.362 795.367 202.109 795.795 201.812C795.937 201.713 796.08 201.614 796.222 201.515C797.012 201.283 798.594 202.192 799.297 202.443C799.418 202.465 799.637 202.629 799.736 202.772C799.835 202.914 799.813 203.035 799.912 203.178C800.11 203.463 800.593 203.55 801.098 203.516C801.603 203.483 802.108 203.449 802.591 203.536C803.195 203.645 803.656 203.853 804.183 203.698C804.709 203.544 805.06 202.984 805.586 202.829C805.992 202.653 806.596 202.762 807.023 202.465C807.429 202.289 807.637 201.827 807.944 201.509C808.437 200.85 809.193 200.113 809.983 199.881C810.246 199.804 810.389 199.705 810.63 199.749C810.751 199.771 810.993 199.814 811.113 199.836C811.596 199.923 812.145 199.648 812.572 199.351C812.857 199.153 815.853 198.446 815.853 198.446C815.831 198.567 814.964 198.535 813.713 198.559Z" fill="#E0A326"/>
<path opacity="0.4" d="M793.674 199.06C793.543 199.785 792.874 200.038 792.27 199.929C791.787 199.842 791.227 199.492 791.051 199.086C790.853 198.801 791.061 198.34 791.346 198.142C791.488 198.043 791.653 197.823 791.795 197.724C792.058 197.647 792.421 197.712 792.783 197.777C793.244 197.985 793.783 198.456 793.674 199.06ZM801.596 197.995C801.113 197.908 800.488 197.92 799.939 198.195C799.939 198.195 799.819 198.173 799.698 198.151C798.546 198.318 798.185 199.624 799.185 200.303C800.064 200.961 801.798 201.024 802.576 200.167C802.883 199.848 803.113 199.266 802.937 198.86C802.782 198.334 802.2 198.104 801.596 197.995ZM804.231 198.595C803.968 198.672 803.705 198.749 803.683 198.87C803.54 198.969 803.497 199.211 803.596 199.353C803.695 199.496 803.651 199.737 803.893 199.781C803.992 199.923 804.233 199.967 804.376 199.868L804.497 199.89C804.617 199.911 804.902 199.713 804.924 199.593C805.067 199.494 805.11 199.252 805.011 199.11C804.912 198.967 804.956 198.725 804.714 198.682C804.594 198.66 804.495 198.518 804.231 198.595ZM788.693 192.801C788.572 192.779 788.572 192.779 788.473 192.636C788.352 192.614 788.111 192.571 787.968 192.67C787.826 192.769 787.683 192.868 787.64 193.109C787.596 193.351 787.574 193.472 787.673 193.614C787.652 193.735 787.751 193.877 787.871 193.899C787.992 193.921 787.992 193.921 788.091 194.064C788.212 194.085 788.453 194.129 788.596 194.03C788.739 193.931 788.881 193.832 788.925 193.59C788.968 193.349 788.99 193.228 788.891 193.086C789.033 192.987 788.814 192.822 788.693 192.801ZM800.054 194.101C800.581 193.947 801.107 193.792 801.337 193.21C801.545 192.749 801.369 192.343 800.907 192.135C800.468 191.807 800.084 191.862 799.579 191.896C799.096 191.809 798.712 191.864 798.328 191.919C798.207 191.898 798.207 191.898 798.065 191.997C797.538 192.151 796.792 192.141 796.463 192.581C796.135 193.02 796.289 193.547 796.728 193.875C797.607 194.533 799.144 194.311 800.054 194.101ZM795.289 192.868C795.19 192.725 795.234 192.484 794.992 192.44C794.992 192.44 794.871 192.418 794.893 192.298C794.794 192.155 794.553 192.112 794.41 192.211C794.289 192.189 794.004 192.387 793.983 192.507C793.84 192.606 793.797 192.848 793.896 192.991C793.995 193.133 793.951 193.375 794.192 193.418C794.192 193.418 794.313 193.44 794.291 193.561C794.39 193.703 794.632 193.747 794.774 193.648C794.895 193.67 795.18 193.472 795.202 193.351C795.224 193.23 795.267 192.989 795.289 192.868ZM797.037 202.534C796.148 202.624 796.271 204.017 797.281 203.95C798.049 203.839 797.926 202.445 797.037 202.534ZM812.653 185.775C812.346 186.093 812.16 186.434 812.478 186.741C812.577 186.883 812.797 187.047 812.94 186.948C813.061 186.97 813.324 186.893 813.445 186.915C813.587 186.816 813.73 186.717 813.872 186.618C814.015 186.519 814.058 186.277 813.959 186.135C813.981 186.014 813.783 185.729 813.662 185.707C813.563 185.565 813.322 185.521 813.179 185.62C813.08 185.478 812.817 185.555 812.653 185.775ZM813.902 184.379C814.264 184.444 814.67 184.268 815.098 183.971C815.668 183.575 816.303 182.817 815.951 182.005C815.775 181.599 815.335 181.271 814.808 181.425C814.282 181.58 813.833 181.997 813.504 182.437C813.34 182.657 813.011 183.096 813.088 183.359C813.1 183.985 813.54 184.314 813.902 184.379ZM812.18 192.547C812.3 192.569 812.322 192.448 812.443 192.47C812.585 192.371 812.75 192.151 812.651 192.008C812.694 191.767 812.595 191.624 812.496 191.482C812.397 191.339 812.178 191.175 812.035 191.274C811.914 191.252 811.914 191.252 811.794 191.23C811.673 191.209 811.552 191.187 811.53 191.308C811.41 191.286 811.388 191.407 811.267 191.385C811.146 191.363 811.103 191.605 811.059 191.846C811.016 192.088 811.115 192.23 811.214 192.373C811.313 192.515 811.532 192.68 811.675 192.581C811.796 192.602 811.796 192.602 811.916 192.624C812.037 192.646 812.158 192.668 812.18 192.547ZM816.96 189.544C816.565 188.974 815.676 189.063 815.127 189.338C814.458 189.591 813.987 190.13 813.637 190.69C813.451 191.031 813.825 191.721 814.165 191.907C814.725 192.258 815.965 191.609 816.392 191.312C816.941 191.036 817.455 190.256 816.96 189.544ZM815.248 196.965C814.898 197.526 813.965 197.856 813.362 197.747C812.878 197.66 812.461 197.211 812.405 196.827C812.35 196.443 812.657 196.124 813.063 195.948C813.49 195.651 813.918 195.354 814.423 195.32C815.169 195.33 815.62 196.284 815.248 196.965ZM814.007 196.243C814.007 196.243 814.128 196.265 814.007 196.243V196.243ZM813.261 196.233C813.14 196.211 813.14 196.211 813.261 196.233V196.233ZM810.008 201.133C809.887 201.111 809.887 201.111 809.766 201.089C809.525 201.046 809.382 201.145 809.24 201.244C809.097 201.343 808.933 201.562 809.032 201.705C808.988 201.946 809.087 202.089 809.186 202.231C809.285 202.374 809.505 202.538 809.648 202.439C809.768 202.461 809.768 202.461 809.889 202.483C810.131 202.526 810.273 202.427 810.416 202.328C810.558 202.229 810.723 202.01 810.624 201.867C810.667 201.626 810.568 201.483 810.469 201.341C810.349 201.319 810.129 201.154 810.008 201.133ZM791.205 184.401C791.534 183.961 791.138 183.391 790.841 182.964C790.522 182.657 790.083 182.328 789.621 182.12C789.501 182.099 789.38 182.077 789.259 182.055C788.776 181.968 788.426 182.528 788.36 182.89C788.295 183.253 788.833 183.724 789.031 184.009C789.548 184.601 790.57 185.159 791.205 184.401ZM793.622 186.208C793.644 186.087 793.644 186.087 793.666 185.967C793.688 185.846 793.709 185.725 793.61 185.583C793.511 185.44 793.434 185.177 793.193 185.133C792.995 184.848 792.753 184.805 792.512 184.761C792.512 184.761 792.391 184.739 792.369 184.86C792.248 184.838 791.963 185.036 791.942 185.157C791.755 185.498 791.811 185.882 792.13 186.188C792.229 186.331 792.47 186.375 792.591 186.396C792.832 186.44 792.953 186.462 793.195 186.505C793.315 186.527 793.48 186.307 793.622 186.208ZM807.06 181.524C807.444 181.469 807.751 181.15 807.696 180.766C807.64 180.382 807.321 180.075 806.937 180.131C806.817 180.109 806.674 180.208 806.433 180.164C806.049 180.22 805.742 180.538 805.797 180.922C805.853 181.307 806.171 181.613 806.555 181.558C806.676 181.58 806.918 181.623 807.06 181.524ZM809.263 179.677C808.78 179.59 808.648 178.943 808.834 178.602C809.162 178.163 809.513 177.603 809.94 177.306C810.39 176.888 811.158 176.777 811.532 177.468C811.807 178.016 811.457 178.577 811.128 179.016C810.8 179.455 810.372 179.752 809.966 179.929C809.604 179.863 809.362 179.82 809.263 179.677ZM803.277 176.229C803.156 176.207 803.156 176.207 803.035 176.185C802.794 176.142 802.651 176.241 802.509 176.34C802.366 176.439 802.202 176.658 802.301 176.801C802.257 177.042 802.356 177.185 802.455 177.327C802.554 177.47 802.774 177.634 802.917 177.535C803.037 177.557 803.037 177.557 803.158 177.579C803.4 177.622 803.542 177.523 803.685 177.424C803.827 177.325 803.992 177.106 803.893 176.963C803.936 176.722 803.837 176.579 803.738 176.437C803.639 176.294 803.518 176.272 803.277 176.229ZM805.1 177.181C804.837 177.258 804.617 177.094 804.397 176.93C804.199 176.644 804.243 176.403 804.308 176.041C804.352 175.799 804.374 175.678 804.417 175.437C804.647 174.855 805.502 174.261 806.041 174.732C806.524 174.819 806.821 175.247 806.733 175.73C806.801 176.739 805.726 177.169 805.1 177.181ZM806.262 176.268C806.405 176.169 806.284 176.148 806.262 176.268V176.268Z" fill="white"/>
<path opacity="0.35" d="M803.55 198.223C803.813 198.146 803.758 197.762 803.494 197.839C803.253 197.796 803.287 198.301 803.55 198.223Z" fill="#E0A326"/>
<path opacity="0.35" d="M803.597 200.725C803.86 200.647 803.805 200.263 803.541 200.341C803.3 200.297 803.355 200.681 803.597 200.725Z" fill="#E0A326"/>
<path opacity="0.35" d="M806.449 200.117C806.713 200.04 806.657 199.656 806.394 199.733C806.032 199.668 806.065 200.173 806.449 200.117Z" fill="#E0A326"/>
<path opacity="0.35" d="M810.992 193.58C811.256 193.503 811.2 193.119 810.937 193.196C810.575 193.131 810.63 193.515 810.992 193.58Z" fill="#E0A326"/>
<path opacity="0.35" d="M812.124 193.534C812.387 193.457 812.332 193.073 812.069 193.15C811.827 193.107 811.883 193.491 812.124 193.534Z" fill="#E0A326"/>
<path opacity="0.35" d="M816.366 188.688C816.63 188.611 816.574 188.227 816.311 188.304C816.048 188.381 816.103 188.765 816.366 188.688Z" fill="#E0A326"/>
<path opacity="0.35" d="M808.43 202.968C808.693 202.891 808.638 202.507 808.375 202.584C808.012 202.519 808.046 203.024 808.43 202.968Z" fill="#E0A326"/>
<path opacity="0.35" d="M809.833 203.471C810.097 203.394 810.041 203.01 809.778 203.087C809.394 203.142 809.57 203.548 809.833 203.471Z" fill="#E0A326"/>
<path opacity="0.35" d="M805.379 180.473C805.642 180.396 805.587 180.012 805.324 180.089C804.961 180.023 805.017 180.408 805.379 180.473Z" fill="#E0A326"/>
<path opacity="0.35" d="M806.538 179.56C806.801 179.483 806.746 179.099 806.483 179.176C806.219 179.254 806.275 179.638 806.538 179.56Z" fill="#E0A326"/>
<path opacity="0.35" d="M803.441 176.008C803.704 175.931 803.648 175.547 803.385 175.624C803.144 175.581 803.177 176.085 803.441 176.008Z" fill="#E0A326"/>
<path opacity="0.35" d="M804.073 175.25C804.337 175.173 804.281 174.789 804.018 174.866C803.776 174.822 803.832 175.206 804.073 175.25Z" fill="#E0A326"/>
</g>
</g>
<defs>
<linearGradient id="paint0_linear_1008_29634" x1="882.755" y1="325.646" x2="702.717" y2="92.2225" gradientUnits="userSpaceOnUse">
<stop stop-color="#E2BAE7"/>
<stop offset="1" stop-color="#EFEFEF"/>
</linearGradient>
<radialGradient id="paint1_radial_1008_29634" cx="0" cy="0" r="1" gradientUnits="userSpaceOnUse" gradientTransform="translate(565.296 81.0277) rotate(100.222) scale(419.804 518.119)">
<stop stop-color="#F8F8F8"/>
<stop offset="1" stop-color="white"/>
</radialGradient>
<linearGradient id="paint2_linear_1008_29634" x1="710.94" y1="321.856" x2="1135.79" y2="-186.732" gradientUnits="userSpaceOnUse">
<stop stop-color="#271A6B"/>
<stop offset="0.2115" stop-color="#2E1B71"/>
<stop offset="0.5268" stop-color="#431E81"/>
<stop offset="0.9052" stop-color="#64249B"/>
<stop offset="1" stop-color="#6D25A2"/>
</linearGradient>
<radialGradient id="paint3_radial_1008_29634" cx="0" cy="0" r="1" gradientUnits="userSpaceOnUse" gradientTransform="translate(839.067 256.262) rotate(-94.7783) scale(34.2383 33.7335)">
<stop stop-color="#F20074"/>
<stop offset="0.4293" stop-color="#F00175" stop-opacity="0.5707"/>
<stop offset="0.584" stop-color="#E90578" stop-opacity="0.416"/>
<stop offset="0.6943" stop-color="#DE0B7D" stop-opacity="0.3057"/>
<stop offset="0.7834" stop-color="#CD1585" stop-opacity="0.2166"/>
<stop offset="0.8597" stop-color="#B7218E" stop-opacity="0.1403"/>
<stop offset="0.9274" stop-color="#9B309A" stop-opacity="0.0726443"/>
<stop offset="0.987" stop-color="#7C42A8" stop-opacity="0.0129876"/>
<stop offset="1" stop-color="#7446AC" stop-opacity="0"/>
</radialGradient>
<linearGradient id="paint4_linear_1008_29634" x1="838.038" y1="225.162" x2="938.9" y2="-166.113" gradientUnits="userSpaceOnUse">
<stop stop-color="#BD1ACD"/>
<stop offset="0.193" stop-color="#B61BC9"/>
<stop offset="0.4806" stop-color="#A11EBE"/>
<stop offset="0.8258" stop-color="#8022AC"/>
<stop offset="1" stop-color="#6D25A2"/>
</linearGradient>
<linearGradient id="paint5_linear_1008_29634" x1="811.972" y1="135.532" x2="852.853" y2="142.904" gradientUnits="userSpaceOnUse">
<stop stop-color="#BD1ACD"/>
<stop offset="0.193" stop-color="#B61BC9"/>
<stop offset="0.4806" stop-color="#A11EBE"/>
<stop offset="0.8258" stop-color="#8022AC"/>
<stop offset="1" stop-color="#6D25A2"/>
</linearGradient>
<linearGradient id="paint6_linear_1008_29634" x1="1085.77" y1="-0.00600897" x2="1126.65" y2="7.36555" gradientUnits="userSpaceOnUse">
<stop stop-color="#BD1ACD"/>
<stop offset="0.193" stop-color="#B61BC9"/>
<stop offset="0.4806" stop-color="#A11EBE"/>
<stop offset="0.8258" stop-color="#8022AC"/>
<stop offset="1" stop-color="#6D25A2"/>
</linearGradient>
</defs>
</svg>
