<svg width="28" height="26" viewBox="0 0 28 26" fill="none" xmlns="http://www.w3.org/2000/svg">
<ellipse cx="14" cy="13" rx="13.5" ry="13" fill="white"/>
<path d="M16.1848 18.568C16.1848 18.6853 16.1421 18.7867 16.0568 18.872C15.9715 18.9573 15.8701 19 15.7528 19H15.0968C14.9795 19 14.8781 18.9573 14.7928 18.872C14.7075 18.7867 14.6648 18.6853 14.6648 18.568V9.752L12.0728 11.72C11.9768 11.8053 11.8701 11.8373 11.7528 11.816C11.6355 11.7947 11.5395 11.7413 11.4648 11.656L11.0808 11.16C11.0061 11.064 10.9741 10.9573 10.9848 10.84C11.0061 10.7227 11.0648 10.6267 11.1608 10.552L14.5848 7.928C14.6701 7.864 14.7555 7.82667 14.8408 7.816C14.9261 7.80533 15.0115 7.8 15.0968 7.8H15.7528C15.8701 7.8 15.9715 7.84267 16.0568 7.928C16.1421 8.01333 16.1848 8.11467 16.1848 8.232V18.568Z" fill="black"/>
</svg>
