<svg width="18" height="18" viewBox="0 0 18 18" fill="none" xmlns="http://www.w3.org/2000/svg">
<g clip-path="url(#clip0_1033_4705)">
<path d="M9.00086 8.6087C10.5136 8.6087 11.74 7.38235 11.74 5.86956C11.74 4.35677 10.5136 3.13042 9.00086 3.13042C7.48807 3.13042 6.26172 4.35677 6.26172 5.86956C6.26172 7.38235 7.48807 8.6087 9.00086 8.6087Z" fill="#3C079D"/>
<path d="M14.4799 10.1739C15.5605 10.1739 16.4365 9.29792 16.4365 8.21737C16.4365 7.13682 15.5605 6.26086 14.4799 6.26086C13.3994 6.26086 12.5234 7.13682 12.5234 8.21737C12.5234 9.29792 13.3994 10.1739 14.4799 10.1739Z" fill="#3C079D"/>
<path d="M3.5776 10.1739C4.65815 10.1739 5.53411 9.29792 5.53411 8.21737C5.53411 7.13682 4.65815 6.26086 3.5776 6.26086C2.49705 6.26086 1.62109 7.13682 1.62109 8.21737C1.62109 9.29792 2.49705 10.1739 3.5776 10.1739Z" fill="#3C079D"/>
<path d="M9.00102 9.3913C6.19615 9.3913 3.91406 11.6734 3.91406 14.4783C3.91406 14.6943 4.08938 14.8696 4.30538 14.8696H13.6967C13.9127 14.8696 14.088 14.6943 14.088 14.4783C14.088 11.6734 11.8059 9.3913 9.00102 9.3913Z" fill="#3C079D"/>
<path d="M4.25191 11.041C4.01243 10.9902 3.76903 10.9565 3.52174 10.9565C1.58009 10.9565 0 12.5366 0 14.4782C0 14.6942 0.175316 14.8696 0.391316 14.8696H3.20243C3.15859 14.7467 3.13042 14.616 3.13042 14.4782C3.13042 13.194 3.54991 12.0083 4.25191 11.041Z" fill="#3C079D"/>
<path d="M14.4802 10.9565C14.2329 10.9565 13.9895 10.9902 13.75 11.0411C14.452 12.0084 14.8715 13.194 14.8715 14.4783C14.8715 14.616 14.8433 14.7467 14.7995 14.8696H17.6106C17.8266 14.8696 18.0019 14.6943 18.0019 14.4783C18.0019 12.5366 16.4218 10.9565 14.4802 10.9565Z" fill="#3C079D"/>
</g>
<defs>
<clipPath id="clip0_1033_4705">
<rect width="18" height="18" fill="white"/>
</clipPath>
</defs>
</svg>
