<svg width="28" height="26" viewBox="0 0 28 26" fill="none" xmlns="http://www.w3.org/2000/svg">
<ellipse cx="14" cy="13" rx="13.5" ry="13" fill="white"/>
<path d="M14.6518 13.112C14.9718 12.824 15.2118 12.5307 15.3718 12.232C15.5318 11.9333 15.6118 11.544 15.6118 11.064C15.6118 10.4987 15.4464 10.0293 15.1158 9.656C14.7851 9.272 14.2624 9.08 13.5477 9.08C13.1744 9.08 12.8544 9.13333 12.5878 9.24C12.3318 9.34667 12.1131 9.496 11.9318 9.688C11.7611 9.86933 11.6224 10.0827 11.5158 10.328C11.4198 10.5627 11.3398 10.808 11.2758 11.064C11.2438 11.1813 11.1851 11.272 11.0998 11.336C11.0251 11.4 10.9451 11.432 10.8598 11.432H10.1238C10.0278 11.432 9.94242 11.4 9.86775 11.336C9.80375 11.2613 9.77175 11.176 9.77175 11.08C9.78242 10.6853 9.87308 10.2853 10.0438 9.88C10.2144 9.47467 10.4598 9.10667 10.7798 8.776C11.0998 8.44533 11.4891 8.17333 11.9478 7.96C12.4171 7.74667 12.9504 7.64 13.5477 7.64C14.1344 7.64 14.6518 7.73067 15.0998 7.912C15.5478 8.09333 15.9211 8.33867 16.2198 8.648C16.5184 8.95733 16.7424 9.32 16.8918 9.736C17.0518 10.152 17.1318 10.5947 17.1318 11.064C17.1318 11.4053 17.1051 11.7147 17.0518 11.992C16.9984 12.2693 16.9078 12.536 16.7798 12.792C16.6624 13.0373 16.5078 13.2773 16.3158 13.512C16.1238 13.7467 15.8891 13.9867 15.6118 14.232L12.0438 17.56H16.9398C17.0571 17.56 17.1584 17.6027 17.2438 17.688C17.3291 17.7733 17.3718 17.8747 17.3718 17.992V18.568C17.3718 18.6853 17.3291 18.7867 17.2438 18.872C17.1584 18.9573 17.0571 19 16.9398 19H10.0438C9.92642 19 9.82508 18.9573 9.73975 18.872C9.65442 18.7867 9.61175 18.6853 9.61175 18.568V17.992C9.61175 17.8747 9.63842 17.7733 9.69175 17.688C9.74508 17.6027 9.83575 17.5013 9.96375 17.384L14.6518 13.112Z" fill="black"/>
</svg>
