<svg width="151" height="151" viewBox="0 0 151 151" fill="none" xmlns="http://www.w3.org/2000/svg">
<circle cx="75.5" cy="75.5" r="73.5" fill="#6537BD"/>
<circle cx="75.5" cy="75.5" r="73.5" fill="url(#paint0_radial_1010_33949)" fill-opacity="0.2"/>
<circle cx="75.5" cy="75.5" r="73.5" stroke="white" stroke-width="4"/>
<g clip-path="url(#clip0_1010_33949)">
<path d="M70.6185 118.28C70.3585 118.24 70.1085 118.2 69.8485 118.17C68.0385 117.96 66.2985 117.45 64.5785 116.89C62.2485 116.13 60.0085 115.16 57.8085 114.08C55.7385 113.07 53.7285 111.95 51.7585 110.76C49.2485 109.24 46.8085 107.6 44.4285 105.88C42.1885 104.26 40.0185 102.56 37.9085 100.76C35.6085 98.8 33.4085 96.72 31.3185 94.54C29.9985 93.17 28.7285 91.77 27.5085 90.31C26.4485 89.05 25.4285 87.77 24.4885 86.43C23.1985 84.59 22.0085 82.69 21.1385 80.61C20.9085 80.07 20.9485 79.61 21.2185 79.13C21.4885 78.65 21.8085 78.21 22.1585 77.79C22.9985 76.76 23.9385 75.83 24.9185 74.94C26.3085 73.69 27.7185 72.46 29.2385 71.37C31.2785 69.92 33.3385 68.5 35.4685 67.19C37.0885 66.2 38.7185 65.23 40.3785 64.31C42.1385 63.34 43.9285 62.4 45.7385 61.51C48.2685 60.27 50.8185 59.07 53.4285 57.99C55.5585 57.11 57.6885 56.25 59.8685 55.51C61.1185 55.08 62.3685 54.64 63.6385 54.25C64.8485 53.88 66.0885 53.61 67.2885 53.22C68.3585 52.87 69.4285 52.86 70.5285 52.96C71.3285 53.04 72.1385 53.01 72.9385 53.05C73.4585 53.07 73.9685 53.13 74.4885 53.19C74.8385 53.23 75.1685 53.27 75.4785 53.04C75.6985 52.87 75.9585 52.87 76.2285 52.91C77.3385 53.08 78.4585 53.18 79.5385 53.49C79.6785 53.53 79.8185 53.56 79.9585 53.56C81.0585 53.52 82.1285 53.79 83.2185 53.87C83.5085 53.89 83.7785 54.02 83.9585 54.26C84.1485 54.51 84.4085 54.59 84.7085 54.63C86.0185 54.83 87.2885 55.18 88.5785 55.5C89.2185 55.66 89.8785 55.73 90.5085 55.96C90.7785 56.06 91.0385 56.18 91.2785 56.33C92.4485 57.06 93.6285 57.77 94.7985 58.51C96.2285 59.42 97.6285 60.38 98.9885 61.4C100.158 62.28 101.338 63.15 102.508 64.04C104.318 65.42 106.058 66.88 107.778 68.37C110.318 70.59 112.798 72.87 115.158 75.27C116.818 76.95 118.418 78.68 119.968 80.46C121.308 82 122.618 83.56 123.838 85.21C125.488 87.43 127.028 89.72 128.208 92.23C128.478 92.8 128.718 93.39 128.898 94C129.088 94.64 129.048 95.19 128.578 95.76C127.718 96.81 126.758 97.76 125.768 98.68C123.928 100.39 121.888 101.85 119.838 103.28C118.238 104.4 116.548 105.39 114.858 106.39C112.898 107.55 110.878 108.59 108.828 109.58C106.448 110.73 104.028 111.81 101.538 112.73C99.7585 113.39 97.9885 114.08 96.1785 114.67C91.8585 116.09 87.4685 117.27 82.9685 117.99C80.2685 118.42 77.5485 118.7 74.8085 118.68C73.4185 118.65 72.0085 118.57 70.6185 118.28Z" fill="#531F8B"/>
<path opacity="0.85" d="M70.6604 118.29C70.3704 118.25 70.0904 118.21 69.8004 118.17C67.9904 117.95 66.2604 117.44 64.5304 116.88C62.2604 116.13 60.0704 115.19 57.9204 114.14C55.7704 113.09 53.6904 111.93 51.6504 110.69C49.1904 109.2 46.8004 107.59 44.4704 105.91C42.2304 104.29 40.0604 102.59 37.9504 100.8C35.6304 98.82 33.4104 96.73 31.3004 94.53C29.9804 93.16 28.7204 91.75 27.5004 90.3C26.4404 89.04 25.4204 87.76 24.4904 86.42C23.2304 84.6 22.0504 82.73 21.1804 80.67C20.9404 80.1 20.9704 79.62 21.2604 79.12C21.5304 78.64 21.8604 78.2 22.2104 77.78C23.1304 76.67 24.1604 75.66 25.2304 74.7C25.4704 74.49 25.6904 74.26 25.9304 74.06C26.4004 73.63 26.5204 73.61 27.0304 74C27.6304 74.45 28.2104 74.92 28.7904 75.4C30.2104 76.58 31.7104 77.64 33.2104 78.71C34.4704 79.62 35.7604 80.48 37.0604 81.35C38.8304 82.53 40.7004 83.56 42.5604 84.59C44.9304 85.89 47.3704 87.07 49.8304 88.18C53.0504 89.64 56.3304 90.97 59.6904 92.09C61.6504 92.74 63.6304 93.35 65.6104 93.95C66.3004 94.16 67.0104 94.29 67.7104 94.43C70.4104 94.99 73.1304 95.48 75.8804 95.79C77.2504 95.95 78.6304 96.03 80.0004 96.15C81.8604 96.31 83.7304 96.29 85.6004 96.23C89.0204 96.12 92.4404 95.92 95.8304 95.48C97.8304 95.22 99.8204 94.94 101.81 94.61C104.74 94.12 107.63 93.5 110.5 92.76C113.04 92.1 115.52 91.29 117.98 90.39C120.25 89.56 122.48 88.64 124.73 87.74C124.84 87.7 124.94 87.65 125.05 87.61C125.26 87.53 125.45 87.57 125.59 87.75C125.78 88 125.98 88.25 126.15 88.52C127.03 89.91 127.85 91.33 128.49 92.84C128.68 93.29 128.83 93.76 128.97 94.23C129.12 94.75 129.03 95.2 128.66 95.67C127.78 96.78 126.77 97.76 125.74 98.72C123.92 100.41 121.9 101.84 119.88 103.27C118.28 104.39 116.59 105.38 114.91 106.38C112.95 107.54 110.93 108.58 108.88 109.57C106.58 110.69 104.23 111.73 101.84 112.63C100.09 113.29 98.3404 113.96 96.5704 114.55C92.1704 116.01 87.7004 117.23 83.1204 117.97C80.3604 118.42 77.5904 118.71 74.7904 118.67C73.4004 118.65 72.0104 118.58 70.6604 118.29Z" fill="#531F8B"/>
<path opacity="0.85" d="M77.7791 53.12C78.3391 53.27 78.9991 53.28 79.6391 53.51C79.8691 53.59 80.1491 53.52 80.4091 53.54C81.3491 53.64 82.2991 53.74 83.2391 53.86C83.5291 53.89 83.7991 54.01 83.9791 54.25C84.1491 54.47 84.3691 54.57 84.6391 54.61C86.0091 54.81 87.3391 55.18 88.6691 55.51C89.2791 55.66 89.9091 55.74 90.5091 55.95C90.7791 56.05 91.0391 56.17 91.2791 56.32C92.4491 57.05 93.6291 57.76 94.7991 58.5C96.2291 59.41 97.6291 60.37 98.9891 61.39C100.159 62.27 101.339 63.14 102.509 64.03C104.319 65.41 106.059 66.86 107.769 68.36C108.919 69.37 110.049 70.39 111.179 71.41C111.459 71.66 111.719 71.92 111.989 72.19C112.159 72.36 112.159 72.55 112.009 72.73C111.829 72.95 111.639 73.17 111.439 73.38C109.739 75.16 107.839 76.68 105.769 77.99C104.089 79.05 102.329 79.96 100.479 80.71C98.2891 81.6 96.0391 82.3 93.7191 82.77C90.9491 83.34 88.1491 83.64 85.3291 83.66C83.8391 83.67 82.3491 83.6 80.8491 83.47C79.6791 83.37 78.4991 83.28 77.3391 83.08C76.5491 82.94 75.7791 82.63 74.9691 82.64C74.0091 82.65 73.0691 82.54 72.1391 82.35C70.9091 82.09 69.6591 81.9 68.4291 81.58C67.4591 81.33 66.4791 81.09 65.5191 80.8C62.6991 79.94 60.0091 78.79 57.4291 77.38C54.3591 75.69 51.5791 73.61 49.1091 71.13C47.8491 69.86 46.6791 68.51 45.6691 67.04C44.8991 65.93 44.1991 64.77 43.5991 63.56C43.5191 63.41 43.4491 63.25 43.3791 63.09C43.2991 62.91 43.3391 62.75 43.5191 62.65C43.6391 62.58 43.7591 62.49 43.8891 62.43C45.0991 61.83 46.3091 61.22 47.5291 60.64C48.7491 60.06 49.9791 59.5 51.2091 58.94C53.1791 58.05 55.1791 57.26 57.1991 56.48C59.5391 55.57 61.9191 54.8 64.2991 54.04C65.2791 53.73 66.3091 53.54 67.2891 53.22C68.3591 52.86 69.4191 52.86 70.5191 52.97C71.3191 53.05 72.1291 53.02 72.9291 53.06C73.4491 53.08 73.9591 53.14 74.4791 53.2C74.8291 53.24 75.1591 53.28 75.4691 53.04C75.6891 52.87 75.9491 52.87 76.2191 52.91C76.7191 52.97 77.2091 53.04 77.7791 53.12Z" fill="#531F8B"/>
<path d="M76.6002 77.98C73.0902 77.52 69.9902 76.58 66.9702 75.34C64.6202 74.37 62.3602 73.24 60.2102 71.89C57.1102 69.93 54.2502 67.67 51.8102 64.91C50.7702 63.74 49.8402 62.51 49.1002 61.13C48.5902 60.18 48.6202 60.12 49.6002 59.67C52.1102 58.52 54.6602 57.46 57.2502 56.48C59.5902 55.58 61.9702 54.81 64.3502 54.04C65.2802 53.74 66.2502 53.56 67.1802 53.26C68.3002 52.89 69.4202 52.85 70.5802 52.98C71.3802 53.07 72.1902 53.02 72.9902 53.06C73.5402 53.09 74.0802 53.15 74.6202 53.21C74.9202 53.24 75.1902 53.24 75.4402 53.06C75.6902 52.88 75.9702 52.87 76.2702 52.91C77.3802 53.09 78.5002 53.18 79.5802 53.5C79.6602 53.52 79.7502 53.55 79.8302 53.55C80.9002 53.5 81.9502 53.75 83.0102 53.83C83.4002 53.86 83.7502 53.95 84.0002 54.27C84.1502 54.46 84.3502 54.55 84.5902 54.59C85.9902 54.8 87.3402 55.18 88.7102 55.5C89.3202 55.65 89.9502 55.73 90.5502 55.95C90.8002 56.04 91.0302 56.15 91.2502 56.29C92.4002 57.01 93.5402 57.73 94.6902 58.43C96.0702 59.27 97.3802 60.21 98.6902 61.15C100.07 62.14 101.41 63.18 102.75 64.22C104.34 65.45 105.9 66.73 107.41 68.06C107.76 68.37 107.78 68.49 107.46 68.84C107.05 69.28 106.64 69.73 106.18 70.12C104.66 71.41 103.02 72.52 101.25 73.44C97.7802 75.24 94.1202 76.5 90.3002 77.31C87.4802 77.91 84.6302 78.26 81.7402 78.29C79.9402 78.31 78.1302 78.28 76.6002 77.98Z" fill="#9752D8"/>
<path d="M77.2811 73.17C73.4811 72.63 70.1711 71.61 66.9411 70.26C63.7611 68.93 60.8011 67.22 58.0511 65.17C56.6911 64.15 55.4611 62.98 54.3111 61.72C53.6211 60.97 53.0411 60.16 52.5311 59.29C52.4411 59.14 52.3711 58.98 52.2911 58.83C52.2011 58.64 52.2611 58.5 52.4511 58.42C52.9311 58.21 53.3911 58 53.8711 57.8C57.2511 56.41 60.6911 55.18 64.1911 54.09C65.1811 53.78 66.2011 53.58 67.1811 53.26C68.3011 52.89 69.4211 52.85 70.5811 52.98C71.3811 53.07 72.1911 53.02 72.9911 53.06C73.5111 53.08 74.0211 53.14 74.5411 53.2C74.8611 53.24 75.1711 53.27 75.4511 53.06C75.7011 52.88 75.9811 52.87 76.2811 52.91C77.3911 53.09 78.5111 53.18 79.5911 53.5C79.6711 53.52 79.7611 53.55 79.8411 53.55C80.9111 53.5 81.9611 53.75 83.0211 53.83C83.4111 53.86 83.7611 53.96 84.0111 54.28C84.1611 54.48 84.3611 54.56 84.6011 54.6C86.0011 54.81 87.3511 55.19 88.7211 55.51C89.3311 55.66 89.9611 55.74 90.5611 55.96C90.8111 56.05 91.0411 56.16 91.2611 56.3C92.4311 57.03 93.6111 57.75 94.7811 58.49C96.2111 59.4 97.6111 60.36 98.9811 61.38C100.251 62.32 101.511 63.27 102.771 64.23C103.391 64.7 103.991 65.19 104.591 65.68C104.831 65.88 104.841 66.03 104.621 66.26C103.851 67.08 102.951 67.75 102.001 68.37C99.7611 69.83 97.3211 70.85 94.7811 71.61C91.5211 72.59 88.1811 73.2 84.7711 73.39C83.4511 73.46 82.1211 73.52 80.8111 73.46C79.5211 73.38 78.2211 73.39 77.2811 73.17Z" fill="#DBFBFF"/>
<path d="M70.6583 118.29C70.3683 118.25 70.0883 118.21 69.7983 118.17C67.9883 117.95 66.2583 117.44 64.5283 116.88C62.2583 116.14 60.0683 115.19 57.9183 114.14C55.7983 113.1 53.7383 111.96 51.7183 110.74C49.2283 109.23 46.8183 107.61 44.4583 105.91C42.2183 104.29 40.0483 102.59 37.9383 100.8C35.5883 98.8 33.3583 96.68 31.2183 94.46C29.9383 93.13 28.7183 91.76 27.5283 90.35C26.4383 89.05 25.3783 87.72 24.4083 86.33C23.1683 84.53 21.9983 82.68 21.1483 80.65C20.8283 79.89 21.0483 79.32 21.4783 78.73C21.6083 78.55 21.7683 78.55 21.9283 78.67C22.3383 78.98 22.7583 79.29 23.1583 79.62C25.0983 81.21 27.1883 82.59 29.2983 83.94C31.1183 85.11 32.9983 86.16 34.8683 87.24C37.0183 88.47 39.2383 89.56 41.4683 90.64C45.3283 92.52 49.2883 94.15 53.2883 95.7C56.9883 97.14 60.7383 98.43 64.5483 99.56C65.7283 99.91 66.9283 100.22 68.1283 100.5C70.0883 100.97 72.0483 101.41 74.0583 101.61C75.2583 101.73 76.4683 101.78 77.6683 101.84C78.2983 101.87 78.9283 101.91 79.5583 101.92C81.9483 101.97 84.3283 101.9 86.7183 101.8C90.5983 101.63 94.4683 101.28 98.3283 100.84C100.958 100.54 103.578 100.15 106.188 99.73C109.798 99.15 113.358 98.34 116.908 97.44C119.418 96.8 121.908 96.08 124.348 95.2C125.318 94.85 126.268 94.42 127.228 94.04C127.578 93.9 127.928 93.76 128.278 93.65C128.658 93.53 128.778 93.62 128.908 94.01C129.098 94.6 129.038 95.11 128.648 95.63C128.048 96.41 127.388 97.13 126.678 97.81C125.498 98.95 124.268 100.03 122.928 100.99C122.068 101.61 121.218 102.27 120.358 102.89C118.928 103.91 117.428 104.82 115.928 105.74C113.618 107.15 111.218 108.4 108.788 109.58C106.898 110.5 104.978 111.35 103.028 112.13C101.608 112.7 100.188 113.25 98.7483 113.74C97.8983 114.02 97.0783 114.36 96.2283 114.64C91.8983 116.04 87.5183 117.24 83.0183 117.97C80.2883 118.41 77.5383 118.69 74.7783 118.66C73.3983 118.65 72.0183 118.58 70.6583 118.29Z" fill="#9752D8"/>
<path d="M70.6492 118.29C70.3092 118.24 69.9692 118.19 69.6192 118.15C67.6092 117.89 65.6992 117.28 63.7992 116.63C63.3592 116.48 63.1592 116.2 63.1292 115.74C62.9892 113.47 62.8192 111.21 62.6692 108.95C62.5492 107.09 62.4292 105.22 62.3292 103.36C62.2692 102.3 62.2392 101.24 62.1992 100.17C62.1992 100.11 62.1992 100.05 62.1992 100C62.2792 99.07 62.3592 98.87 63.3492 99.19C64.9092 99.7 66.4892 100.11 68.0792 100.51C69.0492 100.75 70.0392 100.97 71.0192 101.17C72.4792 101.47 73.9592 101.74 75.4592 101.73C75.5992 101.73 75.7492 101.75 75.8892 101.76C77.5192 101.93 79.1492 101.96 80.7892 101.95C81.6492 101.95 82.5092 101.94 83.3692 101.94C83.7592 101.94 83.8692 102.08 83.8492 102.48C83.8092 103.21 83.5392 103.88 83.3092 104.56C82.0192 108.46 80.6092 112.32 79.1992 116.18C78.9692 116.8 78.7292 117.42 78.5292 118.05C78.4192 118.4 78.1992 118.58 77.8392 118.59C76.7492 118.62 75.6592 118.7 74.5692 118.67C73.2692 118.62 71.9492 118.56 70.6492 118.29Z" fill="#3F1E7E"/>
<path d="M37.2188 89.14C37.2688 88.83 37.4088 88.61 37.8188 88.81C39.0188 89.42 40.2388 90.03 41.4488 90.62C44.4488 92.07 47.5188 93.39 50.6188 94.63C50.7788 94.69 50.9388 94.75 51.0988 94.82C51.3888 94.94 51.5488 95.15 51.5788 95.47C51.7188 96.76 51.8988 98.04 52.0288 99.33C52.3988 103.02 52.7587 106.71 53.1187 110.41C53.1287 110.55 53.1588 110.7 53.1588 110.84C53.1588 111.01 53.1988 111.2 53.0388 111.32C52.8688 111.45 52.7088 111.31 52.5688 111.23C50.9588 110.29 49.3688 109.29 47.8188 108.25C44.7688 106.19 41.7987 104.01 38.9587 101.66C38.0787 100.93 38.0587 100.94 37.9587 99.8C37.6887 96.71 37.3788 93.62 37.2388 90.51C37.2288 90.04 37.2287 89.58 37.2188 89.14Z" fill="#3F1E7E"/>
<path d="M110.769 99.68C110.559 100.33 110.349 101.07 110.079 101.8C109.089 104.47 108.079 107.13 107.089 109.8C106.899 110.32 106.579 110.65 106.069 110.87C103.679 111.87 101.299 112.89 98.8495 113.72C97.9495 114.02 97.0695 114.39 96.1695 114.67C94.2495 115.27 92.3295 115.9 90.3795 116.38C90.0895 116.45 89.7295 116.71 89.5095 116.41C89.3295 116.17 89.5995 115.87 89.7095 115.61C91.4695 111.17 93.2395 106.74 94.9995 102.3C95.4795 101.09 95.4095 101.18 96.6595 101.04C99.9195 100.68 103.169 100.27 106.399 99.7C107.679 99.48 108.949 99.28 110.219 99C110.299 98.98 110.389 98.96 110.469 98.95C110.709 98.93 110.849 99.06 110.829 99.31C110.809 99.41 110.799 99.49 110.769 99.68Z" fill="#3F1E7E"/>
<path opacity="0.5" d="M72.4289 118.55C72.1889 118.4 71.7889 118.62 71.6289 118.21C71.8189 117.93 72.1389 117.98 72.3989 117.9C76.0789 116.79 79.5989 115.31 82.8589 113.25C85.9089 111.31 88.6989 109.06 91.1089 106.35C93.9189 103.2 96.0789 99.66 97.6289 95.75C98.1789 94.36 98.6289 92.94 98.9989 91.48C99.5789 89.21 99.8689 86.9 100.059 84.58C100.249 82.2 100.099 79.81 99.7789 77.44C99.3689 74.37 98.5689 71.41 97.4889 68.51C96.5689 66.05 95.4189 63.7 94.0789 61.44C93.0889 59.78 91.9889 58.21 90.8089 56.67C90.6789 56.5 90.3689 56.28 90.5189 56.1C90.7189 55.86 90.9889 56.13 91.1889 56.26C92.4389 57.02 93.7089 57.77 94.9289 58.58C96.2989 59.48 97.6389 60.43 98.9689 61.38C100.139 62.22 101.279 63.09 102.419 63.97C104.109 65.26 105.749 66.62 107.359 68.02C110.099 70.39 112.769 72.85 115.319 75.43C116.929 77.07 118.499 78.76 119.999 80.5C121.339 82.05 122.649 83.61 123.869 85.25C125.499 87.45 127.029 89.71 128.189 92.2C128.469 92.8 128.729 93.41 128.909 94.05C129.089 94.66 129.029 95.18 128.589 95.73C127.709 96.81 126.729 97.77 125.719 98.71C123.899 100.4 121.879 101.83 119.859 103.26C118.259 104.38 116.569 105.37 114.889 106.37C112.929 107.53 110.909 108.57 108.859 109.56C106.559 110.68 104.209 111.72 101.819 112.62C100.069 113.28 98.3189 113.95 96.5489 114.54C92.1489 116 87.6789 117.22 83.0989 117.96C80.3689 118.41 77.6189 118.67 74.8589 118.67C74.0489 118.67 73.2489 118.59 72.4289 118.55Z" fill="#2E2E4F"/>
<path d="M93.2207 93.92C90.8707 93.76 88.6907 91.26 89.0807 88.5C89.4407 85.98 91.6706 83.91 94.5906 84.34C97.5106 84.77 99.0506 87.29 98.7106 89.88C98.3606 92.6 95.5207 94.44 93.2207 93.92Z" fill="white"/>
<path d="M96.9897 89.53C96.8197 91.06 95.2197 92.25 93.7097 92.04C92.0997 91.81 90.9397 90.32 91.1697 88.71C91.3897 87.11 92.9297 85.97 94.5297 86.21C96.0897 86.45 97.2097 87.96 96.9897 89.53Z" fill="#FFCF00"/>
<path d="M55.6804 88.66C53.4404 88.56 51.0504 86.21 51.5004 83.19C51.9004 80.49 54.3204 78.63 57.0604 79.07C60.1304 79.57 61.4404 82.41 61.1304 84.58C60.7504 87.24 58.0004 89.21 55.6804 88.66Z" fill="white"/>
<path d="M53.3105 83.4C53.4705 81.57 55.2205 80.71 56.5505 80.89C57.9805 81.08 59.3205 82.46 59.0505 84.25C58.7905 85.94 57.1805 86.92 55.7405 86.71C54.4205 86.51 52.9605 85.21 53.3105 83.4Z" fill="#FFCF00"/>
<path d="M70.0301 87.44C70.4101 84.83 72.9101 82.97 75.5201 83.34C78.1601 83.72 80.0601 86.19 79.6501 88.88C79.2301 91.62 76.7501 93.36 74.0701 92.96C71.4201 92.57 69.6401 90.01 70.0301 87.44Z" fill="#FFCF00"/>
<path d="M75.221 85.39C76.761 85.62 78.021 87.22 77.721 88.69C77.361 90.45 76.111 91.42 74.361 91.2C72.551 90.97 71.631 89.19 71.891 87.83C72.211 86.19 73.641 85.19 75.221 85.39Z" fill="#FF8C00"/>
<path d="M42.1989 70.85C44.7689 71.21 46.7289 73.6 46.3389 76.39C45.9589 79.13 43.3089 80.84 40.8589 80.49C38.1489 80.11 36.3189 77.47 36.7189 74.96C37.1589 72.09 39.8689 70.51 42.1989 70.85Z" fill="#FFCF00"/>
<path d="M38.6301 75.24C38.7701 73.7 40.5301 72.48 41.9601 72.69C43.3901 72.9 44.7001 74.49 44.4501 75.99C44.1901 77.52 42.9001 78.73 41.1101 78.53C39.5801 78.37 38.4201 76.76 38.6301 75.24Z" fill="#FF8C00"/>
<path d="M109.718 90.13C107.318 89.83 105.188 87.63 105.568 84.69C105.928 81.85 108.538 80.16 111.078 80.51C113.608 80.86 115.568 83.22 115.218 85.97C114.818 89.01 111.968 90.51 109.718 90.13Z" fill="#FFCF00"/>
<path d="M113.269 85.71C113.229 86.93 111.709 88.49 109.969 88.17C108.269 87.87 107.319 86.42 107.539 84.77C107.729 83.4 109.259 82.12 110.799 82.35C112.639 82.62 113.569 84.41 113.269 85.71Z" fill="#FF8C00"/>
<path d="M77.4913 69.17C76.5913 69.06 75.6213 68.95 74.6513 68.79C72.1513 68.37 69.7113 67.72 67.3713 66.72C65.6313 65.97 63.8913 65.21 62.2313 64.27C60.2413 63.14 58.6513 61.59 57.3913 59.69C56.5613 58.45 56.2013 57.09 56.3613 55.6C56.5713 53.71 56.9313 51.86 57.4313 50.02C58.0513 47.74 58.8813 45.54 59.7713 43.35C61.1313 40.04 63.1113 37.12 65.5513 34.52C66.9313 33.05 68.4213 31.7 70.0413 30.5C71.8513 29.16 73.7913 28.04 75.8913 27.21C77.6213 26.53 79.4013 26.14 81.2513 26.02C83.3413 25.89 85.2913 26.37 87.1813 27.2C89.7913 28.35 91.9113 30.13 93.8213 32.2C94.7213 33.18 95.5213 34.22 96.2813 35.31C97.5213 37.08 98.5713 38.96 99.4613 40.94C100.401 43.02 101.081 45.19 101.471 47.44C101.931 50.13 102.161 52.85 102.161 55.59C102.161 56.97 102.071 58.34 102.021 59.72C101.971 60.99 101.651 62.22 101.201 63.41C101.001 63.93 100.671 64.36 100.321 64.78C99.3813 65.9 98.2013 66.71 96.9313 67.41C95.7913 68.04 94.5613 68.43 93.3013 68.75C92.6013 68.93 91.9013 69.06 91.1813 69.16C89.9813 69.32 88.7913 69.54 87.5913 69.68C85.9013 69.87 84.2113 69.85 82.5113 69.77C80.8513 69.67 79.2013 69.46 77.4913 69.17Z" fill="#FFEA8E"/>
<path d="M77.4597 69.16C76.5697 69.06 75.5997 68.94 74.6297 68.78C72.1597 68.36 69.7397 67.73 67.4297 66.74C65.6597 65.98 63.8897 65.21 62.2097 64.26C60.2197 63.13 58.6297 61.57 57.3697 59.67C56.5397 58.42 56.1797 57.07 56.3497 55.57C56.3697 55.43 56.3597 55.28 56.3997 55.14C56.5097 54.71 56.3797 54.22 56.7297 53.86C57.1297 54.04 57.3997 54.39 57.7097 54.68C59.0397 55.92 60.4397 57.06 61.9197 58.11C62.7397 58.69 63.5997 59.22 64.4797 59.7C66.6797 60.9 68.9497 61.93 71.3897 62.56C72.8097 62.93 74.2197 63.31 75.6897 63.46C79.5697 63.85 83.3897 63.55 87.0697 62.16C88.4497 61.64 89.7297 60.94 90.9697 60.15C93.0197 58.85 94.6697 57.16 96.0497 55.18C96.4297 54.64 96.6597 54.01 97.0097 53.45C97.9597 51.95 98.5097 50.31 98.8797 48.58C98.9897 48.05 99.1597 47.53 99.2297 46.98C99.4397 45.34 99.4497 43.72 99.1297 42.09C98.9897 41.41 98.8797 40.73 98.7497 40.05C98.7297 39.97 98.7197 39.85 98.8197 39.84C98.8697 39.83 98.9597 39.93 98.9997 40C99.4897 40.95 99.8897 41.93 100.25 42.93C101.25 45.68 101.74 48.54 101.97 51.45C102.12 53.28 102.18 55.12 102.11 56.96C102.06 58.28 102.04 59.6 101.85 60.91C101.75 61.63 101.52 62.31 101.32 63C101.13 63.68 100.74 64.24 100.28 64.77C99.0497 66.2 97.5097 67.18 95.7897 67.9C94.2197 68.56 92.5697 68.94 90.8797 69.17C89.7697 69.32 88.6697 69.53 87.5497 69.65C85.8597 69.83 84.1697 69.82 82.4697 69.74C80.8397 69.67 79.1897 69.45 77.4597 69.16Z" fill="#FFCF00"/>
<path d="M77.3706 69.15C76.4506 69.08 75.4006 68.92 74.3506 68.73C71.5006 68.23 68.7606 67.4 66.1406 66.18C65.1706 65.73 64.2006 65.3 63.2606 64.81C61.7406 64.03 60.3106 63.12 59.1406 61.86C58.3406 60.99 57.6206 60.06 57.0306 59.03C56.4606 58.04 56.2606 56.98 56.3606 55.87C56.5006 54.38 56.6506 52.89 57.0806 51.45C57.2706 50.82 57.4006 50.17 57.5606 49.53C57.6106 49.34 57.6706 49.14 57.7506 48.96C57.8406 48.75 58.0006 48.72 58.1606 48.88C58.4006 49.12 58.6406 49.38 58.8806 49.63C60.6106 51.5 62.5406 53.13 64.6906 54.49C66.5206 55.65 68.4806 56.54 70.5506 57.2C72.2606 57.75 74.0106 58.09 75.7906 58.22C77.8306 58.37 79.8706 58.22 81.8706 57.74C83.6206 57.32 85.2806 56.66 86.8106 55.73C89.2106 54.27 91.1606 52.35 92.5906 49.91C93.4706 48.41 94.0706 46.81 94.5206 45.13C94.8006 44.06 94.9906 42.99 95.0706 41.9C95.2206 39.62 95.0706 37.36 94.5106 35.13C94.3606 34.52 94.1606 33.91 93.9906 33.3C93.9306 33.08 93.8706 32.86 93.8306 32.63C93.8206 32.59 93.8706 32.52 93.9106 32.49C93.9506 32.46 94.0306 32.45 94.0606 32.47C94.1706 32.55 94.2906 32.65 94.3806 32.75C95.7306 34.4 96.9506 36.14 97.9906 38.01C98.9106 39.65 99.7106 41.33 100.331 43.1C101.211 45.58 101.691 48.15 101.931 50.77C102.121 52.83 102.221 54.9 102.141 56.97C102.091 58.35 102.101 59.73 101.841 61.09C101.611 62.33 101.331 63.58 100.471 64.58C99.8106 65.35 99.0906 66.06 98.2306 66.59C97.3506 67.14 96.4606 67.66 95.4906 68.03C94.4106 68.44 93.3006 68.75 92.1706 68.95C90.6706 69.23 89.1606 69.44 87.6506 69.62C85.9306 69.82 84.2106 69.8 82.4806 69.71C80.8106 69.67 79.1606 69.44 77.3706 69.15Z" fill="#FFCF00"/>
<path d="M77.4197 69.37C77.3597 69.36 77.3097 69.35 77.2497 69.35C76.1697 69.2 75.0897 69.07 74.0297 68.74C73.0197 68.43 71.9697 68.21 70.9397 67.95C69.4297 67.57 67.9797 67 66.5597 66.38C65.5297 65.94 64.5197 65.44 63.5097 64.96C63.3497 64.89 63.1997 64.81 63.0497 64.73C62.3697 64.36 62.3297 64.31 62.5897 63.59C63.4197 61.3 64.5197 59.16 66.0397 57.25C67.0297 56 68.1297 54.87 69.4197 53.93C70.1697 53.39 70.9597 52.92 71.8197 52.57C72.1697 52.43 72.1997 52.34 72.1397 51.97C72.0997 51.71 72.0297 51.46 71.9997 51.21C71.7697 49.24 72.5197 47.6 73.7997 46.18C74.3197 45.6 74.9297 45.12 75.6197 44.74C76.0697 44.5 76.0697 44.47 75.9797 43.99C75.8397 43.26 75.6697 42.53 75.5297 41.79C75.4697 41.5 75.3197 41.34 75.0197 41.29C74.6397 41.23 74.3197 41.03 74.0297 40.8C72.9497 39.95 72.8797 38.14 74.0097 37.26C75.2397 36.3 76.9197 36.47 77.8397 37.72C78.4597 38.55 78.4297 39.46 77.9397 40.32C77.6897 40.77 77.6397 41.15 77.7897 41.62C77.9597 42.14 78.0897 42.67 78.2497 43.19C78.4097 43.72 78.4197 43.7 78.9497 43.73C79.4997 43.76 80.0397 43.69 80.5897 43.78C81.5297 43.92 82.4797 44.02 83.3597 44.4C83.5897 44.5 83.7497 44.44 83.8797 44.25C84.3097 43.57 84.7397 42.89 85.1697 42.21C85.2697 42.05 85.2797 41.89 85.2297 41.72C85.1897 41.58 85.1497 41.44 85.1097 41.31C84.6797 39.73 85.8797 38.48 87.2997 38.32C88.5597 38.18 89.7797 39.04 90.1097 40.27C90.3397 41.11 90.0297 41.8 89.4697 42.39C89.0097 42.87 88.4297 43.12 87.7597 43.09C87.3897 43.07 87.1797 43.2 87.0197 43.53C86.6697 44.22 86.2797 44.9 85.9097 45.58C85.7997 45.79 85.8197 45.95 85.9997 46.11C86.3997 46.45 86.6997 46.88 86.9897 47.3C88.1997 49 88.5297 50.9 87.9997 52.94C87.8897 53.38 87.6497 53.79 87.4397 54.2C87.3397 54.41 87.3097 54.57 87.5097 54.72C89.7897 56.46 91.1197 58.85 92.1297 61.47C92.9297 63.56 93.3297 65.73 93.4897 67.95C93.4997 68.04 93.5097 68.12 93.5097 68.21C93.5097 68.56 93.4397 68.67 93.0997 68.77C92.7997 68.86 92.4897 68.95 92.1797 68.99C90.6397 69.22 89.1097 69.48 87.5697 69.66C85.8797 69.85 84.1897 69.89 82.4897 69.73C81.9797 69.68 81.4497 69.66 80.9397 69.69C79.8897 69.75 78.8797 69.55 77.8497 69.41C77.7097 69.41 77.5697 69.39 77.4197 69.37Z" fill="#0C1949"/>
<path d="M69.2693 36.83C68.4393 36.69 68.0993 36.18 68.2493 35.54C68.3193 35.22 68.4993 34.96 68.7093 34.72C69.1593 34.23 69.5993 33.74 70.0693 33.28C71.6593 31.71 73.4993 30.49 75.5493 29.6C76.4193 29.22 77.3393 28.98 78.2893 28.88C78.6293 28.85 78.9093 28.93 79.1393 29.18C79.5893 29.68 79.5193 30.29 78.9693 30.66C78.7993 30.77 78.6093 30.84 78.4293 30.92C77.2893 31.4 76.1593 31.88 75.0893 32.53C73.8593 33.28 72.7393 34.17 71.6993 35.17C71.3093 35.55 70.9193 35.94 70.4993 36.28C70.0893 36.61 69.6493 36.88 69.2693 36.83Z" fill="white"/>
<path d="M67.2691 41.7C67.0491 42.41 66.7691 43.26 66.3691 44.05C66.3291 44.13 66.2791 44.19 66.2191 44.26C65.7891 44.77 65.1791 44.93 64.6891 44.67C64.2191 44.41 63.9391 43.75 64.0791 43.18C64.1391 42.93 64.2391 42.69 64.3491 42.46C64.6091 41.95 64.8791 41.44 65.1591 40.94C65.3291 40.64 65.5691 40.38 65.8791 40.23C66.5091 39.92 67.0991 40.2 67.2791 40.88C67.3291 41.1 67.3191 41.33 67.2691 41.7Z" fill="white"/>
<path d="M85.8676 50.79C85.6876 51.39 85.1776 52.02 84.3676 52.36C83.4476 52.74 82.6176 52.04 82.5476 51.25C82.4576 50.25 82.8576 49.53 83.6576 49C84.1976 48.64 84.7676 48.56 85.3376 48.96C85.8976 49.35 86.0476 49.89 85.8676 50.79Z" fill="white"/>
<path d="M77.7878 50C77.7678 50.4 77.6078 50.76 77.3178 51.06C76.9178 51.46 76.3978 51.57 75.9078 51.28C75.0578 50.78 74.6078 49.99 74.5978 49.01C74.5878 48.22 75.2078 47.62 75.9978 47.53C76.3378 47.49 76.6378 47.6 76.8778 47.81C77.5278 48.38 77.9978 49.04 77.7878 50Z" fill="white"/>
</g>
<defs>
<radialGradient id="paint0_radial_1010_33949" cx="0" cy="0" r="1" gradientUnits="userSpaceOnUse" gradientTransform="translate(75.5 75.5) rotate(90) scale(71.5)">
<stop stop-color="white"/>
<stop offset="1" stop-color="white" stop-opacity="0"/>
</radialGradient>
<clipPath id="clip0_1010_33949">
<rect width="108.03" height="92.67" fill="white" transform="translate(21 26)"/>
</clipPath>
</defs>
</svg>
