<svg width="1100" height="220" viewBox="0 0 1100 220" fill="none" xmlns="http://www.w3.org/2000/svg">
<rect width="1100" height="220" fill="#3F1E7E"/>
<mask id="mask0_1116_30134" style="mask-type:alpha" maskUnits="userSpaceOnUse" x="0" y="0" width="1100" height="220">
<rect width="1100" height="220" fill="#3F1E7E"/>
</mask>
<g mask="url(#mask0_1116_30134)">
<path d="M1507.98 -192.916L1507.98 433.131L-147.001 433.131L-147.001 -192.916L1507.98 -192.916Z" fill="url(#paint0_linear_1116_30134)"/>
<path d="M68.935 104.923C94.2507 98.1087 109.355 72.273 102.672 47.2172C95.9886 22.1614 70.0483 7.37362 44.7326 14.1878C19.4169 21.0019 4.31242 46.8376 10.9957 71.8934C17.679 96.9493 43.6193 111.737 68.935 104.923Z" fill="url(#paint1_radial_1116_30134)"/>
<path d="M67.89 101.004C91.0179 94.7784 104.817 71.1754 98.7113 48.2849C92.6056 25.3944 68.9071 11.8846 45.7791 18.1099C22.6512 24.3351 8.85202 47.9381 14.9578 70.8286C21.0635 93.7191 44.762 107.229 67.89 101.004Z" fill="url(#paint2_radial_1116_30134)"/>
<path opacity="0.5" d="M98.3609 46.964C98.3289 46.844 98.2969 46.724 98.2649 46.604C98.1688 46.2439 98.0324 45.8947 97.947 45.5747C97.9256 45.4947 97.8936 45.3747 97.8723 45.2946C97.7145 44.8654 97.5567 44.4363 97.3989 44.0071C97.3775 43.927 97.3562 43.847 97.2944 43.7779C97.158 43.4287 97.0215 43.0795 96.885 42.7304C96.853 42.6103 96.7806 42.5012 96.7592 42.4212C96.561 42.0029 96.4139 41.6137 96.2157 41.1954C96.0174 40.7771 95.8192 40.3588 95.621 39.9404C95.5996 39.8604 95.5379 39.7913 95.5059 39.6713C95.329 39.333 95.1521 38.9947 94.9752 38.6564C94.9539 38.5764 94.9028 38.5472 94.8814 38.4672C94.6428 38.0598 94.4041 37.6524 94.1761 37.2849L94.1655 37.2449C93.9375 36.8775 93.7095 36.5101 93.4815 36.1426C93.4198 36.0735 93.4091 36.0335 93.3473 35.9644C92.8403 35.2004 92.2928 34.4473 91.7454 33.6942C91.7347 33.6542 91.6836 33.6251 91.6729 33.5851C91.4045 33.2285 91.1361 32.872 90.8784 32.5554C90.8677 32.5154 90.8273 32.5263 90.8166 32.4863C90.2287 31.7441 89.6111 31.0527 88.953 30.3723C88.9424 30.3323 88.9019 30.3432 88.8913 30.3032C88.2332 29.6227 87.5752 28.9423 86.8873 28.3127C89.3889 32.6562 93.0075 39.4004 88.7836 42.081C83.3836 45.5498 73.1349 42.0481 60.4535 53.9515C47.7828 65.895 52.4458 74.9308 40.1922 81.6165C27.7854 88.2148 17.527 77.8551 17.527 77.8551L18.8697 80.4523C27.5875 96.2436 45.7668 105.114 64.1706 101.833C64.3727 101.779 64.6259 101.753 64.828 101.699C64.9897 101.655 65.1621 101.652 65.3238 101.608C65.6067 101.532 65.9408 101.485 66.2237 101.409C66.345 101.376 66.5067 101.333 66.6279 101.3C67.0726 101.181 67.4875 101.112 67.9321 100.992C91.0533 94.7687 104.857 71.1572 98.7535 48.2734C98.6361 47.8333 98.5187 47.3932 98.3609 46.964Z" fill="url(#paint3_radial_1116_30134)"/>
<path opacity="0.34" d="M96.6003 46.5375C96.5683 46.4175 96.5363 46.2975 96.5042 46.1775C96.4082 45.8174 96.2824 45.5082 96.1864 45.1482C96.165 45.0681 96.133 44.9481 96.1117 44.8681C95.9539 44.4389 95.8067 44.0497 95.6489 43.6205C95.6276 43.5405 95.6062 43.4605 95.5445 43.3914C95.408 43.0422 95.2715 42.693 95.1351 42.3438C95.1031 42.2238 95.0413 42.1547 95.0093 42.0347C94.8217 41.6564 94.6639 41.2272 94.4764 40.8489C94.2782 40.4305 94.0906 40.0522 93.8924 39.6339C93.871 39.5539 93.8093 39.4848 93.7879 39.4048C93.611 39.0665 93.4342 38.7282 93.2573 38.3899C93.2359 38.3099 93.1848 38.2807 93.1635 38.2007C92.9248 37.7933 92.6969 37.4259 92.4582 37.0184L92.4475 36.9784C92.2196 36.611 91.9916 36.2436 91.7636 35.8761C91.7019 35.807 91.6912 35.767 91.6294 35.6979C91.1224 34.9339 90.626 34.2099 90.0785 33.4568C90.0678 33.4168 90.0168 33.3877 90.0061 33.3477C89.7377 32.9911 89.48 32.6746 89.2116 32.318C89.2009 32.278 89.1605 32.2889 89.1498 32.2489C88.5726 31.5467 87.9549 30.8554 87.3373 30.164C87.3266 30.124 87.2862 30.1349 87.2755 30.0949C86.8645 29.691 86.4939 29.2762 86.0723 28.8323C86.4535 29.2871 86.8752 29.731 87.2564 30.1858C87.2671 30.2258 87.3075 30.2149 87.3182 30.2549C87.5866 30.6115 87.8443 30.928 88.1127 31.2846C88.1234 31.3246 88.1745 31.3537 88.1852 31.3937C88.722 32.1068 89.2694 32.8599 89.7361 33.6348C89.7978 33.7039 89.8085 33.7439 89.8703 33.813C90.0982 34.1805 90.3262 34.5479 90.5542 34.9153L90.5649 34.9553C90.8035 35.3627 91.0315 35.7302 91.2701 36.1376C91.2915 36.2176 91.3426 36.2467 91.3639 36.3268C91.5408 36.6651 91.7177 37.0034 91.8946 37.3417C91.9159 37.4217 91.9777 37.4908 91.999 37.5708C92.1973 37.9891 92.3848 38.3674 92.583 38.7857C92.7706 39.1641 92.9284 39.5932 93.1159 39.9716C93.148 40.0916 93.2097 40.1607 93.2417 40.2807C93.3782 40.6299 93.5147 40.9791 93.6511 41.3283C93.6725 41.4083 93.6938 41.4883 93.7556 41.5574C93.9134 41.9866 94.0605 42.3758 94.2183 42.805C94.2397 42.885 94.2717 43.005 94.293 43.085C94.4295 43.4342 94.5149 43.7543 94.6109 44.1143C94.6429 44.2344 94.6749 44.3544 94.7069 44.4744C94.8243 44.9145 94.9821 45.3437 95.0995 45.7837C101.086 68.2275 87.5497 91.381 64.8731 97.4848C64.4689 97.5936 64.0243 97.7132 63.569 97.7929C63.4477 97.8256 63.3264 97.8582 63.1648 97.9017C62.8818 97.9779 62.5478 98.0249 62.2648 98.1011C62.1031 98.1446 61.9414 98.1881 61.7691 98.1916C61.567 98.246 61.3542 98.2604 61.1117 98.3257C47.1694 100.792 33.4174 96.1752 23.9131 86.8559C33.4355 97.5425 48.1522 103.015 63.0454 100.378C63.2475 100.324 63.4603 100.309 63.7028 100.244C63.8645 100.2 64.0369 100.197 64.1986 100.153C64.4815 100.077 64.8156 100.03 65.0985 99.954C65.2198 99.9213 65.341 99.8887 65.5027 99.8452C65.9474 99.7255 66.3623 99.6567 66.8069 99.537C89.4834 93.4332 103.02 70.2797 97.0333 47.836C96.8755 47.4068 96.7177 46.9776 96.6003 46.5375Z" fill="url(#paint4_radial_1116_30134)"/>
<path opacity="0.6" d="M81.4423 35.6935C81.2531 35.9588 81.0533 36.1841 80.813 36.4203C79.8008 37.3359 78.5096 37.855 77.2184 38.3741C74.5551 39.434 71.862 40.5448 69.2307 41.7247C63.0301 44.4657 56.7935 47.5594 52.2246 52.5197C49.365 55.6048 47.2336 59.3087 45.0809 62.9326C42.9282 66.5564 40.6032 70.1838 37.4561 73.0033C34.309 75.8228 30.1569 77.798 25.9754 77.5514C15.9269 76.9116 15.5069 65.1042 15.8817 57.4138C16.7826 39.6766 29.5057 24.0315 46.8062 19.3748C54.5671 17.2858 62.8448 17.4589 70.4732 19.9079C76.6861 21.9232 85.1197 25.4418 82.63 33.4871C82.305 34.2178 81.9503 34.9993 81.4423 35.6935Z" fill="url(#paint5_radial_1116_30134)"/>
<path opacity="0.6" d="M17.0011 58.5281C17.902 40.791 30.6252 25.1458 47.9256 20.4891C55.6866 18.4001 63.9643 18.5733 71.5926 21.0223C74.8108 22.0427 78.6231 23.5036 81.2294 25.8035C78.7459 22.8273 74.1993 21.0496 70.4511 19.8288C62.8227 17.3798 54.5451 17.2066 46.7841 19.2956C29.4837 23.9523 16.7605 39.5975 15.8596 57.3346C15.5621 63.2034 15.7622 71.4252 20.3169 75.3447C16.8536 71.1314 16.7265 63.8333 17.0011 58.5281Z" fill="url(#paint6_radial_1116_30134)"/>
<path opacity="0.34" d="M35.9732 34.2986C38.5834 36.1259 38.013 41.2963 34.7566 45.8175C31.5003 50.3387 26.7014 52.488 24.1316 50.6499C21.5213 48.8226 22.0918 43.6522 25.3481 39.131C28.6556 34.6389 33.4033 32.4605 35.9732 34.2986Z" fill="url(#paint7_radial_1116_30134)"/>
<path opacity="0.34" d="M47.1042 25.8551C48.0565 27.3139 46.752 29.8948 44.1679 31.5765C41.5838 33.2583 38.6858 33.4381 37.7334 31.9792C36.7811 30.5204 38.0856 27.9396 40.6697 26.2578C43.2538 24.576 46.1412 24.3563 47.1042 25.8551Z" fill="url(#paint8_radial_1116_30134)"/>
<path opacity="0.5" d="M76.4961 36.8128C76.2047 37.0199 75.8623 37.1978 75.59 37.314C75.2773 37.4411 74.9837 37.4772 74.5878 37.4551C73.8176 37.4909 72.8727 37.3594 71.7706 37.6131C71.2047 37.7654 70.7517 38.016 70.3688 38.2048C69.9966 38.4337 69.6946 38.6007 69.4627 38.706C69.1904 38.8222 69.0287 38.8657 68.8266 38.9201C68.6245 38.9745 68.4011 38.9489 68.1883 38.9633C67.7521 38.952 67.2541 38.8717 66.8583 38.8496C66.0049 38.7363 65.558 38.685 65.558 38.685C65.558 38.685 65.0707 38.6447 64.2386 38.6114C63.4066 38.5781 62.1681 38.4826 60.6977 38.4925C59.2273 38.5024 57.5037 38.5375 55.6612 38.7762C53.8186 39.0149 51.857 39.4571 49.9808 40.2194C48.1046 40.9817 46.3648 42.0932 44.9911 43.2776C43.6175 44.4621 42.3841 45.523 41.1951 46.1003C40.5803 46.3944 40.0251 46.5867 39.4996 46.7282C38.9635 46.8296 38.4975 46.8693 38.1017 46.8472C37.3207 46.843 36.8822 46.6609 36.8227 46.7627C36.793 46.8135 37.1529 47.1883 38.0383 47.4217C38.4555 47.5238 38.9939 47.5933 39.6322 47.5501C40.8685 47.4746 41.9767 46.919 43.1405 46.7344C44.5171 46.5354 46.0133 46.9474 47.2916 46.2174C47.8148 45.905 48.2549 45.4435 48.7057 45.022C50.1282 43.6958 52.0342 42.8826 53.9599 42.7931C55.1153 42.7394 56.2432 42.9074 57.3773 42.7737C58.7241 42.6256 60.0558 42.0956 61.4178 42.3293C62.0882 42.4061 62.7311 42.7048 63.3991 42.6107C64.0672 42.5166 64.5882 42.0334 65.1625 41.7501C66.392 41.1619 68.1246 41.8104 69.4798 41.5314C69.8947 41.4626 70.3989 41.2411 70.7711 41.0123C71.5666 40.5838 72.0982 40.1406 72.5322 39.9809C73.0065 39.8103 73.7982 39.8545 74.811 39.7534C75.0642 39.7281 75.3578 39.692 75.6407 39.6158C77.0257 39.2859 78.3933 38.4032 79.6014 37.735C81.6752 36.5765 83.2419 34.654 84.0446 32.4656C84.4947 31.2296 85.7766 26.9397 84.4504 26.3533C82.2437 28.9626 80.5014 32.1758 78.3267 34.9051C77.6676 35.6828 77.1085 36.3478 76.4961 36.8128Z" fill="url(#paint9_radial_1116_30134)"/>
<path opacity="0.5" d="M95.4118 78.8431C94.4585 78.8425 92.3925 79.0555 89.733 79.6427C87.8927 80.0523 85.7611 80.669 83.5104 81.4892C81.2597 82.3094 78.9518 83.4023 76.727 84.6443C75.589 85.2507 74.5128 85.9263 73.4878 86.631C72.9752 86.9834 72.4627 87.3358 71.9501 87.6881C71.4376 88.0405 70.9761 88.422 70.504 88.7634C68.6262 90.1693 66.9078 91.3608 65.3442 91.9961C63.7914 92.6713 62.4339 92.7794 61.4508 92.8296C60.9742 92.8293 60.5784 92.8072 60.3145 92.7925C60.0506 92.7777 59.9187 92.7704 59.9187 92.7704C59.9187 92.7704 59.7868 92.763 59.5229 92.7483C59.259 92.7335 58.8632 92.7114 58.3248 92.642C57.2991 92.5322 55.7944 92.2511 53.9344 91.9371C52.0743 91.623 49.8185 91.2869 47.3056 91.4487C44.8437 91.6397 42.3887 92.3434 39.9993 92.6435C39.4227 92.7558 38.7844 92.799 38.1971 92.8713C37.5992 92.9036 37.012 92.9759 36.4034 92.9682C35.2075 93.0328 34.0308 93.0065 32.8838 92.9294C31.3814 92.8192 29.9896 92.6364 28.668 92.3918C29.2216 92.8431 29.7752 93.2944 30.3692 93.7348C31.8403 94.5395 33.3578 95.0315 35.1309 95.6691C35.6098 95.8403 36.1398 96.0407 36.6973 96.0193C37.4378 96.0343 38.1227 95.6785 38.7565 95.2935C39.0883 95.0755 39.4605 94.8467 39.8563 94.8688C40.2926 94.88 40.6014 95.2257 40.959 95.4296C42.2364 96.1578 43.8891 95.3698 45.0119 94.3816C45.3627 94.0727 45.7029 93.7239 46.1666 93.5133C48.0619 92.6601 52.5765 94.3179 54.3984 94.8137C54.8156 94.9158 55.2434 95.0579 55.582 95.3527C55.8694 95.6183 56.0059 95.9675 56.253 96.2441C56.943 97.0445 58.241 97.0382 59.3027 96.7953C60.5664 96.498 61.8302 96.2007 63.1388 96.2344C64.6199 96.2645 65.9758 96.8 67.4264 96.0665C68.7665 95.4057 69.508 93.9626 70.8374 93.2617C71.9349 92.6662 73.3138 92.6381 74.3389 91.9333C75.3342 91.2795 75.8057 90.1235 76.4007 89.1058C77.4717 87.2739 79.3001 85.1952 81.2144 84.2511C81.7483 83.9788 82.3035 83.7865 82.8717 83.805C83.2675 83.8271 83.6847 83.9292 84.0805 83.9513C85.4807 84.0033 86.7056 83.0732 87.7795 82.2267C88.2814 81.8344 93.3952 79.729 95.263 79.0976C95.3225 78.9958 95.382 78.894 95.4118 78.8431Z" fill="url(#paint10_radial_1116_30134)"/>
<path opacity="0.5" d="M81.198 55.2706C79.7558 55.8732 78.309 56.134 76.9408 56.2021C75.5726 56.2703 74.2403 55.9857 73.04 55.7085C71.8289 55.3913 70.6881 55.0123 69.6494 54.6916C68.6107 54.3708 67.6636 54.0683 66.8804 53.8933C66.5036 53.7803 66.1376 53.7073 65.8226 53.6634C65.5076 53.6196 65.2331 53.5648 64.999 53.4992C64.5521 53.448 64.318 53.3824 64.318 53.3824C64.318 53.3824 64.2669 53.3532 64.1349 53.3459C64.003 53.3385 63.8306 53.342 63.6072 53.3164C63.3837 53.2908 63.0794 53.2869 62.7752 53.2831C62.6028 53.2866 62.4304 53.2901 62.2581 53.2936C62.0857 53.2971 61.8729 53.3115 61.6602 53.3259C59.9877 53.3902 57.6005 53.8612 55.0074 54.8594C53.7055 55.3384 52.3548 55.9593 50.9339 56.6419C49.5237 57.3645 48.1241 58.1271 46.6437 58.9115C43.7233 60.4694 40.6008 62.0817 37.2947 62.843L36.0607 63.0894C35.6458 63.1582 35.2202 63.1869 34.8053 63.2557C34.3905 63.3245 33.9649 63.3533 33.5393 63.3821C33.1138 63.4109 32.6882 63.4397 32.252 63.4285C31.8158 63.4172 31.4199 63.3951 30.9944 63.4239C30.5582 63.4127 30.1517 63.3506 29.7559 63.3285C29.3601 63.3064 28.9132 63.2552 28.5067 63.1931C28.1002 63.131 27.7044 63.1089 27.2872 63.0068C24.0652 62.459 21.1322 61.5333 18.6652 60.568C16.9836 59.9486 15.5553 59.304 14.3313 58.7759C14.127 58.6594 14.6492 59.8052 14.7216 59.9143C15.1029 60.3691 15.6329 60.5695 16.1522 60.7298C16.8248 60.9776 17.5867 61.0727 18.2998 61.3095C18.6765 61.4225 19.0235 61.5864 19.3109 61.852C20.0796 62.4599 20.4676 63.4274 21.1066 64.1987C21.8691 65.1083 22.9718 65.6691 24.102 66.0081C25.4259 66.4236 26.8284 66.6464 28.2477 66.6074C28.8052 66.5859 29.4031 66.5536 29.9926 66.6522C31.4461 66.9042 32.5983 68.1377 34.0221 68.4405C35.8227 68.8563 37.6135 67.774 39.4561 67.5353C40.7625 67.398 42.1756 67.6609 43.3029 67.0144C45.4682 65.8741 46.7575 62.9115 48.7757 61.3821C51.1661 59.6238 54.0101 58.4295 56.9464 58.0679C57.7464 57.9812 58.5975 57.9236 59.3998 58.0078C62.5067 58.2864 65.5762 59.5613 68.6557 60.0616C71.6947 60.5729 74.5631 60.444 77.661 60.0389C78.3801 59.974 79.1291 59.8582 79.7842 59.5532C80.6308 59.1538 81.0855 58.2596 81.8406 57.8419C82.8572 57.2681 84.6639 57.3821 85.8384 57.2375C86.6789 57.1399 87.5491 56.9915 88.2637 56.5847C89.1591 56.0435 89.7755 55.1058 90.311 54.1899C91.7306 51.8782 93.212 49.6357 94.7955 47.4514C95.7414 46.1248 97.0152 45.053 97.1801 43.7223C96.9498 43.1839 96.7493 42.5947 96.4787 42.0672C93.7565 44.0435 91.5971 47.1546 89.2348 49.5056C86.8535 51.9475 84.0932 54.1055 81.198 55.2706Z" fill="url(#paint11_radial_1116_30134)"/>
<path opacity="0.5" d="M24.0643 83.7277C25.5178 83.9796 26.9989 84.0098 28.033 83.9887C28.6012 84.0073 29.1991 83.975 29.7543 83.7826C33.5899 82.4072 35.2468 78.8739 39.6939 78.4916C41.1322 78.3617 42.3219 78.5989 43.6755 78.9635C45.8741 79.5723 46.2897 80.3181 47.7995 81.7555C48.2509 82.1485 48.9404 82.1345 49.536 81.9312C50.121 81.688 50.5931 81.3466 51.1674 81.0633C52.5372 80.3516 54.1609 80.4291 55.7121 80.3975C56.0973 80.3796 56.5228 80.3508 56.8759 80.2129C58.5203 79.5559 59.1146 77.7236 60.8909 77.074C62.3141 76.5623 63.4863 76.2467 64.8432 75.3241C67.1443 73.7185 68.3114 72.2466 68.1985 72.1483C68.0643 71.9701 66.6395 73.1254 64.253 74.411C63.0747 75.0283 61.6431 75.6709 60.0582 76.2261C58.4734 76.7813 56.765 77.1983 55.014 77.4552C53.2629 77.7122 51.4989 77.7582 49.8752 77.6807C48.2409 77.5632 46.7576 77.3621 45.4551 77.0266C44.1632 76.7312 43.0032 76.4431 42.1903 76.3189C41.7838 76.2568 41.4582 76.1729 41.1943 76.1582C40.9709 76.1326 40.8389 76.1252 40.8389 76.1252C40.8389 76.1252 40.707 76.1178 40.4835 76.0922C40.2601 76.0666 39.9154 76.0736 39.4387 76.0733C39.0132 76.1021 38.4557 76.1235 37.7982 76.2576C37.1812 76.3808 36.4537 76.5766 35.7474 76.8525C35.0412 77.1283 34.3158 77.4951 33.6416 77.891C32.9567 78.2468 32.2718 78.6027 31.5061 78.9803C30.0341 79.6338 28.3684 80.2108 26.6493 80.5878C24.9303 80.9647 23.1685 81.1817 21.5556 81.1441C20.815 81.1291 20.1043 81.0631 19.3828 80.9572C19.9225 82.6557 21.9404 83.3989 24.0643 83.7277Z" fill="url(#paint12_radial_1116_30134)"/>
<path opacity="0.5" d="M43.1871 34.5865C41.5871 34.7599 39.8422 34.7151 38.1056 34.5393C34.6219 34.1477 31.1696 33.0617 28.6134 32.249C27.7173 31.9756 26.1121 30.9927 25.4637 31.8104C27.6439 33.3246 30.1743 33.7155 32.639 34.51C34.3503 35.0784 35.7961 36.2758 37.3991 37.0878C37.4502 37.117 37.4502 37.117 37.5013 37.1461C43.7087 40.2777 48.4979 36.6303 53.7621 33.6268C54.4363 33.2309 55.4232 32.708 56.5825 32.1816C58.7608 31.2522 61.3539 30.2541 63.7882 30.2849C64.7011 30.2964 65.7673 30.3954 66.3157 29.6903C66.4751 29.4759 66.5431 29.2432 66.7749 29.1379C66.9259 29.0544 67.128 29 67.3004 28.9965C68.2812 28.7754 68.8762 27.7576 69.2798 26.8343C69.4964 26.3472 71.5573 19.6179 71.0379 19.4576C70.6612 19.3446 70.3249 19.2207 69.9589 19.1477C69.7322 20.4093 69.2141 21.878 68.3491 23.1828C67.9219 23.8552 67.4032 24.5094 66.8121 25.0544C66.2317 25.6395 65.5894 26.1554 64.8344 26.573C63.3753 27.4374 61.7394 27.9635 60.1332 28.4387C58.527 28.9139 56.9505 29.3382 55.5678 29.8391C54.185 30.3399 53.1577 30.8737 52.4324 31.2404C51.707 31.6072 51.3242 31.796 51.3242 31.796C51.3242 31.796 50.952 32.0248 50.2671 32.3807C49.5821 32.7366 48.6356 33.2486 47.4443 33.655C46.253 34.0615 44.7872 34.4131 43.1871 34.5865Z" fill="url(#paint13_radial_1116_30134)"/>
<path opacity="0.5" d="M99.6446 60.7683C98.181 61.2908 95.8653 63.3291 94.9379 63.7503C94.2317 64.0262 93.6658 64.1785 93.2615 64.2873C92.8467 64.3561 92.5637 64.4322 92.5637 64.4322C92.5637 64.4322 92.3212 64.4975 91.8254 64.5881C91.3808 64.7078 90.6723 64.8127 89.7533 65.1029C88.864 65.3423 87.7344 65.8179 86.8009 66.5408C85.8566 67.2238 85.0062 68.0959 84.2365 68.9462C82.7079 70.6869 81.4432 72.4423 80.2503 73.4924C79.1085 74.5715 78.0491 74.9853 78.1025 75.1854C78.1261 75.4363 80.4362 74.5143 80.6894 74.489C81.4086 74.4241 82.1171 74.3191 82.815 74.1742C83.9574 73.9095 85.1274 73.4231 85.7224 72.4054C86.1496 71.733 86.2595 70.8458 86.9124 70.3699C87.4845 69.9158 88.2761 69.96 88.8908 69.6659C89.546 69.3609 89.9945 68.7685 90.4644 68.2561C91.5848 67.0969 93.6913 66.873 95.1914 66.8122C96.9043 66.7371 98.5975 65.9383 99.7668 64.6373L99.7966 64.5864C99.9722 63.2957 100.056 61.9867 100.1 60.6886C100.008 60.6703 99.8467 60.7139 99.6446 60.7683Z" fill="url(#paint14_radial_1116_30134)"/>
<path opacity="0.5" d="M17.6417 48.2798C17.2711 47.865 16.9005 47.4502 16.5002 47.0863C16.1241 47.7879 16.1736 48.4606 16.3954 49.1299C16.8795 50.4574 18.1743 51.7383 18.9391 52.8188C19.3523 53.3937 19.7656 53.9685 20.2788 54.4307C21.3967 55.3733 22.9845 55.8035 23.6813 57.1167C23.9306 57.5641 24.029 58.0951 24.4888 58.3572C24.7953 58.532 25.1401 58.5249 25.4848 58.5179C26.8041 58.5916 27.9899 59.3015 29.1544 59.9314C30.3486 60.5104 31.7343 60.995 32.9851 60.4868C34.589 59.8407 36.2272 59.4855 37.8205 58.7994C38.5565 58.4726 39.3352 58.3059 40.1565 58.2992C41.2822 58.2964 42.4017 58.5954 43.5358 58.4616C46.0464 58.1289 48.7534 55.7708 50.9995 54.6088C52.6012 53.7918 54.2113 52.8439 56.0432 52.5652C56.7921 52.4493 57.5731 52.4535 58.2282 52.1486C58.9535 51.7818 59.4318 51.1385 60.0229 50.5935C61.6666 49.122 64.6333 49.5241 66.6802 49.4019C67.9569 49.3155 69.2931 49.1274 70.5568 48.8301C71.8205 48.5328 72.9714 48.1373 74.1223 47.7417C75.2732 47.3462 76.2921 46.9433 77.3515 46.5295C77.8557 46.3081 78.3598 46.0866 78.8426 45.7851C79.3254 45.4837 79.7571 45.1531 80.0973 44.8042C80.8181 44.0957 81.3048 43.3215 81.6808 42.62C82.0569 41.9184 82.2713 41.2604 82.4369 40.7442C82.768 39.7117 82.9016 39.0754 82.8101 39.0572C82.7185 39.0389 82.4317 39.5878 81.9069 40.5438C81.6498 41.0418 81.3225 41.6015 80.9251 42.2231C80.5277 42.8446 80.009 43.4987 79.3264 44.0255C78.6544 44.5923 77.7971 44.9517 76.8079 45.3037C75.8081 45.6157 74.6869 45.9604 73.5955 46.2541C72.4637 46.5588 71.3319 46.8634 70.1384 47.0989C68.9448 47.3344 67.8001 47.4282 66.5425 47.4236C64.089 47.4837 61.5205 47.2746 59.0014 47.7383C56.4823 48.2019 54.3849 49.1095 52.6193 49.7992C49.0988 51.2185 46.7886 52.1404 46.7886 52.1404C46.7886 52.1404 44.4998 53.1424 41.0516 54.6709C39.2967 55.4005 37.4037 56.4246 35.3376 56.6377C33.2716 56.8507 30.8411 56.3472 28.5594 55.5892C26.2777 54.8313 24.083 53.7497 22.22 52.4503C20.4272 51.089 18.877 49.6625 17.6417 48.2798Z" fill="url(#paint15_radial_1116_30134)"/>
<path d="M15.7711 46.2942C16.1821 46.6982 16.542 47.0729 16.9126 47.4877C18.1883 48.8595 19.7385 50.286 21.5908 51.5455C23.4538 52.845 25.6485 53.9265 27.9302 54.6845C30.2119 55.4425 32.6424 55.946 34.7084 55.7329C36.734 55.5307 38.6675 54.4957 40.4224 53.7661C43.8706 52.2377 46.1594 51.2357 46.1594 51.2357C46.1594 51.2357 48.51 50.3028 51.9901 48.8944C53.7557 48.2048 55.8531 47.2972 58.3722 46.8335C60.902 46.4099 63.4598 46.579 65.9133 46.5189C67.1198 46.4943 68.3049 46.3897 69.5092 46.1942C70.6623 45.9695 71.8452 45.694 72.9663 45.3494C74.0875 45.0047 75.1789 44.711 76.1787 44.399C77.1786 44.0869 78.0252 43.6876 78.6972 43.1208C79.3691 42.554 79.8985 41.9398 80.2959 41.3183C80.6933 40.6968 81.0206 40.137 81.2777 39.639C81.8025 38.6831 82.0787 38.0942 82.1809 38.1524C82.2724 38.1707 82.1388 38.8069 81.8077 39.8394C81.6421 40.3556 81.3873 41.0245 81.0516 41.7152C80.6756 42.4167 80.1889 43.1909 79.4681 43.8995C79.0875 44.2592 78.6558 44.5898 78.2134 44.8804C77.7306 45.1819 77.2265 45.4033 76.7223 45.6248C75.7034 46.0277 74.644 46.4415 73.4931 46.837C72.3827 47.2217 71.1913 47.6281 69.9276 47.9253C68.6639 48.2226 67.3681 48.3999 66.051 48.4971C64.0041 48.6193 61.0374 48.2172 59.3937 49.6887C58.8026 50.2338 58.2839 50.8879 57.599 51.2438C56.9034 51.5597 56.1225 51.5555 55.414 51.6604C53.6225 51.9282 52.0124 52.8762 50.3703 53.7041C48.1242 54.8661 45.4172 57.2241 42.9066 57.5569C41.7725 57.6906 40.653 57.3916 39.5273 57.3945C38.7464 57.3903 37.9273 57.5679 37.1913 57.8946C35.598 58.5808 33.9598 58.9359 32.3559 59.5821C31.1051 60.0903 29.7194 59.6056 28.5252 59.0266C27.331 58.4476 26.1749 57.6868 24.8556 57.6132C24.5002 57.5802 24.1662 57.6272 23.8596 57.4525C23.4104 57.2303 23.3015 56.6593 23.0521 56.2119C22.3659 54.9387 20.7675 54.4685 19.6496 53.5259C19.1364 53.0637 18.6827 52.4998 18.3099 51.9141C17.5558 50.8736 16.2206 49.6036 15.7662 48.2251C15.4445 47.6685 15.395 46.9958 15.7711 46.2942ZM95.2651 78.1099C95.2629 77.939 92.7286 78.0208 89.0075 78.8509C87.1672 79.2605 85.0355 79.8772 82.7849 80.6974C80.5342 81.5176 78.2263 82.6105 76.0015 83.8525C74.8635 84.4589 73.7873 85.1345 72.7622 85.8392C72.2497 86.1916 71.7372 86.5439 71.2246 86.8963C70.7121 87.2487 70.2506 87.6301 69.7785 87.9716C67.9007 89.3775 66.1823 90.569 64.6187 91.2042C63.0659 91.8795 61.7084 91.9876 60.7253 92.0378C60.2487 92.0375 59.8529 92.0154 59.589 92.0007C59.3251 91.9859 59.1932 91.9786 59.1932 91.9786C59.1932 91.9786 59.0613 91.9712 58.7974 91.9565C58.5335 91.9417 58.1377 91.9196 57.5993 91.8502C56.5736 91.7403 55.0689 91.4593 53.2089 91.1452C51.3488 90.8312 49.093 90.4951 46.58 90.6569C44.1182 90.8479 41.6632 91.5516 39.2738 91.8517C38.6972 91.964 38.0589 92.0072 37.4716 92.0795C36.8737 92.1118 36.2864 92.1841 35.6779 92.1764C34.482 92.241 33.3053 92.2147 32.1583 92.1376C30.575 92.0492 29.0406 91.819 27.6786 91.5853C29.7207 93.394 31.8384 94.0246 34.4054 94.8773C34.8843 95.0485 35.4143 95.2489 35.9718 95.2275C36.7123 95.2425 37.3972 94.8867 38.031 94.5017C38.3628 94.2837 38.735 94.0549 39.1308 94.077C39.5671 94.0882 39.8759 94.4339 40.2335 94.6378C41.5108 95.3659 43.1636 94.578 44.2864 93.5898C44.6372 93.2809 44.9774 92.9321 45.4411 92.7215C47.3364 91.8683 51.851 93.526 53.6729 94.0219C54.0901 94.124 54.5179 94.2661 54.8564 94.5609C55.1439 94.8265 55.2804 95.1757 55.5274 95.4522C56.2175 96.2527 57.5155 96.2464 58.5772 96.0035C59.8409 95.7062 61.1047 95.4089 62.4133 95.4426C63.8944 95.4727 65.2503 96.0082 66.7009 95.2747C68.041 94.6139 68.7825 93.1708 70.1119 92.4699C71.2094 91.8744 72.5883 91.8463 73.6134 91.1415C74.6087 90.4877 75.0802 89.3317 75.6752 88.314C76.7462 86.482 78.5745 84.4034 80.4889 83.4593C81.0228 83.187 81.578 82.9946 82.1462 83.0132C82.542 83.0353 82.9592 83.1374 83.355 83.1595C84.7552 83.2114 85.9801 82.2814 87.054 81.4349C87.6963 80.919 95.2415 77.859 95.2651 78.1099ZM36.7635 36.313C42.9709 39.4446 47.7601 35.7972 53.0243 32.7937C53.6985 32.3978 54.6855 31.8749 55.8448 31.3485C58.023 30.4191 60.6161 29.421 63.0505 29.4518C63.9633 29.4634 65.0295 29.5623 65.5779 28.8572C65.7374 28.6428 65.8053 28.4101 66.0371 28.3048C66.1882 28.2213 66.3903 28.1669 66.5626 28.1634C67.5434 27.9423 68.1384 26.9246 68.542 26.0012C68.7586 25.5141 70.8195 18.7848 70.3002 18.6245C69.9234 18.5115 69.5871 18.3876 69.2211 18.3146C68.9944 19.5762 68.4764 21.0449 67.6113 22.3497C67.1842 23.0221 66.6655 23.6763 66.0743 24.2213C65.4939 24.8064 64.8517 25.3223 64.0966 25.7399C62.6375 26.6043 61.0016 27.1304 59.3954 27.6056C57.7892 28.0808 56.2128 28.5051 54.83 29.006C53.4473 29.5068 52.4199 30.0406 51.6946 30.4074C50.9693 30.7741 50.5864 30.9629 50.5864 30.9629C50.5864 30.9629 50.2142 31.1917 49.5293 31.5476C48.8444 31.9035 47.8979 32.4155 46.7066 32.8219C45.5153 33.2284 44.0494 33.58 42.4494 33.7534C40.8493 33.9269 39.1044 33.882 37.3679 33.7062C33.8842 33.3147 30.4319 32.2286 27.8756 31.4159C26.9795 31.1425 25.3743 30.1596 24.7259 30.9773C26.9061 32.4915 29.4365 32.8824 31.9013 33.6769C33.6125 34.2453 35.0583 35.4427 36.6613 36.2547C36.7124 36.2839 36.7231 36.3239 36.7635 36.313ZM98.9597 59.9639C97.4961 60.4864 95.1804 62.5248 94.253 62.9459C93.5467 63.2218 92.9808 63.3741 92.5766 63.4829C92.1617 63.5517 91.8788 63.6278 91.8788 63.6278C91.8788 63.6278 91.6362 63.6931 91.1405 63.7837C90.6959 63.9034 89.9874 64.0083 89.0683 64.2986C88.1791 64.5379 87.0495 65.0135 86.1159 65.7364C85.1717 66.4194 84.3212 67.2915 83.5516 68.1418C82.023 69.8825 80.7583 71.638 79.5654 72.688C78.4235 73.7672 77.3642 74.1809 77.4175 74.381C77.4411 74.6319 79.7513 73.7099 80.0045 73.6846C80.7237 73.6197 81.4322 73.5148 82.13 73.3698C83.2725 73.1052 84.4425 72.6187 85.0375 71.601C85.4647 70.9286 85.5746 70.0414 86.2275 69.5655C86.7996 69.1114 87.5912 69.1556 88.2059 68.8615C88.8611 68.5565 89.3096 67.9641 89.7794 67.4517C90.8999 66.2925 93.0064 66.0686 94.5065 66.0078C96.2194 65.9327 97.9126 65.1339 99.0819 63.8329C99.6517 63.2079 100.058 62.4555 100.189 61.6483C100.511 59.9322 99.868 59.6336 98.9597 59.9639ZM23.3351 82.9351C24.7886 83.1871 26.2697 83.2172 27.3038 83.1961C27.872 83.2147 28.4699 83.1824 29.0251 82.9901C32.8606 81.6147 34.5176 78.0814 38.9646 77.6991C40.403 77.5692 41.5927 77.8064 42.9463 78.171C45.1449 78.7798 45.5605 79.5255 47.0703 80.9629C47.5217 81.356 48.2111 81.3419 48.8068 81.1387C49.3918 80.8955 49.8639 80.554 50.4382 80.2708C51.808 79.5591 53.4317 79.6366 54.9829 79.6049C55.368 79.587 55.7936 79.5582 56.1467 79.4203C57.7911 78.7633 58.3854 76.9311 60.1617 76.2814C61.5849 75.7697 62.7571 75.4542 64.114 74.5315C66.4151 72.9259 67.5822 71.4541 67.4693 71.3558C67.3351 71.1775 65.9103 72.3329 63.5238 73.6184C62.3455 74.2357 60.9139 74.8783 59.329 75.4336C57.7442 75.9888 56.0358 76.4058 54.2847 76.6627C52.5337 76.9196 50.7697 76.9656 49.146 76.8881C47.5117 76.7706 46.0284 76.5696 44.7258 76.2341C43.434 75.9386 42.274 75.6506 41.4611 75.5263C41.0546 75.4642 40.729 75.3804 40.4651 75.3656C40.2416 75.34 40.1097 75.3327 40.1097 75.3327C40.1097 75.3327 39.9778 75.3253 39.7543 75.2997C39.5309 75.2741 39.1861 75.2811 38.7095 75.2808C38.2839 75.3096 37.7264 75.331 37.069 75.4651C36.452 75.5882 35.7244 75.7841 35.0182 76.0599C34.3119 76.3358 33.5866 76.7026 32.9124 77.0984C32.2275 77.4543 31.5426 77.8102 30.7768 78.1878C29.3048 78.8413 27.6391 79.4183 25.9201 79.7952C24.2011 80.1722 22.4393 80.3891 20.8263 80.3516C20.0858 80.3365 19.375 80.2706 18.6536 80.1646C19.2337 81.8523 21.2516 82.5955 23.3351 82.9351ZM75.804 36.0098C75.5126 36.2168 75.1701 36.3948 74.8979 36.511C74.5852 36.638 74.2915 36.6742 73.8957 36.6521C73.1255 36.6879 72.1806 36.5563 71.0785 36.8101C70.5126 36.9624 70.0596 37.213 69.6767 37.4018C69.3045 37.6306 69.0025 37.7977 68.7706 37.9029C68.4983 38.0191 68.3366 38.0626 68.1345 38.117C67.9324 38.1714 67.709 38.1458 67.4962 38.1602C67.06 38.149 66.562 38.0686 66.1662 38.0465C65.3128 37.9332 64.8659 37.882 64.8659 37.882C64.8659 37.882 64.3785 37.8416 63.5465 37.8083C62.7145 37.775 61.476 37.6796 60.0056 37.6894C58.5352 37.6993 56.8116 37.7345 54.969 37.9731C53.1265 38.2118 51.1649 38.6541 49.2887 39.4164C47.4125 40.1786 45.6727 41.2901 44.299 42.4746C42.9254 43.659 41.692 44.7199 40.503 45.2973C39.8882 45.5914 39.333 45.7837 38.8075 45.9251C38.2714 46.0266 37.8054 46.0662 37.4096 46.0441C36.6286 46.0399 36.1901 45.8578 36.1306 45.9596C36.1009 46.0105 36.4608 46.3853 37.3462 46.6186C37.7633 46.7207 38.3018 46.7902 38.9401 46.747C40.1764 46.6715 41.2846 46.116 42.4484 45.9314C43.825 45.7323 45.3212 46.1443 46.5995 45.4143C47.1227 45.102 47.5628 44.6405 48.0136 44.219C49.4361 42.8927 51.3421 42.0796 53.2678 41.99C54.4232 41.9363 55.5511 42.1044 56.6852 41.9706C58.032 41.8225 59.3637 41.2926 60.7257 41.5262C61.3961 41.6031 62.0389 41.9017 62.707 41.8076C63.3751 41.7136 63.8961 41.2303 64.4704 40.9471C65.6998 40.3589 67.4325 41.0074 68.7877 40.7283C69.2026 40.6595 69.7068 40.4381 70.079 40.2093C70.8745 39.7807 71.4061 39.3375 71.84 39.1778C72.3144 39.0072 73.1061 39.0514 74.1189 38.9503C74.3721 38.9251 74.6657 38.8889 74.9486 38.8128C76.3336 38.4828 77.7012 37.6002 78.9093 36.932C80.9831 35.7735 82.5498 33.851 83.3524 31.6625C83.8026 30.4265 85.0844 26.1366 83.7583 25.5502C81.5516 28.1595 79.8093 31.3727 77.6346 34.102C76.9755 34.8797 76.4164 35.5448 75.804 36.0098ZM17.5422 60.5679C17.9189 60.6809 18.2659 60.8448 18.5534 61.1104C19.322 61.7182 19.7101 62.6858 20.3491 63.4571C21.1116 64.3667 22.2143 64.9275 23.3445 65.2665C24.6683 65.6819 26.0708 65.9047 27.4901 65.8657C28.0476 65.8443 28.6455 65.812 29.235 65.9106C30.6886 66.1626 31.8407 67.3961 33.2646 67.6989C35.0651 68.1147 36.8559 67.0324 38.6985 66.7937C40.0049 66.6564 41.4181 66.9192 42.5454 66.2728C44.7107 65.1325 46 62.1699 48.0181 60.6404C50.4085 58.8822 53.2526 57.6878 56.1888 57.3263C56.9888 57.2396 57.8399 57.182 58.6422 57.2662C61.7492 57.5448 64.8186 58.8197 67.8981 59.32C70.9372 59.8313 73.8055 59.7024 76.9034 59.2973C77.6226 59.2324 78.3715 59.1165 79.0267 58.8116C79.8732 58.4122 80.3279 57.518 81.083 57.1003C82.0997 56.5265 83.9064 56.6405 85.0808 56.4959C85.9213 56.3983 86.7915 56.2499 87.5061 55.8431C88.4016 55.3019 89.0179 54.3642 89.5534 53.4482C90.973 51.1366 92.4544 48.894 94.038 46.7098C95.3622 44.8526 97.4017 43.4031 95.9721 41.1294C93.118 43.0983 90.9394 46.3003 88.4772 48.7639C86.0151 51.2276 83.2548 53.3856 80.3596 54.5508C78.9174 55.1534 77.4706 55.4142 76.1024 55.4823C74.7342 55.5504 73.4019 55.2658 72.2016 54.9886C70.9905 54.6714 69.8497 54.2924 68.811 53.9717C67.7723 53.651 66.8252 53.3485 66.042 53.1734C65.6652 53.0604 65.2992 52.9874 64.9842 52.9435C64.6692 52.8997 64.3947 52.8449 64.1606 52.7793C63.7137 52.7281 63.4796 52.6625 63.4796 52.6625C63.4796 52.6625 63.4285 52.6334 63.2965 52.626C63.1646 52.6186 62.9922 52.6221 62.7688 52.5965C62.5453 52.5709 62.241 52.5671 61.9367 52.5632C61.7644 52.5667 61.592 52.5702 61.4197 52.5738C61.2473 52.5773 61.0345 52.5917 60.8218 52.6061C59.1493 52.6703 56.7621 53.1413 54.169 54.1395C52.8671 54.6185 51.5164 55.2394 50.0955 55.922C48.6852 56.6446 47.2857 57.4073 45.8053 58.1916C42.8849 59.7495 39.7624 61.3618 36.4563 62.1231L35.2223 62.3695C34.8074 62.4383 34.3818 62.4671 33.9669 62.5359C33.552 62.6047 33.1265 62.6335 32.7009 62.6622C32.2754 62.691 31.8498 62.7198 31.4136 62.7086C30.9774 62.6974 30.5815 62.6753 30.156 62.7041C29.7198 62.6929 29.3133 62.6307 28.9175 62.6086C28.5217 62.5866 28.0748 62.5353 27.6683 62.4732C27.2618 62.4111 26.866 62.389 26.4488 62.2869C23.2268 61.7392 20.2938 60.8135 17.8268 59.8481C16.1452 59.2288 14.7169 58.5841 13.4929 58.056C13.2885 57.9395 13.8108 59.0853 13.8832 59.1944C14.2645 59.6492 14.7945 59.8496 15.3138 60.01C16.0673 60.2359 16.8291 60.331 17.5422 60.5679Z" fill="url(#paint16_radial_1116_30134)"/>
<g opacity="0.34">
<path opacity="0.34" d="M18.2143 52.0265C18.6275 52.6013 19.0408 53.1761 19.554 53.6383C20.6719 54.5809 22.2597 55.0111 22.9565 56.3243C23.2058 56.7717 23.3042 57.3027 23.764 57.5649C24.0705 57.7396 24.4153 57.7326 24.76 57.7256C26.0793 57.7992 27.2651 58.5091 28.4296 59.139C29.6238 59.718 31.0095 60.2027 32.2603 59.6945C33.8642 59.0483 35.5024 58.6932 37.0957 58.007C37.8317 57.6803 38.6104 57.5136 39.4317 57.5069C40.5574 57.504 41.6769 57.803 42.811 57.6693C45.3216 57.3365 48.0286 54.9785 50.2747 53.8165C51.8764 52.9994 53.4865 52.0515 55.3184 51.7728C56.0673 51.657 56.8483 51.6612 57.5034 51.3562C58.2287 50.9894 58.707 50.3462 59.2981 49.8011C60.9418 48.3296 63.9085 48.7317 65.9554 48.6095C67.2321 48.5232 68.5683 48.335 69.832 48.0377C71.0957 47.7405 72.2466 47.3449 73.3975 46.9494C74.5484 46.5539 75.5673 46.151 76.6267 45.7372C77.1309 45.5157 77.635 45.2943 78.1178 44.9928C78.6006 44.6913 79.0323 44.3607 79.3725 44.0119C80.0933 43.3033 80.5799 42.5291 80.956 41.8276C81.3321 41.1261 81.5465 40.4681 81.7121 39.9518C82.0432 38.9193 82.1768 38.2831 82.0853 38.2648C81.9937 38.2466 81.7069 38.7955 81.1821 39.7514C80.925 40.2494 80.5977 40.8092 80.2003 41.4307C79.8029 42.0522 79.2842 42.7064 78.6016 43.2332C77.9296 43.8 77.0723 44.1593 76.0831 44.5114C75.881 44.5658 75.7193 44.6093 75.5279 44.7037C74.7004 45.0122 73.8729 45.3207 72.9645 45.6509C71.8541 46.0356 70.6627 46.442 69.399 46.7393C68.1353 47.0366 66.8395 47.2138 65.5224 47.3111C63.4755 47.4333 60.5088 47.0312 58.8651 48.5027C58.274 49.0477 57.7553 49.7019 57.0704 50.0577C56.3748 50.3736 55.5939 50.3694 54.8854 50.4744C53.0939 50.7422 51.4838 51.6901 49.8417 52.518C47.5956 53.68 44.8886 56.0381 42.378 56.3708C41.2439 56.5045 40.1244 56.2056 38.9987 56.2084C38.2178 56.2042 37.3987 56.3818 36.6627 56.7086C35.0694 57.3947 33.4312 57.7499 31.8273 58.396C30.5765 58.9042 29.1908 58.4196 27.9966 57.8406C26.8024 57.2616 25.6463 56.5008 24.327 56.4271C23.9716 56.3941 23.6375 56.4411 23.331 56.2664C22.8818 56.0443 22.7729 55.4733 22.5235 55.0258C21.8373 53.7527 20.2389 53.2824 19.121 52.3399C18.6078 51.8777 18.1541 51.3137 17.792 50.768C17.1103 49.8367 15.9901 48.7232 15.4168 47.5482C15.4106 47.8501 15.4853 48.1301 15.5707 48.4502C16.125 49.716 17.4602 50.986 18.2143 52.0265Z" fill="url(#paint17_radial_1116_30134)"/>
<path opacity="0.34" d="M31.9141 33.7158C33.6254 34.2843 35.0712 35.4817 36.6741 36.2937C36.7252 36.3228 36.7252 36.3228 36.7763 36.3519C42.9838 39.4836 47.7729 35.8361 53.0371 32.8327C53.7113 32.4368 54.6983 31.9139 55.8576 31.3874C58.0358 30.4581 60.6289 29.4599 63.0633 29.4908C63.9762 29.5023 65.0423 29.6012 65.5908 28.8962C65.7502 28.6818 65.8181 28.4491 66.0499 28.3438C66.201 28.2603 66.4031 28.2059 66.5754 28.2024C67.5562 27.9812 68.1512 26.9635 68.5548 26.0402C68.7715 25.5531 70.8323 18.8238 70.313 18.6634C70.1704 18.616 70.0278 18.5687 69.9362 18.5504C69.5569 20.5392 68.3598 24.3346 68.2026 24.72C67.7991 25.6433 67.2041 26.661 66.2233 26.8821C66.0616 26.9257 65.8488 26.9401 65.6978 27.0236C65.517 27.158 65.4087 27.4016 65.2386 27.576C64.6902 28.281 63.5836 28.193 62.7111 28.1705C60.2768 28.1397 57.7134 29.087 55.5054 30.0672C54.3354 30.5536 53.3592 31.1166 52.6849 31.5124C47.4101 34.4759 42.6209 38.1233 36.4242 35.0317C36.3837 35.0426 36.3731 35.0026 36.322 34.9735C35.1171 34.3545 33.9801 33.5028 32.7348 32.8946C30.964 32.4279 29.2741 31.9395 27.8884 31.4548C26.9923 31.1815 25.3871 30.1985 24.7388 31.0163C26.8785 32.5414 29.3982 32.8922 31.9141 33.7158Z" fill="url(#paint18_radial_1116_30134)"/>
<path opacity="0.34" d="M29.0306 82.9905C32.8662 81.6151 34.5231 78.0818 38.9702 77.6995C40.4085 77.5696 41.5982 77.8068 42.9518 78.1714C45.1505 78.7802 45.566 79.5259 47.0758 80.9633C47.5272 81.3564 48.2167 81.3423 48.8123 81.1391C49.3973 80.8959 49.8694 80.5544 50.4437 80.2712C51.8135 79.5595 53.4372 79.637 54.9884 79.6053C55.3736 79.5874 55.7991 79.5586 56.1522 79.4207C57.7966 78.7637 58.3909 76.9315 60.1672 76.2818C61.5904 75.7701 62.7626 75.4546 64.1195 74.5319C66.4206 72.9263 67.5877 71.4545 67.4748 71.3562C67.3406 71.1779 65.9158 72.3333 63.5293 73.6188C62.351 74.2361 60.9194 74.8787 59.3346 75.434C59.092 75.4993 58.8602 75.6045 58.5772 75.6807C57.6246 76.4946 56.9701 77.6141 55.7597 78.1114C55.4065 78.2493 54.981 78.2781 54.5958 78.296C53.0446 78.3276 51.421 78.2501 50.0512 78.9619C49.5173 79.2342 49.0154 79.6266 48.4198 79.8298C47.8348 80.073 47.1347 80.047 46.6832 79.654C45.133 78.2275 44.7685 77.5109 42.5593 76.862C41.2056 76.4975 40.0159 76.2602 38.5776 76.3901C34.1306 76.7724 32.4438 80.3566 28.6381 81.6811C28.0828 81.8735 27.5253 81.8949 26.9168 81.8872C25.8719 81.8683 24.3909 81.8381 22.948 81.6262C21.5455 81.4034 20.1812 80.9988 19.2784 80.2127C19.0549 80.1871 18.8719 80.1506 18.6484 80.125C19.1477 81.8344 21.1762 82.6176 23.3002 82.9464C24.7537 83.1984 26.2348 83.2285 27.2689 83.2074C27.9179 83.2042 28.4754 83.1828 29.0306 82.9905Z" fill="url(#paint19_radial_1116_30134)"/>
<path opacity="0.34" d="M37.279 46.681C37.6961 46.7831 38.2345 46.8526 38.8729 46.8094C40.1091 46.7339 41.2173 46.1784 42.3811 45.9938C43.7577 45.7947 45.254 46.2067 46.5323 45.4767C47.0555 45.1644 47.4956 44.7029 47.9464 44.2814C49.3689 42.9551 51.2749 42.142 53.2005 42.0524C54.356 41.9987 55.4839 42.1668 56.618 42.033C57.9648 41.8849 59.2964 41.355 60.6585 41.5886C61.3288 41.6655 61.9717 41.9641 62.6398 41.87C63.3079 41.776 63.8288 41.2927 64.4031 41.0095C65.6326 40.4213 67.3652 41.0698 68.7205 40.7907C69.1354 40.7219 69.6395 40.5005 70.0117 40.2717C70.8072 39.8432 71.3389 39.3999 71.7728 39.2402C72.2472 39.0697 73.0388 39.1138 74.0516 39.0128C74.3048 38.9875 74.5984 38.9513 74.8814 38.8752C76.2664 38.5452 77.6339 37.6626 78.8421 36.9944C80.9159 35.8359 82.4826 33.9134 83.2852 31.7249C83.7163 30.5798 84.873 26.7953 83.9168 25.8091C83.9371 27.3473 83.226 29.554 82.9331 30.4047C82.09 32.6041 80.5233 34.5265 78.4899 35.6742C77.2818 36.3424 75.9249 37.265 74.5292 37.5549C74.2463 37.6311 73.9931 37.6564 73.6995 37.6925C72.676 37.7536 71.8951 37.7494 71.4207 37.92C70.976 38.0397 70.4444 38.4829 69.6596 38.9515C69.2874 39.1803 68.813 39.3508 68.3683 39.4705C67.0131 39.7496 65.2805 39.1011 64.051 39.6893C63.4767 39.9725 62.9153 40.4666 62.2876 40.5498C61.6196 40.6439 60.9874 40.3853 60.3063 40.2684C58.955 40.0747 57.6233 40.6047 56.2658 40.7128C55.1317 40.8466 54.0038 40.6785 52.8484 40.7322C50.9227 40.8218 49.0167 41.6349 47.5942 42.9612C47.1434 43.3827 46.714 43.8842 46.1801 44.1565C44.9018 44.8865 43.4056 44.4745 42.029 44.6735C41.8162 44.6879 41.6545 44.7315 41.4524 44.7859C41.1206 45.0038 40.7889 45.2217 40.4464 45.3997C39.8317 45.6938 39.2764 45.8861 38.751 46.0275C38.2148 46.129 37.7488 46.1686 37.353 46.1466C36.5721 46.1424 36.1336 45.9602 36.0741 46.062C36.0337 46.0729 36.3936 46.4477 37.279 46.681Z" fill="url(#paint20_radial_1116_30134)"/>
<path opacity="0.34" d="M93.7505 45.2876C92.1669 47.4718 90.6856 49.7144 89.2659 52.026C88.7304 52.942 88.1545 53.8688 87.2187 54.4209C86.504 54.8277 85.6338 54.9761 84.7934 55.0737C83.6189 55.2183 81.8122 55.1043 80.7955 55.6781C80.0404 56.0958 79.5858 56.99 78.7392 57.3894C78.084 57.6943 77.3351 57.8102 76.6159 57.8751C73.5478 58.2293 70.6901 58.3982 67.6106 57.8978C64.5312 57.3975 61.4213 56.1335 58.3547 55.844C57.5524 55.7598 56.7013 55.8174 55.9013 55.9041C52.9651 56.2656 50.121 57.46 47.7306 59.2182C45.672 60.7586 44.4232 63.7103 42.2579 64.8506C41.0795 65.4679 39.7068 65.1942 38.411 65.3715C36.5684 65.6102 34.7776 66.6925 32.9771 66.2767C31.5533 65.9739 30.4011 64.7404 28.9475 64.4884C28.358 64.3898 27.8112 64.4512 27.2026 64.4435C25.7833 64.4825 24.3915 64.2997 23.057 63.8443C21.9268 63.5053 20.8241 62.9445 20.0616 62.0349C19.495 61.3727 19.1497 60.5652 18.564 59.9939C18.3703 59.9174 18.1362 59.8518 17.9425 59.7753C16.8825 59.3745 15.9544 58.9811 15.0774 58.6169C14.7922 58.5221 14.507 58.4274 14.2515 58.2818C14.0067 58.1761 13.813 58.0996 13.6087 57.9831C13.4043 57.8666 13.9265 59.0124 13.999 59.1216C14.3802 59.5764 14.9102 59.7767 15.4296 59.9371C16.1022 60.1849 16.8641 60.2799 17.5771 60.5168C17.9538 60.6298 18.3008 60.7937 18.5883 61.0593C19.3569 61.6671 19.745 62.6347 20.384 63.406C21.1465 64.3156 22.2492 64.8764 23.3794 65.2154C24.7033 65.6308 26.1057 65.8536 27.525 65.8147C28.0825 65.7932 28.6804 65.7609 29.2699 65.8595C30.7235 66.1115 31.8757 67.345 33.2995 67.6478C35.1 68.0636 36.8909 66.9813 38.7334 66.7426C40.0399 66.6053 41.453 66.8681 42.5803 66.2217C44.7456 65.0814 46.0349 62.1188 48.053 60.5893C50.4434 58.8311 53.2875 57.6367 56.2237 57.2752C57.0237 57.1885 57.8748 57.1309 58.6771 57.2151C61.7841 57.4937 64.8536 58.7686 67.933 59.2689C70.9721 59.7802 73.8404 59.6513 76.9383 59.2462C77.6575 59.1813 78.4064 59.0654 79.0616 58.7605C79.9082 58.3611 80.3628 57.4669 81.1179 57.0492C82.1346 56.4754 83.9413 56.5894 85.1158 56.4448C85.9562 56.3472 86.8264 56.1988 87.5411 55.792C88.4365 55.2508 89.0528 54.3131 89.5883 53.3971C91.008 51.0855 92.4893 48.8429 94.0729 46.6587C95.3673 44.8523 97.2963 43.4756 96.1625 41.3366C96.1509 42.7548 94.7665 43.8992 93.7505 45.2876Z" fill="url(#paint21_radial_1116_30134)"/>
<path opacity="0.34" d="M99.91 59.925C99.891 60.0159 99.8826 60.1468 99.8741 60.2777C99.7429 61.0848 99.2966 61.8481 98.7672 62.4623C97.6383 63.7524 95.9452 64.5511 94.1918 64.6372C92.6917 64.6979 90.5746 64.8819 89.4648 66.0811C88.9545 66.6043 88.506 67.1967 87.8912 67.4908C87.2361 67.7958 86.4552 67.7916 85.9129 68.1949C85.26 68.6707 85.15 69.5579 84.7228 70.2303C84.1172 71.2081 82.9472 71.6945 81.8154 71.9991C81.2495 72.1515 80.6218 72.2346 80.0346 72.3069C79.8942 72.4305 79.7539 72.554 79.654 72.6667C78.5121 73.7458 77.4528 74.1596 77.5061 74.3597C77.5297 74.6106 79.8399 73.6886 80.0931 73.6633C80.8123 73.5984 81.5208 73.4934 82.2186 73.3485C83.3611 73.0838 84.5311 72.5974 85.1261 71.5797C85.5533 70.9073 85.6632 70.0201 86.3161 69.5442C86.8881 69.0901 87.6798 69.1343 88.2945 68.8402C88.9496 68.5352 89.3982 67.9428 89.868 67.4304C90.9885 66.2712 93.095 66.0473 94.5951 65.9865C96.308 65.9114 98.0012 65.1126 99.1705 63.8116C99.7403 63.1866 100.146 62.4342 100.277 61.627C100.406 60.649 100.227 60.1397 99.91 59.925Z" fill="url(#paint22_radial_1116_30134)"/>
<path opacity="0.34" d="M89.8264 78.6722C88.3033 79.2966 86.993 79.9065 86.742 80.1027C85.6277 80.9601 84.4028 81.8901 83.043 81.8273C82.6472 81.8052 82.23 81.7031 81.8342 81.681C81.266 81.6624 80.6811 81.9056 80.1769 82.1271C78.2732 83.1112 76.4449 85.1898 75.3632 86.9818C74.7682 87.9995 74.2967 89.1555 73.3014 89.8093C72.2763 90.514 70.8974 90.5421 69.7999 91.1377C68.5109 91.8277 67.729 93.2817 66.3889 93.9425C64.9383 94.676 63.5824 94.1405 62.1013 94.1104C60.7927 94.0767 59.5289 94.374 58.2652 94.6713C57.2035 94.9141 55.9162 94.9605 55.2155 94.12C54.9684 93.8435 54.8213 93.4543 54.5445 93.2287C54.2463 92.923 53.7781 92.7918 53.3609 92.6897C51.5795 92.1829 47.0244 90.5361 45.1291 91.3893C44.7058 91.589 44.3252 91.9487 43.9744 92.2576C42.8516 93.2458 41.2286 93.9828 39.9215 93.3056C39.5639 93.1017 39.2146 92.7669 38.8188 92.7448C38.423 92.7227 38.0508 92.9515 37.719 93.1695C37.0852 93.5545 36.4003 93.9103 35.6598 93.8952C35.1427 93.9058 34.6127 93.7054 34.0934 93.5451C32.5651 93.0131 31.1497 92.5793 29.8427 91.9021C29.1212 91.7961 28.3998 91.6901 27.7188 91.5733C29.7608 93.382 31.8786 94.0126 34.4455 94.8653C34.9245 95.0365 35.4545 95.2369 36.012 95.2155C36.7525 95.2305 37.4374 94.8747 38.0712 94.4897C38.403 94.2717 38.7752 94.0429 39.171 94.065C39.6072 94.0762 39.916 94.4219 40.2737 94.6258C41.551 95.3539 43.2038 94.566 44.3265 93.5778C44.6774 93.2689 45.0176 92.9201 45.4813 92.7095C47.3766 91.8563 51.8912 93.514 53.7131 94.0099C54.1302 94.112 54.558 94.2541 54.8966 94.5489C55.1841 94.8145 55.3205 95.1637 55.5676 95.4402C56.2577 96.2407 57.5557 96.2344 58.6173 95.9915C59.8811 95.6942 61.1448 95.3969 62.4535 95.4306C63.9345 95.4607 65.2904 95.9962 66.7411 95.2627C68.0812 94.6019 68.8227 93.1588 70.152 92.4579C71.2496 91.8624 72.6284 91.8343 73.6535 91.1295C74.6489 90.4757 75.1203 89.3197 75.7153 88.302C76.7864 86.4701 78.6147 84.3914 80.5291 83.4473C81.063 83.175 81.6182 82.9826 82.1864 83.0012C82.5822 83.0233 82.9993 83.1254 83.3951 83.1475C84.7953 83.1994 86.0203 82.2694 87.0942 81.4229C87.7067 80.9579 95.2519 77.8979 95.2649 78.1088C95.2626 77.9379 93.1134 78.0018 89.8264 78.6722Z" fill="url(#paint23_radial_1116_30134)"/>
</g>
<path opacity="0.35" d="M37.961 86.7597C37.9241 88.5705 36.131 89.4819 34.5074 89.4044C33.0668 89.3634 31.781 88.7661 30.9842 87.5656C30.4665 86.7616 30.7656 85.6091 31.5398 85.1006C31.7671 84.6535 32.1371 84.2538 32.5901 84.0032C33.3452 83.5856 34.2581 83.5971 35.0817 83.7613C36.5459 84.0533 37.9895 85.0797 37.961 86.7597ZM58.3144 81.367C57.1163 81.2607 55.2951 81.5794 54.0572 82.2985C53.8849 82.302 53.7232 82.3455 53.5615 82.389C50.6831 83.2924 50.039 86.7246 52.8872 88.1448C55.429 89.3902 59.8058 89.0697 61.6616 86.7692C62.4694 85.7371 62.7449 84.3337 62.0503 83.1914C61.2726 81.9 59.7253 81.4589 58.3144 81.367ZM65.3604 81.9574C65.2795 81.9792 65.1583 82.0118 65.0774 82.0336C64.6328 82.1532 64.1607 82.4947 63.9227 82.9018C63.6847 83.3089 63.5809 83.8943 63.7387 84.3235C63.9071 84.7927 64.1565 85.2401 64.6056 85.4622C65.0548 85.6844 65.5528 85.7647 66.0378 85.6342C66.1187 85.6124 66.2399 85.5798 66.3208 85.558C66.7654 85.4383 67.2376 85.0968 67.4756 84.6897C67.7136 84.2826 67.8174 83.6973 67.6596 83.2681C67.4911 82.7989 67.2418 82.3514 66.7926 82.1293C66.3434 81.9072 65.8454 81.8268 65.3604 81.9574ZM23.0031 72.2621C22.769 72.1965 22.5753 72.12 22.3412 72.0544C21.9133 71.9123 21.2963 72.0354 20.873 72.2351C20.5008 72.464 20.1012 72.9146 20.0058 73.369C19.9104 73.8235 19.9278 74.3762 20.1771 74.8237C20.4562 75.2202 20.8352 75.5041 21.3141 75.6754C21.5482 75.741 21.7419 75.8175 21.9761 75.8831C22.4039 76.0252 23.0209 75.902 23.4442 75.7023C23.8164 75.4735 24.2161 75.0229 24.3115 74.5684C24.4069 74.114 24.3894 73.5612 24.1401 73.1138C23.8503 72.6772 23.482 72.4334 23.0031 72.2621ZM53.0764 71.7998C54.3272 71.2916 55.8076 70.5072 56.1129 69.0529C56.3716 67.9113 55.8196 66.8164 54.768 66.2848C53.512 65.6366 52.5228 65.9886 51.2355 66.035C49.9481 66.0814 49.0459 66.1098 47.9759 66.4836C47.8035 66.4871 47.6418 66.5306 47.4504 66.625C46.24 67.1223 44.1869 67.5463 43.4729 68.7676C42.7589 69.9889 43.4771 71.3821 44.531 72.0847C46.8347 73.7372 50.6663 72.8345 53.0764 71.7998ZM40.0545 70.2452C39.8861 69.776 39.607 69.3794 39.1876 69.1064C39.0854 69.0481 38.9321 68.9608 38.8299 68.9025C38.4212 68.6695 37.8828 68.6 37.3977 68.7306C36.9531 68.8503 36.481 69.1917 36.243 69.5988C36.0156 70.0459 35.8905 70.5513 36.0589 71.0205C36.2274 71.4897 36.5065 71.8862 36.9259 72.1593C37.0281 72.2175 37.1814 72.3049 37.2836 72.3631C37.6923 72.5962 38.2307 72.6656 38.7158 72.5351C39.1604 72.4154 39.6325 72.0739 39.8705 71.6668C40.0979 71.2197 40.1826 70.7252 40.0545 70.2452ZM47.711 94.7264C45.3666 95.3575 46.327 98.958 48.6714 98.327C51.0159 97.696 50.0555 94.0954 47.711 94.7264ZM82.9871 46.0398C82.3281 46.8175 82.0374 47.8391 82.8892 48.596C83.2384 48.9308 83.6876 49.153 84.2046 49.1424C84.6813 49.1428 85.1664 49.0122 85.579 48.7725C85.9916 48.5328 86.3318 48.184 86.5698 47.7769C86.7971 47.3298 86.8925 46.8753 86.7538 46.3552C86.6364 45.9151 86.2956 45.4494 85.8868 45.2164C85.4377 44.9943 84.929 44.8739 84.4546 45.0445C83.9696 45.1751 83.4166 45.5383 82.9871 46.0398ZM85.9163 42.0783C86.9802 42.0064 87.9968 41.4326 88.7687 40.7531C90.1317 39.5287 91.4194 37.2096 90.503 35.3981C89.9106 34.3141 88.6058 33.8077 87.4678 34.4142C86.098 35.1259 84.9966 36.1942 84.2444 37.5973C83.7982 38.3606 83.3138 39.3056 83.4677 40.2076C83.5857 41.4622 84.68 42.1538 85.9163 42.0783ZM84.0737 63.7565C84.3162 63.6913 84.5374 63.546 84.7075 63.3715C85.0179 63.0736 85.2643 62.5356 85.2682 62.0629C85.2721 61.5902 85.0929 61.081 84.6926 60.717C84.354 60.4223 83.8431 60.131 83.3771 60.1707C83.1239 60.1959 82.9111 60.2103 82.6579 60.2356C82.3941 60.2209 82.1515 60.2862 81.9197 60.3915C81.6771 60.4567 81.456 60.602 81.2859 60.7764C80.9754 61.0744 80.729 61.6124 80.7251 62.0851C80.7213 62.5578 80.9004 63.067 81.3007 63.4309C81.6393 63.7257 82.1502 64.017 82.6162 63.9773C82.8694 63.952 83.0822 63.9376 83.3354 63.9124C83.5993 63.9271 83.8418 63.8618 84.0737 63.7565ZM95.3888 54.3648C94.0323 53.0148 92.0432 53.6788 90.5948 54.5832C89.0465 55.6003 87.9794 56.9595 87.3126 58.6826C86.8602 59.7477 88.1275 61.2504 89.0555 61.6438C90.5647 62.2666 93.5721 60.3852 94.614 59.4187C95.9961 58.1033 96.92 55.8822 95.3888 54.3648ZM93.3787 74.1156C92.7096 75.6679 90.4017 76.7607 88.7803 76.8541C87.5037 76.9405 86.2325 75.9105 85.8719 74.7212C85.554 73.6919 86.4449 72.8089 87.1871 72.1804C88.1908 71.3957 89.1816 70.4 90.4774 70.2228C92.7051 69.9662 94.224 72.0872 93.3787 74.1156ZM89.9707 72.546C90.0919 72.5133 90.1324 72.5025 90.0919 72.5133C90.0004 72.4951 89.96 72.506 89.9707 72.546ZM87.8131 72.7408C87.611 72.7952 87.611 72.7952 87.8131 72.7408V72.7408ZM80.968 86.5465C80.7956 86.5501 80.6232 86.5536 80.4616 86.5971C79.9552 86.6477 79.4701 86.7782 79.1002 87.1779C78.7897 87.4759 78.5433 88.0139 78.5394 88.4866C78.5355 88.9593 78.7147 89.4685 79.115 89.8324C79.4536 90.1272 79.9134 90.3894 80.4305 90.3788C80.6029 90.3753 80.7752 90.3718 80.9369 90.3283C81.4433 90.2777 81.9284 90.1471 82.2983 89.7474C82.6087 89.4495 82.8552 88.9115 82.859 88.4388C82.8629 87.966 82.6838 87.4568 82.2834 87.0929C81.8938 86.769 81.4339 86.5069 80.968 86.5465ZM26.8859 49.949C27.7105 48.6551 26.3242 47.3559 25.4915 46.5081C24.5459 45.562 23.3708 44.8921 22.0599 44.6875C21.6938 44.6145 21.3087 44.6324 20.996 44.7595C20.9555 44.7704 20.9044 44.7412 20.864 44.7521C19.6064 44.7476 18.7223 46.1433 18.7679 47.2888C18.8219 48.3033 20.1335 49.3224 20.8915 49.8902C22.6118 51.1423 25.4556 52.2207 26.8859 49.949ZM33.5768 53.5937C33.6958 53.3901 33.7637 53.1575 33.7401 52.9065C33.7355 52.5647 33.6502 52.2447 33.484 51.9464C33.2751 51.488 32.8023 51.015 32.3127 50.8037C31.6698 50.5051 30.9888 50.3883 30.2612 50.5841C30.0995 50.6276 29.9485 50.7112 29.8379 50.7838C29.3529 50.9144 28.9105 51.205 28.6832 51.6521C28.1988 52.5971 28.4762 53.6373 29.3555 54.1725C29.7238 54.4164 30.1623 54.5985 30.5794 54.7006C31.22 54.8283 31.686 54.7887 32.3137 54.7055C32.8902 54.5932 33.3601 54.0808 33.5768 53.5937ZM66.9783 37.185C67.908 36.9348 68.6136 35.8444 68.317 34.8951C68.0205 33.9458 67.0284 33.3124 66.0179 33.5844C65.6541 33.6823 65.2498 33.7911 64.8861 33.8891C63.9564 34.1393 63.2508 35.2297 63.5473 36.179C63.8438 37.1282 64.8359 37.7617 65.8465 37.4897C66.2103 37.3917 66.5741 37.2938 66.9783 37.185ZM72.0362 31.6215C70.7061 31.5078 70.0772 29.9619 70.6912 28.8533C71.3435 27.5629 72.0957 26.1598 73.0865 25.1642C74.1772 24.0559 76.1769 23.4319 77.2612 24.898C78.1388 26.0768 77.3615 27.8726 76.6559 28.963C75.9503 30.0534 74.9892 30.9981 73.8108 31.6154C73.1663 31.9604 72.5471 31.9127 72.0362 31.6215ZM72.2929 28.0363L72.3227 27.9854L72.312 27.9454C72.2609 27.9162 72.2822 27.9963 72.2929 28.0363ZM55.5458 24.6972C55.3734 24.7007 55.2011 24.7042 55.0394 24.7477C54.533 24.7983 54.0479 24.9288 53.678 25.3286C53.3675 25.6265 53.1211 26.1645 53.1172 26.6372C53.1134 27.11 53.2925 27.6192 53.6928 27.9831C54.0314 28.2778 54.4912 28.54 55.0083 28.5294C55.1807 28.5259 55.353 28.5224 55.5147 28.4789C56.0211 28.4283 56.5062 28.2978 56.8761 27.8981C57.1866 27.6001 57.433 27.0621 57.4369 26.5894C57.4407 26.1167 57.2616 25.6075 56.8612 25.2436C56.4716 24.9197 56.0118 24.6575 55.5458 24.6972ZM60.4607 26.7188C59.814 26.8929 59.1116 26.696 58.6388 26.223C57.9914 25.5825 58.1037 24.8663 58.1838 24.03C58.2282 23.5464 58.2618 23.0228 58.3976 22.5574C58.924 20.9579 60.7249 19.101 62.5048 20.2513C63.773 20.2958 64.7506 21.362 64.7771 22.5983C64.7958 24.7801 62.2904 26.2692 60.4607 26.7188ZM63.231 23.7863C63.2417 23.8263 63.2417 23.8263 63.231 23.7863C63.4522 23.641 63.3989 23.441 63.231 23.7863Z" fill="url(#paint24_radial_1116_30134)"/>
<g opacity="0.35">
<g opacity="0.35">
<path opacity="0.35" d="M63.532 81.2504C64.2596 81.0546 63.9608 79.9344 63.2332 80.1302C62.5163 80.3661 62.8044 81.4462 63.532 81.2504Z" fill="url(#paint25_radial_1116_30134)"/>
</g>
<g opacity="0.35">
<path opacity="0.35" d="M64.3093 87.5999C65.0369 87.4041 64.7381 86.2839 64.0105 86.4797C63.2829 86.6755 63.5817 87.7957 64.3093 87.5999Z" fill="url(#paint26_radial_1116_30134)"/>
</g>
<g opacity="0.35">
<path opacity="0.35" d="M71.3796 85.1829C72.1072 84.9871 71.8084 83.8669 71.0808 84.0627C70.3533 84.2586 70.6521 85.3787 71.3796 85.1829Z" fill="url(#paint27_radial_1116_30134)"/>
</g>
<g opacity="0.35">
<path opacity="0.35" d="M81.072 66.6229C81.7996 66.4271 81.5008 65.3069 80.7732 65.5028C80.0967 65.7277 80.3848 66.8079 81.072 66.6229Z" fill="url(#paint28_radial_1116_30134)"/>
</g>
<g opacity="0.35">
<path opacity="0.35" d="M84.1453 66.1379C84.8729 65.9421 84.5741 64.8219 83.8465 65.0177C83.1189 65.2136 83.4177 66.3338 84.1453 66.1379Z" fill="url(#paint29_radial_1116_30134)"/>
</g>
<g opacity="0.35">
<path opacity="0.35" d="M93.5007 52.4731C94.2283 52.2772 93.9295 51.157 93.2019 51.3529C92.4744 51.5487 92.7731 52.6689 93.5007 52.4731Z" fill="url(#paint30_radial_1116_30134)"/>
</g>
<g opacity="0.35">
<path opacity="0.35" d="M21.6648 71.2939C22.3924 71.0981 22.0936 69.9779 21.366 70.1737C20.6384 70.3696 20.9372 71.4898 21.6648 71.2939Z" fill="url(#paint31_radial_1116_30134)"/>
</g>
<g opacity="0.35">
<path opacity="0.35" d="M26.4617 76.1332C27.1893 75.9374 26.8905 74.8172 26.1629 75.013C25.4353 75.2089 25.7341 76.3291 26.4617 76.1332Z" fill="url(#paint32_radial_1116_30134)"/>
</g>
<g opacity="0.35">
<path opacity="0.35" d="M36.7747 91.2389C37.5023 91.043 37.2035 89.9229 36.476 90.1187C35.7888 90.3037 36.0472 91.4347 36.7747 91.2389Z" fill="url(#paint33_radial_1116_30134)"/>
</g>
<g opacity="0.35">
<path opacity="0.35" d="M40.3607 88.4286C41.0883 88.2327 40.7895 87.1126 40.0619 87.3084C39.3747 87.4934 39.6331 88.6244 40.3607 88.4286Z" fill="url(#paint34_radial_1116_30134)"/>
</g>
<g opacity="0.35">
<path opacity="0.35" d="M52.1804 97.5116C52.908 97.3157 52.6092 96.1955 51.8816 96.3914C51.154 96.5872 51.4528 97.7074 52.1804 97.5116Z" fill="url(#paint35_radial_1116_30134)"/>
</g>
<g opacity="0.35">
<path opacity="0.35" d="M77.4773 91.8169C78.2049 91.6211 77.9061 90.5009 77.1785 90.6967C76.4509 90.8926 76.7497 92.0128 77.4773 91.8169Z" fill="url(#paint36_radial_1116_30134)"/>
</g>
<g opacity="0.35">
<path opacity="0.35" d="M81.3523 92.7035C82.0799 92.5076 81.7811 91.3874 81.0535 91.5833C80.3259 91.7791 80.6247 92.8993 81.3523 92.7035Z" fill="url(#paint37_radial_1116_30134)"/>
</g>
<g opacity="0.35">
<path opacity="0.35" d="M62.2039 34.8683C62.9314 34.6724 62.6326 33.5522 61.9051 33.7481C61.1775 33.9439 61.4763 35.0641 62.2039 34.8683Z" fill="url(#paint38_radial_1116_30134)"/>
</g>
<g opacity="0.35">
<path opacity="0.35" d="M65.0398 32.3481C65.7674 32.1522 65.4686 31.032 64.741 31.2279C64.0241 31.4637 64.3122 32.5439 65.0398 32.3481Z" fill="url(#paint39_radial_1116_30134)"/>
</g>
<g opacity="0.35">
<path opacity="0.35" d="M26.5242 52.3203C27.2518 52.1244 26.953 51.0043 26.2254 51.2001C25.4978 51.3959 25.7966 52.5161 26.5242 52.3203Z" fill="url(#paint40_radial_1116_30134)"/>
</g>
<g opacity="0.35">
<path opacity="0.35" d="M24.5164 44.7991C25.2439 44.6032 24.9452 43.483 24.2176 43.6789C23.49 43.8747 23.7888 44.9949 24.5164 44.7991Z" fill="url(#paint41_radial_1116_30134)"/>
</g>
<g opacity="0.35">
<path opacity="0.35" d="M34.3093 51.7693C35.0369 51.5735 34.7381 50.4533 34.0105 50.6491C33.2829 50.845 33.5817 51.9652 34.3093 51.7693Z" fill="url(#paint42_radial_1116_30134)"/>
</g>
<g opacity="0.35">
<path opacity="0.35" d="M35.3718 54.1408C36.0994 53.9449 35.8006 52.8248 35.073 53.0206C34.3454 53.2164 34.6442 54.3366 35.3718 54.1408Z" fill="url(#paint43_radial_1116_30134)"/>
</g>
<g opacity="0.35">
<path opacity="0.35" d="M49.2351 29.1404C49.9627 28.9445 49.6639 27.8243 48.9363 28.0202C48.2194 28.256 48.5075 29.3362 49.2351 29.1404Z" fill="url(#paint44_radial_1116_30134)"/>
</g>
<g opacity="0.35">
<path opacity="0.35" d="M48.6882 25.9443C49.4158 25.7484 49.117 24.6282 48.3894 24.8241C47.6619 25.0199 47.9606 26.1401 48.6882 25.9443Z" fill="url(#paint45_radial_1116_30134)"/>
</g>
<g opacity="0.35">
<path opacity="0.35" d="M55.9382 24.2066C56.6658 24.0107 56.367 22.8906 55.6394 23.0864C54.9119 23.2822 55.2106 24.4024 55.9382 24.2066Z" fill="url(#paint46_radial_1116_30134)"/>
</g>
<g opacity="0.35">
<path opacity="0.35" d="M57.3835 21.8433C58.1111 21.6475 57.8123 20.5273 57.0848 20.7231C56.3678 20.959 56.656 22.0391 57.3835 21.8433Z" fill="url(#paint47_radial_1116_30134)"/>
</g>
</g>
<path opacity="0.2" d="M69.0927 436.157C81.7402 400.353 105.866 369.633 132.098 342.505C168.032 305.26 210.243 272.183 259.782 257.627C285.347 250.276 312.397 247.793 336.885 237.19C367.349 224.123 392.155 198.475 403.93 167.365C412.368 145.787 414.636 122.164 426.14 101.872C435.22 85.8933 449.306 73.4589 463.596 61.8329C490.208 40.2847 518.236 20.9566 547.7 3.58581C553.754 0.0707469 559.808 -3.44432 566.123 -6.93992L580.459 -201.491C536.111 -182.319 506.301 -138.803 482.594 -95.8914C457.664 -50.6913 435.345 -1.59628 395.268 31.1106C336.719 78.5692 254.909 80.6809 184.026 106.075C88.7905 140.231 31.1478 214.721 -17.7614 299.376L-33.4334 512.067L64.8049 519.372C57.5732 492.399 59.7623 462.691 69.0927 436.157Z" fill="url(#paint48_linear_1116_30134)"/>
<path opacity="0.2" d="M724.065 -22.0898C753.933 -18.224 781.795 -4.52818 807.227 11.4186C842.129 33.2486 874.858 60.6884 894.47 96.973C904.467 115.725 910.941 136.457 923.276 153.82C938.525 175.441 962.57 190.522 988.656 194.495C1006.79 197.463 1025.48 195.262 1043.14 200.843C1057.04 205.254 1069.05 214.176 1080.46 223.394C1101.63 240.576 1121.32 259.239 1139.74 279.354C1143.48 283.496 1147.22 287.638 1150.99 291.988L1304.15 270.469C1281.83 239.02 1243.1 223.032 1205.86 211.715C1166.65 199.826 1124.85 190.634 1092.77 164.801C1046.15 127.007 1030.75 63.3966 999.152 12.2466C956.666 -56.4695 889.254 -89.0082 815.434 -113.008L648.001 -89.4828L658.867 -11.4439C678.549 -21.6355 701.936 -24.9215 724.065 -22.0898Z" fill="url(#paint49_linear_1116_30134)"/>
<path opacity="0.4" d="M235.415 0.931497C224.131 -10.4153 206.023 -10.4153 194.738 0.931495C183.454 12.2783 183.454 30.486 194.738 41.8328C206.023 53.1796 224.131 53.1796 235.415 41.8328C246.7 30.7499 246.7 12.2783 235.415 0.931497Z" fill="url(#paint50_linear_1116_30134)"/>
<path opacity="0.4" d="M37.1791 187.846C30.5012 181.138 19.7855 181.138 13.1076 187.846C6.42971 194.555 6.42971 205.319 13.1076 212.027C19.7855 218.736 30.5012 218.736 37.1791 212.027C43.857 205.475 43.857 194.555 37.1791 187.846Z" fill="url(#paint51_linear_1116_30134)"/>
<path opacity="0.4" d="M538.699 182.322C535.36 178.968 530.002 178.968 526.663 182.322C523.324 185.676 523.324 191.058 526.663 194.413C530.002 197.767 535.36 197.767 538.699 194.413C542.038 191.136 542.038 185.676 538.699 182.322Z" fill="url(#paint52_linear_1116_30134)"/>
<path d="M148.139 58.855L142.628 61.7577C140.791 62.8132 139.216 64.3965 138.167 65.9797L135.28 71.2573C135.28 71.5212 134.755 71.5212 134.755 71.2573L131.868 65.9797C130.818 64.1326 129.244 62.5493 127.407 61.7577L121.896 58.855C121.633 58.855 121.633 58.3272 121.896 58.3272L127.407 55.4246C129.244 54.369 130.818 52.7858 131.868 51.2025L134.755 45.9249C134.755 45.661 135.28 45.661 135.28 45.9249L138.167 51.2025C139.216 53.0496 140.791 54.6329 142.628 55.4246L148.139 58.3272C148.402 58.3272 148.402 58.5911 148.139 58.855Z" fill="#EFEFEF"/>
<path d="M318.577 194.454L313.066 197.357C311.228 198.412 309.654 199.996 308.604 201.843L305.717 207.384C305.717 207.648 305.193 207.648 305.193 207.384L302.306 201.843C301.256 199.996 299.681 198.412 297.844 197.357L292.333 194.454C292.071 194.454 292.071 193.926 292.333 193.926L297.844 191.024C299.681 189.968 301.256 188.385 302.306 186.538L305.193 180.996C305.193 180.732 305.717 180.732 305.717 180.996L308.604 186.538C309.654 188.385 311.228 189.968 313.066 191.024L318.577 193.926C318.839 194.19 318.839 194.454 318.577 194.454Z" fill="#EFEFEF"/>
<path d="M437.956 90.7571L434.43 92.6127C433.254 93.2874 432.247 94.2995 431.575 95.4803L429.728 99.0228C429.728 99.1915 429.392 99.1915 429.392 99.0228L427.545 95.4803C426.873 94.2995 425.866 93.2874 424.69 92.6127L421.164 90.7571C420.996 90.7571 420.996 90.4198 421.164 90.4198L424.69 88.5642C425.866 87.8895 426.873 86.8774 427.545 85.6966L429.392 82.1542C429.392 81.9855 429.728 81.9855 429.728 82.1542L431.575 85.6966C432.247 86.8774 433.254 87.8895 434.43 88.5642L437.956 90.4198C438.124 90.5885 438.124 90.7571 437.956 90.7571Z" fill="#EFEFEF"/>
<path d="M364.121 147.08L362.022 148.135C361.234 148.399 360.709 149.191 360.447 149.718L359.397 151.83L359.135 151.83L358.085 149.718C357.823 148.927 357.035 148.399 356.511 148.135L354.411 147.08L354.411 146.816L356.511 145.76C357.298 145.496 357.823 144.705 358.085 144.177L359.135 142.066L359.397 142.066L360.447 144.177C360.709 144.969 361.497 145.496 362.022 145.76L364.121 147.08Z" fill="#EFEFEF"/>
<path d="M45.2641 179.275L42.6398 180.858C41.59 181.386 41.0652 182.178 40.5403 182.969L38.9657 185.608L38.7033 185.608L37.1286 182.969C36.6038 181.914 35.8165 181.386 35.0292 180.858L32.4049 179.275L32.4049 179.011L35.0292 177.428C36.0789 176.9 36.6038 176.108 37.1286 175.317L38.7033 172.678L38.9657 172.678L40.5403 175.317C41.0652 176.372 41.8525 176.9 42.6398 177.428L45.2641 179.275C45.5265 179.011 45.5265 179.275 45.2641 179.275Z" fill="#EFEFEF"/>
<path d="M261.961 103.672L258.287 105.783C256.975 106.575 255.925 107.63 255.138 108.949L253.038 112.644C253.038 112.908 252.776 112.908 252.776 112.644L250.676 108.949C249.889 107.63 248.839 106.575 247.527 105.783L243.853 103.672C243.591 103.672 243.591 103.408 243.853 103.408L247.527 101.297C248.839 100.505 249.889 99.4498 250.676 98.1304L252.776 94.4361C252.776 94.1722 253.038 94.1722 253.038 94.4361L255.138 98.1304C255.925 99.4498 256.975 100.505 258.287 101.297L261.961 103.408C261.961 103.408 261.961 103.408 261.961 103.672Z" fill="#EFEFEF"/>
<path d="M205.345 42.8476C203.771 42.8476 202.459 41.5282 202.459 39.9449C202.459 38.3616 203.771 37.0422 205.345 37.0422C206.92 37.0422 208.232 38.3616 208.232 39.9449C208.495 41.5282 207.182 42.8476 205.345 42.8476Z" fill="#EFEFEF"/>
<path d="M658.566 72.1401C656.992 72.1401 655.68 70.8207 655.68 69.2375C655.68 67.6542 656.992 66.3348 658.566 66.3348C660.141 66.3348 661.453 67.6542 661.453 69.2375C661.453 70.5569 660.141 72.1401 658.566 72.1401Z" fill="#EFEFEF"/>
<path d="M604.764 117.789C603.452 117.789 602.664 116.734 602.664 115.678C602.664 114.359 603.714 113.567 604.764 113.567C606.076 113.567 606.863 114.623 606.863 115.678C606.863 116.734 605.814 117.789 604.764 117.789Z" fill="#EFEFEF"/>
<path d="M601.88 108.29C601.093 109.345 599.781 109.345 598.731 108.554C597.681 107.762 597.681 106.443 598.469 105.387C599.256 104.331 600.568 104.331 601.618 105.123C602.668 105.915 602.668 107.498 601.88 108.29Z" fill="#EFEFEF"/>
<path d="M93.5481 131.776C92.7608 132.831 91.4486 132.831 90.3989 132.04C89.3492 131.248 89.3492 129.929 90.1365 128.873C90.9238 127.818 92.2359 127.818 93.2856 128.609C94.0729 129.401 94.3354 130.984 93.5481 131.776Z" fill="#EFEFEF"/>
<path d="M342.857 67.6517C342.069 68.7073 340.757 68.7072 339.708 67.9156C338.658 67.1239 338.658 65.8045 339.445 64.749C340.232 63.6935 341.545 63.6935 342.594 64.4851C343.382 65.2768 343.644 66.5962 342.857 67.6517Z" fill="#EFEFEF"/>
<path d="M415.814 200.648C414.502 202.495 411.877 202.759 410.04 201.176C408.203 199.856 407.941 197.218 409.515 195.37C410.828 193.523 413.452 193.259 415.289 194.843C417.126 196.426 417.388 199.065 415.814 200.648Z" fill="#EFEFEF"/>
<path d="M606.868 99.8449C606.08 99.8449 605.555 99.3171 605.555 98.5255C605.555 97.7338 606.08 97.2061 606.868 97.2061C607.655 97.2061 608.18 97.7338 608.18 98.5255C608.18 99.3171 607.655 99.8449 606.868 99.8449Z" fill="#EFEFEF"/>
<path d="M534.7 43.377C533.912 43.377 533.387 42.8493 533.387 42.0576C533.387 41.266 533.912 40.7382 534.7 40.7382C535.487 40.7382 536.012 41.266 536.012 42.0576C535.749 42.8493 535.224 43.377 534.7 43.377Z" fill="#EFEFEF"/>
<path d="M104.575 136.525C103.787 136.525 103.262 135.997 103.262 135.206C103.262 134.414 103.787 133.886 104.575 133.886C105.362 133.886 105.887 134.414 105.887 135.206C105.624 135.997 105.099 136.525 104.575 136.525Z" fill="#EFEFEF"/>
<path d="M321.602 67.3875C321.602 68.1162 322.19 68.7069 322.914 68.7069C323.639 68.7069 324.227 68.1162 324.227 67.3875C324.227 66.6588 323.639 66.0681 322.914 66.0681C322.19 66.0681 321.602 66.6588 321.602 67.3875Z" fill="#EFEFEF"/>
<path d="M383.539 108.817C382.752 108.817 382.227 108.289 382.227 107.498C382.227 106.706 382.752 106.178 383.539 106.178C384.327 106.178 384.852 106.706 384.852 107.498C384.852 108.289 384.327 108.817 383.539 108.817Z" fill="#EFEFEF"/>
<path d="M389.837 200.386C388.525 200.386 387.475 199.33 387.475 198.011C387.475 196.691 388.525 195.636 389.837 195.636C391.15 195.636 392.199 196.691 392.199 198.011C391.937 199.594 390.887 200.386 389.837 200.386Z" fill="#EFEFEF"/>
<path d="M216.891 58.4175C216.104 58.4175 215.579 57.8897 215.579 57.0981C215.579 56.3064 216.104 55.7787 216.891 55.7787C217.678 55.7787 218.203 56.3064 218.203 57.0981C218.203 57.8897 217.416 58.4175 216.891 58.4175Z" fill="#EFEFEF"/>
</g>
<defs>
<linearGradient id="paint0_linear_1116_30134" x1="0.182805" y1="-99.797" x2="932.119" y2="836.1" gradientUnits="userSpaceOnUse">
<stop stop-color="#271A6B"/>
<stop offset="0.2115" stop-color="#2E1B71"/>
<stop offset="0.5268" stop-color="#431E81"/>
<stop offset="0.9052" stop-color="#64249B"/>
<stop offset="1" stop-color="#6D25A2"/>
</linearGradient>
<radialGradient id="paint1_radial_1116_30134" cx="0" cy="0" r="1" gradientUnits="userSpaceOnUse" gradientTransform="translate(57.175 59.467) rotate(-15.0651) scale(47.4318 46.9162)">
<stop stop-color="#F20074"/>
<stop offset="0.4293" stop-color="#F00175" stop-opacity="0.5707"/>
<stop offset="0.584" stop-color="#E90578" stop-opacity="0.416"/>
<stop offset="0.6943" stop-color="#DE0B7D" stop-opacity="0.3057"/>
<stop offset="0.7834" stop-color="#CD1585" stop-opacity="0.2166"/>
<stop offset="0.8597" stop-color="#B7218E" stop-opacity="0.1403"/>
<stop offset="0.9274" stop-color="#9B309A" stop-opacity="0.0726443"/>
<stop offset="0.987" stop-color="#7C42A8" stop-opacity="0.0129876"/>
<stop offset="1" stop-color="#7446AC" stop-opacity="0"/>
</radialGradient>
<radialGradient id="paint2_radial_1116_30134" cx="0" cy="0" r="1" gradientUnits="userSpaceOnUse" gradientTransform="translate(22.0229 24.9246) rotate(-15.0651) scale(103.37 102.247)">
<stop stop-color="#F20074"/>
<stop offset="0.1407" stop-color="#ED0376"/>
<stop offset="0.3069" stop-color="#DF0B7D"/>
<stop offset="0.486" stop-color="#C71887"/>
<stop offset="0.6741" stop-color="#A62A96"/>
<stop offset="0.8675" stop-color="#7B42A9"/>
<stop offset="0.8985" stop-color="#7446AC"/>
</radialGradient>
<radialGradient id="paint3_radial_1116_30134" cx="0" cy="0" r="1" gradientUnits="userSpaceOnUse" gradientTransform="translate(35.0361 39.5804) rotate(-15.0651) scale(46.7669 46.2586)">
<stop stop-color="#F20074"/>
<stop offset="0.1407" stop-color="#ED0376"/>
<stop offset="0.3069" stop-color="#DF0B7D"/>
<stop offset="0.486" stop-color="#C71887"/>
<stop offset="0.6741" stop-color="#A62A96"/>
<stop offset="0.8675" stop-color="#7B42A9"/>
<stop offset="0.8985" stop-color="#7446AC"/>
</radialGradient>
<radialGradient id="paint4_radial_1116_30134" cx="0" cy="0" r="1" gradientUnits="userSpaceOnUse" gradientTransform="translate(110.802 94.6303) rotate(-15.0651) scale(80.3167 79.4437)">
<stop offset="0.0518519" stop-color="#E0A326"/>
<stop offset="0.4493" stop-color="#E0A128" stop-opacity="0.5808"/>
<stop offset="0.5925" stop-color="#DF9C2F" stop-opacity="0.4298"/>
<stop offset="0.6945" stop-color="#DD923A" stop-opacity="0.3222"/>
<stop offset="0.777" stop-color="#DB844B" stop-opacity="0.2352"/>
<stop offset="0.8477" stop-color="#D87261" stop-opacity="0.1607"/>
<stop offset="0.9102" stop-color="#D45B7D" stop-opacity="0.0946935"/>
<stop offset="0.9654" stop-color="#CF419C" stop-opacity="0.0364942"/>
<stop offset="1" stop-color="#CC2DB4" stop-opacity="0"/>
</radialGradient>
<radialGradient id="paint5_radial_1116_30134" cx="0" cy="0" r="1" gradientUnits="userSpaceOnUse" gradientTransform="translate(27.1204 28.5572) rotate(-15.0651) scale(44.9503 44.4618)">
<stop offset="0.0518519" stop-color="#E0A326"/>
<stop offset="0.4493" stop-color="#E0A128" stop-opacity="0.5808"/>
<stop offset="0.5925" stop-color="#DF9C2F" stop-opacity="0.4298"/>
<stop offset="0.6945" stop-color="#DD923A" stop-opacity="0.3222"/>
<stop offset="0.777" stop-color="#DB844B" stop-opacity="0.2352"/>
<stop offset="0.8477" stop-color="#D87261" stop-opacity="0.1607"/>
<stop offset="0.9102" stop-color="#D45B7D" stop-opacity="0.0946935"/>
<stop offset="0.9654" stop-color="#CF419C" stop-opacity="0.0364942"/>
<stop offset="1" stop-color="#CC2DB4" stop-opacity="0"/>
</radialGradient>
<radialGradient id="paint6_radial_1116_30134" cx="0" cy="0" r="1" gradientUnits="userSpaceOnUse" gradientTransform="translate(26.8414 28.3063) rotate(-15.0651) scale(43.0836 42.6153)">
<stop offset="0.0518519" stop-color="#E0A326"/>
<stop offset="0.4493" stop-color="#E0A128" stop-opacity="0.5808"/>
<stop offset="0.5925" stop-color="#DF9C2F" stop-opacity="0.4298"/>
<stop offset="0.6945" stop-color="#DD923A" stop-opacity="0.3222"/>
<stop offset="0.777" stop-color="#DB844B" stop-opacity="0.2352"/>
<stop offset="0.8477" stop-color="#D87261" stop-opacity="0.1607"/>
<stop offset="0.9102" stop-color="#D45B7D" stop-opacity="0.0946935"/>
<stop offset="0.9654" stop-color="#CF419C" stop-opacity="0.0364942"/>
<stop offset="1" stop-color="#CC2DB4" stop-opacity="0"/>
</radialGradient>
<radialGradient id="paint7_radial_1116_30134" cx="0" cy="0" r="1" gradientUnits="userSpaceOnUse" gradientTransform="translate(20.3684 67.3902) rotate(-15.0651) scale(68.5182 67.7735)">
<stop offset="0.0518519" stop-color="#E0A326"/>
<stop offset="0.4493" stop-color="#E0A128" stop-opacity="0.5808"/>
<stop offset="0.5925" stop-color="#DF9C2F" stop-opacity="0.4298"/>
<stop offset="0.6945" stop-color="#DD923A" stop-opacity="0.3222"/>
<stop offset="0.777" stop-color="#DB844B" stop-opacity="0.2352"/>
<stop offset="0.8477" stop-color="#D87261" stop-opacity="0.1607"/>
<stop offset="0.9102" stop-color="#D45B7D" stop-opacity="0.0946935"/>
<stop offset="0.9654" stop-color="#CF419C" stop-opacity="0.0364942"/>
<stop offset="1" stop-color="#CC2DB4" stop-opacity="0"/>
</radialGradient>
<radialGradient id="paint8_radial_1116_30134" cx="0" cy="0" r="1" gradientUnits="userSpaceOnUse" gradientTransform="translate(32.4323 39.8999) rotate(5.78195) scale(37.8269 37.5769)">
<stop offset="0.0518519" stop-color="#E0A326"/>
<stop offset="0.4493" stop-color="#E0A128" stop-opacity="0.5808"/>
<stop offset="0.5925" stop-color="#DF9C2F" stop-opacity="0.4298"/>
<stop offset="0.6945" stop-color="#DD923A" stop-opacity="0.3222"/>
<stop offset="0.777" stop-color="#DB844B" stop-opacity="0.2352"/>
<stop offset="0.8477" stop-color="#D87261" stop-opacity="0.1607"/>
<stop offset="0.9102" stop-color="#D45B7D" stop-opacity="0.0946935"/>
<stop offset="0.9654" stop-color="#CF419C" stop-opacity="0.0364942"/>
<stop offset="1" stop-color="#CC2DB4" stop-opacity="0"/>
</radialGradient>
<radialGradient id="paint9_radial_1116_30134" cx="0" cy="0" r="1" gradientUnits="userSpaceOnUse" gradientTransform="translate(46.9199 14.4295) rotate(-15.0651) scale(97.5072 96.4474)">
<stop stop-color="#B22390"/>
<stop offset="0.3396" stop-color="#9E2F99"/>
<stop offset="0.8985" stop-color="#7446AC"/>
</radialGradient>
<radialGradient id="paint10_radial_1116_30134" cx="0" cy="0" r="1" gradientUnits="userSpaceOnUse" gradientTransform="translate(46.9128 14.429) rotate(-15.0651) scale(97.5071 96.4473)">
<stop stop-color="#B22390"/>
<stop offset="0.3396" stop-color="#9E2F99"/>
<stop offset="0.8985" stop-color="#7446AC"/>
</radialGradient>
<radialGradient id="paint11_radial_1116_30134" cx="0" cy="0" r="1" gradientUnits="userSpaceOnUse" gradientTransform="translate(46.9151 14.4298) rotate(-15.0651) scale(97.5071 96.4472)">
<stop stop-color="#B22390"/>
<stop offset="0.3396" stop-color="#9E2F99"/>
<stop offset="0.8985" stop-color="#7446AC"/>
</radialGradient>
<radialGradient id="paint12_radial_1116_30134" cx="0" cy="0" r="1" gradientUnits="userSpaceOnUse" gradientTransform="translate(46.9165 14.4297) rotate(-15.0651) scale(97.5073 96.4474)">
<stop stop-color="#B22390"/>
<stop offset="0.3396" stop-color="#9E2F99"/>
<stop offset="0.8985" stop-color="#7446AC"/>
</radialGradient>
<radialGradient id="paint13_radial_1116_30134" cx="0" cy="0" r="1" gradientUnits="userSpaceOnUse" gradientTransform="translate(46.9144 14.4304) rotate(-15.0651) scale(97.507 96.4471)">
<stop stop-color="#B22390"/>
<stop offset="0.3396" stop-color="#9E2F99"/>
<stop offset="0.8985" stop-color="#7446AC"/>
</radialGradient>
<radialGradient id="paint14_radial_1116_30134" cx="0" cy="0" r="1" gradientUnits="userSpaceOnUse" gradientTransform="translate(46.9126 14.4309) rotate(-15.0651) scale(97.5072 96.4472)">
<stop stop-color="#B22390"/>
<stop offset="0.3396" stop-color="#9E2F99"/>
<stop offset="0.8985" stop-color="#7446AC"/>
</radialGradient>
<radialGradient id="paint15_radial_1116_30134" cx="0" cy="0" r="1" gradientUnits="userSpaceOnUse" gradientTransform="translate(46.9165 14.4293) rotate(-15.0651) scale(97.5073 96.4475)">
<stop stop-color="#B22390"/>
<stop offset="0.3396" stop-color="#9E2F99"/>
<stop offset="0.8985" stop-color="#7446AC"/>
</radialGradient>
<radialGradient id="paint16_radial_1116_30134" cx="0" cy="0" r="1" gradientUnits="userSpaceOnUse" gradientTransform="translate(52.1875 28.55) rotate(-15.0651) scale(71.6353 70.8567)">
<stop stop-color="#F20074"/>
<stop offset="0.1407" stop-color="#ED0376"/>
<stop offset="0.3069" stop-color="#DF0B7D"/>
<stop offset="0.486" stop-color="#C71887"/>
<stop offset="0.6741" stop-color="#A62A96"/>
<stop offset="0.8675" stop-color="#7B42A9"/>
<stop offset="0.8985" stop-color="#7446AC"/>
</radialGradient>
<radialGradient id="paint17_radial_1116_30134" cx="0" cy="0" r="1" gradientUnits="userSpaceOnUse" gradientTransform="translate(53.521 14.9331) rotate(-15.0651) scale(100.341 99.2504)">
<stop offset="0.0518519" stop-color="#E0A326"/>
<stop offset="0.4493" stop-color="#E0A128" stop-opacity="0.5808"/>
<stop offset="0.5925" stop-color="#DF9C2F" stop-opacity="0.4298"/>
<stop offset="0.6945" stop-color="#DD923A" stop-opacity="0.3222"/>
<stop offset="0.777" stop-color="#DB844B" stop-opacity="0.2352"/>
<stop offset="0.8477" stop-color="#D87261" stop-opacity="0.1607"/>
<stop offset="0.9102" stop-color="#D45B7D" stop-opacity="0.0946935"/>
<stop offset="0.9654" stop-color="#CF419C" stop-opacity="0.0364942"/>
<stop offset="1" stop-color="#CC2DB4" stop-opacity="0"/>
</radialGradient>
<radialGradient id="paint18_radial_1116_30134" cx="0" cy="0" r="1" gradientUnits="userSpaceOnUse" gradientTransform="translate(53.5188 14.9323) rotate(-15.0651) scale(100.341 99.2507)">
<stop offset="0.0518519" stop-color="#E0A326"/>
<stop offset="0.4493" stop-color="#E0A128" stop-opacity="0.5808"/>
<stop offset="0.5925" stop-color="#DF9C2F" stop-opacity="0.4298"/>
<stop offset="0.6945" stop-color="#DD923A" stop-opacity="0.3222"/>
<stop offset="0.777" stop-color="#DB844B" stop-opacity="0.2352"/>
<stop offset="0.8477" stop-color="#D87261" stop-opacity="0.1607"/>
<stop offset="0.9102" stop-color="#D45B7D" stop-opacity="0.0946935"/>
<stop offset="0.9654" stop-color="#CF419C" stop-opacity="0.0364942"/>
<stop offset="1" stop-color="#CC2DB4" stop-opacity="0"/>
</radialGradient>
<radialGradient id="paint19_radial_1116_30134" cx="0" cy="0" r="1" gradientUnits="userSpaceOnUse" gradientTransform="translate(53.5221 14.9336) rotate(-15.0651) scale(100.342 99.2509)">
<stop offset="0.0518519" stop-color="#E0A326"/>
<stop offset="0.4493" stop-color="#E0A128" stop-opacity="0.5808"/>
<stop offset="0.5925" stop-color="#DF9C2F" stop-opacity="0.4298"/>
<stop offset="0.6945" stop-color="#DD923A" stop-opacity="0.3222"/>
<stop offset="0.777" stop-color="#DB844B" stop-opacity="0.2352"/>
<stop offset="0.8477" stop-color="#D87261" stop-opacity="0.1607"/>
<stop offset="0.9102" stop-color="#D45B7D" stop-opacity="0.0946935"/>
<stop offset="0.9654" stop-color="#CF419C" stop-opacity="0.0364942"/>
<stop offset="1" stop-color="#CC2DB4" stop-opacity="0"/>
</radialGradient>
<radialGradient id="paint20_radial_1116_30134" cx="0" cy="0" r="1" gradientUnits="userSpaceOnUse" gradientTransform="translate(53.5196 14.934) rotate(-15.0651) scale(100.341 99.2505)">
<stop offset="0.0518519" stop-color="#E0A326"/>
<stop offset="0.4493" stop-color="#E0A128" stop-opacity="0.5808"/>
<stop offset="0.5925" stop-color="#DF9C2F" stop-opacity="0.4298"/>
<stop offset="0.6945" stop-color="#DD923A" stop-opacity="0.3222"/>
<stop offset="0.777" stop-color="#DB844B" stop-opacity="0.2352"/>
<stop offset="0.8477" stop-color="#D87261" stop-opacity="0.1607"/>
<stop offset="0.9102" stop-color="#D45B7D" stop-opacity="0.0946935"/>
<stop offset="0.9654" stop-color="#CF419C" stop-opacity="0.0364942"/>
<stop offset="1" stop-color="#CC2DB4" stop-opacity="0"/>
</radialGradient>
<radialGradient id="paint21_radial_1116_30134" cx="0" cy="0" r="1" gradientUnits="userSpaceOnUse" gradientTransform="translate(53.5218 14.9332) rotate(-15.0651) scale(100.341 99.2504)">
<stop offset="0.0518519" stop-color="#E0A326"/>
<stop offset="0.4493" stop-color="#E0A128" stop-opacity="0.5808"/>
<stop offset="0.5925" stop-color="#DF9C2F" stop-opacity="0.4298"/>
<stop offset="0.6945" stop-color="#DD923A" stop-opacity="0.3222"/>
<stop offset="0.777" stop-color="#DB844B" stop-opacity="0.2352"/>
<stop offset="0.8477" stop-color="#D87261" stop-opacity="0.1607"/>
<stop offset="0.9102" stop-color="#D45B7D" stop-opacity="0.0946935"/>
<stop offset="0.9654" stop-color="#CF419C" stop-opacity="0.0364942"/>
<stop offset="1" stop-color="#CC2DB4" stop-opacity="0"/>
</radialGradient>
<radialGradient id="paint22_radial_1116_30134" cx="0" cy="0" r="1" gradientUnits="userSpaceOnUse" gradientTransform="translate(53.5245 14.9339) rotate(-15.0651) scale(100.341 99.2504)">
<stop offset="0.0518519" stop-color="#E0A326"/>
<stop offset="0.4493" stop-color="#E0A128" stop-opacity="0.5808"/>
<stop offset="0.5925" stop-color="#DF9C2F" stop-opacity="0.4298"/>
<stop offset="0.6945" stop-color="#DD923A" stop-opacity="0.3222"/>
<stop offset="0.777" stop-color="#DB844B" stop-opacity="0.2352"/>
<stop offset="0.8477" stop-color="#D87261" stop-opacity="0.1607"/>
<stop offset="0.9102" stop-color="#D45B7D" stop-opacity="0.0946935"/>
<stop offset="0.9654" stop-color="#CF419C" stop-opacity="0.0364942"/>
<stop offset="1" stop-color="#CC2DB4" stop-opacity="0"/>
</radialGradient>
<radialGradient id="paint23_radial_1116_30134" cx="0" cy="0" r="1" gradientUnits="userSpaceOnUse" gradientTransform="translate(53.5164 14.9321) rotate(-15.0651) scale(100.342 99.2509)">
<stop offset="0.0518519" stop-color="#E0A326"/>
<stop offset="0.4493" stop-color="#E0A128" stop-opacity="0.5808"/>
<stop offset="0.5925" stop-color="#DF9C2F" stop-opacity="0.4298"/>
<stop offset="0.6945" stop-color="#DD923A" stop-opacity="0.3222"/>
<stop offset="0.777" stop-color="#DB844B" stop-opacity="0.2352"/>
<stop offset="0.8477" stop-color="#D87261" stop-opacity="0.1607"/>
<stop offset="0.9102" stop-color="#D45B7D" stop-opacity="0.0946935"/>
<stop offset="0.9654" stop-color="#CF419C" stop-opacity="0.0364942"/>
<stop offset="1" stop-color="#CC2DB4" stop-opacity="0"/>
</radialGradient>
<radialGradient id="paint24_radial_1116_30134" cx="0" cy="0" r="1" gradientUnits="userSpaceOnUse" gradientTransform="translate(51.0703 20.6257) rotate(-15.0651) scale(88.0091 87.0525)">
<stop stop-color="#F20074"/>
<stop offset="0.1407" stop-color="#ED0376"/>
<stop offset="0.3069" stop-color="#DF0B7D"/>
<stop offset="0.486" stop-color="#C71887"/>
<stop offset="0.6741" stop-color="#A62A96"/>
<stop offset="0.8675" stop-color="#7B42A9"/>
<stop offset="0.8985" stop-color="#7446AC"/>
</radialGradient>
<radialGradient id="paint25_radial_1116_30134" cx="0" cy="0" r="1" gradientUnits="userSpaceOnUse" gradientTransform="translate(63.3895 80.7112) rotate(-15.0651) scale(0.569926 0.563735)">
<stop stop-color="#F20074"/>
<stop offset="0.1407" stop-color="#ED0376"/>
<stop offset="0.3069" stop-color="#DF0B7D"/>
<stop offset="0.486" stop-color="#C71887"/>
<stop offset="0.6741" stop-color="#A62A96"/>
<stop offset="0.8675" stop-color="#7B42A9"/>
<stop offset="0.8985" stop-color="#7446AC"/>
</radialGradient>
<radialGradient id="paint26_radial_1116_30134" cx="0" cy="0" r="1" gradientUnits="userSpaceOnUse" gradientTransform="translate(64.143 87.0418) rotate(-15.0651) scale(0.569926 0.563735)">
<stop stop-color="#F20074"/>
<stop offset="0.1407" stop-color="#ED0376"/>
<stop offset="0.3069" stop-color="#DF0B7D"/>
<stop offset="0.486" stop-color="#C71887"/>
<stop offset="0.6741" stop-color="#A62A96"/>
<stop offset="0.8675" stop-color="#7B42A9"/>
<stop offset="0.8985" stop-color="#7446AC"/>
</radialGradient>
<radialGradient id="paint27_radial_1116_30134" cx="0" cy="0" r="1" gradientUnits="userSpaceOnUse" gradientTransform="translate(71.2388 84.6219) rotate(-15.0651) scale(0.569928 0.563732)">
<stop stop-color="#F20074"/>
<stop offset="0.1407" stop-color="#ED0376"/>
<stop offset="0.3069" stop-color="#DF0B7D"/>
<stop offset="0.486" stop-color="#C71887"/>
<stop offset="0.6741" stop-color="#A62A96"/>
<stop offset="0.8675" stop-color="#7B42A9"/>
<stop offset="0.8985" stop-color="#7446AC"/>
</radialGradient>
<radialGradient id="paint28_radial_1116_30134" cx="0" cy="0" r="1" gradientUnits="userSpaceOnUse" gradientTransform="translate(80.9429 66.0803) rotate(-15.0651) scale(0.569925 0.563732)">
<stop stop-color="#F20074"/>
<stop offset="0.1407" stop-color="#ED0376"/>
<stop offset="0.3069" stop-color="#DF0B7D"/>
<stop offset="0.486" stop-color="#C71887"/>
<stop offset="0.6741" stop-color="#A62A96"/>
<stop offset="0.8675" stop-color="#7B42A9"/>
<stop offset="0.8985" stop-color="#7446AC"/>
</radialGradient>
<radialGradient id="paint29_radial_1116_30134" cx="0" cy="0" r="1" gradientUnits="userSpaceOnUse" gradientTransform="translate(84 65.5629) rotate(-15.0651) scale(0.569931 0.56373)">
<stop stop-color="#F20074"/>
<stop offset="0.1407" stop-color="#ED0376"/>
<stop offset="0.3069" stop-color="#DF0B7D"/>
<stop offset="0.486" stop-color="#C71887"/>
<stop offset="0.6741" stop-color="#A62A96"/>
<stop offset="0.8675" stop-color="#7B42A9"/>
<stop offset="0.8985" stop-color="#7446AC"/>
</radialGradient>
<radialGradient id="paint30_radial_1116_30134" cx="0" cy="0" r="1" gradientUnits="userSpaceOnUse" gradientTransform="translate(93.3623 51.9145) rotate(-15.0651) scale(0.569931 0.563737)">
<stop stop-color="#F20074"/>
<stop offset="0.1407" stop-color="#ED0376"/>
<stop offset="0.3069" stop-color="#DF0B7D"/>
<stop offset="0.486" stop-color="#C71887"/>
<stop offset="0.6741" stop-color="#A62A96"/>
<stop offset="0.8675" stop-color="#7B42A9"/>
<stop offset="0.8985" stop-color="#7446AC"/>
</radialGradient>
<radialGradient id="paint31_radial_1116_30134" cx="0" cy="0" r="1" gradientUnits="userSpaceOnUse" gradientTransform="translate(21.5214 70.7407) rotate(-15.0651) scale(0.569928 0.563735)">
<stop stop-color="#F20074"/>
<stop offset="0.1407" stop-color="#ED0376"/>
<stop offset="0.3069" stop-color="#DF0B7D"/>
<stop offset="0.486" stop-color="#C71887"/>
<stop offset="0.6741" stop-color="#A62A96"/>
<stop offset="0.8675" stop-color="#7B42A9"/>
<stop offset="0.8985" stop-color="#7446AC"/>
</radialGradient>
<radialGradient id="paint32_radial_1116_30134" cx="0" cy="0" r="1" gradientUnits="userSpaceOnUse" gradientTransform="translate(26.3157 75.5757) rotate(-15.0651) scale(0.569926 0.563735)">
<stop stop-color="#F20074"/>
<stop offset="0.1407" stop-color="#ED0376"/>
<stop offset="0.3069" stop-color="#DF0B7D"/>
<stop offset="0.486" stop-color="#C71887"/>
<stop offset="0.6741" stop-color="#A62A96"/>
<stop offset="0.8675" stop-color="#7B42A9"/>
<stop offset="0.8985" stop-color="#7446AC"/>
</radialGradient>
<radialGradient id="paint33_radial_1116_30134" cx="0" cy="0" r="1" gradientUnits="userSpaceOnUse" gradientTransform="translate(36.6368 90.6683) rotate(-15.0651) scale(0.569924 0.563732)">
<stop stop-color="#F20074"/>
<stop offset="0.1407" stop-color="#ED0376"/>
<stop offset="0.3069" stop-color="#DF0B7D"/>
<stop offset="0.486" stop-color="#C71887"/>
<stop offset="0.6741" stop-color="#A62A96"/>
<stop offset="0.8675" stop-color="#7B42A9"/>
<stop offset="0.8985" stop-color="#7446AC"/>
</radialGradient>
<radialGradient id="paint34_radial_1116_30134" cx="0" cy="0" r="1" gradientUnits="userSpaceOnUse" gradientTransform="translate(40.2249 87.8632) rotate(-15.0651) scale(0.569924 0.563732)">
<stop stop-color="#F20074"/>
<stop offset="0.1407" stop-color="#ED0376"/>
<stop offset="0.3069" stop-color="#DF0B7D"/>
<stop offset="0.486" stop-color="#C71887"/>
<stop offset="0.6741" stop-color="#A62A96"/>
<stop offset="0.8675" stop-color="#7B42A9"/>
<stop offset="0.8985" stop-color="#7446AC"/>
</radialGradient>
<radialGradient id="paint35_radial_1116_30134" cx="0" cy="0" r="1" gradientUnits="userSpaceOnUse" gradientTransform="translate(52.0304 96.9401) rotate(-15.0651) scale(0.569931 0.563735)">
<stop stop-color="#F20074"/>
<stop offset="0.1407" stop-color="#ED0376"/>
<stop offset="0.3069" stop-color="#DF0B7D"/>
<stop offset="0.486" stop-color="#C71887"/>
<stop offset="0.6741" stop-color="#A62A96"/>
<stop offset="0.8675" stop-color="#7B42A9"/>
<stop offset="0.8985" stop-color="#7446AC"/>
</radialGradient>
<radialGradient id="paint36_radial_1116_30134" cx="0" cy="0" r="1" gradientUnits="userSpaceOnUse" gradientTransform="translate(77.3361 91.2515) rotate(-15.0651) scale(0.569931 0.56373)">
<stop stop-color="#F20074"/>
<stop offset="0.1407" stop-color="#ED0376"/>
<stop offset="0.3069" stop-color="#DF0B7D"/>
<stop offset="0.486" stop-color="#C71887"/>
<stop offset="0.6741" stop-color="#A62A96"/>
<stop offset="0.8675" stop-color="#7B42A9"/>
<stop offset="0.8985" stop-color="#7446AC"/>
</radialGradient>
<radialGradient id="paint37_radial_1116_30134" cx="0" cy="0" r="1" gradientUnits="userSpaceOnUse" gradientTransform="translate(81.1874 92.155) rotate(-15.0651) scale(0.569931 0.563732)">
<stop stop-color="#F20074"/>
<stop offset="0.1407" stop-color="#ED0376"/>
<stop offset="0.3069" stop-color="#DF0B7D"/>
<stop offset="0.486" stop-color="#C71887"/>
<stop offset="0.6741" stop-color="#A62A96"/>
<stop offset="0.8675" stop-color="#7B42A9"/>
<stop offset="0.8985" stop-color="#7446AC"/>
</radialGradient>
<radialGradient id="paint38_radial_1116_30134" cx="0" cy="0" r="1" gradientUnits="userSpaceOnUse" gradientTransform="translate(62.0463 34.3038) rotate(-15.0651) scale(0.56992 0.563732)">
<stop stop-color="#F20074"/>
<stop offset="0.1407" stop-color="#ED0376"/>
<stop offset="0.3069" stop-color="#DF0B7D"/>
<stop offset="0.486" stop-color="#C71887"/>
<stop offset="0.6741" stop-color="#A62A96"/>
<stop offset="0.8675" stop-color="#7B42A9"/>
<stop offset="0.8985" stop-color="#7446AC"/>
</radialGradient>
<radialGradient id="paint39_radial_1116_30134" cx="0" cy="0" r="1" gradientUnits="userSpaceOnUse" gradientTransform="translate(64.8865 31.8046) rotate(-15.0651) scale(0.569926 0.563732)">
<stop stop-color="#F20074"/>
<stop offset="0.1407" stop-color="#ED0376"/>
<stop offset="0.3069" stop-color="#DF0B7D"/>
<stop offset="0.486" stop-color="#C71887"/>
<stop offset="0.6741" stop-color="#A62A96"/>
<stop offset="0.8675" stop-color="#7B42A9"/>
<stop offset="0.8985" stop-color="#7446AC"/>
</radialGradient>
<radialGradient id="paint40_radial_1116_30134" cx="0" cy="0" r="1" gradientUnits="userSpaceOnUse" gradientTransform="translate(26.3654 51.7719) rotate(-15.0651) scale(0.569926 0.563734)">
<stop stop-color="#F20074"/>
<stop offset="0.1407" stop-color="#ED0376"/>
<stop offset="0.3069" stop-color="#DF0B7D"/>
<stop offset="0.486" stop-color="#C71887"/>
<stop offset="0.6741" stop-color="#A62A96"/>
<stop offset="0.8675" stop-color="#7B42A9"/>
<stop offset="0.8985" stop-color="#7446AC"/>
</radialGradient>
<radialGradient id="paint41_radial_1116_30134" cx="0" cy="0" r="1" gradientUnits="userSpaceOnUse" gradientTransform="translate(24.3562 44.2454) rotate(-15.0651) scale(0.569926 0.563734)">
<stop stop-color="#F20074"/>
<stop offset="0.1407" stop-color="#ED0376"/>
<stop offset="0.3069" stop-color="#DF0B7D"/>
<stop offset="0.486" stop-color="#C71887"/>
<stop offset="0.6741" stop-color="#A62A96"/>
<stop offset="0.8675" stop-color="#7B42A9"/>
<stop offset="0.8985" stop-color="#7446AC"/>
</radialGradient>
<radialGradient id="paint42_radial_1116_30134" cx="0" cy="0" r="1" gradientUnits="userSpaceOnUse" gradientTransform="translate(34.1624 51.2058) rotate(-15.0651) scale(0.569926 0.563732)">
<stop stop-color="#F20074"/>
<stop offset="0.1407" stop-color="#ED0376"/>
<stop offset="0.3069" stop-color="#DF0B7D"/>
<stop offset="0.486" stop-color="#C71887"/>
<stop offset="0.6741" stop-color="#A62A96"/>
<stop offset="0.8675" stop-color="#7B42A9"/>
<stop offset="0.8985" stop-color="#7446AC"/>
</radialGradient>
<radialGradient id="paint43_radial_1116_30134" cx="0" cy="0" r="1" gradientUnits="userSpaceOnUse" gradientTransform="translate(35.2048 53.5791) rotate(-15.0651) scale(0.569931 0.563734)">
<stop stop-color="#F20074"/>
<stop offset="0.1407" stop-color="#ED0376"/>
<stop offset="0.3069" stop-color="#DF0B7D"/>
<stop offset="0.486" stop-color="#C71887"/>
<stop offset="0.6741" stop-color="#A62A96"/>
<stop offset="0.8675" stop-color="#7B42A9"/>
<stop offset="0.8985" stop-color="#7446AC"/>
</radialGradient>
<radialGradient id="paint44_radial_1116_30134" cx="0" cy="0" r="1" gradientUnits="userSpaceOnUse" gradientTransform="translate(49.0712 28.6065) rotate(-15.0651) scale(0.569926 0.563734)">
<stop stop-color="#F20074"/>
<stop offset="0.1407" stop-color="#ED0376"/>
<stop offset="0.3069" stop-color="#DF0B7D"/>
<stop offset="0.486" stop-color="#C71887"/>
<stop offset="0.6741" stop-color="#A62A96"/>
<stop offset="0.8675" stop-color="#7B42A9"/>
<stop offset="0.8985" stop-color="#7446AC"/>
</radialGradient>
<radialGradient id="paint45_radial_1116_30134" cx="0" cy="0" r="1" gradientUnits="userSpaceOnUse" gradientTransform="translate(48.5239 25.3853) rotate(-15.0651) scale(0.569928 0.563733)">
<stop stop-color="#F20074"/>
<stop offset="0.1407" stop-color="#ED0376"/>
<stop offset="0.3069" stop-color="#DF0B7D"/>
<stop offset="0.486" stop-color="#C71887"/>
<stop offset="0.6741" stop-color="#A62A96"/>
<stop offset="0.8675" stop-color="#7B42A9"/>
<stop offset="0.8985" stop-color="#7446AC"/>
</radialGradient>
<radialGradient id="paint46_radial_1116_30134" cx="0" cy="0" r="1" gradientUnits="userSpaceOnUse" gradientTransform="translate(55.7959 23.6316) rotate(-15.0651) scale(0.569928 0.563734)">
<stop stop-color="#F20074"/>
<stop offset="0.1407" stop-color="#ED0376"/>
<stop offset="0.3069" stop-color="#DF0B7D"/>
<stop offset="0.486" stop-color="#C71887"/>
<stop offset="0.6741" stop-color="#A62A96"/>
<stop offset="0.8675" stop-color="#7B42A9"/>
<stop offset="0.8985" stop-color="#7446AC"/>
</radialGradient>
<radialGradient id="paint47_radial_1116_30134" cx="0" cy="0" r="1" gradientUnits="userSpaceOnUse" gradientTransform="translate(57.2342 21.3025) rotate(-15.0651) scale(0.569928 0.563733)">
<stop stop-color="#F20074"/>
<stop offset="0.1407" stop-color="#ED0376"/>
<stop offset="0.3069" stop-color="#DF0B7D"/>
<stop offset="0.486" stop-color="#C71887"/>
<stop offset="0.6741" stop-color="#A62A96"/>
<stop offset="0.8675" stop-color="#7B42A9"/>
<stop offset="0.8985" stop-color="#7446AC"/>
</radialGradient>
<linearGradient id="paint48_linear_1116_30134" x1="-5.10095" y1="134.408" x2="552.998" y2="175.531" gradientUnits="userSpaceOnUse">
<stop stop-color="#BD1ACD"/>
<stop offset="0.193" stop-color="#B61BC9"/>
<stop offset="0.4806" stop-color="#A11EBE"/>
<stop offset="0.8258" stop-color="#8022AC"/>
<stop offset="1" stop-color="#6D25A2"/>
</linearGradient>
<linearGradient id="paint49_linear_1116_30134" x1="945.384" y1="-130.861" x2="1007.66" y2="312.385" gradientUnits="userSpaceOnUse">
<stop stop-color="#BD1ACD"/>
<stop offset="0.193" stop-color="#B61BC9"/>
<stop offset="0.4806" stop-color="#A11EBE"/>
<stop offset="0.8258" stop-color="#8022AC"/>
<stop offset="1" stop-color="#6D25A2"/>
</linearGradient>
<linearGradient id="paint50_linear_1116_30134" x1="215.065" y1="-7.43454" x2="215.065" y2="50.3564" gradientUnits="userSpaceOnUse">
<stop stop-color="#BD1ACD"/>
<stop offset="0.193" stop-color="#B61BC9"/>
<stop offset="0.4806" stop-color="#A11EBE"/>
<stop offset="0.8258" stop-color="#8022AC"/>
<stop offset="1" stop-color="#6D25A2"/>
</linearGradient>
<linearGradient id="paint51_linear_1116_30134" x1="25.1362" y1="182.9" x2="25.1362" y2="217.067" gradientUnits="userSpaceOnUse">
<stop stop-color="#BD1ACD"/>
<stop offset="0.193" stop-color="#B61BC9"/>
<stop offset="0.4806" stop-color="#A11EBE"/>
<stop offset="0.8258" stop-color="#8022AC"/>
<stop offset="1" stop-color="#6D25A2"/>
</linearGradient>
<linearGradient id="paint52_linear_1116_30134" x1="532.677" y1="179.849" x2="532.677" y2="196.932" gradientUnits="userSpaceOnUse">
<stop stop-color="#BD1ACD"/>
<stop offset="0.193" stop-color="#B61BC9"/>
<stop offset="0.4806" stop-color="#A11EBE"/>
<stop offset="0.8258" stop-color="#8022AC"/>
<stop offset="1" stop-color="#6D25A2"/>
</linearGradient>
</defs>
</svg>
