<svg width="168" height="107" viewBox="0 0 168 107" fill="none" xmlns="http://www.w3.org/2000/svg">
<g clip-path="url(#clip0_1151_37740)">
<path d="M90.4388 0.7037C61.3305 -2.42381 35.1971 18.7455 32.086 48.0269C28.9749 77.2886 50.0333 103.56 79.161 106.707C108.269 109.834 134.403 88.665 137.533 59.3836C140.625 30.1219 119.567 3.85076 90.4388 0.7037ZM87.9499 78.0314C73.9888 80.7094 60.4944 71.5027 57.8305 57.4485C55.1666 43.4138 64.3249 29.8482 78.3055 27.1703C92.286 24.4923 105.761 33.699 108.425 47.7532C111.089 61.8075 101.93 75.3535 87.9499 78.0314Z" fill="url(#paint0_linear_1151_37740)"/>
<path d="M63.0997 16.009C63.3253 16.009 63.5081 15.8252 63.5081 15.5985C63.5081 15.3718 63.3253 15.188 63.0997 15.188C62.8742 15.188 62.6914 15.3718 62.6914 15.5985C62.6914 15.8252 62.8742 16.009 63.0997 16.009Z" fill="#D1FFFF"/>
<path d="M112.549 34.3635C112.774 34.3635 112.957 34.1798 112.957 33.9531C112.957 33.7264 112.774 33.5426 112.549 33.5426C112.323 33.5426 112.141 33.7264 112.141 33.9531C112.141 34.1798 112.323 34.3635 112.549 34.3635Z" fill="#D1FFFF"/>
<path d="M94.2872 81.7844C94.5128 81.7844 94.6956 81.6007 94.6956 81.374C94.6956 81.1473 94.5128 80.9635 94.2872 80.9635C94.0617 80.9635 93.8789 81.1473 93.8789 81.374C93.8789 81.6007 94.0617 81.7844 94.2872 81.7844Z" fill="#D1FFFF"/>
<path opacity="0.56" d="M124.272 28.5386C124.497 28.5386 124.68 28.3548 124.68 28.1281C124.68 27.9014 124.497 27.7176 124.272 27.7176C124.046 27.7176 123.863 27.9014 123.863 28.1281C123.863 28.3548 124.046 28.5386 124.272 28.5386Z" fill="#D1FFFF"/>
<path opacity="0.56" d="M130.436 65.0132C130.661 65.0132 130.844 64.8294 130.844 64.6027C130.844 64.376 130.661 64.1922 130.436 64.1922C130.21 64.1922 130.027 64.376 130.027 64.6027C130.027 64.8294 130.21 65.0132 130.436 65.0132Z" fill="#D1FFFF"/>
<path opacity="0.49" d="M40.4669 42.4755C40.6924 42.4755 40.8753 42.2918 40.8753 42.0651C40.8753 41.8384 40.6924 41.6546 40.4669 41.6546C40.2414 41.6546 40.0586 41.8384 40.0586 42.0651C40.0586 42.2918 40.2414 42.4755 40.4669 42.4755Z" fill="#D1FFFF"/>
<path d="M88.7482 14.1911C88.9737 14.1911 89.1565 14.0073 89.1565 13.7806C89.1565 13.5539 88.9737 13.3701 88.7482 13.3701C88.5227 13.3701 88.3398 13.5539 88.3398 13.7806C88.3398 14.0073 88.5227 14.1911 88.7482 14.1911Z" fill="#D1FFFF"/>
<path opacity="0.56" d="M115.482 83.9737C115.74 83.9737 115.949 83.7637 115.949 83.5046C115.949 83.2455 115.74 83.0355 115.482 83.0355C115.225 83.0355 115.016 83.2455 115.016 83.5046C115.016 83.7637 115.225 83.9737 115.482 83.9737Z" fill="#D1FFFF"/>
<path opacity="0.56" d="M81.9044 97.0506C82.1299 97.0506 82.3128 96.8668 82.3128 96.6401C82.3128 96.4134 82.1299 96.2296 81.9044 96.2296C81.6789 96.2296 81.4961 96.4134 81.4961 96.6401C81.4961 96.8668 81.6789 97.0506 81.9044 97.0506Z" fill="#D1FFFF"/>
<path d="M55.1466 86.1825C55.3721 86.1825 55.555 85.9987 55.555 85.772C55.555 85.5453 55.3721 85.3615 55.1466 85.3615C54.9211 85.3615 54.7383 85.5453 54.7383 85.772C54.7383 85.9987 54.9211 86.1825 55.1466 86.1825Z" fill="#D1FFFF"/>
<path opacity="0.56" d="M51.7643 79.6343C51.9254 79.6343 52.056 79.503 52.056 79.3411C52.056 79.1792 51.9254 79.0479 51.7643 79.0479C51.6032 79.0479 51.4727 79.1792 51.4727 79.3411C51.4727 79.503 51.6032 79.6343 51.7643 79.6343Z" fill="#D1FFFF"/>
<path opacity="0.56" d="M53.4161 31.7443C53.6417 31.7443 53.8245 31.5605 53.8245 31.3338C53.8245 31.1071 53.6417 30.9233 53.4161 30.9233C53.1906 30.9233 53.0078 31.1071 53.0078 31.3338C53.0078 31.5605 53.1906 31.7443 53.4161 31.7443Z" fill="#D1FFFF"/>
<path opacity="0.56" d="M76.0685 12.9596C76.294 12.9596 76.4768 12.7759 76.4768 12.5492C76.4768 12.3225 76.294 12.1387 76.0685 12.1387C75.843 12.1387 75.6602 12.3225 75.6602 12.5492C75.6602 12.7759 75.843 12.9596 76.0685 12.9596Z" fill="#D1FFFF"/>
<path opacity="0.56" d="M101.154 77.8164C101.38 77.8164 101.563 77.6326 101.563 77.4059C101.563 77.1792 101.38 76.9955 101.154 76.9955C100.929 76.9955 100.746 77.1792 100.746 77.4059C100.746 77.6326 100.929 77.8164 101.154 77.8164Z" fill="#D1FFFF"/>
<path opacity="0.56" d="M111.557 65.0132C111.782 65.0132 111.965 64.8294 111.965 64.6027C111.965 64.376 111.782 64.1922 111.557 64.1922C111.331 64.1922 111.148 64.376 111.148 64.6027C111.148 64.8294 111.331 65.0132 111.557 65.0132Z" fill="#D1FFFF"/>
<path opacity="0.56" d="M126.937 54.2819C127.044 54.2819 127.131 54.1944 127.131 54.0864C127.131 53.9785 127.044 53.891 126.937 53.891C126.829 53.891 126.742 53.9785 126.742 54.0864C126.742 54.1944 126.829 54.2819 126.937 54.2819Z" fill="#D1FFFF"/>
<path opacity="0.56" d="M99.4211 99.2399C99.5177 99.2399 99.5961 99.1611 99.5961 99.064C99.5961 98.9668 99.5177 98.888 99.4211 98.888C99.3244 98.888 99.2461 98.9668 99.2461 99.064C99.2461 99.1611 99.3244 99.2399 99.4211 99.2399Z" fill="#D1FFFF"/>
<path opacity="0.56" d="M79.1435 89.7205C79.2724 89.7205 79.3768 89.6155 79.3768 89.4859C79.3768 89.3564 79.2724 89.2514 79.1435 89.2514C79.0146 89.2514 78.9102 89.3564 78.9102 89.4859C78.9102 89.6155 79.0146 89.7205 79.1435 89.7205Z" fill="#D1FFFF"/>
<path opacity="0.56" d="M56.5878 73.9852C56.8348 73.9852 57.0351 73.7839 57.0351 73.5356C57.0351 73.2873 56.8348 73.0861 56.5878 73.0861C56.3409 73.0861 56.1406 73.2873 56.1406 73.5356C56.1406 73.7839 56.3409 73.9852 56.5878 73.9852Z" fill="#D1FFFF"/>
<path opacity="0.56" d="M51.026 20.7002C51.1871 20.7002 51.3177 20.569 51.3177 20.407C51.3177 20.2451 51.1871 20.1138 51.026 20.1138C50.865 20.1138 50.7344 20.2451 50.7344 20.407C50.7344 20.569 50.865 20.7002 51.026 20.7002Z" fill="#D1FFFF"/>
<path d="M99.8845 57.1162L93.254 74.728C93.0012 75.4317 92.6901 76.0767 92.3207 76.7218C90.8818 77.2886 89.3651 77.7187 87.7901 78.0314C78.3984 79.8297 69.2012 76.2526 63.3873 69.4308C61.0929 66.7528 59.3234 63.5667 58.2734 59.9896L62.804 47.9291L64.4179 43.6288C65.5846 40.5599 67.6651 38.1165 70.2512 36.5137C71.8846 35.4972 73.7123 34.8131 75.6179 34.5199C76.6873 34.3635 77.7762 34.3244 78.8651 34.4026C80.1873 34.5004 81.5096 34.7936 82.8123 35.2822L91.5623 38.6052C91.9901 38.7811 92.4179 38.9571 92.8262 39.1721C93.6429 39.563 94.4012 40.0517 95.1012 40.5795C95.3345 40.7554 95.5679 40.9508 95.8012 41.1268C95.8984 41.2245 96.0151 41.3222 96.1123 41.42C96.2873 41.5763 96.4818 41.7523 96.6568 41.9282C96.9095 42.1823 97.1623 42.4755 97.3957 42.7492C97.4734 42.8469 97.5512 42.9446 97.629 43.0424C100.721 46.8931 101.732 52.1903 99.8845 57.1162Z" fill="url(#paint1_linear_1151_37740)"/>
<path d="M129.539 25.3328C129.228 26.017 128.897 26.6425 128.586 27.1898C128.508 27.3462 128.411 27.483 128.333 27.6198C127.905 28.3235 127.575 29.0663 127.322 29.8286C127.303 29.9068 127.264 30.0241 127.244 30.1023C127.225 30.1218 127.225 30.1609 127.225 30.1805C126.991 30.9624 126.855 31.7638 126.797 32.5848C126.408 38.4098 124.094 51.5648 111.183 53.07C110.794 53.1091 110.405 53.1482 109.997 53.1677C109.861 53.1872 109.725 53.1872 109.589 53.1872C109.491 53.1872 109.394 53.2068 109.297 53.2068C109.122 53.2068 108.928 53.2263 108.753 53.2263C108.266 53.2263 107.761 53.2068 107.236 53.1872C107.061 53.1677 106.905 53.1677 106.73 53.1482C106.283 53.1286 105.836 53.07 105.35 53.0113C105.078 52.9722 104.805 52.9722 104.553 53.0309C104.553 53.0309 104.553 53.0309 104.533 53.0309C104.339 53.07 104.125 53.1481 103.95 53.2459C103.853 53.3045 103.736 53.3632 103.639 53.4414C103.211 53.7541 102.88 54.2428 102.783 54.8292L100.955 67.1047V67.1242C100.955 67.1438 100.936 67.1633 100.936 67.2024L100.916 67.3197L100.255 71.835C99.8859 72.1673 99.5165 72.4801 99.1276 72.7928C97.1248 74.4152 94.8498 75.764 92.3609 76.7413C90.922 77.3082 89.4054 77.7382 87.8304 78.051C78.4387 79.8493 69.2415 76.2722 63.4276 69.4503L70.2332 51.7799C70.8359 50.3529 70.5054 49.3951 68.9693 49.2974C66.6359 49.1606 64.6137 48.6719 62.8637 47.9682C61.0943 47.245 59.597 46.2481 58.3526 45.0948C52.9276 40.0517 52.1498 31.8029 52.1304 27.5221C52.1304 25.7629 51.7026 24.0232 50.9054 22.4594C49.8359 20.3875 48.5915 17.2013 48.9609 14.3084C49.1165 13.0378 49.6026 11.8064 50.5554 10.7704C52.3832 8.75704 54.1137 8.48338 55.6693 9.10888C59.1304 10.4576 61.5804 16.1262 61.5804 16.1262L62.5137 15.2857C62.922 14.9339 63.4082 14.6798 63.9526 14.6602C66.0915 14.5625 64.7887 18.0614 63.6804 20.4266C62.8443 22.1858 62.5137 24.16 62.747 26.0952C63.1359 29.3791 64.2443 31.7442 65.7026 33.4448C67.0248 34.9695 68.6582 35.9664 70.3109 36.5723C73.5582 37.7647 76.9609 37.5692 78.5943 37.3542C79.2165 37.276 79.5859 37.1978 79.5859 37.1978C79.6054 37.2174 79.6248 37.2174 79.6443 37.2369C83.5915 39.954 87.0332 41.205 89.872 41.6741C89.8915 41.6741 89.8915 41.6741 89.8915 41.6741C91.447 41.9282 92.8276 41.9478 94.0137 41.85C94.8304 41.7718 95.5498 41.6545 96.172 41.4786C97.6498 41.1072 98.5248 40.599 98.7387 40.4817L98.7776 40.4622L98.7971 40.4426H98.8165C98.8554 40.4622 98.9915 40.4817 99.2054 40.5404C99.3415 40.5795 99.5165 40.6186 99.7109 40.6576C99.8859 40.6967 100.08 40.7358 100.275 40.7554C100.43 40.7749 100.605 40.814 100.78 40.8336C100.916 40.8531 101.053 40.8727 101.208 40.8922C101.344 40.9118 101.519 40.9313 101.675 40.9313C101.83 40.9509 102.005 40.9509 102.161 40.9704C102.278 40.9704 102.394 40.9899 102.511 40.9899C102.628 40.9899 102.744 41.0095 102.861 41.0095C103.289 41.029 103.716 41.029 104.164 41.0095C104.553 40.9899 104.941 40.9704 105.35 40.9313C105.544 40.9118 105.758 40.8922 105.953 40.8531C106.108 40.8336 106.264 40.814 106.439 40.7749C106.594 40.7554 106.75 40.7163 106.925 40.6967C110.872 39.8953 115.053 37.3542 116.336 30.4541C116.705 28.5385 116.491 26.5448 115.791 24.7464C115.286 23.4563 114.741 21.8339 114.664 20.6416C114.605 19.586 114.897 18.8628 115.889 18.9801C116.433 19.0387 116.9 19.3124 117.289 19.7033L118.164 20.6025C118.164 20.6025 119.389 18.2178 121.236 16.2631C121.333 16.1653 121.45 16.048 121.547 15.9503C121.644 15.8526 121.741 15.7548 121.839 15.6767C121.955 15.5789 122.053 15.4812 122.169 15.3639C122.286 15.2662 122.403 15.1684 122.5 15.0707C122.597 14.9925 122.694 14.9143 122.811 14.8361C122.811 14.8361 122.811 14.8361 122.83 14.8166C124.814 13.4092 127.205 13.0378 129.5 15.9699C130.258 16.9472 130.666 18.0223 130.803 19.1365C131.036 21.2475 130.394 23.4563 129.539 25.3328Z" fill="url(#paint2_linear_1151_37740)"/>
<path opacity="0.36" d="M107.16 40.6967L94.5208 43.8438L93.9375 44.0002L98.7792 40.4231L98.7986 40.4035H98.818C99.0319 40.4622 102.862 41.4982 106.926 40.6772L107.16 40.6967Z" fill="#541E5C"/>
<g opacity="0.8">
<g opacity="0.58">
<path opacity="0.58" d="M89.6969 41.5959L82.1719 78.481" stroke="#541E5C" stroke-width="0.8544" stroke-miterlimit="10"/>
<path opacity="0.58" d="M103.971 40.99C103.971 40.99 102.007 48.3396 105.352 52.9918" stroke="#541E5C" stroke-width="0.8255" stroke-miterlimit="10"/>
<path opacity="0.58" d="M74.0458 37.3738C74.0458 37.3738 74.143 45.7203 70.3125 49.9034" stroke="#541E5C" stroke-width="0.8255" stroke-miterlimit="10"/>
<path opacity="0.58" d="M51.6836 24.4532C51.6836 24.4532 57.6919 27.7176 62.7864 23.1631" stroke="#541E5C" stroke-width="0.8255" stroke-miterlimit="10"/>
<path opacity="0.58" d="M116.395 27.2094C116.395 27.2094 120.536 31.9397 127.245 30.1218" stroke="#541E5C" stroke-width="0.8255" stroke-miterlimit="10"/>
<path opacity="0.58" d="M65 33C65 33 63.6585 39.561 56 43" stroke="#541E5C" stroke-width="2" stroke-miterlimit="10"/>
<path opacity="0.58" d="M111.668 37.667C111.668 37.667 113.554 46.1504 122.071 48.926" stroke="#541E5C" stroke-width="5.0295" stroke-miterlimit="10"/>
<path opacity="0.58" d="M61.5406 16.1067C61.5406 16.1067 60.7045 19.6447 64.3212 18.8237" stroke="#541E5C" stroke-width="0.8255" stroke-miterlimit="10"/>
<path opacity="0.58" d="M118.126 20.5829C118.126 20.5829 119.098 23.7105 115.754 24.7269" stroke="#541E5C" stroke-width="0.8255" stroke-miterlimit="10"/>
</g>
</g>
<path d="M99.3202 41.205V41.2245C99.2424 41.5959 98.9896 41.8891 98.6785 42.0846C98.0757 42.456 97.473 42.7687 96.8702 43.0228C95.8396 43.4919 94.848 43.8047 93.8952 44.0002C87.0313 45.4271 82.1119 40.6772 80.2841 39.0939C79.3896 38.312 79.3119 36.9633 80.1869 36.1423C80.323 36.025 80.4007 35.9664 80.4007 35.9664C84.5619 40.2276 89.6174 40.9508 93.4091 40.7554C94.6146 40.6967 95.6841 40.5404 96.5591 40.3644C97.3174 40.2081 97.9591 40.0712 98.3869 39.9539C98.8924 39.8171 99.4174 40.6967 99.3202 41.205Z" fill="url(#paint3_linear_1151_37740)"/>
<path opacity="0.36" d="M99.3209 41.205V41.2245C99.2431 41.5959 98.9904 41.8891 98.6793 42.0846C98.0765 42.456 97.4737 42.7687 96.8709 43.0228C95.8404 43.492 94.8487 43.8047 93.8959 44.0002C96.0737 42.2996 93.4098 41.5764 93.4098 41.5764L93.332 40.7749C93.3709 40.7749 93.4098 40.7554 93.4293 40.7554C94.6348 40.6968 95.7043 40.5404 96.5793 40.3645C97.3376 40.2081 97.9793 40.0712 98.407 39.954C98.8931 39.8171 99.4181 40.6967 99.3209 41.205Z" fill="#541E5C"/>
<path d="M91.2707 41.6741C102.718 41.6741 111.999 32.345 111.999 20.837C111.999 9.32906 102.718 0 91.2707 0C79.8231 0 70.543 9.32906 70.543 20.837C70.543 32.345 79.8231 41.6741 91.2707 41.6741Z" fill="url(#paint4_linear_1151_37740)"/>
<path d="M91.2737 39.2503C101.39 39.2503 109.59 31.0064 109.59 20.8371C109.59 10.6677 101.39 2.42383 91.2737 2.42383C81.1577 2.42383 72.957 10.6677 72.957 20.8371C72.957 31.0064 81.1577 39.2503 91.2737 39.2503Z" fill="url(#paint5_linear_1151_37740)"/>
<path d="M78.0488 52.9918L75.8516 64.1336L95.3738 67.7302L97.0849 56.4321L78.0488 52.9918Z" fill="url(#paint6_linear_1151_37740)"/>
<path opacity="0.4" d="M83.2399 62.6871C84.9689 62.6871 86.3705 61.2781 86.3705 59.54C86.3705 57.8019 84.9689 56.3929 83.2399 56.3929C81.511 56.3929 80.1094 57.8019 80.1094 59.54C80.1094 61.2781 81.511 62.6871 83.2399 62.6871Z" fill="#541E5C"/>
<path opacity="0.36" d="M130.783 19.1365C131.074 22.0099 129.733 25.0787 128.508 27.1898C128.411 27.3462 128.333 27.483 128.255 27.6394C131.677 15.7548 123.763 15.7157 121.508 15.9308C121.819 15.618 122.13 15.3248 122.48 15.0707C122.577 14.9925 122.694 14.9143 122.791 14.8361C122.791 14.8361 122.791 14.8361 122.811 14.8166C124.794 13.4092 127.166 13.0378 129.48 15.9503C130.238 16.9472 130.627 18.0223 130.783 19.1365Z" fill="#541E5C"/>
<path opacity="0.33" d="M118.124 20.5829C115.791 18.9214 114.624 20.622 114.624 20.622C114.566 19.5665 114.858 18.8433 115.849 18.9605C116.374 19.0192 116.88 19.2928 117.249 19.6838L118.124 20.5829Z" fill="#541E5C"/>
<path opacity="0.36" d="M127.242 30.1219C127.242 30.1414 127.223 30.1805 127.223 30.2C126.951 31.0406 126.854 31.6856 126.795 32.6043C126.406 38.4293 124.092 51.5844 111.181 53.0895C109.431 53.285 107.506 53.285 105.348 53.0113C105.076 52.9722 104.804 52.9722 104.551 53.0113C125.162 47.5186 122.712 30.4346 122.712 30.4346L127.242 30.1219Z" fill="#541E5C"/>
<path opacity="0.36" d="M100.918 67.3001L100.257 71.8155C99.8872 72.1478 99.5178 72.4605 99.1289 72.7733C100.354 70.1149 100.801 67.9843 100.918 67.3001Z" fill="#541E5C"/>
<path opacity="0.28" d="M91.4648 55.4156C91.4648 55.4156 94.226 62.5698 89.7148 66.6942L95.3732 67.7302L97.0843 56.432L91.4648 55.4156Z" fill="#541E5C"/>
<path opacity="0.4" d="M95.3855 59.541L88.6328 58.3045L88.4586 59.266L95.2113 60.5025L95.3855 59.541Z" fill="#541E5C"/>
<path opacity="0.4" d="M95.0339 61.4561L88.2812 60.2196L88.107 61.1811L94.8597 62.4176L95.0339 61.4561Z" fill="#541E5C"/>
<path opacity="0.4" d="M94.6668 63.4284L87.9141 62.1919L87.7398 63.1534L94.4925 64.3899L94.6668 63.4284Z" fill="#541E5C"/>
<path opacity="0.31" d="M79.0816 23.0654C81.5515 23.0654 83.5538 21.0526 83.5538 18.5696C83.5538 16.0866 81.5515 14.0738 79.0816 14.0738C76.6117 14.0738 74.6094 16.0866 74.6094 18.5696C74.6094 21.0526 76.6117 23.0654 79.0816 23.0654Z" fill="#96C0FF"/>
<path opacity="0.31" d="M77.2714 27.0921C78.0017 27.0921 78.5937 26.497 78.5937 25.7629C78.5937 25.0288 78.0017 24.4337 77.2714 24.4337C76.5412 24.4337 75.9492 25.0288 75.9492 25.7629C75.9492 26.497 76.5412 27.0921 77.2714 27.0921Z" fill="#96C0FF"/>
<path d="M136.385 64.8177C136.229 66.3423 135.762 67.867 135.471 69.333C146.982 78.0119 150.735 84.5601 148.79 88.8213C146.846 93.063 137.26 93.2194 123.415 90.0528C110.31 87.0621 93.3735 81.0807 75.5429 72.7342C56.7985 63.9772 40.6791 54.3405 29.8874 45.8962C19.5624 37.8038 14.1179 30.8451 15.9652 26.7989C17.8318 22.7331 26.9124 22.6158 39.8624 25.3915C40.7179 24.16 41.4568 22.9286 42.3124 21.8144C20.9235 16.2435 3.48183 14.367 0.467946 20.9739C-2.60428 27.6785 10.0346 41.5764 28.6235 54.6337C40.5624 63.0194 55.8263 71.7959 72.9763 79.8102C88.8429 87.2185 104.165 92.9457 117.485 96.7379C141.032 103.423 164.346 105.573 167.574 98.5557C170.743 91.6165 156.14 78.3833 136.385 64.8177Z" fill="url(#paint7_linear_1151_37740)"/>
</g>
<defs>
<linearGradient id="paint0_linear_1151_37740" x1="31.7708" y1="53.7029" x2="137.82" y2="53.7029" gradientUnits="userSpaceOnUse">
<stop stop-color="#8635FF"/>
<stop offset="1" stop-color="#355BE9"/>
</linearGradient>
<linearGradient id="paint1_linear_1151_37740" x1="59.5802" y1="65.0508" x2="101.826" y2="60.8068" gradientUnits="userSpaceOnUse">
<stop stop-color="white"/>
<stop offset="0.946715" stop-color="#D05FDC"/>
</linearGradient>
<linearGradient id="paint2_linear_1151_37740" x1="51.4125" y1="57.281" x2="132.417" y2="47.3536" gradientUnits="userSpaceOnUse">
<stop stop-color="#F5FAFF"/>
<stop offset="0.946715" stop-color="#D05FDC"/>
</linearGradient>
<linearGradient id="paint3_linear_1151_37740" x1="80.1774" y1="41.7365" x2="98.8523" y2="37.101" gradientUnits="userSpaceOnUse">
<stop stop-color="#E8C0F3"/>
<stop offset="0.946715" stop-color="#D05FDC"/>
</linearGradient>
<linearGradient id="paint4_linear_1151_37740" x1="72.3705" y1="27.0795" x2="111.801" y2="14.1827" gradientUnits="userSpaceOnUse">
<stop stop-color="#CEE4FF"/>
<stop offset="0.0608" stop-color="#CECCFA"/>
<stop offset="0.1401" stop-color="#CFB5F4"/>
<stop offset="0.2136" stop-color="#CFA6F1"/>
<stop offset="0.2752" stop-color="#CFA1F0"/>
<stop offset="0.4415" stop-color="#CF98ED"/>
<stop offset="0.7126" stop-color="#D080E6"/>
<stop offset="1" stop-color="#D05FDC"/>
</linearGradient>
<linearGradient id="paint5_linear_1151_37740" x1="107.051" y1="19.0325" x2="70.6369" y2="23.2138" gradientUnits="userSpaceOnUse">
<stop offset="0.2011" stop-color="#3C14AC"/>
<stop offset="0.4315" stop-color="#3514B8"/>
<stop offset="0.8495" stop-color="#2215D9"/>
<stop offset="1" stop-color="#1A15E6"/>
</linearGradient>
<linearGradient id="paint6_linear_1151_37740" x1="75.569" y1="61.6462" x2="97.4058" y2="59.1337" gradientUnits="userSpaceOnUse">
<stop offset="0.327" stop-color="#CF84E7"/>
<stop offset="1" stop-color="#C072E6"/>
</linearGradient>
<linearGradient id="paint7_linear_1151_37740" x1="0.00127909" y1="59.8346" x2="168.002" y2="59.8346" gradientUnits="userSpaceOnUse">
<stop stop-color="white"/>
<stop offset="1" stop-color="#805FFF"/>
</linearGradient>
<clipPath id="clip0_1151_37740">
<rect width="168" height="107" fill="white"/>
</clipPath>
</defs>
</svg>
