<svg width="24" height="24" viewBox="0 0 24 24" fill="none" xmlns="http://www.w3.org/2000/svg">
<path d="M23.6404 14.9041C22.0386 21.3322 15.526 25.2445 9.09604 23.6403C2.66606 22.0361 -1.24447 15.5268 0.359844 9.09807C1.96416 2.66938 8.47347 -1.24477 14.902 0.359674C21.3306 1.96412 25.2447 8.47381 23.6404 14.9041Z" fill="#393939"/>
<path fill-rule="evenodd" clip-rule="evenodd" d="M12.2346 8.2991L9.48083 11.0111L7.87848 9.43301L12.2346 5.1427L16.5922 9.43444L14.9898 11.0125L12.2346 8.2991ZM8.34921 12.1251L6.74687 10.5472L5.14453 12.1252L6.74687 13.7034L8.34921 12.1251ZM12.2346 15.9518L9.48083 13.2398L7.87613 14.8158L7.87837 14.8179L12.2346 19.1082L16.5922 14.8165L16.593 14.8156L14.9897 13.2384L12.2346 15.9518ZM17.7226 13.704L19.3248 12.1259L17.7225 10.5478L16.1201 12.126L17.7226 13.704ZM13.8622 12.1244H13.8629L12.237 10.5231L10.6124 12.1276L12.237 13.7275L13.8629 12.1261L13.8637 12.1252L13.8622 12.1244Z" fill="#F4BB2B"/>
</svg>
